<svg width="626" height="85" viewBox="0 0 626 85" fill="none" xmlns="http://www.w3.org/2000/svg">
<g filter="url(#filter0_d_6_38)">
<mask id="path-1-outside-1_6_38" maskUnits="userSpaceOnUse" x="-1.49005" y="-2.42603" width="630" height="83" fill="black">
<rect fill="white" x="-1.49005" y="-2.42603" width="630" height="83"/>
<path d="M31.405 56.404L15.6799 59.124C15.0849 64.224 16.4449 74.424 8.79495 74.424C0.974949 74.424 1.31495 63.969 1.31495 58.529C1.31495 43.654 9.30495 7.01897 29.62 7.01897C48.0649 7.01897 48.66 32.774 48.66 45.694C48.66 52.324 48.235 74.084 38.715 74.084C29.79 74.084 31.405 62.354 31.405 56.404ZM32.765 44.844C33.1049 41.954 33.36 39.064 33.36 36.089C33.36 32.859 32.935 22.659 29.7049 21.214C23.585 25.124 18.4849 37.874 18.3149 44.929C18.8249 45.014 19.3349 45.184 19.845 45.184C24.18 45.184 28.43 44.929 32.765 44.844ZM99.721 34.984C104.651 40.509 108.306 43.994 108.306 51.899C108.306 67.199 93.941 74.594 80.256 74.594C76.261 74.594 72.266 74.424 68.271 74.339C57.561 74.084 55.606 48.669 55.606 40.849C55.606 33.284 58.751 15.264 63.766 9.65397C68.016 4.89397 76.941 2.76897 83.146 2.76897C92.921 2.76897 106.351 7.52897 106.351 19.259C106.351 25.464 103.121 30.139 99.721 34.984ZM72.521 49.434V58.359C73.881 58.529 75.156 58.614 76.516 58.614C81.701 58.614 91.816 57.254 91.816 50.539C91.816 46.544 87.991 45.184 84.506 45.184C80.596 45.184 75.666 47.139 72.521 49.434ZM72.436 29.289L72.521 32.689C78.046 30.904 91.816 28.014 91.816 20.279C91.816 17.644 86.546 17.219 84.591 17.219C80.596 17.219 76.771 18.579 73.031 19.939C72.691 23.084 72.436 26.144 72.436 29.289ZM177.45 41.699C177.45 59.634 166.485 75.019 146.85 75.019C125.94 75.019 114.465 61.589 114.465 42.464C114.465 30.224 119.905 20.194 130.87 13.649C136.14 10.589 144.895 9.90897 151.1 9.90897C160.11 9.90897 167.42 14.244 172.69 20.874C176.94 26.144 177.45 35.239 177.45 41.699ZM151.95 26.824C143.28 26.824 136.48 28.779 133.675 37.194C132.74 39.914 131.72 42.719 131.72 45.609C131.72 55.724 136.48 60.484 147.19 60.484C158.92 60.484 161.98 56.489 163.765 46.289C165.38 36.089 165.465 26.824 151.95 26.824ZM238.496 44.334C238.496 65.924 229.656 73.744 208.151 73.744C195.316 73.744 186.391 60.484 185.371 48.839C185.116 45.779 184.946 42.719 184.946 39.659C184.946 32.604 185.711 8.12397 195.741 8.12397C199.906 8.12397 203.986 9.82397 204.836 14.754C207.216 28.524 199.311 56.404 212.146 56.404C220.646 56.404 223.281 56.999 223.281 47.734C223.281 38.724 220.816 29.714 220.816 20.874C220.816 16.029 220.901 8.71897 229.231 8.71897C241.811 8.71897 238.496 37.109 238.496 44.334ZM258.806 24.359C253.961 23.679 244.356 22.999 244.356 16.709C244.356 14.669 245.546 12.884 247.331 11.779C250.476 9.82397 273.171 8.46397 278.101 8.46397C283.031 8.46397 291.616 8.88897 291.616 15.179C291.616 21.979 279.801 22.574 274.446 23.424C274.871 30.819 275.636 38.044 275.636 45.269C275.636 52.324 275.806 74.424 265.181 74.424C255.916 74.424 255.661 59.719 255.661 53.514C255.661 43.824 258.126 34.049 258.806 24.359ZM345.863 70.854L335.833 70.939C330.988 70.939 324.783 69.749 324.783 63.714C324.783 55.214 339.913 55.214 345.523 55.214C346.458 53.429 346.118 51.729 345.948 49.944C343.228 49.944 340.593 50.284 337.873 50.284C329.203 50.284 322.063 43.144 322.063 34.389C322.063 20.619 337.193 15.519 348.328 13.479C348.923 9.56897 349.093 0.558972 354.533 0.558972C357.508 0.558972 359.293 2.76897 359.293 5.57397C359.293 7.78397 358.698 10.079 358.698 12.289V14.074C363.033 15.604 370.258 18.069 370.258 23.934C370.258 31.414 362.863 30.564 357.678 30.564C357.508 32.774 357.338 34.984 357.338 37.194C367.453 37.789 378.248 44.249 378.248 55.809C378.248 69.239 365.753 70.174 355.978 71.364C355.723 74.594 355.893 78.419 351.473 78.419C347.648 78.419 346.883 73.744 345.863 70.854ZM346.373 38.809C346.203 36.089 347.053 33.454 346.288 30.904C343.908 31.244 335.238 33.369 335.238 36.429C335.238 38.384 337.278 39.829 339.063 39.829C341.358 39.829 344.078 39.149 346.373 38.809ZM356.828 49.604C356.658 51.559 356.148 53.429 356.998 55.214L359.208 55.299C365.753 55.299 362.183 47.564 356.828 49.604ZM390.326 24.444C388.286 22.659 386.416 21.299 386.416 18.324C386.416 9.56897 409.536 8.03897 415.911 8.03897C432.401 8.03897 445.491 15.519 445.491 33.709C445.491 38.129 444.046 42.464 441.581 46.119C433.336 58.359 418.036 57.169 405.031 57.169C403.331 62.184 405.966 74.169 397.636 74.169C388.626 74.169 388.116 52.834 388.116 46.374C388.116 38.979 388.966 31.669 390.326 24.444ZM404.691 39.149C407.751 39.829 410.896 39.999 414.041 39.999C418.886 39.999 427.811 40.594 427.811 33.539C427.811 21.809 411.831 24.444 404.096 25.294C404.266 29.884 404.436 34.559 404.691 39.149ZM467.359 22.489C462.769 21.894 453.844 21.894 453.844 15.519C453.844 6.08397 470.674 7.27397 476.964 7.27397C481.724 7.27397 493.114 5.48897 493.114 12.884C493.114 18.749 484.699 20.449 480.279 21.384C480.449 26.484 480.874 31.499 480.874 36.599C480.874 39.914 480.789 43.229 480.704 46.544C480.619 50.794 479.429 54.959 479.429 59.209C483.934 60.314 493.709 62.014 493.709 68.049C493.709 76.124 480.194 73.999 474.839 73.999C468.464 73.999 451.804 76.039 451.804 66.094C451.804 58.444 461.239 58.444 466.679 58.104C467.274 53.089 466.679 48.159 466.679 43.144C466.679 36.259 467.189 29.374 467.359 22.489ZM500.566 23.339C500.566 20.959 498.951 19.259 498.951 16.964C498.951 7.69897 519.096 7.10397 525.386 7.10397C544.426 7.10397 555.816 21.469 555.816 39.999C555.816 60.144 538.306 74.934 518.161 74.934C515.186 74.934 512.126 74.169 509.406 73.064C505.921 71.704 503.711 69.409 503.626 65.669C503.371 50.114 500.566 36.854 500.566 23.339ZM515.781 22.234C516.971 33.964 518.161 45.864 517.821 57.679L518.246 58.614C530.401 57.509 538.816 56.574 538.816 42.124C538.816 26.909 530.741 18.834 515.781 22.234ZM625.858 41.699C625.858 59.634 614.893 75.019 595.258 75.019C574.348 75.019 562.873 61.589 562.873 42.464C562.873 30.224 568.313 20.194 579.278 13.649C584.548 10.589 593.303 9.90897 599.508 9.90897C608.518 9.90897 615.828 14.244 621.098 20.874C625.348 26.144 625.858 35.239 625.858 41.699ZM600.358 26.824C591.688 26.824 584.888 28.779 582.083 37.194C581.148 39.914 580.128 42.719 580.128 45.609C580.128 55.724 584.888 60.484 595.598 60.484C607.328 60.484 610.388 56.489 612.173 46.289C613.788 36.089 613.873 26.824 600.358 26.824Z"/>
</mask>
<path d="M31.405 56.404L15.6799 59.124C15.0849 64.224 16.4449 74.424 8.79495 74.424C0.974949 74.424 1.31495 63.969 1.31495 58.529C1.31495 43.654 9.30495 7.01897 29.62 7.01897C48.0649 7.01897 48.66 32.774 48.66 45.694C48.66 52.324 48.235 74.084 38.715 74.084C29.79 74.084 31.405 62.354 31.405 56.404ZM32.765 44.844C33.1049 41.954 33.36 39.064 33.36 36.089C33.36 32.859 32.935 22.659 29.7049 21.214C23.585 25.124 18.4849 37.874 18.3149 44.929C18.8249 45.014 19.3349 45.184 19.845 45.184C24.18 45.184 28.43 44.929 32.765 44.844ZM99.721 34.984C104.651 40.509 108.306 43.994 108.306 51.899C108.306 67.199 93.941 74.594 80.256 74.594C76.261 74.594 72.266 74.424 68.271 74.339C57.561 74.084 55.606 48.669 55.606 40.849C55.606 33.284 58.751 15.264 63.766 9.65397C68.016 4.89397 76.941 2.76897 83.146 2.76897C92.921 2.76897 106.351 7.52897 106.351 19.259C106.351 25.464 103.121 30.139 99.721 34.984ZM72.521 49.434V58.359C73.881 58.529 75.156 58.614 76.516 58.614C81.701 58.614 91.816 57.254 91.816 50.539C91.816 46.544 87.991 45.184 84.506 45.184C80.596 45.184 75.666 47.139 72.521 49.434ZM72.436 29.289L72.521 32.689C78.046 30.904 91.816 28.014 91.816 20.279C91.816 17.644 86.546 17.219 84.591 17.219C80.596 17.219 76.771 18.579 73.031 19.939C72.691 23.084 72.436 26.144 72.436 29.289ZM177.45 41.699C177.45 59.634 166.485 75.019 146.85 75.019C125.94 75.019 114.465 61.589 114.465 42.464C114.465 30.224 119.905 20.194 130.87 13.649C136.14 10.589 144.895 9.90897 151.1 9.90897C160.11 9.90897 167.42 14.244 172.69 20.874C176.94 26.144 177.45 35.239 177.45 41.699ZM151.95 26.824C143.28 26.824 136.48 28.779 133.675 37.194C132.74 39.914 131.72 42.719 131.72 45.609C131.72 55.724 136.48 60.484 147.19 60.484C158.92 60.484 161.98 56.489 163.765 46.289C165.38 36.089 165.465 26.824 151.95 26.824ZM238.496 44.334C238.496 65.924 229.656 73.744 208.151 73.744C195.316 73.744 186.391 60.484 185.371 48.839C185.116 45.779 184.946 42.719 184.946 39.659C184.946 32.604 185.711 8.12397 195.741 8.12397C199.906 8.12397 203.986 9.82397 204.836 14.754C207.216 28.524 199.311 56.404 212.146 56.404C220.646 56.404 223.281 56.999 223.281 47.734C223.281 38.724 220.816 29.714 220.816 20.874C220.816 16.029 220.901 8.71897 229.231 8.71897C241.811 8.71897 238.496 37.109 238.496 44.334ZM258.806 24.359C253.961 23.679 244.356 22.999 244.356 16.709C244.356 14.669 245.546 12.884 247.331 11.779C250.476 9.82397 273.171 8.46397 278.101 8.46397C283.031 8.46397 291.616 8.88897 291.616 15.179C291.616 21.979 279.801 22.574 274.446 23.424C274.871 30.819 275.636 38.044 275.636 45.269C275.636 52.324 275.806 74.424 265.181 74.424C255.916 74.424 255.661 59.719 255.661 53.514C255.661 43.824 258.126 34.049 258.806 24.359ZM345.863 70.854L335.833 70.939C330.988 70.939 324.783 69.749 324.783 63.714C324.783 55.214 339.913 55.214 345.523 55.214C346.458 53.429 346.118 51.729 345.948 49.944C343.228 49.944 340.593 50.284 337.873 50.284C329.203 50.284 322.063 43.144 322.063 34.389C322.063 20.619 337.193 15.519 348.328 13.479C348.923 9.56897 349.093 0.558972 354.533 0.558972C357.508 0.558972 359.293 2.76897 359.293 5.57397C359.293 7.78397 358.698 10.079 358.698 12.289V14.074C363.033 15.604 370.258 18.069 370.258 23.934C370.258 31.414 362.863 30.564 357.678 30.564C357.508 32.774 357.338 34.984 357.338 37.194C367.453 37.789 378.248 44.249 378.248 55.809C378.248 69.239 365.753 70.174 355.978 71.364C355.723 74.594 355.893 78.419 351.473 78.419C347.648 78.419 346.883 73.744 345.863 70.854ZM346.373 38.809C346.203 36.089 347.053 33.454 346.288 30.904C343.908 31.244 335.238 33.369 335.238 36.429C335.238 38.384 337.278 39.829 339.063 39.829C341.358 39.829 344.078 39.149 346.373 38.809ZM356.828 49.604C356.658 51.559 356.148 53.429 356.998 55.214L359.208 55.299C365.753 55.299 362.183 47.564 356.828 49.604ZM390.326 24.444C388.286 22.659 386.416 21.299 386.416 18.324C386.416 9.56897 409.536 8.03897 415.911 8.03897C432.401 8.03897 445.491 15.519 445.491 33.709C445.491 38.129 444.046 42.464 441.581 46.119C433.336 58.359 418.036 57.169 405.031 57.169C403.331 62.184 405.966 74.169 397.636 74.169C388.626 74.169 388.116 52.834 388.116 46.374C388.116 38.979 388.966 31.669 390.326 24.444ZM404.691 39.149C407.751 39.829 410.896 39.999 414.041 39.999C418.886 39.999 427.811 40.594 427.811 33.539C427.811 21.809 411.831 24.444 404.096 25.294C404.266 29.884 404.436 34.559 404.691 39.149ZM467.359 22.489C462.769 21.894 453.844 21.894 453.844 15.519C453.844 6.08397 470.674 7.27397 476.964 7.27397C481.724 7.27397 493.114 5.48897 493.114 12.884C493.114 18.749 484.699 20.449 480.279 21.384C480.449 26.484 480.874 31.499 480.874 36.599C480.874 39.914 480.789 43.229 480.704 46.544C480.619 50.794 479.429 54.959 479.429 59.209C483.934 60.314 493.709 62.014 493.709 68.049C493.709 76.124 480.194 73.999 474.839 73.999C468.464 73.999 451.804 76.039 451.804 66.094C451.804 58.444 461.239 58.444 466.679 58.104C467.274 53.089 466.679 48.159 466.679 43.144C466.679 36.259 467.189 29.374 467.359 22.489ZM500.566 23.339C500.566 20.959 498.951 19.259 498.951 16.964C498.951 7.69897 519.096 7.10397 525.386 7.10397C544.426 7.10397 555.816 21.469 555.816 39.999C555.816 60.144 538.306 74.934 518.161 74.934C515.186 74.934 512.126 74.169 509.406 73.064C505.921 71.704 503.711 69.409 503.626 65.669C503.371 50.114 500.566 36.854 500.566 23.339ZM515.781 22.234C516.971 33.964 518.161 45.864 517.821 57.679L518.246 58.614C530.401 57.509 538.816 56.574 538.816 42.124C538.816 26.909 530.741 18.834 515.781 22.234ZM625.858 41.699C625.858 59.634 614.893 75.019 595.258 75.019C574.348 75.019 562.873 61.589 562.873 42.464C562.873 30.224 568.313 20.194 579.278 13.649C584.548 10.589 593.303 9.90897 599.508 9.90897C608.518 9.90897 615.828 14.244 621.098 20.874C625.348 26.144 625.858 35.239 625.858 41.699ZM600.358 26.824C591.688 26.824 584.888 28.779 582.083 37.194C581.148 39.914 580.128 42.719 580.128 45.609C580.128 55.724 584.888 60.484 595.598 60.484C607.328 60.484 610.388 56.489 612.173 46.289C613.788 36.089 613.873 26.824 600.358 26.824Z" fill="#9C6419"/>
<path d="M31.405 56.404H33.405V54.0283L31.0641 54.4332L31.405 56.404ZM15.6799 59.124L15.3391 57.1532L13.8666 57.4079L13.6934 58.8922L15.6799 59.124ZM32.765 44.844L32.8042 46.8436L34.5475 46.8094L34.7513 45.0777L32.765 44.844ZM29.7049 21.214L30.5217 19.3883L29.5371 18.9479L28.6282 19.5286L29.7049 21.214ZM18.3149 44.929L16.3155 44.8808L16.2737 46.6164L17.9862 46.9018L18.3149 44.929ZM31.0641 54.4332L15.3391 57.1532L16.0208 61.0947L31.7458 58.3747L31.0641 54.4332ZM13.6934 58.8922C13.5337 60.2612 13.5024 61.9969 13.431 63.5758C13.356 65.2338 13.2358 66.8443 12.9284 68.263C12.6177 69.697 12.1564 70.7323 11.5457 71.393C11.0034 71.9796 10.2062 72.424 8.79495 72.424V76.424C11.2087 76.424 13.1102 75.5933 14.4831 74.1081C15.7875 72.6969 16.4578 70.8634 16.8377 69.11C17.221 67.3411 17.3505 65.4454 17.4269 63.7565C17.5069 61.9886 17.5287 60.5368 17.6665 59.3557L13.6934 58.8922ZM8.79495 72.424C7.33865 72.424 6.41117 71.9593 5.73959 71.2894C5.01315 70.5648 4.44976 69.4582 4.05284 67.9934C3.24603 65.0159 3.31495 61.3545 3.31495 58.529H-0.685051C-0.685051 61.1434 -0.786128 65.4296 0.192062 69.0395C0.687637 70.8685 1.5055 72.7157 2.91469 74.1214C4.37873 75.5818 6.34125 76.424 8.79495 76.424V72.424ZM3.31495 58.529C3.31495 51.3399 5.26604 38.7223 9.69868 27.9573C11.9128 22.5803 14.6947 17.793 18.0529 14.3779C21.3854 10.989 25.2079 9.01897 29.62 9.01897V5.01897C23.8745 5.01897 19.0802 7.62831 15.2009 11.5733C11.3474 15.4921 8.32276 20.7933 5.99997 26.4343C1.35886 37.7056 -0.685051 50.8431 -0.685051 58.529H3.31495ZM29.62 9.01897C33.7077 9.01897 36.6977 10.4232 38.9712 12.6682C41.2969 14.9647 42.9698 18.2425 44.1437 22.0945C46.4998 29.8257 46.66 39.2113 46.66 45.694H50.66C50.66 39.2567 50.5226 29.3047 47.97 20.9284C46.6895 16.7267 44.7552 12.7582 41.7817 9.82196C38.7559 6.83409 34.7547 5.01897 29.62 5.01897V9.01897ZM46.66 45.694C46.66 48.9958 46.5506 55.9169 45.2989 61.9702C44.6699 65.0122 43.7859 67.6592 42.603 69.4985C41.4459 71.2977 40.182 72.084 38.715 72.084V76.084C42.0079 76.084 44.3671 74.1503 45.9673 71.6622C47.5415 69.2144 48.5488 66.007 49.216 62.7802C50.5568 56.2961 50.66 49.0221 50.66 45.694H46.66ZM38.715 72.084C36.9733 72.084 35.9569 71.5362 35.2754 70.7998C34.5291 69.9933 33.998 68.7549 33.6766 67.095C33.0133 63.6694 33.405 59.6682 33.405 56.404H29.405C29.405 59.0897 28.9891 63.9286 29.7496 67.8554C30.14 69.8718 30.8786 71.9377 32.3396 73.5166C33.8655 75.1655 35.9941 76.084 38.715 76.084V72.084ZM34.7513 45.0777C35.0954 42.1527 35.36 39.1756 35.36 36.089H31.36C31.36 38.9523 31.1145 41.7553 30.7786 44.6103L34.7513 45.0777ZM35.36 36.089C35.36 34.419 35.2518 30.9431 34.7177 27.6609C34.4519 26.027 34.0662 24.3478 33.4903 22.9375C32.9522 21.6198 32.0671 20.0797 30.5217 19.3883L28.8882 23.0396C28.9578 23.0708 29.3371 23.3475 29.7871 24.4497C30.1994 25.4592 30.5255 26.8028 30.7697 28.3033C31.2556 31.2898 31.36 34.529 31.36 36.089H35.36ZM28.6282 19.5286C25.0667 21.8039 22.0625 26.4107 19.9564 31.068C17.8279 35.7749 16.4091 40.9975 16.3155 44.8808L20.3144 44.9772C20.3908 41.8054 21.607 37.1255 23.601 32.7162C25.6174 28.2572 28.2232 24.534 30.7817 22.8994L28.6282 19.5286ZM17.9862 46.9018C18.1947 46.9365 18.3061 46.9701 18.672 47.0463C18.9645 47.1072 19.3806 47.184 19.845 47.184V43.184C19.7993 43.184 19.7053 43.1757 19.4879 43.1304C19.3438 43.1004 18.9452 43.0064 18.6437 42.9562L17.9862 46.9018ZM19.845 47.184C24.1753 47.184 28.6062 46.9259 32.8042 46.8436L32.7257 42.8444C28.2537 42.932 24.1846 43.184 19.845 43.184V47.184ZM99.721 34.984L98.0839 33.8351L97.1733 35.1327L98.2288 36.3155L99.721 34.984ZM68.271 74.339L68.2234 76.3384L68.2285 76.3385L68.271 74.339ZM63.766 9.65397L65.2571 10.9869L65.2579 10.986L63.766 9.65397ZM72.521 49.434L71.3421 47.8184L70.521 48.4175V49.434H72.521ZM72.521 58.359H70.521V60.1245L72.273 60.3435L72.521 58.359ZM72.436 29.289H70.436V29.314L70.4367 29.339L72.436 29.289ZM72.521 32.689L70.5217 32.739L70.5886 35.4151L73.1359 34.5921L72.521 32.689ZM73.031 19.939L72.3476 18.0594L71.1766 18.4852L71.0426 19.724L73.031 19.939ZM98.2288 36.3155C100.771 39.1644 102.741 41.2345 104.147 43.578C105.489 45.8133 106.306 48.3045 106.306 51.899H110.306C110.306 47.5884 109.296 44.3846 107.577 41.52C105.923 38.7635 103.601 36.3286 101.213 33.6524L98.2288 36.3155ZM106.306 51.899C106.306 58.828 103.091 63.9224 98.2557 67.3528C93.359 70.8266 86.7744 72.594 80.256 72.594V76.594C87.4227 76.594 94.8631 74.6639 100.57 70.6152C106.338 66.5231 110.306 60.2699 110.306 51.899H106.306ZM80.256 72.594C76.2859 72.594 72.3688 72.4257 68.3136 72.3394L68.2285 76.3385C72.1633 76.4222 76.2362 76.594 80.256 76.594V72.594ZM68.3186 72.3395C66.5505 72.2974 64.9378 71.2445 63.4393 68.9909C61.9347 66.7281 60.7542 63.5384 59.8634 59.9491C58.0877 52.7945 57.606 44.6591 57.606 40.849H53.606C53.606 44.8588 54.1019 53.341 55.9812 60.9126C56.9178 64.6865 58.2343 68.3871 60.1084 71.2057C61.9887 74.0334 64.6366 76.253 68.2234 76.3384L68.3186 72.3395ZM57.606 40.849C57.606 37.261 58.3638 31.0211 59.7547 24.9661C60.4474 21.9505 61.2856 19.0321 62.2417 16.5499C63.2126 14.0291 64.2451 12.119 65.2571 10.9869L62.275 8.32104C60.7795 9.99392 59.5382 12.4401 58.509 15.1122C57.4649 17.823 56.5766 20.9344 55.8562 24.0706C54.4208 30.3193 53.606 36.8719 53.606 40.849H57.606ZM65.2579 10.986C67.0475 8.98165 69.9601 7.4048 73.3296 6.33225C76.6684 5.26943 80.2461 4.76897 83.146 4.76897V0.768969C79.841 0.768969 75.8537 1.33101 72.1163 2.52069C68.4094 3.70065 64.7346 5.56629 62.2742 8.32194L65.2579 10.986ZM83.146 4.76897C87.763 4.76897 93.1999 5.90283 97.4107 8.34525C101.571 10.7587 104.351 14.3098 104.351 19.259H108.351C108.351 12.4781 104.416 7.78428 99.4177 4.88519C94.4696 2.01511 88.3041 0.768969 83.146 0.768969V4.76897ZM104.351 19.259C104.351 24.7427 101.532 28.9223 98.0839 33.8351L101.358 36.1328C104.711 31.3557 108.351 26.1852 108.351 19.259H104.351ZM70.521 49.434V58.359H74.521V49.434H70.521ZM72.273 60.3435C73.7092 60.5231 75.0672 60.614 76.516 60.614V56.614C75.2449 56.614 74.0529 56.5349 72.7691 56.3744L72.273 60.3435ZM76.516 60.614C79.2256 60.614 83.3165 60.2652 86.8065 58.9696C90.2353 57.6966 93.816 55.1843 93.816 50.539H89.816C89.816 52.6087 88.3392 54.1338 85.4144 55.2196C82.5506 56.2828 78.9915 56.614 76.516 56.614V60.614ZM93.816 50.539C93.816 47.7634 92.4237 45.8103 90.5008 44.6507C88.6871 43.5569 86.458 43.184 84.506 43.184V47.184C86.0391 47.184 87.465 47.491 88.4351 48.076C89.2959 48.5951 89.816 49.3196 89.816 50.539H93.816ZM84.506 43.184C80.0759 43.184 74.7424 45.3371 71.3421 47.8184L73.7 51.0496C76.5897 48.9408 81.1162 47.184 84.506 47.184V43.184ZM70.4367 29.339L70.5217 32.739L74.5204 32.639L74.4354 29.239L70.4367 29.339ZM73.1359 34.5921C75.6859 33.7683 80.8032 32.5094 85.0803 30.5303C87.2475 29.5275 89.3819 28.2658 90.9971 26.6397C92.6412 24.9845 93.816 22.8736 93.816 20.279H89.816C89.816 21.5519 89.2697 22.7028 88.1592 23.8208C87.0199 24.9677 85.3664 25.9905 83.4005 26.9001C79.4114 28.746 74.8812 29.8247 71.9062 30.7858L73.1359 34.5921ZM93.816 20.279C93.816 18.8444 93.0612 17.792 92.1944 17.1139C91.3744 16.4725 90.3693 16.0841 89.474 15.8344C87.6659 15.3301 85.6572 15.219 84.591 15.219V19.219C85.4799 19.219 87.0837 19.3204 88.3994 19.6873C89.0659 19.8732 89.5005 20.0851 89.7298 20.2645C89.9122 20.4072 89.816 20.396 89.816 20.279H93.816ZM84.591 15.219C80.1888 15.219 76.039 16.717 72.3476 18.0594L73.7145 21.8186C77.503 20.4409 81.0033 19.219 84.591 19.219V15.219ZM71.0426 19.724C70.6996 22.8966 70.436 26.0386 70.436 29.289H74.436C74.436 26.2494 74.6824 23.2714 75.0195 20.1539L71.0426 19.724ZM130.87 13.649L129.865 11.9194L129.855 11.9255L129.844 11.9316L130.87 13.649ZM172.69 20.874L171.124 22.1185L171.133 22.1295L172.69 20.874ZM133.675 37.194L135.566 37.8441L135.569 37.8353L135.572 37.8264L133.675 37.194ZM163.765 46.289L165.735 46.6337L165.737 46.6178L165.74 46.6017L163.765 46.289ZM175.45 41.699C175.45 50.2746 172.828 58.1194 167.991 63.7863C163.186 69.417 156.098 73.019 146.85 73.019V77.019C157.236 77.019 165.448 72.9285 171.034 66.3829C176.589 59.8736 179.45 51.0584 179.45 41.699H175.45ZM146.85 73.019C136.837 73.019 129.302 69.8159 124.263 64.533C119.21 59.235 116.465 51.6317 116.465 42.464H112.465C112.465 52.4213 115.457 61.0954 121.369 67.2937C127.295 73.507 135.952 77.019 146.85 77.019V73.019ZM116.465 42.464C116.465 30.9157 121.545 21.5441 131.895 15.3663L129.844 11.9316C118.264 18.8439 112.465 29.5323 112.465 42.464H116.465ZM131.874 15.3785C134.192 14.0327 137.411 13.1461 140.935 12.6086C144.428 12.0761 148.061 11.909 151.1 11.909V7.90897C147.934 7.90897 144.087 8.08185 140.332 8.65433C136.611 9.22185 132.817 10.2052 129.865 11.9194L131.874 15.3785ZM151.1 11.909C159.394 11.909 166.162 15.876 171.124 22.1185L174.255 19.6295C168.677 12.6119 160.825 7.90897 151.1 7.90897V11.909ZM171.133 22.1295C172.951 24.3836 174.06 27.5898 174.694 31.1872C175.322 34.7556 175.45 38.5078 175.45 41.699H179.45C179.45 38.4302 179.322 34.4049 178.633 30.4933C177.949 26.6107 176.679 22.6344 174.246 19.6185L171.133 22.1295ZM151.95 24.824C147.509 24.824 143.275 25.316 139.73 27.0585C136.088 28.8489 133.339 31.8766 131.777 36.5615L135.572 37.8264C136.815 34.0963 138.869 31.9391 141.495 30.6482C144.219 29.3094 147.72 28.824 151.95 28.824V24.824ZM131.783 36.5438C130.881 39.1669 129.72 42.3158 129.72 45.609H133.72C133.72 43.1221 134.598 40.661 135.566 37.8441L131.783 36.5438ZM129.72 45.609C129.72 50.944 130.973 55.2931 134.045 58.2748C137.104 61.2438 141.585 62.484 147.19 62.484V58.484C142.085 58.484 138.83 57.3442 136.831 55.4044C134.846 53.4773 133.72 50.3889 133.72 45.609H129.72ZM147.19 62.484C153.206 62.484 157.546 61.4761 160.566 58.6786C163.543 55.9206 164.835 51.7772 165.735 46.6337L161.794 45.9442C160.91 51.0008 159.779 53.9548 157.847 55.7443C155.958 57.4943 152.903 58.484 147.19 58.484V62.484ZM165.74 46.6017C166.538 41.5609 167.088 36.1539 165.382 31.9755C164.49 29.7907 162.989 27.945 160.689 26.6789C158.432 25.4365 155.539 24.824 151.95 24.824V28.824C155.118 28.824 157.282 29.3695 158.76 30.1831C160.195 30.9729 161.105 32.081 161.679 33.4875C162.906 36.4915 162.606 40.8171 161.789 45.9762L165.74 46.6017ZM185.371 48.839L183.378 49.0051L183.379 49.0135L185.371 48.839ZM204.836 14.754L202.865 15.0938L202.865 15.0946L204.836 14.754ZM236.496 44.334C236.496 54.925 234.316 61.5942 230.01 65.6853C225.679 69.8003 218.746 71.744 208.151 71.744V75.744C219.062 75.744 227.3 73.7777 232.766 68.5851C238.256 63.3688 240.496 55.333 240.496 44.334H236.496ZM208.151 71.744C202.477 71.744 197.558 68.8214 193.869 64.3803C190.168 59.9256 187.838 54.0851 187.364 48.6645L183.379 49.0135C183.924 55.2378 186.567 61.8499 190.792 66.9364C195.029 72.0365 200.991 75.744 208.151 75.744V71.744ZM187.364 48.6729C187.112 45.6479 186.946 42.6464 186.946 39.659H182.946C182.946 42.7915 183.12 45.91 183.378 49.0051L187.364 48.6729ZM186.946 39.659C186.946 36.1667 187.138 28.4475 188.541 21.6501C189.246 18.2347 190.224 15.2206 191.526 13.1084C192.816 11.014 194.203 10.124 195.741 10.124V6.12397C192.264 6.12397 189.794 8.29399 188.12 11.01C186.458 13.7082 185.364 17.2551 184.624 20.8416C183.136 28.048 182.946 36.0962 182.946 39.659H186.946ZM195.741 10.124C197.582 10.124 199.234 10.5039 200.463 11.2807C201.627 12.0166 202.535 13.1807 202.865 15.0938L206.807 14.4142C206.287 11.3972 204.73 9.24638 202.601 7.89976C200.535 6.59408 198.066 6.12397 195.741 6.12397V10.124ZM202.865 15.0946C203.419 18.3001 203.386 22.4279 203.18 26.9806C202.978 31.4387 202.608 36.3351 202.571 40.7256C202.533 45.0923 202.809 49.3441 204.06 52.558C204.698 54.1975 205.633 55.6842 207.018 56.7591C208.429 57.854 210.155 58.404 212.146 58.404V54.404C210.928 54.404 210.094 54.0827 209.471 53.5992C208.822 53.0956 208.251 52.2965 207.788 51.1072C206.837 48.6632 206.533 45.0844 206.57 40.7598C206.607 36.4591 206.965 31.8036 207.175 27.1614C207.381 22.6138 207.443 18.0929 206.807 14.4133L202.865 15.0946ZM212.146 58.404C214.2 58.404 216.071 58.4424 217.595 58.3484C219.114 58.2547 220.632 58.0196 221.913 57.2686C223.298 56.4561 224.158 55.1956 224.65 53.5801C225.118 52.0432 225.281 50.1034 225.281 47.734H221.281C221.281 49.997 221.115 51.4572 220.823 52.4146C220.556 53.2933 220.225 53.6212 219.889 53.8181C219.449 54.0765 218.715 54.2717 217.349 54.356C215.988 54.4399 214.343 54.404 212.146 54.404V58.404ZM225.281 47.734C225.281 43.0695 224.643 38.4293 224.03 33.9679C223.41 29.4579 222.816 25.1332 222.816 20.874H218.816C218.816 25.4547 219.455 30.0551 220.067 34.5125C220.687 39.0187 221.281 43.3884 221.281 47.734H225.281ZM222.816 20.874C222.816 18.369 222.866 15.7647 223.733 13.78C224.14 12.8468 224.702 12.1235 225.486 11.6174C226.275 11.1084 227.444 10.719 229.231 10.719V6.71897C226.853 6.71897 224.888 7.24328 223.318 8.25635C221.743 9.27227 220.722 10.6793 220.067 12.1792C218.809 15.0608 218.816 18.5339 218.816 20.874H222.816ZM229.231 10.719C231.417 10.719 232.989 11.8653 234.216 14.1983C235.49 16.6223 236.225 20.0829 236.59 24.0022C237.325 31.9073 236.496 40.4046 236.496 44.334H240.496C240.496 41.0384 241.325 31.7281 240.573 23.632C240.193 19.5506 239.399 15.4622 237.756 12.3373C236.066 9.1214 233.335 6.71897 229.231 6.71897V10.719ZM258.806 24.359L260.801 24.499L260.932 22.6377L259.084 22.3784L258.806 24.359ZM247.331 11.779L248.384 13.4795L248.387 13.4775L247.331 11.779ZM274.446 23.424L274.132 21.4487L272.345 21.7323L272.449 23.5387L274.446 23.424ZM259.084 22.3784C256.514 22.0177 253.187 21.7064 250.418 20.7478C247.61 19.7752 246.356 18.5005 246.356 16.709H242.356C242.356 21.2075 245.904 23.4177 249.11 24.5276C252.355 25.6515 256.252 26.0202 258.528 26.3396L259.084 22.3784ZM246.356 16.709C246.356 15.4988 247.061 14.2985 248.384 13.4795L246.278 10.0784C244.031 11.4695 242.356 13.8392 242.356 16.709H246.356ZM248.387 13.4775C248.386 13.478 248.416 13.4595 248.491 13.4263C248.564 13.394 248.663 13.3549 248.793 13.3102C249.054 13.2202 249.396 13.1224 249.822 13.0196C250.676 12.814 251.777 12.6105 253.073 12.4135C255.659 12.0203 258.898 11.6713 262.221 11.3807C268.88 10.7984 275.72 10.464 278.101 10.464V6.46397C275.551 6.46397 268.579 6.80951 261.872 7.39595C258.512 7.68975 255.179 8.04737 252.472 8.45896C251.12 8.66441 249.894 8.88784 248.885 9.13084C247.948 9.3566 246.967 9.65006 246.275 10.0804L248.387 13.4775ZM278.101 10.464C280.566 10.464 283.66 10.58 286.092 11.3659C287.294 11.7542 288.18 12.2593 288.75 12.8567C289.273 13.4051 289.616 14.1151 289.616 15.179H293.616C293.616 13.0979 292.885 11.396 291.645 10.0956C290.451 8.84425 288.883 8.06379 287.322 7.55958C284.229 6.56046 280.566 6.46397 278.101 6.46397V10.464ZM289.616 15.179C289.616 16.2044 289.206 16.9907 288.381 17.7006C287.493 18.4649 286.152 19.1024 284.456 19.6197C281.008 20.671 277.032 20.9885 274.132 21.4487L274.759 25.3992C277.215 25.0095 281.823 24.6044 285.622 23.4457C287.549 22.8581 289.496 22.0187 290.991 20.7324C292.549 19.3917 293.616 17.5536 293.616 15.179H289.616ZM272.449 23.5387C272.882 31.0664 273.636 38.1161 273.636 45.269H277.636C277.636 37.9718 276.86 30.5715 276.443 23.3092L272.449 23.5387ZM273.636 45.269C273.636 48.8323 273.672 55.9196 272.432 62.0986C271.81 65.1993 270.901 67.8795 269.641 69.7389C268.427 71.5315 267.002 72.424 265.181 72.424V76.424C268.673 76.424 271.211 74.554 272.953 71.9823C274.649 69.4775 275.69 66.1917 276.354 62.8856C277.685 56.2508 277.636 48.7607 277.636 45.269H273.636ZM265.181 72.424C263.474 72.424 262.249 71.7785 261.272 70.6921C260.237 69.5412 259.445 67.8431 258.875 65.7665C257.733 61.6068 257.661 56.6316 257.661 53.514H253.661C253.661 56.6013 253.716 62.0811 255.018 66.8252C255.67 69.2005 256.679 71.5664 258.297 73.3666C259.974 75.2313 262.255 76.424 265.181 76.424V72.424ZM257.661 53.514C257.661 48.8239 258.258 44.0805 258.958 39.2217C259.652 34.4051 260.454 29.4379 260.801 24.499L256.811 24.219C256.477 28.97 255.707 33.7354 254.999 38.6512C254.296 43.525 253.661 48.514 253.661 53.514H257.661ZM345.863 70.854L347.749 70.1883L347.274 68.8419L345.846 68.854L345.863 70.854ZM335.833 70.939V72.939H335.842L335.85 72.9389L335.833 70.939ZM345.523 55.214V57.214H346.733L347.295 56.142L345.523 55.214ZM345.948 49.944L347.939 49.7544L347.767 47.944H345.948V49.944ZM348.328 13.479L348.689 15.4462L350.091 15.1893L350.305 13.7799L348.328 13.479ZM358.698 14.074H356.698V15.489L358.032 15.96L358.698 14.074ZM357.678 30.564V28.564H355.826L355.684 30.4106L357.678 30.564ZM357.338 37.194H355.338V39.0798L357.221 39.1905L357.338 37.194ZM355.978 71.364L355.736 69.3786L354.113 69.5763L353.984 71.2066L355.978 71.364ZM346.373 38.809L346.666 40.7874L348.484 40.5181L348.369 38.6842L346.373 38.809ZM346.288 30.904L348.204 30.3293L347.709 28.6807L346.005 28.9241L346.288 30.904ZM356.828 49.604L356.116 47.735L354.944 48.1814L354.836 49.4307L356.828 49.604ZM356.998 55.214L355.192 56.0738L355.712 57.166L356.921 57.2125L356.998 55.214ZM359.208 55.299L359.131 57.2975L359.17 57.299H359.208V55.299ZM345.846 68.854L335.816 68.939L335.85 72.9389L345.88 72.8539L345.846 68.854ZM335.833 68.939C333.511 68.939 331.114 68.6435 329.368 67.792C328.522 67.3795 327.896 66.869 327.479 66.259C327.071 65.6644 326.783 64.8612 326.783 63.714H322.783C322.783 65.5843 323.27 67.1929 324.178 68.5188C325.075 69.8293 326.303 70.7478 327.615 71.3872C330.182 72.6395 333.311 72.939 335.833 72.939V68.939ZM326.783 63.714C326.783 62.2885 327.376 61.2416 328.478 60.3665C329.655 59.4328 331.396 58.7236 333.511 58.2226C337.732 57.2223 342.686 57.214 345.523 57.214V53.214C342.75 53.214 337.335 53.2056 332.588 54.3304C330.219 54.8919 327.827 55.7764 325.992 57.2333C324.082 58.7488 322.783 60.8894 322.783 63.714H326.783ZM347.295 56.142C348.571 53.705 348.084 51.2719 347.939 49.7544L343.957 50.1336C344.153 52.1861 344.345 53.153 343.751 54.286L347.295 56.142ZM345.948 47.944C344.514 47.944 343.113 48.0336 341.784 48.118C340.435 48.2036 339.159 48.284 337.873 48.284V52.284C339.307 52.284 340.709 52.1943 342.037 52.11C343.386 52.0243 344.662 51.944 345.948 51.944V47.944ZM337.873 48.284C330.315 48.284 324.063 42.0464 324.063 34.389H320.063C320.063 44.2416 328.092 52.284 337.873 52.284V48.284ZM324.063 34.389C324.063 28.3971 327.294 24.2384 332.084 21.2287C336.937 18.1793 343.207 16.4504 348.689 15.4462L347.968 11.5117C342.314 12.5475 335.452 14.3886 329.956 17.8418C324.397 21.3346 320.063 26.6109 320.063 34.389H324.063ZM350.305 13.7799C350.646 11.541 350.784 8.69048 351.534 6.11101C351.897 4.8637 352.344 3.93328 352.859 3.3427C353.315 2.82059 353.816 2.55897 354.533 2.55897V-1.44103C352.53 -1.44103 350.97 -0.576396 349.845 0.713061C348.78 1.93404 348.128 3.50049 347.693 4.99444C346.849 7.89746 346.605 11.5069 346.351 13.1781L350.305 13.7799ZM354.533 2.55897C355.493 2.55897 356.132 2.89933 356.546 3.35734C356.982 3.83835 357.293 4.58933 357.293 5.57397H361.293C361.293 3.75362 360.711 1.99709 359.511 0.671856C358.29 -0.676389 356.548 -1.44103 354.533 -1.44103V2.55897ZM357.293 5.57397C357.293 6.52464 357.165 7.51865 357.013 8.66959C356.867 9.77115 356.698 11.0296 356.698 12.289H360.698C360.698 11.3383 360.826 10.3443 360.978 9.19335C361.124 8.09179 361.293 6.83331 361.293 5.57397H357.293ZM356.698 12.289V14.074H360.698V12.289H356.698ZM358.032 15.96C360.253 16.7437 362.899 17.6677 365.007 19.0505C367.095 20.4205 368.258 21.9716 368.258 23.934H372.258C372.258 20.0313 369.809 17.4175 367.201 15.7061C364.612 14.0077 361.478 12.9342 359.364 12.188L358.032 15.96ZM368.258 23.934C368.258 25.467 367.885 26.3424 367.457 26.8795C367.019 27.4297 366.347 27.8462 365.357 28.1328C364.351 28.4238 363.139 28.545 361.779 28.5806C360.376 28.6173 359.091 28.564 357.678 28.564V32.564C358.858 32.564 360.442 32.6169 361.883 32.5792C363.368 32.5404 364.977 32.4067 366.468 31.9752C367.975 31.5393 369.476 30.7658 370.586 29.3715C371.707 27.9643 372.258 26.1409 372.258 23.934H368.258ZM355.684 30.4106C355.515 32.6076 355.338 34.8943 355.338 37.194H359.338C359.338 35.0736 359.501 32.9404 359.672 30.7174L355.684 30.4106ZM357.221 39.1905C361.929 39.4675 366.748 41.1131 370.346 43.9583C373.902 46.7711 376.248 50.7278 376.248 55.809H380.248C380.248 49.3301 377.197 44.2769 372.827 40.8209C368.498 37.3973 362.863 35.5155 357.456 35.1974L357.221 39.1905ZM376.248 55.809C376.248 58.8452 375.546 61.0202 374.477 62.6318C373.402 64.2512 371.855 65.4524 369.922 66.3694C365.94 68.258 360.767 68.7662 355.736 69.3786L356.22 73.3493C360.964 72.7717 366.926 72.2174 371.636 69.9835C374.048 68.8393 376.236 67.2143 377.809 64.844C379.388 62.4659 380.248 59.4878 380.248 55.809H376.248ZM353.984 71.2066C353.912 72.1182 353.886 72.8294 353.8 73.6113C353.718 74.3577 353.602 74.9301 353.43 75.3624C353.268 75.7685 353.086 75.9796 352.891 76.1101C352.691 76.2445 352.29 76.419 351.473 76.419V80.419C352.867 80.419 354.101 80.1153 355.12 79.4316C356.145 78.744 356.765 77.7969 357.145 76.843C357.515 75.9154 357.68 74.9259 357.776 74.0466C357.869 73.203 357.916 72.2248 357.972 71.5214L353.984 71.2066ZM351.473 76.419C350.624 76.419 350.019 76.0049 349.39 74.7964C349.069 74.1806 348.799 73.451 348.534 72.6362C348.295 71.9031 348.009 70.9256 347.749 70.1883L343.977 71.5196C344.227 72.2274 344.419 72.9179 344.73 73.8742C345.015 74.7488 345.366 75.7299 345.842 76.6441C346.807 78.4956 348.497 80.419 351.473 80.419V76.419ZM348.369 38.6842C348.295 37.503 348.442 36.398 348.548 34.9375C348.647 33.5746 348.697 31.9718 348.204 30.3293L344.372 31.4787C344.645 32.3862 344.651 33.3758 344.559 34.6479C344.474 35.8224 344.281 37.395 344.377 38.9337L348.369 38.6842ZM346.005 28.9241C344.677 29.1139 341.765 29.7663 339.147 30.7819C337.845 31.2872 336.494 31.9278 335.433 32.7202C334.451 33.4541 333.238 34.6801 333.238 36.429H337.238C337.238 36.6478 337.109 36.4608 337.827 35.925C338.466 35.4476 339.432 34.962 340.594 34.5111C342.906 33.6142 345.52 33.0341 346.571 32.8839L346.005 28.9241ZM333.238 36.429C333.238 38.1433 334.135 39.5179 335.207 40.404C336.268 41.2802 337.667 41.829 339.063 41.829V37.829C338.674 37.829 338.161 37.6552 337.755 37.3202C337.361 36.9951 337.238 36.6697 337.238 36.429H333.238ZM339.063 41.829C340.385 41.829 341.775 41.6349 343.052 41.4183C344.414 41.1875 345.528 40.956 346.666 40.7874L346.08 36.8306C344.923 37.0019 343.529 37.2805 342.384 37.4746C341.154 37.6831 340.036 37.829 339.063 37.829V41.829ZM354.836 49.4307C354.797 49.8744 354.74 50.3075 354.678 50.8116C354.619 51.2946 354.558 51.8324 354.533 52.3819C354.482 53.4955 354.574 54.7744 355.192 56.0738L358.804 54.3541C358.573 53.8685 358.494 53.3199 358.529 52.5635C358.546 52.1781 358.591 51.7703 358.649 51.2969C358.704 50.8449 358.774 50.3111 358.821 49.7772L354.836 49.4307ZM356.921 57.2125L359.131 57.2975L359.285 53.3005L357.075 53.2155L356.921 57.2125ZM359.208 57.299C361.189 57.299 362.947 56.7091 363.97 55.2953C365.002 53.8706 364.883 52.171 364.309 50.8763C363.17 48.3056 359.867 46.306 356.116 47.735L357.54 51.4729C359.144 50.862 360.303 51.7098 360.652 52.4966C360.733 52.6791 360.747 52.8117 360.745 52.8812C360.743 52.9142 360.739 52.9316 360.737 52.9374C360.735 52.9423 360.734 52.9449 360.731 52.9492C360.727 52.9536 360.714 52.9716 360.677 52.999C360.64 53.027 360.573 53.0693 360.461 53.1139C360.234 53.205 359.837 53.299 359.208 53.299V57.299ZM390.326 24.444L392.292 24.8139L392.503 23.6912L391.643 22.9388L390.326 24.444ZM441.581 46.119L439.923 45.0007L439.922 45.0016L441.581 46.119ZM405.031 57.169V55.169H403.597L403.137 56.5269L405.031 57.169ZM404.691 39.149L402.694 39.2599L402.778 40.7727L404.257 41.1013L404.691 39.149ZM404.096 25.294L403.878 23.3059L402.029 23.5091L402.097 25.368L404.096 25.294ZM391.643 22.9388C389.401 20.9766 388.416 20.222 388.416 18.324H384.416C384.416 22.376 387.172 24.3413 389.009 25.9491L391.643 22.9388ZM388.416 18.324C388.416 17.1606 389.151 15.955 391.165 14.7336C393.159 13.5246 396.002 12.5703 399.211 11.8498C405.598 10.4155 412.815 10.039 415.911 10.039V6.03897C412.632 6.03897 405.101 6.42744 398.335 7.94694C394.967 8.70328 391.632 9.77299 389.091 11.3132C386.571 12.8411 384.416 15.1099 384.416 18.324H388.416ZM415.911 10.039C423.893 10.039 430.795 11.8544 435.658 15.6321C440.441 19.348 443.491 25.1471 443.491 33.709H447.491C447.491 24.0809 443.996 17.0449 438.112 12.4733C432.307 7.9635 424.419 6.03897 415.911 6.03897V10.039ZM443.491 33.709C443.491 37.6954 442.186 41.6458 439.923 45.0007L443.239 47.2373C445.907 43.2822 447.491 38.5625 447.491 33.709H443.491ZM439.922 45.0016C436.189 50.5441 430.859 53.1012 424.717 54.2692C418.475 55.4562 411.667 55.169 405.031 55.169V59.169C411.4 59.169 418.744 59.4767 425.465 58.1988C432.285 56.9017 438.728 53.9338 443.24 47.2363L439.922 45.0016ZM403.137 56.5269C402.614 58.0696 402.453 60.0238 402.334 61.8076C402.208 63.7028 402.124 65.5362 401.846 67.2255C401.567 68.9286 401.131 70.1768 400.498 70.977C399.957 71.661 399.158 72.169 397.636 72.169V76.169C400.279 76.169 402.274 75.1788 403.635 73.4589C404.904 71.8552 405.478 69.7938 405.793 67.8737C406.111 65.9398 406.208 63.8367 406.325 62.0743C406.451 60.2004 406.598 58.7758 406.925 57.8111L403.137 56.5269ZM397.636 72.169C396.328 72.169 395.152 71.446 394.043 69.6735C392.915 67.8715 392.066 65.2761 391.457 62.2939C390.246 56.3619 390.116 49.5831 390.116 46.374H386.116C386.116 49.6249 386.241 56.7435 387.538 63.094C388.183 66.2531 389.15 69.3952 390.652 71.7954C392.173 74.2251 394.439 76.169 397.636 76.169V72.169ZM390.116 46.374C390.116 39.1314 390.949 31.9483 392.292 24.8139L388.361 24.074C386.984 31.3896 386.116 38.8266 386.116 46.374H390.116ZM404.257 41.1013C407.523 41.8272 410.834 41.999 414.041 41.999V37.999C410.958 37.999 407.979 37.8308 405.125 37.1966L404.257 41.1013ZM414.041 41.999C416.303 41.999 420.092 42.1655 423.243 41.351C424.855 40.9344 426.51 40.2166 427.773 38.9205C429.087 37.5725 429.811 35.7684 429.811 33.539H425.811C425.811 34.8371 425.42 35.6042 424.908 36.1289C424.347 36.7054 423.468 37.1616 422.243 37.4782C419.721 38.1299 416.625 37.999 414.041 37.999V41.999ZM429.811 33.539C429.811 30.0949 428.609 27.4784 426.496 25.6648C424.465 23.9226 421.795 23.0947 419.134 22.7187C413.857 21.9728 407.602 22.8967 403.878 23.3059L404.315 27.282C408.325 26.8413 413.928 26.0226 418.574 26.6793C420.876 27.0045 422.683 27.6641 423.891 28.7004C425.015 29.6652 425.811 31.118 425.811 33.539H429.811ZM402.097 25.368C402.267 29.9534 402.438 34.6479 402.694 39.2599L406.688 39.038C406.434 34.47 406.265 29.8146 406.095 25.22L402.097 25.368ZM467.359 22.489L469.359 22.5383L469.403 20.7372L467.616 20.5056L467.359 22.489ZM480.279 21.384L479.865 19.4273L478.225 19.7744L478.28 21.4506L480.279 21.384ZM480.704 46.544L478.705 46.4927L478.705 46.504L480.704 46.544ZM479.429 59.209H477.429V60.7777L478.953 61.1514L479.429 59.209ZM466.679 58.104L466.804 60.1001L468.469 59.996L468.665 58.3396L466.679 58.104ZM467.616 20.5056C465.061 20.1744 462.059 20.0646 459.474 19.2615C458.227 18.8741 457.31 18.3835 456.723 17.7975C456.193 17.269 455.844 16.5842 455.844 15.519H451.844C451.844 17.6413 452.612 19.3471 453.898 20.6301C455.128 21.8557 456.729 22.5975 458.287 23.0815C461.312 24.0208 465.067 24.2086 467.102 24.4724L467.616 20.5056ZM455.844 15.519C455.844 13.8758 456.525 12.7546 457.746 11.8695C459.064 10.9142 461.017 10.2475 463.393 9.82787C468.16 8.98606 473.66 9.27397 476.964 9.27397V5.27397C473.979 5.27397 467.918 4.96688 462.698 5.88882C460.08 6.35102 457.433 7.15591 455.398 8.63111C453.267 10.1765 451.844 12.4447 451.844 15.519H455.844ZM476.964 9.27397C478.174 9.27397 479.958 9.15736 481.555 9.10972C483.261 9.05888 484.997 9.07123 486.549 9.28683C488.132 9.50666 489.304 9.91034 490.046 10.4769C490.678 10.96 491.114 11.6399 491.114 12.884H495.114C495.114 10.4305 494.126 8.56043 492.474 7.29835C490.932 6.11978 488.959 5.58316 487.099 5.32486C485.209 5.06234 483.205 5.05875 481.436 5.1115C479.56 5.16746 478.135 5.27397 476.964 5.27397V9.27397ZM491.114 12.884C491.114 14.6372 489.92 16.0127 487.489 17.1797C485.089 18.3316 482.129 18.9485 479.865 19.4273L480.693 23.3407C482.85 22.8845 486.307 22.1839 489.22 20.7858C492.101 19.4028 495.114 16.9957 495.114 12.884H491.114ZM478.28 21.4506C478.456 26.7092 478.874 31.5201 478.874 36.599H482.874C482.874 31.4778 482.443 26.2588 482.278 21.3173L478.28 21.4506ZM478.874 36.599C478.874 39.8841 478.79 43.1734 478.705 46.4927L482.704 46.5952C482.789 43.2845 482.874 39.9439 482.874 36.599H478.874ZM478.705 46.504C478.665 48.4793 478.369 50.4519 478.056 52.5866C477.75 54.6757 477.429 56.9174 477.429 59.209H481.429C481.429 57.2505 481.704 55.2847 482.014 53.1663C482.317 51.0935 482.658 48.8587 482.704 46.584L478.705 46.504ZM478.953 61.1514C481.343 61.7377 484.656 62.3852 487.456 63.6121C490.357 64.8832 491.709 66.3337 491.709 68.049H495.709C495.709 63.7292 492.174 61.3122 489.061 59.9484C485.848 58.5403 482.021 57.7853 479.906 57.2666L478.953 61.1514ZM491.709 68.049C491.709 69.3928 491.202 70.1679 490.375 70.7416C489.423 71.4015 487.952 71.841 486.048 72.0659C484.18 72.2866 482.112 72.2782 480.119 72.2061C478.221 72.1375 476.216 71.999 474.839 71.999V75.999C476.14 75.999 477.833 76.1261 479.975 76.2035C482.022 76.2776 484.337 76.2958 486.517 76.0383C488.661 75.785 490.904 75.2418 492.653 74.029C494.527 72.73 495.709 70.7426 495.709 68.049H491.709ZM474.839 71.999C471.374 71.999 465.995 72.5024 461.224 71.7973C458.869 71.4494 456.961 70.8357 455.683 69.9067C454.514 69.0577 453.804 67.91 453.804 66.094H449.804C449.804 69.2504 451.177 71.5771 453.331 73.1427C455.376 74.6282 458.032 75.3692 460.639 75.7544C465.791 76.5156 471.929 75.999 474.839 75.999V71.999ZM453.804 66.094C453.804 64.6331 454.239 63.6859 454.852 63.0013C455.506 62.2725 456.499 61.694 457.826 61.2577C460.555 60.3608 463.933 60.2795 466.804 60.1001L466.555 56.1079C463.985 56.2684 459.926 56.3571 456.577 57.4577C454.866 58.0202 453.16 58.8973 451.875 60.3307C450.549 61.8083 449.804 63.7298 449.804 66.094H453.804ZM468.665 58.3396C468.98 55.6849 468.977 53.0826 468.902 50.5642C468.825 47.9938 468.679 45.6165 468.679 43.144H464.679C464.679 45.6865 464.831 48.2816 464.903 50.6838C464.977 53.1379 464.973 55.5081 464.693 57.8683L468.665 58.3396ZM468.679 43.144C468.679 36.2549 469.185 29.5918 469.359 22.5383L465.36 22.4396C465.194 29.1561 464.679 36.263 464.679 43.144H468.679ZM509.406 73.064L510.159 71.211L510.146 71.2058L510.133 71.2008L509.406 73.064ZM503.626 65.669L501.626 65.7018L501.626 65.7144L503.626 65.669ZM515.781 22.234L515.338 20.2837L513.612 20.6758L513.791 22.4358L515.781 22.234ZM517.821 57.679L515.822 57.6214L515.808 58.0847L516 58.5066L517.821 57.679ZM518.246 58.614L516.425 59.4416L517.013 60.7343L518.427 60.6058L518.246 58.614ZM502.566 23.339C502.566 21.7104 502.004 20.35 501.615 19.3768C501.189 18.3113 500.951 17.6652 500.951 16.964H496.951C496.951 18.5578 497.52 19.9091 497.901 20.8624C498.32 21.9079 498.566 22.5876 498.566 23.339H502.566ZM500.951 16.964C500.951 15.5105 501.692 14.2825 503.326 13.1656C505.007 12.0159 507.436 11.1421 510.248 10.511C515.844 9.25501 522.268 9.10397 525.386 9.10397V5.10397C522.214 5.10397 515.421 5.25043 509.372 6.60815C506.361 7.28396 503.36 8.29613 501.068 9.86376C498.727 11.4642 496.951 13.785 496.951 16.964H500.951ZM525.386 9.10397C534.366 9.10397 541.417 12.474 546.243 17.9281C551.093 23.4092 553.816 31.1346 553.816 39.999H557.816C557.816 30.3334 554.843 21.6113 549.239 15.2773C543.61 8.91639 535.445 5.10397 525.386 5.10397V9.10397ZM553.816 39.999C553.816 58.8491 537.402 72.934 518.161 72.934V76.934C539.21 76.934 557.816 61.4388 557.816 39.999H553.816ZM518.161 72.934C515.511 72.934 512.711 72.2478 510.159 71.211L508.653 74.9169C511.541 76.0901 514.861 76.934 518.161 76.934V72.934ZM510.133 71.2008C508.599 70.6023 507.501 69.8569 506.784 68.9866C506.091 68.1463 505.658 67.0781 505.625 65.6235L501.626 65.7144C501.678 67.9998 502.393 69.9491 503.698 71.5313C504.978 73.0836 506.727 74.1657 508.679 74.9271L510.133 71.2008ZM505.626 65.6362C505.496 57.7566 504.721 50.4673 503.989 43.5291C503.254 36.5636 502.566 29.974 502.566 23.339H498.566C498.566 30.219 499.28 37.0169 500.011 43.9488C500.745 50.9081 501.5 58.0264 501.626 65.7018L505.626 65.6362ZM513.791 22.4358C514.983 34.1855 516.157 45.9574 515.822 57.6214L519.82 57.7365C520.164 45.7706 518.959 33.7425 517.771 22.0321L513.791 22.4358ZM516 58.5066L516.425 59.4416L520.067 57.7864L519.642 56.8514L516 58.5066ZM518.427 60.6058C521.448 60.3311 524.349 60.0583 526.957 59.569C529.566 59.0792 532.019 58.3499 534.119 57.0874C536.26 55.8006 537.975 53.9945 539.129 51.4741C540.266 48.9924 540.816 45.9153 540.816 42.124H536.816C536.816 45.5577 536.314 48.0162 535.493 49.8084C534.689 51.5619 533.541 52.768 532.058 53.6593C530.535 54.5749 528.606 55.1897 526.219 55.6376C523.83 56.0859 521.121 56.3444 518.065 56.6222L518.427 60.6058ZM540.816 42.124C540.816 34.2172 538.721 27.7342 534.245 23.711C529.717 19.6404 523.213 18.4938 515.338 20.2837L516.224 24.1842C523.308 22.5742 528.322 23.7651 531.571 26.6857C534.873 29.6537 536.816 34.8158 536.816 42.124H540.816ZM579.278 13.649L578.273 11.9194L578.263 11.9255L578.253 11.9316L579.278 13.649ZM621.098 20.874L619.532 22.1185L619.541 22.1295L621.098 20.874ZM582.083 37.194L583.974 37.8441L583.977 37.8353L583.98 37.8264L582.083 37.194ZM612.173 46.289L614.143 46.6337L614.146 46.6178L614.148 46.6017L612.173 46.289ZM623.858 41.699C623.858 50.2746 621.236 58.1194 616.4 63.7863C611.594 69.417 604.506 73.019 595.258 73.019V77.019C605.644 77.019 613.856 72.9285 619.442 66.3829C624.997 59.8736 627.858 51.0584 627.858 41.699H623.858ZM595.258 73.019C585.246 73.019 577.71 69.8159 572.671 64.533C567.618 59.235 564.873 51.6317 564.873 42.464H560.873C560.873 52.4213 563.865 61.0954 569.777 67.2937C575.703 73.507 584.36 77.019 595.258 77.019V73.019ZM564.873 42.464C564.873 30.9157 569.953 21.5441 580.303 15.3663L578.253 11.9316C566.672 18.8439 560.873 29.5323 560.873 42.464H564.873ZM580.282 15.3785C582.6 14.0327 585.819 13.1461 589.344 12.6086C592.836 12.0761 596.469 11.909 599.508 11.909V7.90897C596.342 7.90897 592.495 8.08185 588.741 8.65433C585.019 9.22185 581.226 10.2052 578.273 11.9194L580.282 15.3785ZM599.508 11.909C607.802 11.909 614.57 15.876 619.532 22.1185L622.663 19.6295C617.085 12.6119 609.234 7.90897 599.508 7.90897V11.909ZM619.541 22.1295C621.359 24.3836 622.468 27.5898 623.102 31.1872C623.73 34.7556 623.858 38.5078 623.858 41.699H627.858C627.858 38.4302 627.73 34.4049 627.041 30.4933C626.357 26.6107 625.087 22.6344 622.655 19.6185L619.541 22.1295ZM600.358 24.824C595.917 24.824 591.684 25.316 588.139 27.0585C584.496 28.8489 581.747 31.8766 580.185 36.5615L583.98 37.8264C585.223 34.0963 587.277 31.9391 589.903 30.6482C592.627 29.3094 596.128 28.824 600.358 28.824V24.824ZM580.191 36.5438C579.29 39.1669 578.128 42.3158 578.128 45.609H582.128C582.128 43.1221 583.006 40.661 583.974 37.8441L580.191 36.5438ZM578.128 45.609C578.128 50.944 579.382 55.2931 582.454 58.2748C585.513 61.2438 589.993 62.484 595.598 62.484V58.484C590.493 58.484 587.238 57.3442 585.239 55.4044C583.254 53.4773 582.128 50.3889 582.128 45.609H578.128ZM595.598 62.484C601.615 62.484 605.954 61.4761 608.974 58.6786C611.951 55.9206 613.243 51.7772 614.143 46.6337L610.203 45.9442C609.318 51.0008 608.187 53.9548 606.255 55.7443C604.366 57.4943 601.311 58.484 595.598 58.484V62.484ZM614.148 46.6017C614.946 41.5609 615.497 36.1539 613.791 31.9755C612.899 29.7907 611.397 27.945 609.097 26.6789C606.84 25.4365 603.947 24.824 600.358 24.824V28.824C603.526 28.824 605.69 29.3695 607.168 30.1831C608.603 30.9729 609.513 32.081 610.087 33.4875C611.314 36.4915 611.014 40.8171 610.197 45.9762L614.148 46.6017Z" fill="black" mask="url(#path-1-outside-1_6_38)"/>
</g>
<defs>
<filter id="filter0_d_6_38" x="0.974945" y="0.55896" width="624.883" height="83.86" filterUnits="userSpaceOnUse" color-interpolation-filters="sRGB">
<feFlood flood-opacity="0" result="BackgroundImageFix"/>
<feColorMatrix in="SourceAlpha" type="matrix" values="0 0 0 0 0 0 0 0 0 0 0 0 0 0 0 0 0 0 127 0" result="hardAlpha"/>
<feOffset dy="6"/>
<feComposite in2="hardAlpha" operator="out"/>
<feColorMatrix type="matrix" values="0 0 0 0 0 0 0 0 0 0 0 0 0 0 0 0 0 0 1 0"/>
<feBlend mode="normal" in2="BackgroundImageFix" result="effect1_dropShadow_6_38"/>
<feBlend mode="normal" in="SourceGraphic" in2="effect1_dropShadow_6_38" result="shape"/>
</filter>
</defs>
</svg>
