<svg width="95" height="31" viewBox="0 0 95 31" fill="none" xmlns="http://www.w3.org/2000/svg">
<g filter="url(#filter0_d_60_43)">
<path d="M9.05 17.75C9 18.1333 8.975 18.5833 8.975 19.1C8.975 19.6 8.925 20.0917 8.825 20.575C8.725 21.0417 8.54167 21.4417 8.275 21.775C8.00833 22.0917 7.59167 22.25 7.025 22.25C6.44167 22.25 6 22.0833 5.7 21.75C5.4 21.4167 5.18333 21.0083 5.05 20.525C4.93333 20.025 4.86667 19.5083 4.85 18.975C4.83333 18.4417 4.825 17.975 4.825 17.575C4.825 16.8417 4.89167 15.9583 5.025 14.925C5.15833 13.8917 5.36667 12.8167 5.65 11.7C5.93333 10.5833 6.29167 9.475 6.725 8.375C7.175 7.25833 7.70833 6.25833 8.325 5.375C8.94167 4.49167 9.65 3.78333 10.45 3.25C11.25 2.7 12.15 2.425 13.15 2.425C14.05 2.425 14.8167 2.61667 15.45 3C16.0833 3.38333 16.6 3.89167 17 4.525C17.4167 5.15833 17.7417 5.88333 17.975 6.7C18.2083 7.5 18.3833 8.325 18.5 9.175C18.6167 10.0083 18.6833 10.8333 18.7 11.65C18.7333 12.45 18.75 13.1667 18.75 13.8C18.75 14.1333 18.7417 14.5667 18.725 15.1C18.7083 15.6333 18.6667 16.2083 18.6 16.825C18.55 17.4417 18.4583 18.0667 18.325 18.7C18.2083 19.3333 18.0417 19.9083 17.825 20.425C17.6083 20.925 17.3333 21.3417 17 21.675C16.6833 21.9917 16.2917 22.15 15.825 22.15C15.175 22.15 14.6917 21.9667 14.375 21.6C14.075 21.2167 13.8667 20.7583 13.75 20.225C13.65 19.675 13.6083 19.1 13.625 18.5C13.6583 17.9 13.675 17.3833 13.675 16.95L9.05 17.75ZM14.075 13.55C14.125 13.1167 14.1667 12.6917 14.2 12.275C14.2333 11.8417 14.25 11.4083 14.25 10.975C14.25 10.7417 14.2333 10.4 14.2 9.95C14.1833 9.5 14.1333 9.05 14.05 8.6C13.9833 8.13333 13.875 7.70833 13.725 7.325C13.5917 6.94167 13.4083 6.7 13.175 6.6C12.725 6.88333 12.3 7.30833 11.9 7.875C11.5 8.44167 11.15 9.06667 10.85 9.75C10.55 10.4167 10.3083 11.0917 10.125 11.775C9.94167 12.4583 9.84167 13.0583 9.825 13.575C9.90833 13.5917 9.98333 13.6083 10.05 13.625C10.1167 13.6417 10.1917 13.65 10.275 13.65C10.9083 13.65 11.5417 13.6417 12.175 13.625C12.8083 13.5917 13.4417 13.5667 14.075 13.55ZM33.768 10.65C34.1346 11.05 34.468 11.4333 34.768 11.8C35.0846 12.15 35.3513 12.5167 35.568 12.9C35.8013 13.2667 35.9763 13.6667 36.093 14.1C36.2263 14.5333 36.293 15.0417 36.293 15.625C36.293 16.7583 36.0513 17.7417 35.568 18.575C35.0846 19.4083 34.4513 20.1 33.668 20.65C32.9013 21.2 32.018 21.6167 31.018 21.9C30.0346 22.1667 29.043 22.3 28.043 22.3C27.4596 22.3 26.868 22.2917 26.268 22.275C25.6846 22.2583 25.1013 22.2417 24.518 22.225C23.9846 22.2083 23.5263 22.0083 23.143 21.625C22.7596 21.2417 22.4263 20.75 22.143 20.15C21.8763 19.55 21.6513 18.8833 21.468 18.15C21.3013 17.4 21.168 16.6667 21.068 15.95C20.968 15.2167 20.893 14.5333 20.843 13.9C20.8096 13.2667 20.793 12.7583 20.793 12.375C20.793 12.0083 20.818 11.5667 20.868 11.05C20.918 10.5167 20.993 9.95833 21.093 9.375C21.193 8.79167 21.3096 8.19167 21.443 7.575C21.5763 6.95833 21.7346 6.375 21.918 5.825C22.1013 5.25833 22.293 4.75 22.493 4.3C22.7096 3.85 22.943 3.48333 23.193 3.2C23.5096 2.85 23.893 2.55 24.343 2.3C24.8096 2.03333 25.3013 1.825 25.818 1.675C26.3513 1.50833 26.8846 1.38333 27.418 1.3C27.9513 1.21667 28.443 1.175 28.893 1.175C29.6096 1.175 30.368 1.26667 31.168 1.45C31.968 1.63333 32.7013 1.925 33.368 2.325C34.0513 2.70833 34.6096 3.20833 35.043 3.825C35.493 4.425 35.718 5.15833 35.718 6.025C35.718 6.94167 35.518 7.76667 35.118 8.5C34.718 9.21667 34.268 9.93333 33.768 10.65ZM25.768 17.525C26.168 17.575 26.5596 17.6 26.943 17.6C27.3263 17.6 27.7763 17.575 28.293 17.525C28.8096 17.4583 29.3013 17.3417 29.768 17.175C30.2346 16.9917 30.6263 16.75 30.943 16.45C31.2763 16.1333 31.443 15.725 31.443 15.225C31.443 14.925 31.3763 14.675 31.243 14.475C31.1263 14.275 30.9596 14.1167 30.743 14C30.543 13.8667 30.3096 13.775 30.043 13.725C29.793 13.675 29.543 13.65 29.293 13.65C28.7096 13.65 28.093 13.775 27.443 14.025C26.793 14.275 26.2346 14.5667 25.768 14.9V17.525ZM25.768 9.975C26.0346 9.89167 26.3596 9.8 26.743 9.7C27.143 9.58333 27.5513 9.45 27.968 9.3C28.3846 9.15 28.8013 8.98333 29.218 8.8C29.6346 8.61667 30.0013 8.40833 30.318 8.175C30.6513 7.925 30.918 7.65 31.118 7.35C31.3346 7.05 31.443 6.70833 31.443 6.325C31.443 6.125 31.3596 5.96667 31.193 5.85C31.0263 5.73333 30.8263 5.65 30.593 5.6C30.3596 5.53333 30.1263 5.49167 29.893 5.475C29.6596 5.44167 29.468 5.425 29.318 5.425C28.7346 5.425 28.1596 5.50833 27.593 5.675C27.0263 5.84167 26.468 6.025 25.918 6.225C25.868 6.69167 25.8263 7.15 25.793 7.6C25.7596 8.05 25.743 8.50833 25.743 8.975L25.768 9.975ZM56.6293 12.625C56.6293 13.9417 56.4293 15.1917 56.0293 16.375C55.6293 17.5583 55.046 18.6 54.2793 19.5C53.5293 20.4 52.596 21.1167 51.4793 21.65C50.3626 22.1667 49.0793 22.425 47.6293 22.425C46.096 22.425 44.7376 22.1917 43.5543 21.725C42.371 21.2583 41.371 20.6 40.5543 19.75C39.7543 18.9 39.146 17.8917 38.7293 16.725C38.3126 15.5417 38.1043 14.25 38.1043 12.85C38.1043 11.0333 38.5043 9.40833 39.3043 7.975C40.1043 6.54167 41.3126 5.34167 42.9293 4.375C43.3126 4.15833 43.7543 3.975 44.2543 3.825C44.7543 3.675 45.271 3.56667 45.8043 3.5C46.3376 3.41667 46.871 3.35833 47.4043 3.325C47.9376 3.29167 48.4293 3.275 48.8793 3.275C50.2126 3.275 51.4043 3.56667 52.4543 4.15C53.521 4.73333 54.446 5.51667 55.2293 6.5C55.546 6.88333 55.796 7.33333 55.9793 7.85C56.1626 8.35 56.3043 8.875 56.4043 9.425C56.5043 9.975 56.5626 10.5333 56.5793 11.1C56.6126 11.65 56.6293 12.1583 56.6293 12.625ZM49.1293 8.25C48.496 8.25 47.896 8.29167 47.3293 8.375C46.7626 8.45833 46.246 8.61667 45.7793 8.85C45.3293 9.06667 44.9293 9.375 44.5793 9.775C44.2293 10.175 43.9543 10.6833 43.7543 11.3C43.621 11.7 43.4876 12.1083 43.3543 12.525C43.2376 12.925 43.1793 13.3417 43.1793 13.775C43.1793 15.275 43.5376 16.3833 44.2543 17.1C44.9876 17.8 46.146 18.15 47.7293 18.15C48.596 18.15 49.3126 18.075 49.8793 17.925C50.446 17.775 50.9043 17.5333 51.2543 17.2C51.621 16.85 51.9043 16.4167 52.1043 15.9C52.3043 15.3667 52.471 14.725 52.6043 13.975C52.721 13.225 52.7876 12.5083 52.8043 11.825C52.8376 11.125 52.746 10.5167 52.5293 10C52.3126 9.46667 51.9376 9.04167 51.4043 8.725C50.8876 8.40833 50.1293 8.25 49.1293 8.25ZM74.5842 13.4C74.5842 14.9833 74.4175 16.325 74.0842 17.425C73.7508 18.525 73.2175 19.4167 72.4842 20.1C71.7675 20.7833 70.8425 21.2833 69.7092 21.6C68.5925 21.9 67.2425 22.05 65.6592 22.05C64.7092 22.05 63.8425 21.8333 63.0592 21.4C62.2758 20.95 61.5925 20.375 61.0092 19.675C60.4258 18.975 59.9508 18.1917 59.5842 17.325C59.2342 16.4417 59.0258 15.575 58.9592 14.725C58.9258 14.275 58.8925 13.825 58.8592 13.375C58.8425 12.925 58.8342 12.475 58.8342 12.025C58.8342 11.675 58.8425 11.2083 58.8592 10.625C58.8758 10.025 58.9175 9.38333 58.9842 8.7C59.0675 8.01667 59.1758 7.325 59.3092 6.625C59.4592 5.90833 59.6508 5.26667 59.8842 4.7C60.1175 4.11667 60.4092 3.65 60.7592 3.3C61.1092 2.93333 61.5258 2.75 62.0092 2.75C62.6258 2.75 63.1925 2.89167 63.7092 3.175C64.2258 3.45833 64.5508 3.96667 64.6842 4.7C64.8008 5.38333 64.8425 6.15833 64.8092 7.025C64.7925 7.89167 64.7592 8.775 64.7092 9.675C64.6592 10.575 64.6258 11.4667 64.6092 12.35C64.5925 13.2167 64.6425 13.9917 64.7592 14.675C64.8758 15.3583 65.0925 15.9083 65.4092 16.325C65.7258 16.7417 66.2008 16.95 66.8342 16.95C67.4508 16.95 67.9675 16.95 68.3842 16.95C68.8175 16.9333 69.1592 16.85 69.4092 16.7C69.6592 16.55 69.8342 16.3 69.9342 15.95C70.0508 15.6 70.1092 15.0833 70.1092 14.4C70.1092 13.7333 70.0675 13.075 69.9842 12.425C69.9175 11.7583 69.8342 11.1 69.7342 10.45C69.6508 9.78333 69.5675 9.125 69.4842 8.475C69.4175 7.80833 69.3842 7.15 69.3842 6.5C69.3842 6.15 69.3925 5.76667 69.4092 5.35C69.4425 4.93333 69.5342 4.55 69.6842 4.2C69.8508 3.83333 70.1008 3.53333 70.4342 3.3C70.7675 3.05 71.2425 2.925 71.8592 2.925C72.4758 2.925 72.9675 3.13333 73.3342 3.55C73.7175 3.96667 74.0092 4.50833 74.2092 5.175C74.4092 5.825 74.5425 6.55833 74.6092 7.375C74.6758 8.175 74.7008 8.96667 74.6842 9.75C74.6842 10.5167 74.6675 11.2333 74.6342 11.9C74.6008 12.55 74.5842 13.05 74.5842 13.4ZM80.5576 7.525C80.2076 7.475 79.7826 7.41667 79.2826 7.35C78.7993 7.28333 78.3326 7.175 77.8826 7.025C77.4493 6.875 77.0743 6.66667 76.7576 6.4C76.4576 6.11667 76.3076 5.74167 76.3076 5.275C76.3076 4.975 76.3826 4.7 76.5326 4.45C76.6993 4.2 76.916 3.99167 77.1826 3.825C77.3326 3.725 77.6243 3.63333 78.0576 3.55C78.5076 3.46667 79.0243 3.39167 79.6076 3.325C80.2076 3.24167 80.841 3.175 81.5076 3.125C82.1743 3.05833 82.816 3.00833 83.4326 2.975C84.066 2.94167 84.6243 2.91667 85.1076 2.9C85.6076 2.86667 85.9826 2.85 86.2326 2.85C86.5993 2.85 87.0076 2.86667 87.4576 2.9C87.9243 2.93333 88.3576 3.01667 88.7576 3.15C89.1743 3.28333 89.516 3.48333 89.7826 3.75C90.066 4 90.2076 4.35833 90.2076 4.825C90.2076 5.325 90.016 5.725 89.6326 6.025C89.266 6.30833 88.816 6.53333 88.2826 6.7C87.7493 6.86667 87.191 6.98333 86.6076 7.05C86.041 7.11667 85.5576 7.18333 85.1576 7.25C85.2243 8.35 85.2993 9.43333 85.3826 10.5C85.466 11.55 85.5076 12.6083 85.5076 13.675C85.5076 14.025 85.4993 14.4833 85.4826 15.05C85.4826 15.6 85.4576 16.1917 85.4076 16.825C85.3576 17.4583 85.266 18.1 85.1326 18.75C85.016 19.3833 84.841 19.9667 84.6076 20.5C84.391 21.0167 84.0993 21.4417 83.7326 21.775C83.3826 22.0917 82.9493 22.25 82.4326 22.25C81.7493 22.25 81.216 22.0167 80.8326 21.55C80.466 21.0833 80.191 20.525 80.0076 19.875C79.8243 19.2083 79.716 18.525 79.6826 17.825C79.6493 17.125 79.6326 16.55 79.6326 16.1C79.6326 15.3833 79.666 14.6667 79.7326 13.95C79.816 13.2333 79.9076 12.525 80.0076 11.825C80.1243 11.1083 80.2326 10.3917 80.3326 9.675C80.4326 8.95833 80.5076 8.24167 80.5576 7.525Z" fill="black"/>
</g>
<defs>
<filter id="filter0_d_60_43" x="0.825012" y="1.175" width="93.3826" height="29.25" filterUnits="userSpaceOnUse" color-interpolation-filters="sRGB">
<feFlood flood-opacity="0" result="BackgroundImageFix"/>
<feColorMatrix in="SourceAlpha" type="matrix" values="0 0 0 0 0 0 0 0 0 0 0 0 0 0 0 0 0 0 127 0" result="hardAlpha"/>
<feOffset dy="4"/>
<feGaussianBlur stdDeviation="2"/>
<feComposite in2="hardAlpha" operator="out"/>
<feColorMatrix type="matrix" values="0 0 0 0 0 0 0 0 0 0 0 0 0 0 0 0 0 0 0.25 0"/>
<feBlend mode="normal" in2="BackgroundImageFix" result="effect1_dropShadow_60_43"/>
<feBlend mode="normal" in="SourceGraphic" in2="effect1_dropShadow_60_43" result="shape"/>
</filter>
</defs>
</svg>
