<svg width="633" height="98" viewBox="0 0 633 98" fill="none" xmlns="http://www.w3.org/2000/svg">
<g filter="url(#filter0_d_47_2)">
<mask id="path-1-outside-1_47_2" maskUnits="userSpaceOnUse" x="0.509949" y="1.57397" width="630" height="83" fill="black">
<rect fill="white" x="0.509949" y="1.57397" width="630" height="83"/>
<path d="M33.405 60.404L17.6799 63.124C17.0849 68.224 18.4449 78.424 10.7949 78.424C2.97495 78.424 3.31495 67.969 3.31495 62.529C3.31495 47.654 11.3049 11.019 31.62 11.019C50.0649 11.019 50.66 36.774 50.66 49.694C50.66 56.324 50.235 78.084 40.715 78.084C31.79 78.084 33.405 66.354 33.405 60.404ZM34.765 48.844C35.1049 45.954 35.36 43.064 35.36 40.089C35.36 36.859 34.935 26.659 31.7049 25.214C25.585 29.124 20.4849 41.874 20.3149 48.929C20.8249 49.014 21.3349 49.184 21.845 49.184C26.18 49.184 30.43 48.929 34.765 48.844ZM101.721 38.984C106.651 44.509 110.306 47.994 110.306 55.899C110.306 71.199 95.941 78.594 82.256 78.594C78.261 78.594 74.266 78.424 70.271 78.339C59.561 78.084 57.606 52.669 57.606 44.849C57.606 37.284 60.751 19.264 65.766 13.654C70.016 8.89397 78.941 6.76897 85.146 6.76897C94.921 6.76897 108.351 11.529 108.351 23.259C108.351 29.464 105.121 34.139 101.721 38.984ZM74.521 53.434V62.359C75.881 62.529 77.156 62.614 78.516 62.614C83.701 62.614 93.816 61.254 93.816 54.539C93.816 50.544 89.991 49.184 86.506 49.184C82.596 49.184 77.666 51.139 74.521 53.434ZM74.436 33.289L74.521 36.689C80.046 34.904 93.816 32.014 93.816 24.279C93.816 21.644 88.546 21.219 86.591 21.219C82.596 21.219 78.771 22.579 75.031 23.939C74.691 27.084 74.436 30.144 74.436 33.289ZM179.45 45.699C179.45 63.634 168.485 79.019 148.85 79.019C127.94 79.019 116.465 65.589 116.465 46.464C116.465 34.224 121.905 24.194 132.87 17.649C138.14 14.589 146.895 13.909 153.1 13.909C162.11 13.909 169.42 18.244 174.69 24.874C178.94 30.144 179.45 39.239 179.45 45.699ZM153.95 30.824C145.28 30.824 138.48 32.779 135.675 41.194C134.74 43.914 133.72 46.719 133.72 49.609C133.72 59.724 138.48 64.484 149.19 64.484C160.92 64.484 163.98 60.489 165.765 50.289C167.38 40.089 167.465 30.824 153.95 30.824ZM240.496 48.334C240.496 69.924 231.656 77.744 210.151 77.744C197.316 77.744 188.391 64.484 187.371 52.839C187.116 49.779 186.946 46.719 186.946 43.659C186.946 36.604 187.711 12.124 197.741 12.124C201.906 12.124 205.986 13.824 206.836 18.754C209.216 32.524 201.311 60.404 214.146 60.404C222.646 60.404 225.281 60.999 225.281 51.734C225.281 42.724 222.816 33.714 222.816 24.874C222.816 20.029 222.901 12.719 231.231 12.719C243.811 12.719 240.496 41.109 240.496 48.334ZM260.806 28.359C255.961 27.679 246.356 26.999 246.356 20.709C246.356 18.669 247.546 16.884 249.331 15.779C252.476 13.824 275.171 12.464 280.101 12.464C285.031 12.464 293.616 12.889 293.616 19.179C293.616 25.979 281.801 26.574 276.446 27.424C276.871 34.819 277.636 42.044 277.636 49.269C277.636 56.324 277.806 78.424 267.181 78.424C257.916 78.424 257.661 63.719 257.661 57.514C257.661 47.824 260.126 38.049 260.806 28.359ZM347.863 74.854L337.833 74.939C332.988 74.939 326.783 73.749 326.783 67.714C326.783 59.214 341.913 59.214 347.523 59.214C348.458 57.429 348.118 55.729 347.948 53.944C345.228 53.944 342.593 54.284 339.873 54.284C331.203 54.284 324.063 47.144 324.063 38.389C324.063 24.619 339.193 19.519 350.328 17.479C350.923 13.569 351.093 4.55897 356.533 4.55897C359.508 4.55897 361.293 6.76897 361.293 9.57397C361.293 11.784 360.698 14.079 360.698 16.289V18.074C365.033 19.604 372.258 22.069 372.258 27.934C372.258 35.414 364.863 34.564 359.678 34.564C359.508 36.774 359.338 38.984 359.338 41.194C369.453 41.789 380.248 48.249 380.248 59.809C380.248 73.239 367.753 74.174 357.978 75.364C357.723 78.594 357.893 82.419 353.473 82.419C349.648 82.419 348.883 77.744 347.863 74.854ZM348.373 42.809C348.203 40.089 349.053 37.454 348.288 34.904C345.908 35.244 337.238 37.369 337.238 40.429C337.238 42.384 339.278 43.829 341.063 43.829C343.358 43.829 346.078 43.149 348.373 42.809ZM358.828 53.604C358.658 55.559 358.148 57.429 358.998 59.214L361.208 59.299C367.753 59.299 364.183 51.564 358.828 53.604ZM392.326 28.444C390.286 26.659 388.416 25.299 388.416 22.324C388.416 13.569 411.536 12.039 417.911 12.039C434.401 12.039 447.491 19.519 447.491 37.709C447.491 42.129 446.046 46.464 443.581 50.119C435.336 62.359 420.036 61.169 407.031 61.169C405.331 66.184 407.966 78.169 399.636 78.169C390.626 78.169 390.116 56.834 390.116 50.374C390.116 42.979 390.966 35.669 392.326 28.444ZM406.691 43.149C409.751 43.829 412.896 43.999 416.041 43.999C420.886 43.999 429.811 44.594 429.811 37.539C429.811 25.809 413.831 28.444 406.096 29.294C406.266 33.884 406.436 38.559 406.691 43.149ZM469.359 26.489C464.769 25.894 455.844 25.894 455.844 19.519C455.844 10.084 472.674 11.274 478.964 11.274C483.724 11.274 495.114 9.48897 495.114 16.884C495.114 22.749 486.699 24.449 482.279 25.384C482.449 30.484 482.874 35.499 482.874 40.599C482.874 43.914 482.789 47.229 482.704 50.544C482.619 54.794 481.429 58.959 481.429 63.209C485.934 64.314 495.709 66.014 495.709 72.049C495.709 80.124 482.194 77.999 476.839 77.999C470.464 77.999 453.804 80.039 453.804 70.094C453.804 62.444 463.239 62.444 468.679 62.104C469.274 57.089 468.679 52.159 468.679 47.144C468.679 40.259 469.189 33.374 469.359 26.489ZM502.566 27.339C502.566 24.959 500.951 23.259 500.951 20.964C500.951 11.699 521.096 11.104 527.386 11.104C546.426 11.104 557.816 25.469 557.816 43.999C557.816 64.144 540.306 78.934 520.161 78.934C517.186 78.934 514.126 78.169 511.406 77.064C507.921 75.704 505.711 73.409 505.626 69.669C505.371 54.114 502.566 40.854 502.566 27.339ZM517.781 26.234C518.971 37.964 520.161 49.864 519.821 61.679L520.246 62.614C532.401 61.509 540.816 60.574 540.816 46.124C540.816 30.909 532.741 22.834 517.781 26.234ZM627.858 45.699C627.858 63.634 616.893 79.019 597.258 79.019C576.348 79.019 564.873 65.589 564.873 46.464C564.873 34.224 570.313 24.194 581.278 17.649C586.548 14.589 595.303 13.909 601.508 13.909C610.518 13.909 617.828 18.244 623.098 24.874C627.348 30.144 627.858 39.239 627.858 45.699ZM602.358 30.824C593.688 30.824 586.888 32.779 584.083 41.194C583.148 43.914 582.128 46.719 582.128 49.609C582.128 59.724 586.888 64.484 597.598 64.484C609.328 64.484 612.388 60.489 614.173 50.289C615.788 40.089 615.873 30.824 602.358 30.824Z"/>
</mask>
<path d="M33.405 60.404L17.6799 63.124C17.0849 68.224 18.4449 78.424 10.7949 78.424C2.97495 78.424 3.31495 67.969 3.31495 62.529C3.31495 47.654 11.3049 11.019 31.62 11.019C50.0649 11.019 50.66 36.774 50.66 49.694C50.66 56.324 50.235 78.084 40.715 78.084C31.79 78.084 33.405 66.354 33.405 60.404ZM34.765 48.844C35.1049 45.954 35.36 43.064 35.36 40.089C35.36 36.859 34.935 26.659 31.7049 25.214C25.585 29.124 20.4849 41.874 20.3149 48.929C20.8249 49.014 21.3349 49.184 21.845 49.184C26.18 49.184 30.43 48.929 34.765 48.844ZM101.721 38.984C106.651 44.509 110.306 47.994 110.306 55.899C110.306 71.199 95.941 78.594 82.256 78.594C78.261 78.594 74.266 78.424 70.271 78.339C59.561 78.084 57.606 52.669 57.606 44.849C57.606 37.284 60.751 19.264 65.766 13.654C70.016 8.89397 78.941 6.76897 85.146 6.76897C94.921 6.76897 108.351 11.529 108.351 23.259C108.351 29.464 105.121 34.139 101.721 38.984ZM74.521 53.434V62.359C75.881 62.529 77.156 62.614 78.516 62.614C83.701 62.614 93.816 61.254 93.816 54.539C93.816 50.544 89.991 49.184 86.506 49.184C82.596 49.184 77.666 51.139 74.521 53.434ZM74.436 33.289L74.521 36.689C80.046 34.904 93.816 32.014 93.816 24.279C93.816 21.644 88.546 21.219 86.591 21.219C82.596 21.219 78.771 22.579 75.031 23.939C74.691 27.084 74.436 30.144 74.436 33.289ZM179.45 45.699C179.45 63.634 168.485 79.019 148.85 79.019C127.94 79.019 116.465 65.589 116.465 46.464C116.465 34.224 121.905 24.194 132.87 17.649C138.14 14.589 146.895 13.909 153.1 13.909C162.11 13.909 169.42 18.244 174.69 24.874C178.94 30.144 179.45 39.239 179.45 45.699ZM153.95 30.824C145.28 30.824 138.48 32.779 135.675 41.194C134.74 43.914 133.72 46.719 133.72 49.609C133.72 59.724 138.48 64.484 149.19 64.484C160.92 64.484 163.98 60.489 165.765 50.289C167.38 40.089 167.465 30.824 153.95 30.824ZM240.496 48.334C240.496 69.924 231.656 77.744 210.151 77.744C197.316 77.744 188.391 64.484 187.371 52.839C187.116 49.779 186.946 46.719 186.946 43.659C186.946 36.604 187.711 12.124 197.741 12.124C201.906 12.124 205.986 13.824 206.836 18.754C209.216 32.524 201.311 60.404 214.146 60.404C222.646 60.404 225.281 60.999 225.281 51.734C225.281 42.724 222.816 33.714 222.816 24.874C222.816 20.029 222.901 12.719 231.231 12.719C243.811 12.719 240.496 41.109 240.496 48.334ZM260.806 28.359C255.961 27.679 246.356 26.999 246.356 20.709C246.356 18.669 247.546 16.884 249.331 15.779C252.476 13.824 275.171 12.464 280.101 12.464C285.031 12.464 293.616 12.889 293.616 19.179C293.616 25.979 281.801 26.574 276.446 27.424C276.871 34.819 277.636 42.044 277.636 49.269C277.636 56.324 277.806 78.424 267.181 78.424C257.916 78.424 257.661 63.719 257.661 57.514C257.661 47.824 260.126 38.049 260.806 28.359ZM347.863 74.854L337.833 74.939C332.988 74.939 326.783 73.749 326.783 67.714C326.783 59.214 341.913 59.214 347.523 59.214C348.458 57.429 348.118 55.729 347.948 53.944C345.228 53.944 342.593 54.284 339.873 54.284C331.203 54.284 324.063 47.144 324.063 38.389C324.063 24.619 339.193 19.519 350.328 17.479C350.923 13.569 351.093 4.55897 356.533 4.55897C359.508 4.55897 361.293 6.76897 361.293 9.57397C361.293 11.784 360.698 14.079 360.698 16.289V18.074C365.033 19.604 372.258 22.069 372.258 27.934C372.258 35.414 364.863 34.564 359.678 34.564C359.508 36.774 359.338 38.984 359.338 41.194C369.453 41.789 380.248 48.249 380.248 59.809C380.248 73.239 367.753 74.174 357.978 75.364C357.723 78.594 357.893 82.419 353.473 82.419C349.648 82.419 348.883 77.744 347.863 74.854ZM348.373 42.809C348.203 40.089 349.053 37.454 348.288 34.904C345.908 35.244 337.238 37.369 337.238 40.429C337.238 42.384 339.278 43.829 341.063 43.829C343.358 43.829 346.078 43.149 348.373 42.809ZM358.828 53.604C358.658 55.559 358.148 57.429 358.998 59.214L361.208 59.299C367.753 59.299 364.183 51.564 358.828 53.604ZM392.326 28.444C390.286 26.659 388.416 25.299 388.416 22.324C388.416 13.569 411.536 12.039 417.911 12.039C434.401 12.039 447.491 19.519 447.491 37.709C447.491 42.129 446.046 46.464 443.581 50.119C435.336 62.359 420.036 61.169 407.031 61.169C405.331 66.184 407.966 78.169 399.636 78.169C390.626 78.169 390.116 56.834 390.116 50.374C390.116 42.979 390.966 35.669 392.326 28.444ZM406.691 43.149C409.751 43.829 412.896 43.999 416.041 43.999C420.886 43.999 429.811 44.594 429.811 37.539C429.811 25.809 413.831 28.444 406.096 29.294C406.266 33.884 406.436 38.559 406.691 43.149ZM469.359 26.489C464.769 25.894 455.844 25.894 455.844 19.519C455.844 10.084 472.674 11.274 478.964 11.274C483.724 11.274 495.114 9.48897 495.114 16.884C495.114 22.749 486.699 24.449 482.279 25.384C482.449 30.484 482.874 35.499 482.874 40.599C482.874 43.914 482.789 47.229 482.704 50.544C482.619 54.794 481.429 58.959 481.429 63.209C485.934 64.314 495.709 66.014 495.709 72.049C495.709 80.124 482.194 77.999 476.839 77.999C470.464 77.999 453.804 80.039 453.804 70.094C453.804 62.444 463.239 62.444 468.679 62.104C469.274 57.089 468.679 52.159 468.679 47.144C468.679 40.259 469.189 33.374 469.359 26.489ZM502.566 27.339C502.566 24.959 500.951 23.259 500.951 20.964C500.951 11.699 521.096 11.104 527.386 11.104C546.426 11.104 557.816 25.469 557.816 43.999C557.816 64.144 540.306 78.934 520.161 78.934C517.186 78.934 514.126 78.169 511.406 77.064C507.921 75.704 505.711 73.409 505.626 69.669C505.371 54.114 502.566 40.854 502.566 27.339ZM517.781 26.234C518.971 37.964 520.161 49.864 519.821 61.679L520.246 62.614C532.401 61.509 540.816 60.574 540.816 46.124C540.816 30.909 532.741 22.834 517.781 26.234ZM627.858 45.699C627.858 63.634 616.893 79.019 597.258 79.019C576.348 79.019 564.873 65.589 564.873 46.464C564.873 34.224 570.313 24.194 581.278 17.649C586.548 14.589 595.303 13.909 601.508 13.909C610.518 13.909 617.828 18.244 623.098 24.874C627.348 30.144 627.858 39.239 627.858 45.699ZM602.358 30.824C593.688 30.824 586.888 32.779 584.083 41.194C583.148 43.914 582.128 46.719 582.128 49.609C582.128 59.724 586.888 64.484 597.598 64.484C609.328 64.484 612.388 60.489 614.173 50.289C615.788 40.089 615.873 30.824 602.358 30.824Z" fill="#9C6419"/>
<path d="M33.405 60.404H35.405V58.0283L33.0641 58.4332L33.405 60.404ZM17.6799 63.124L17.3391 61.1532L15.8666 61.4079L15.6934 62.8922L17.6799 63.124ZM34.765 48.844L34.8042 50.8436L36.5475 50.8094L36.7513 49.0777L34.765 48.844ZM31.7049 25.214L32.5217 23.3883L31.5371 22.9479L30.6282 23.5286L31.7049 25.214ZM20.3149 48.929L18.3155 48.8808L18.2737 50.6164L19.9862 50.9018L20.3149 48.929ZM33.0641 58.4332L17.3391 61.1532L18.0208 65.0947L33.7458 62.3747L33.0641 58.4332ZM15.6934 62.8922C15.5337 64.2612 15.5024 65.9969 15.431 67.5758C15.356 69.2338 15.2358 70.8443 14.9284 72.263C14.6177 73.697 14.1564 74.7323 13.5457 75.393C13.0034 75.9796 12.2062 76.424 10.7949 76.424V80.424C13.2087 80.424 15.1102 79.5933 16.4831 78.1081C17.7875 76.6969 18.4578 74.8634 18.8377 73.11C19.221 71.3411 19.3505 69.4454 19.4269 67.7565C19.5069 65.9886 19.5287 64.5368 19.6665 63.3557L15.6934 62.8922ZM10.7949 76.424C9.33865 76.424 8.41117 75.9593 7.73959 75.2894C7.01315 74.5648 6.44976 73.4582 6.05284 71.9934C5.24603 69.0159 5.31495 65.3545 5.31495 62.529H1.31495C1.31495 65.1434 1.21387 69.4296 2.19206 73.0395C2.68764 74.8685 3.5055 76.7157 4.91469 78.1214C6.37873 79.5818 8.34125 80.424 10.7949 80.424V76.424ZM5.31495 62.529C5.31495 55.3399 7.26604 42.7223 11.6987 31.9573C13.9128 26.5803 16.6947 21.793 20.0529 18.3779C23.3854 14.989 27.2079 13.019 31.62 13.019V9.01897C25.8745 9.01897 21.0802 11.6283 17.2009 15.5733C13.3474 19.4921 10.3228 24.7933 7.99997 30.4343C3.35886 41.7056 1.31495 54.8431 1.31495 62.529H5.31495ZM31.62 13.019C35.7077 13.019 38.6977 14.4232 40.9712 16.6682C43.2969 18.9647 44.9698 22.2425 46.1437 26.0945C48.4998 33.8257 48.66 43.2113 48.66 49.694H52.66C52.66 43.2567 52.5226 33.3047 49.97 24.9284C48.6895 20.7267 46.7552 16.7582 43.7817 13.822C40.7559 10.8341 36.7547 9.01897 31.62 9.01897V13.019ZM48.66 49.694C48.66 52.9958 48.5506 59.9169 47.2989 65.9702C46.6699 69.0122 45.7859 71.6592 44.603 73.4985C43.4459 75.2977 42.182 76.084 40.715 76.084V80.084C44.0079 80.084 46.3671 78.1503 47.9673 75.6622C49.5415 73.2144 50.5488 70.007 51.216 66.7802C52.5568 60.2961 52.66 53.0221 52.66 49.694H48.66ZM40.715 76.084C38.9733 76.084 37.9569 75.5362 37.2754 74.7998C36.5291 73.9933 35.998 72.7549 35.6766 71.095C35.0133 67.6694 35.405 63.6682 35.405 60.404H31.405C31.405 63.0897 30.9891 67.9286 31.7496 71.8554C32.14 73.8718 32.8786 75.9377 34.3396 77.5166C35.8655 79.1655 37.9941 80.084 40.715 80.084V76.084ZM36.7513 49.0777C37.0954 46.1527 37.36 43.1756 37.36 40.089H33.36C33.36 42.9523 33.1145 45.7553 32.7786 48.6103L36.7513 49.0777ZM37.36 40.089C37.36 38.419 37.2518 34.9431 36.7177 31.6609C36.4519 30.027 36.0662 28.3478 35.4903 26.9375C34.9522 25.6198 34.0671 24.0797 32.5217 23.3883L30.8882 27.0396C30.9578 27.0708 31.3371 27.3475 31.7871 28.4497C32.1994 29.4592 32.5255 30.8028 32.7697 32.3033C33.2556 35.2898 33.36 38.529 33.36 40.089H37.36ZM30.6282 23.5286C27.0667 25.8039 24.0625 30.4107 21.9564 35.068C19.8279 39.7749 18.4091 44.9975 18.3155 48.8808L22.3144 48.9772C22.3908 45.8054 23.607 41.1255 25.601 36.7162C27.6174 32.2572 30.2232 28.534 32.7817 26.8994L30.6282 23.5286ZM19.9862 50.9018C20.1947 50.9365 20.3061 50.9701 20.672 51.0463C20.9645 51.1072 21.3806 51.184 21.845 51.184V47.184C21.7993 47.184 21.7053 47.1757 21.4879 47.1304C21.3438 47.1004 20.9452 47.0064 20.6437 46.9562L19.9862 50.9018ZM21.845 51.184C26.1753 51.184 30.6062 50.9259 34.8042 50.8436L34.7257 46.8444C30.2537 46.932 26.1846 47.184 21.845 47.184V51.184ZM101.721 38.984L100.084 37.8351L99.1733 39.1327L100.229 40.3155L101.721 38.984ZM70.271 78.339L70.2234 80.3384L70.2285 80.3385L70.271 78.339ZM65.766 13.654L67.2571 14.9869L67.2579 14.986L65.766 13.654ZM74.521 53.434L73.3421 51.8184L72.521 52.4175V53.434H74.521ZM74.521 62.359H72.521V64.1245L74.273 64.3435L74.521 62.359ZM74.436 33.289H72.436V33.314L72.4367 33.339L74.436 33.289ZM74.521 36.689L72.5217 36.739L72.5886 39.4151L75.1359 38.5921L74.521 36.689ZM75.031 23.939L74.3476 22.0594L73.1766 22.4852L73.0426 23.724L75.031 23.939ZM100.229 40.3155C102.771 43.1644 104.741 45.2345 106.147 47.578C107.489 49.8133 108.306 52.3045 108.306 55.899H112.306C112.306 51.5884 111.296 48.3846 109.577 45.52C107.923 42.7635 105.601 40.3286 103.213 37.6524L100.229 40.3155ZM108.306 55.899C108.306 62.828 105.091 67.9224 100.256 71.3528C95.359 74.8266 88.7744 76.594 82.256 76.594V80.594C89.4227 80.594 96.8631 78.6639 102.57 74.6152C108.338 70.5231 112.306 64.2699 112.306 55.899H108.306ZM82.256 76.594C78.2859 76.594 74.3688 76.4257 70.3136 76.3394L70.2285 80.3385C74.1633 80.4222 78.2362 80.594 82.256 80.594V76.594ZM70.3186 76.3395C68.5505 76.2974 66.9378 75.2445 65.4393 72.9909C63.9347 70.7281 62.7542 67.5384 61.8634 63.9491C60.0877 56.7945 59.606 48.6591 59.606 44.849H55.606C55.606 48.8588 56.1019 57.341 57.9812 64.9126C58.9178 68.6865 60.2343 72.3871 62.1084 75.2057C63.9887 78.0334 66.6366 80.253 70.2234 80.3384L70.3186 76.3395ZM59.606 44.849C59.606 41.261 60.3638 35.0211 61.7547 28.9661C62.4474 25.9505 63.2856 23.0321 64.2417 20.5499C65.2126 18.0291 66.2451 16.119 67.2571 14.9869L64.275 12.321C62.7795 13.9939 61.5382 16.4401 60.509 19.1122C59.4649 21.823 58.5766 24.9344 57.8562 28.0706C56.4208 34.3193 55.606 40.8719 55.606 44.849H59.606ZM67.2579 14.986C69.0475 12.9817 71.9601 11.4048 75.3296 10.3322C78.6684 9.26943 82.2461 8.76897 85.146 8.76897V4.76897C81.841 4.76897 77.8537 5.33101 74.1163 6.52069C70.4094 7.70065 66.7346 9.56629 64.2742 12.3219L67.2579 14.986ZM85.146 8.76897C89.763 8.76897 95.1999 9.90283 99.4107 12.3452C103.571 14.7587 106.351 18.3098 106.351 23.259H110.351C110.351 16.4781 106.416 11.7843 101.418 8.88519C96.4696 6.01511 90.3041 4.76897 85.146 4.76897V8.76897ZM106.351 23.259C106.351 28.7427 103.532 32.9223 100.084 37.8351L103.358 40.1328C106.711 35.3557 110.351 30.1852 110.351 23.259H106.351ZM72.521 53.434V62.359H76.521V53.434H72.521ZM74.273 64.3435C75.7092 64.5231 77.0672 64.614 78.516 64.614V60.614C77.2449 60.614 76.0529 60.5349 74.7691 60.3744L74.273 64.3435ZM78.516 64.614C81.2256 64.614 85.3165 64.2652 88.8065 62.9696C92.2353 61.6966 95.816 59.1843 95.816 54.539H91.816C91.816 56.6087 90.3392 58.1338 87.4144 59.2196C84.5506 60.2828 80.9915 60.614 78.516 60.614V64.614ZM95.816 54.539C95.816 51.7634 94.4237 49.8103 92.5008 48.6507C90.6871 47.5569 88.458 47.184 86.506 47.184V51.184C88.0391 51.184 89.465 51.491 90.4351 52.076C91.2959 52.5951 91.816 53.3196 91.816 54.539H95.816ZM86.506 47.184C82.0759 47.184 76.7424 49.3371 73.3421 51.8184L75.7 55.0496C78.5897 52.9408 83.1162 51.184 86.506 51.184V47.184ZM72.4367 33.339L72.5217 36.739L76.5204 36.639L76.4354 33.239L72.4367 33.339ZM75.1359 38.5921C77.6859 37.7683 82.8032 36.5094 87.0803 34.5303C89.2475 33.5275 91.3819 32.2658 92.9971 30.6397C94.6412 28.9845 95.816 26.8736 95.816 24.279H91.816C91.816 25.5519 91.2697 26.7028 90.1592 27.8208C89.0199 28.9677 87.3664 29.9905 85.4005 30.9001C81.4114 32.746 76.8812 33.8247 73.9062 34.7858L75.1359 38.5921ZM95.816 24.279C95.816 22.8444 95.0612 21.792 94.1944 21.1139C93.3744 20.4725 92.3693 20.0841 91.474 19.8344C89.6659 19.3301 87.6572 19.219 86.591 19.219V23.219C87.4799 23.219 89.0837 23.3204 90.3994 23.6873C91.0659 23.8732 91.5005 24.0851 91.7298 24.2645C91.9122 24.4072 91.816 24.396 91.816 24.279H95.816ZM86.591 19.219C82.1888 19.219 78.039 20.717 74.3476 22.0594L75.7145 25.8186C79.503 24.4409 83.0033 23.219 86.591 23.219V19.219ZM73.0426 23.724C72.6996 26.8966 72.436 30.0386 72.436 33.289H76.436C76.436 30.2494 76.6824 27.2714 77.0195 24.1539L73.0426 23.724ZM132.87 17.649L131.865 15.9194L131.855 15.9255L131.844 15.9316L132.87 17.649ZM174.69 24.874L173.124 26.1185L173.133 26.1295L174.69 24.874ZM135.675 41.194L137.566 41.8441L137.569 41.8353L137.572 41.8264L135.675 41.194ZM165.765 50.289L167.735 50.6337L167.737 50.6178L167.74 50.6017L165.765 50.289ZM177.45 45.699C177.45 54.2746 174.828 62.1194 169.991 67.7863C165.186 73.417 158.098 77.019 148.85 77.019V81.019C159.236 81.019 167.448 76.9285 173.034 70.3829C178.589 63.8736 181.45 55.0584 181.45 45.699H177.45ZM148.85 77.019C138.837 77.019 131.302 73.8159 126.263 68.533C121.21 63.235 118.465 55.6317 118.465 46.464H114.465C114.465 56.4213 117.457 65.0954 123.369 71.2937C129.295 77.507 137.952 81.019 148.85 81.019V77.019ZM118.465 46.464C118.465 34.9157 123.545 25.5441 133.895 19.3663L131.844 15.9316C120.264 22.8439 114.465 33.5323 114.465 46.464H118.465ZM133.874 19.3785C136.192 18.0327 139.411 17.1461 142.935 16.6086C146.428 16.0761 150.061 15.909 153.1 15.909V11.909C149.934 11.909 146.087 12.0818 142.332 12.6543C138.611 13.2219 134.817 14.2052 131.865 15.9194L133.874 19.3785ZM153.1 15.909C161.394 15.909 168.162 19.876 173.124 26.1185L176.255 23.6295C170.677 16.6119 162.825 11.909 153.1 11.909V15.909ZM173.133 26.1295C174.951 28.3836 176.06 31.5898 176.694 35.1872C177.322 38.7556 177.45 42.5078 177.45 45.699H181.45C181.45 42.4302 181.322 38.4049 180.633 34.4933C179.949 30.6107 178.679 26.6344 176.246 23.6185L173.133 26.1295ZM153.95 28.824C149.509 28.824 145.275 29.316 141.73 31.0585C138.088 32.8489 135.339 35.8766 133.777 40.5615L137.572 41.8264C138.815 38.0963 140.869 35.9391 143.495 34.6482C146.219 33.3094 149.72 32.824 153.95 32.824V28.824ZM133.783 40.5438C132.881 43.1669 131.72 46.3158 131.72 49.609H135.72C135.72 47.1221 136.598 44.661 137.566 41.8441L133.783 40.5438ZM131.72 49.609C131.72 54.944 132.973 59.2931 136.045 62.2748C139.104 65.2438 143.585 66.484 149.19 66.484V62.484C144.085 62.484 140.83 61.3442 138.831 59.4044C136.846 57.4773 135.72 54.3889 135.72 49.609H131.72ZM149.19 66.484C155.206 66.484 159.546 65.4761 162.566 62.6786C165.543 59.9206 166.835 55.7772 167.735 50.6337L163.794 49.9442C162.91 55.0008 161.779 57.9548 159.847 59.7443C157.958 61.4943 154.903 62.484 149.19 62.484V66.484ZM167.74 50.6017C168.538 45.5609 169.088 40.1539 167.382 35.9755C166.49 33.7907 164.989 31.945 162.689 30.6789C160.432 29.4365 157.539 28.824 153.95 28.824V32.824C157.118 32.824 159.282 33.3695 160.76 34.1831C162.195 34.9729 163.105 36.081 163.679 37.4875C164.906 40.4915 164.606 44.8171 163.789 49.9762L167.74 50.6017ZM187.371 52.839L185.378 53.0051L185.379 53.0135L187.371 52.839ZM206.836 18.754L204.865 19.0938L204.865 19.0946L206.836 18.754ZM238.496 48.334C238.496 58.925 236.316 65.5942 232.01 69.6853C227.679 73.8003 220.746 75.744 210.151 75.744V79.744C221.062 79.744 229.3 77.7777 234.766 72.5851C240.256 67.3688 242.496 59.333 242.496 48.334H238.496ZM210.151 75.744C204.477 75.744 199.558 72.8214 195.869 68.3803C192.168 63.9256 189.838 58.0851 189.364 52.6645L185.379 53.0135C185.924 59.2378 188.567 65.8499 192.792 70.9364C197.029 76.0365 202.991 79.744 210.151 79.744V75.744ZM189.364 52.6729C189.112 49.6479 188.946 46.6464 188.946 43.659H184.946C184.946 46.7915 185.12 49.91 185.378 53.0051L189.364 52.6729ZM188.946 43.659C188.946 40.1667 189.138 32.4475 190.541 25.6501C191.246 22.2347 192.224 19.2206 193.526 17.1084C194.816 15.014 196.203 14.124 197.741 14.124V10.124C194.264 10.124 191.794 12.294 190.12 15.01C188.458 17.7082 187.364 21.2551 186.624 24.8416C185.136 32.048 184.946 40.0962 184.946 43.659H188.946ZM197.741 14.124C199.582 14.124 201.234 14.5039 202.463 15.2807C203.627 16.0166 204.535 17.1807 204.865 19.0938L208.807 18.4142C208.287 15.3972 206.73 13.2464 204.601 11.8998C202.535 10.5941 200.066 10.124 197.741 10.124V14.124ZM204.865 19.0946C205.419 22.3001 205.386 26.4279 205.18 30.9806C204.978 35.4387 204.608 40.3351 204.571 44.7256C204.533 49.0923 204.809 53.3441 206.06 56.558C206.698 58.1975 207.633 59.6842 209.018 60.7591C210.429 61.854 212.155 62.404 214.146 62.404V58.404C212.928 58.404 212.094 58.0827 211.471 57.5992C210.822 57.0956 210.251 56.2965 209.788 55.1072C208.837 52.6632 208.533 49.0844 208.57 44.7598C208.607 40.4591 208.965 35.8036 209.175 31.1614C209.381 26.6138 209.443 22.0929 208.807 18.4133L204.865 19.0946ZM214.146 62.404C216.2 62.404 218.071 62.4424 219.595 62.3484C221.114 62.2547 222.632 62.0196 223.913 61.2686C225.298 60.4561 226.158 59.1956 226.65 57.5801C227.118 56.0432 227.281 54.1034 227.281 51.734H223.281C223.281 53.997 223.115 55.4572 222.823 56.4146C222.556 57.2933 222.225 57.6212 221.889 57.8181C221.449 58.0765 220.715 58.2717 219.349 58.356C217.988 58.4399 216.343 58.404 214.146 58.404V62.404ZM227.281 51.734C227.281 47.0695 226.643 42.4293 226.03 37.9679C225.41 33.4579 224.816 29.1332 224.816 24.874H220.816C220.816 29.4547 221.455 34.0551 222.067 38.5125C222.687 43.0187 223.281 47.3884 223.281 51.734H227.281ZM224.816 24.874C224.816 22.369 224.866 19.7647 225.733 17.78C226.14 16.8468 226.702 16.1235 227.486 15.6174C228.275 15.1084 229.444 14.719 231.231 14.719V10.719C228.853 10.719 226.888 11.2433 225.318 12.2564C223.743 13.2723 222.722 14.6793 222.067 16.1792C220.809 19.0608 220.816 22.5339 220.816 24.874H224.816ZM231.231 14.719C233.417 14.719 234.989 15.8653 236.216 18.1983C237.49 20.6223 238.225 24.0829 238.59 28.0022C239.325 35.9073 238.496 44.4046 238.496 48.334H242.496C242.496 45.0384 243.325 35.7281 242.573 27.632C242.193 23.5506 241.399 19.4622 239.756 16.3373C238.066 13.1214 235.335 10.719 231.231 10.719V14.719ZM260.806 28.359L262.801 28.499L262.932 26.6377L261.084 26.3784L260.806 28.359ZM249.331 15.779L250.384 17.4795L250.387 17.4775L249.331 15.779ZM276.446 27.424L276.132 25.4487L274.345 25.7323L274.449 27.5387L276.446 27.424ZM261.084 26.3784C258.514 26.0177 255.187 25.7064 252.418 24.7478C249.61 23.7752 248.356 22.5005 248.356 20.709H244.356C244.356 25.2075 247.904 27.4177 251.11 28.5276C254.355 29.6515 258.252 30.0202 260.528 30.3396L261.084 26.3784ZM248.356 20.709C248.356 19.4988 249.061 18.2985 250.384 17.4795L248.278 14.0784C246.031 15.4695 244.356 17.8392 244.356 20.709H248.356ZM250.387 17.4775C250.386 17.478 250.416 17.4595 250.491 17.4263C250.564 17.394 250.663 17.3549 250.793 17.3102C251.054 17.2202 251.396 17.1224 251.822 17.0196C252.676 16.814 253.777 16.6105 255.073 16.4135C257.659 16.0203 260.898 15.6713 264.221 15.3807C270.88 14.7984 277.72 14.464 280.101 14.464V10.464C277.551 10.464 270.579 10.8095 263.872 11.3959C260.512 11.6898 257.179 12.0474 254.472 12.459C253.12 12.6644 251.894 12.8878 250.885 13.1308C249.948 13.3566 248.967 13.6501 248.275 14.0804L250.387 17.4775ZM280.101 14.464C282.566 14.464 285.66 14.58 288.092 15.3659C289.294 15.7542 290.18 16.2593 290.75 16.8567C291.273 17.4051 291.616 18.1151 291.616 19.179H295.616C295.616 17.0979 294.885 15.396 293.645 14.0956C292.451 12.8442 290.883 12.0638 289.322 11.5596C286.229 10.5605 282.566 10.464 280.101 10.464V14.464ZM291.616 19.179C291.616 20.2044 291.206 20.9907 290.381 21.7006C289.493 22.4649 288.152 23.1024 286.456 23.6197C283.008 24.671 279.032 24.9885 276.132 25.4487L276.759 29.3992C279.215 29.0095 283.823 28.6044 287.622 27.4457C289.549 26.8581 291.496 26.0187 292.991 24.7324C294.549 23.3917 295.616 21.5536 295.616 19.179H291.616ZM274.449 27.5387C274.882 35.0664 275.636 42.1161 275.636 49.269H279.636C279.636 41.9718 278.86 34.5715 278.443 27.3092L274.449 27.5387ZM275.636 49.269C275.636 52.8323 275.672 59.9196 274.432 66.0986C273.81 69.1993 272.901 71.8795 271.641 73.7389C270.427 75.5315 269.002 76.424 267.181 76.424V80.424C270.673 80.424 273.211 78.554 274.953 75.9823C276.649 73.4775 277.69 70.1917 278.354 66.8856C279.685 60.2508 279.636 52.7607 279.636 49.269H275.636ZM267.181 76.424C265.474 76.424 264.249 75.7785 263.272 74.6921C262.237 73.5412 261.445 71.8431 260.875 69.7665C259.733 65.6068 259.661 60.6316 259.661 57.514H255.661C255.661 60.6013 255.716 66.0811 257.018 70.8252C257.67 73.2005 258.679 75.5664 260.297 77.3666C261.974 79.2313 264.255 80.424 267.181 80.424V76.424ZM259.661 57.514C259.661 52.8239 260.258 48.0805 260.958 43.2217C261.652 38.4051 262.454 33.4379 262.801 28.499L258.811 28.219C258.477 32.97 257.707 37.7354 256.999 42.6512C256.296 47.525 255.661 52.514 255.661 57.514H259.661ZM347.863 74.854L349.749 74.1883L349.274 72.8419L347.846 72.854L347.863 74.854ZM337.833 74.939V76.939H337.842L337.85 76.9389L337.833 74.939ZM347.523 59.214V61.214H348.733L349.295 60.142L347.523 59.214ZM347.948 53.944L349.939 53.7544L349.767 51.944H347.948V53.944ZM350.328 17.479L350.689 19.4462L352.091 19.1893L352.305 17.7799L350.328 17.479ZM360.698 18.074H358.698V19.489L360.032 19.96L360.698 18.074ZM359.678 34.564V32.564H357.826L357.684 34.4106L359.678 34.564ZM359.338 41.194H357.338V43.0798L359.221 43.1905L359.338 41.194ZM357.978 75.364L357.736 73.3786L356.113 73.5763L355.984 75.2066L357.978 75.364ZM348.373 42.809L348.666 44.7874L350.484 44.5181L350.369 42.6842L348.373 42.809ZM348.288 34.904L350.204 34.3293L349.709 32.6807L348.005 32.9241L348.288 34.904ZM358.828 53.604L358.116 51.735L356.944 52.1814L356.836 53.4307L358.828 53.604ZM358.998 59.214L357.192 60.0738L357.712 61.166L358.921 61.2125L358.998 59.214ZM361.208 59.299L361.131 61.2975L361.17 61.299H361.208V59.299ZM347.846 72.854L337.816 72.939L337.85 76.9389L347.88 76.8539L347.846 72.854ZM337.833 72.939C335.511 72.939 333.114 72.6435 331.368 71.792C330.522 71.3795 329.896 70.869 329.479 70.259C329.071 69.6644 328.783 68.8612 328.783 67.714H324.783C324.783 69.5843 325.27 71.1929 326.178 72.5188C327.075 73.8293 328.303 74.7478 329.615 75.3872C332.182 76.6395 335.311 76.939 337.833 76.939V72.939ZM328.783 67.714C328.783 66.2885 329.376 65.2416 330.478 64.3665C331.655 63.4328 333.396 62.7236 335.511 62.2226C339.732 61.2223 344.686 61.214 347.523 61.214V57.214C344.75 57.214 339.335 57.2056 334.588 58.3304C332.219 58.8919 329.827 59.7764 327.992 61.2333C326.082 62.7488 324.783 64.8894 324.783 67.714H328.783ZM349.295 60.142C350.571 57.705 350.084 55.2719 349.939 53.7544L345.957 54.1336C346.153 56.1861 346.345 57.153 345.751 58.286L349.295 60.142ZM347.948 51.944C346.514 51.944 345.113 52.0336 343.784 52.118C342.435 52.2036 341.159 52.284 339.873 52.284V56.284C341.307 56.284 342.709 56.1943 344.037 56.11C345.386 56.0243 346.662 55.944 347.948 55.944V51.944ZM339.873 52.284C332.315 52.284 326.063 46.0464 326.063 38.389H322.063C322.063 48.2416 330.092 56.284 339.873 56.284V52.284ZM326.063 38.389C326.063 32.3971 329.294 28.2384 334.084 25.2287C338.937 22.1793 345.207 20.4504 350.689 19.4462L349.968 15.5117C344.314 16.5475 337.452 18.3886 331.956 21.8418C326.397 25.3346 322.063 30.6109 322.063 38.389H326.063ZM352.305 17.7799C352.646 15.541 352.784 12.6905 353.534 10.111C353.897 8.8637 354.344 7.93328 354.859 7.3427C355.315 6.82059 355.816 6.55897 356.533 6.55897V2.55897C354.53 2.55897 352.97 3.4236 351.845 4.71306C350.78 5.93404 350.128 7.50049 349.693 8.99444C348.849 11.8975 348.605 15.5069 348.351 17.1781L352.305 17.7799ZM356.533 6.55897C357.493 6.55897 358.132 6.89933 358.546 7.35734C358.982 7.83835 359.293 8.58933 359.293 9.57397H363.293C363.293 7.75362 362.711 5.99709 361.511 4.67186C360.29 3.32361 358.548 2.55897 356.533 2.55897V6.55897ZM359.293 9.57397C359.293 10.5246 359.165 11.5187 359.013 12.6696C358.867 13.7712 358.698 15.0296 358.698 16.289H362.698C362.698 15.3383 362.826 14.3443 362.978 13.1933C363.124 12.0918 363.293 10.8333 363.293 9.57397H359.293ZM358.698 16.289V18.074H362.698V16.289H358.698ZM360.032 19.96C362.253 20.7437 364.899 21.6677 367.007 23.0505C369.095 24.4205 370.258 25.9716 370.258 27.934H374.258C374.258 24.0313 371.809 21.4175 369.201 19.7061C366.612 18.0077 363.478 16.9342 361.364 16.188L360.032 19.96ZM370.258 27.934C370.258 29.467 369.885 30.3424 369.457 30.8795C369.019 31.4297 368.347 31.8462 367.357 32.1328C366.351 32.4238 365.139 32.545 363.779 32.5806C362.376 32.6173 361.091 32.564 359.678 32.564V36.564C360.858 36.564 362.442 36.6169 363.883 36.5792C365.368 36.5404 366.977 36.4067 368.468 35.9752C369.975 35.5393 371.476 34.7658 372.586 33.3715C373.707 31.9643 374.258 30.1409 374.258 27.934H370.258ZM357.684 34.4106C357.515 36.6076 357.338 38.8943 357.338 41.194H361.338C361.338 39.0736 361.501 36.9404 361.672 34.7174L357.684 34.4106ZM359.221 43.1905C363.929 43.4675 368.748 45.1131 372.346 47.9583C375.902 50.7711 378.248 54.7278 378.248 59.809H382.248C382.248 53.3301 379.197 48.2769 374.827 44.8209C370.498 41.3973 364.863 39.5155 359.456 39.1974L359.221 43.1905ZM378.248 59.809C378.248 62.8452 377.546 65.0202 376.477 66.6318C375.402 68.2512 373.855 69.4524 371.922 70.3694C367.94 72.258 362.767 72.7662 357.736 73.3786L358.22 77.3493C362.964 76.7717 368.926 76.2174 373.636 73.9835C376.048 72.8393 378.236 71.2143 379.809 68.844C381.388 66.4659 382.248 63.4878 382.248 59.809H378.248ZM355.984 75.2066C355.912 76.1182 355.886 76.8294 355.8 77.6113C355.718 78.3577 355.602 78.9301 355.43 79.3624C355.268 79.7685 355.086 79.9796 354.891 80.1101C354.691 80.2445 354.29 80.419 353.473 80.419V84.419C354.867 84.419 356.101 84.1153 357.12 83.4316C358.145 82.744 358.765 81.7969 359.145 80.843C359.515 79.9154 359.68 78.9259 359.776 78.0466C359.869 77.203 359.916 76.2248 359.972 75.5214L355.984 75.2066ZM353.473 80.419C352.624 80.419 352.019 80.0049 351.39 78.7964C351.069 78.1806 350.799 77.451 350.534 76.6362C350.295 75.9031 350.009 74.9256 349.749 74.1883L345.977 75.5196C346.227 76.2274 346.419 76.9179 346.73 77.8742C347.015 78.7488 347.366 79.7299 347.842 80.6441C348.807 82.4956 350.497 84.419 353.473 84.419V80.419ZM350.369 42.6842C350.295 41.503 350.442 40.398 350.548 38.9375C350.647 37.5746 350.697 35.9718 350.204 34.3293L346.372 35.4787C346.645 36.3862 346.651 37.3758 346.559 38.6479C346.474 39.8224 346.281 41.395 346.377 42.9337L350.369 42.6842ZM348.005 32.9241C346.677 33.1139 343.765 33.7663 341.147 34.7819C339.845 35.2872 338.494 35.9278 337.433 36.7202C336.451 37.4541 335.238 38.6801 335.238 40.429H339.238C339.238 40.6478 339.109 40.4608 339.827 39.925C340.466 39.4476 341.432 38.962 342.594 38.5111C344.906 37.6142 347.52 37.0341 348.571 36.8839L348.005 32.9241ZM335.238 40.429C335.238 42.1433 336.135 43.5179 337.207 44.404C338.268 45.2802 339.667 45.829 341.063 45.829V41.829C340.674 41.829 340.161 41.6552 339.755 41.3202C339.361 40.9951 339.238 40.6697 339.238 40.429H335.238ZM341.063 45.829C342.385 45.829 343.775 45.6349 345.052 45.4183C346.414 45.1875 347.528 44.956 348.666 44.7874L348.08 40.8306C346.923 41.0019 345.529 41.2805 344.384 41.4746C343.154 41.6831 342.036 41.829 341.063 41.829V45.829ZM356.836 53.4307C356.797 53.8744 356.74 54.3075 356.678 54.8116C356.619 55.2946 356.558 55.8324 356.533 56.3819C356.482 57.4955 356.574 58.7744 357.192 60.0738L360.804 58.3541C360.573 57.8685 360.494 57.3199 360.529 56.5635C360.546 56.1781 360.591 55.7703 360.649 55.2969C360.704 54.8449 360.774 54.3111 360.821 53.7772L356.836 53.4307ZM358.921 61.2125L361.131 61.2975L361.285 57.3005L359.075 57.2155L358.921 61.2125ZM361.208 61.299C363.189 61.299 364.947 60.7091 365.97 59.2953C367.002 57.8706 366.883 56.171 366.309 54.8763C365.17 52.3056 361.867 50.306 358.116 51.735L359.54 55.4729C361.144 54.862 362.303 55.7098 362.652 56.4966C362.733 56.6791 362.747 56.8117 362.745 56.8812C362.743 56.9142 362.739 56.9316 362.737 56.9374C362.735 56.9423 362.734 56.9449 362.731 56.9492C362.727 56.9536 362.714 56.9716 362.677 56.999C362.64 57.027 362.573 57.0693 362.461 57.1139C362.234 57.205 361.837 57.299 361.208 57.299V61.299ZM392.326 28.444L394.292 28.8139L394.503 27.6912L393.643 26.9388L392.326 28.444ZM443.581 50.119L441.923 49.0007L441.922 49.0016L443.581 50.119ZM407.031 61.169V59.169H405.597L405.137 60.5269L407.031 61.169ZM406.691 43.149L404.694 43.2599L404.778 44.7727L406.257 45.1013L406.691 43.149ZM406.096 29.294L405.878 27.3059L404.029 27.5091L404.097 29.368L406.096 29.294ZM393.643 26.9388C391.401 24.9766 390.416 24.222 390.416 22.324H386.416C386.416 26.376 389.172 28.3413 391.009 29.9491L393.643 26.9388ZM390.416 22.324C390.416 21.1606 391.151 19.955 393.165 18.7336C395.159 17.5246 398.002 16.5703 401.211 15.8498C407.598 14.4155 414.815 14.039 417.911 14.039V10.039C414.632 10.039 407.101 10.4274 400.335 11.9469C396.967 12.7033 393.632 13.773 391.091 15.3132C388.571 16.8411 386.416 19.1099 386.416 22.324H390.416ZM417.911 14.039C425.893 14.039 432.795 15.8544 437.658 19.6321C442.441 23.348 445.491 29.1471 445.491 37.709H449.491C449.491 28.0809 445.996 21.0449 440.112 16.4733C434.307 11.9635 426.419 10.039 417.911 10.039V14.039ZM445.491 37.709C445.491 41.6954 444.186 45.6458 441.923 49.0007L445.239 51.2373C447.907 47.2822 449.491 42.5625 449.491 37.709H445.491ZM441.922 49.0016C438.189 54.5441 432.859 57.1012 426.717 58.2692C420.475 59.4562 413.667 59.169 407.031 59.169V63.169C413.4 63.169 420.744 63.4767 427.465 62.1988C434.285 60.9017 440.728 57.9338 445.24 51.2363L441.922 49.0016ZM405.137 60.5269C404.614 62.0696 404.453 64.0238 404.334 65.8076C404.208 67.7028 404.124 69.5362 403.846 71.2255C403.567 72.9286 403.131 74.1768 402.498 74.977C401.957 75.661 401.158 76.169 399.636 76.169V80.169C402.279 80.169 404.274 79.1788 405.635 77.4589C406.904 75.8552 407.478 73.7938 407.793 71.8737C408.111 69.9398 408.208 67.8367 408.325 66.0743C408.451 64.2004 408.598 62.7758 408.925 61.8111L405.137 60.5269ZM399.636 76.169C398.328 76.169 397.152 75.446 396.043 73.6735C394.915 71.8715 394.066 69.2761 393.457 66.2939C392.246 60.3619 392.116 53.5831 392.116 50.374H388.116C388.116 53.6249 388.241 60.7435 389.538 67.094C390.183 70.2531 391.15 73.3952 392.652 75.7954C394.173 78.2251 396.439 80.169 399.636 80.169V76.169ZM392.116 50.374C392.116 43.1314 392.949 35.9483 394.292 28.8139L390.361 28.074C388.984 35.3896 388.116 42.8266 388.116 50.374H392.116ZM406.257 45.1013C409.523 45.8272 412.834 45.999 416.041 45.999V41.999C412.958 41.999 409.979 41.8308 407.125 41.1966L406.257 45.1013ZM416.041 45.999C418.303 45.999 422.092 46.1655 425.243 45.351C426.855 44.9344 428.51 44.2166 429.773 42.9205C431.087 41.5725 431.811 39.7684 431.811 37.539H427.811C427.811 38.8371 427.42 39.6042 426.908 40.1289C426.347 40.7054 425.468 41.1616 424.243 41.4782C421.721 42.1299 418.625 41.999 416.041 41.999V45.999ZM431.811 37.539C431.811 34.0949 430.609 31.4784 428.496 29.6648C426.465 27.9226 423.795 27.0947 421.134 26.7187C415.857 25.9728 409.602 26.8967 405.878 27.3059L406.315 31.282C410.325 30.8413 415.928 30.0226 420.574 30.6793C422.876 31.0045 424.683 31.6641 425.891 32.7004C427.015 33.6652 427.811 35.118 427.811 37.539H431.811ZM404.097 29.368C404.267 33.9534 404.438 38.6479 404.694 43.2599L408.688 43.038C408.434 38.47 408.265 33.8146 408.095 29.22L404.097 29.368ZM469.359 26.489L471.359 26.5383L471.403 24.7372L469.616 24.5056L469.359 26.489ZM482.279 25.384L481.865 23.4273L480.225 23.7744L480.28 25.4506L482.279 25.384ZM482.704 50.544L480.705 50.4927L480.705 50.504L482.704 50.544ZM481.429 63.209H479.429V64.7777L480.953 65.1514L481.429 63.209ZM468.679 62.104L468.804 64.1001L470.469 63.996L470.665 62.3396L468.679 62.104ZM469.616 24.5056C467.061 24.1744 464.059 24.0646 461.474 23.2615C460.227 22.8741 459.31 22.3835 458.723 21.7975C458.193 21.269 457.844 20.5842 457.844 19.519H453.844C453.844 21.6413 454.612 23.3471 455.898 24.6301C457.128 25.8557 458.729 26.5975 460.287 27.0815C463.312 28.0208 467.067 28.2086 469.102 28.4724L469.616 24.5056ZM457.844 19.519C457.844 17.8758 458.525 16.7546 459.746 15.8695C461.064 14.9142 463.017 14.2475 465.393 13.8279C470.16 12.9861 475.66 13.274 478.964 13.274V9.27397C475.979 9.27397 469.918 8.96688 464.698 9.88882C462.08 10.351 459.433 11.1559 457.398 12.6311C455.267 14.1765 453.844 16.4447 453.844 19.519H457.844ZM478.964 13.274C480.174 13.274 481.958 13.1574 483.555 13.1097C485.261 13.0589 486.997 13.0712 488.549 13.2868C490.132 13.5067 491.304 13.9103 492.046 14.4769C492.678 14.96 493.114 15.6399 493.114 16.884H497.114C497.114 14.4305 496.126 12.5604 494.474 11.2983C492.932 10.1198 490.959 9.58316 489.099 9.32486C487.209 9.06234 485.205 9.05875 483.436 9.1115C481.56 9.16746 480.135 9.27397 478.964 9.27397V13.274ZM493.114 16.884C493.114 18.6372 491.92 20.0127 489.489 21.1797C487.089 22.3316 484.129 22.9485 481.865 23.4273L482.693 27.3407C484.85 26.8845 488.307 26.1839 491.22 24.7858C494.101 23.4028 497.114 20.9957 497.114 16.884H493.114ZM480.28 25.4506C480.456 30.7092 480.874 35.5201 480.874 40.599H484.874C484.874 35.4778 484.443 30.2588 484.278 25.3173L480.28 25.4506ZM480.874 40.599C480.874 43.8841 480.79 47.1734 480.705 50.4927L484.704 50.5952C484.789 47.2845 484.874 43.9439 484.874 40.599H480.874ZM480.705 50.504C480.665 52.4793 480.369 54.4519 480.056 56.5866C479.75 58.6757 479.429 60.9174 479.429 63.209H483.429C483.429 61.2505 483.704 59.2847 484.014 57.1663C484.317 55.0935 484.658 52.8587 484.704 50.584L480.705 50.504ZM480.953 65.1514C483.343 65.7377 486.656 66.3852 489.456 67.6121C492.357 68.8832 493.709 70.3337 493.709 72.049H497.709C497.709 67.7292 494.174 65.3122 491.061 63.9484C487.848 62.5403 484.021 61.7853 481.906 61.2666L480.953 65.1514ZM493.709 72.049C493.709 73.3928 493.202 74.1679 492.375 74.7416C491.423 75.4015 489.952 75.841 488.048 76.0659C486.18 76.2866 484.112 76.2782 482.119 76.2061C480.221 76.1375 478.216 75.999 476.839 75.999V79.999C478.14 79.999 479.833 80.1261 481.975 80.2035C484.022 80.2776 486.337 80.2958 488.517 80.0383C490.661 79.785 492.904 79.2418 494.653 78.029C496.527 76.73 497.709 74.7426 497.709 72.049H493.709ZM476.839 75.999C473.374 75.999 467.995 76.5024 463.224 75.7973C460.869 75.4494 458.961 74.8357 457.683 73.9067C456.514 73.0577 455.804 71.91 455.804 70.094H451.804C451.804 73.2504 453.177 75.5771 455.331 77.1427C457.376 78.6282 460.032 79.3692 462.639 79.7544C467.791 80.5156 473.929 79.999 476.839 79.999V75.999ZM455.804 70.094C455.804 68.6331 456.239 67.6859 456.852 67.0013C457.506 66.2725 458.499 65.694 459.826 65.2577C462.555 64.3608 465.933 64.2795 468.804 64.1001L468.555 60.1079C465.985 60.2684 461.926 60.3571 458.577 61.4577C456.866 62.0202 455.16 62.8973 453.875 64.3307C452.549 65.8083 451.804 67.7298 451.804 70.094H455.804ZM470.665 62.3396C470.98 59.6849 470.977 57.0826 470.902 54.5642C470.825 51.9938 470.679 49.6165 470.679 47.144H466.679C466.679 49.6865 466.831 52.2816 466.903 54.6838C466.977 57.1379 466.973 59.5081 466.693 61.8683L470.665 62.3396ZM470.679 47.144C470.679 40.2549 471.185 33.5918 471.359 26.5383L467.36 26.4396C467.194 33.1561 466.679 40.263 466.679 47.144H470.679ZM511.406 77.064L512.159 75.211L512.146 75.2058L512.133 75.2008L511.406 77.064ZM505.626 69.669L503.626 69.7018L503.626 69.7144L505.626 69.669ZM517.781 26.234L517.338 24.2837L515.612 24.6758L515.791 26.4358L517.781 26.234ZM519.821 61.679L517.822 61.6214L517.808 62.0847L518 62.5066L519.821 61.679ZM520.246 62.614L518.425 63.4416L519.013 64.7343L520.427 64.6058L520.246 62.614ZM504.566 27.339C504.566 25.7104 504.004 24.35 503.615 23.3768C503.189 22.3113 502.951 21.6652 502.951 20.964H498.951C498.951 22.5578 499.52 23.9091 499.901 24.8624C500.32 25.9079 500.566 26.5876 500.566 27.339H504.566ZM502.951 20.964C502.951 19.5105 503.692 18.2825 505.326 17.1656C507.007 16.0159 509.436 15.1421 512.248 14.511C517.844 13.255 524.268 13.104 527.386 13.104V9.10397C524.214 9.10397 517.421 9.25043 511.372 10.6081C508.361 11.284 505.36 12.2961 503.068 13.8638C500.727 15.4642 498.951 17.785 498.951 20.964H502.951ZM527.386 13.104C536.366 13.104 543.417 16.474 548.243 21.9281C553.093 27.4092 555.816 35.1346 555.816 43.999H559.816C559.816 34.3334 556.843 25.6113 551.239 19.2773C545.61 12.9164 537.445 9.10397 527.386 9.10397V13.104ZM555.816 43.999C555.816 62.8491 539.402 76.934 520.161 76.934V80.934C541.21 80.934 559.816 65.4388 559.816 43.999H555.816ZM520.161 76.934C517.511 76.934 514.711 76.2478 512.159 75.211L510.653 78.9169C513.541 80.0901 516.861 80.934 520.161 80.934V76.934ZM512.133 75.2008C510.599 74.6023 509.501 73.8569 508.784 72.9866C508.091 72.1463 507.658 71.0781 507.625 69.6235L503.626 69.7144C503.678 71.9998 504.393 73.9491 505.698 75.5313C506.978 77.0836 508.727 78.1657 510.679 78.9271L512.133 75.2008ZM507.626 69.6362C507.496 61.7566 506.721 54.4673 505.989 47.5291C505.254 40.5636 504.566 33.974 504.566 27.339H500.566C500.566 34.219 501.28 41.0169 502.011 47.9488C502.745 54.9081 503.5 62.0264 503.626 69.7018L507.626 69.6362ZM515.791 26.4358C516.983 38.1855 518.157 49.9574 517.822 61.6214L521.82 61.7365C522.164 49.7706 520.959 37.7425 519.771 26.0321L515.791 26.4358ZM518 62.5066L518.425 63.4416L522.067 61.7864L521.642 60.8514L518 62.5066ZM520.427 64.6058C523.448 64.3311 526.349 64.0583 528.957 63.569C531.566 63.0792 534.019 62.3499 536.119 61.0874C538.26 59.8006 539.975 57.9945 541.129 55.4741C542.266 52.9924 542.816 49.9153 542.816 46.124H538.816C538.816 49.5577 538.314 52.0162 537.493 53.8084C536.689 55.5619 535.541 56.768 534.058 57.6593C532.535 58.5749 530.606 59.1897 528.219 59.6376C525.83 60.0859 523.121 60.3444 520.065 60.6222L520.427 64.6058ZM542.816 46.124C542.816 38.2172 540.721 31.7342 536.245 27.711C531.717 23.6404 525.213 22.4938 517.338 24.2837L518.224 28.1842C525.308 26.5742 530.322 27.7651 533.571 30.6857C536.873 33.6537 538.816 38.8158 538.816 46.124H542.816ZM581.278 17.649L580.273 15.9194L580.263 15.9255L580.253 15.9316L581.278 17.649ZM623.098 24.874L621.532 26.1185L621.541 26.1295L623.098 24.874ZM584.083 41.194L585.974 41.8441L585.977 41.8353L585.98 41.8264L584.083 41.194ZM614.173 50.289L616.143 50.6337L616.146 50.6178L616.148 50.6017L614.173 50.289ZM625.858 45.699C625.858 54.2746 623.236 62.1194 618.4 67.7863C613.594 73.417 606.506 77.019 597.258 77.019V81.019C607.644 81.019 615.856 76.9285 621.442 70.3829C626.997 63.8736 629.858 55.0584 629.858 45.699H625.858ZM597.258 77.019C587.246 77.019 579.71 73.8159 574.671 68.533C569.618 63.235 566.873 55.6317 566.873 46.464H562.873C562.873 56.4213 565.865 65.0954 571.777 71.2937C577.703 77.507 586.36 81.019 597.258 81.019V77.019ZM566.873 46.464C566.873 34.9157 571.953 25.5441 582.303 19.3663L580.253 15.9316C568.672 22.8439 562.873 33.5323 562.873 46.464H566.873ZM582.282 19.3785C584.6 18.0327 587.819 17.1461 591.344 16.6086C594.836 16.0761 598.469 15.909 601.508 15.909V11.909C598.342 11.909 594.495 12.0818 590.741 12.6543C587.019 13.2219 583.226 14.2052 580.273 15.9194L582.282 19.3785ZM601.508 15.909C609.802 15.909 616.57 19.876 621.532 26.1185L624.663 23.6295C619.085 16.6119 611.234 11.909 601.508 11.909V15.909ZM621.541 26.1295C623.359 28.3836 624.468 31.5898 625.102 35.1872C625.73 38.7556 625.858 42.5078 625.858 45.699H629.858C629.858 42.4302 629.73 38.4049 629.041 34.4933C628.357 30.6107 627.087 26.6344 624.655 23.6185L621.541 26.1295ZM602.358 28.824C597.917 28.824 593.684 29.316 590.139 31.0585C586.496 32.8489 583.747 35.8766 582.185 40.5615L585.98 41.8264C587.223 38.0963 589.277 35.9391 591.903 34.6482C594.627 33.3094 598.128 32.824 602.358 32.824V28.824ZM582.191 40.5438C581.29 43.1669 580.128 46.3158 580.128 49.609H584.128C584.128 47.1221 585.006 44.661 585.974 41.8441L582.191 40.5438ZM580.128 49.609C580.128 54.944 581.382 59.2931 584.454 62.2748C587.513 65.2438 591.993 66.484 597.598 66.484V62.484C592.493 62.484 589.238 61.3442 587.239 59.4044C585.254 57.4773 584.128 54.3889 584.128 49.609H580.128ZM597.598 66.484C603.615 66.484 607.954 65.4761 610.974 62.6786C613.951 59.9206 615.243 55.7772 616.143 50.6337L612.203 49.9442C611.318 55.0008 610.187 57.9548 608.255 59.7443C606.366 61.4943 603.311 62.484 597.598 62.484V66.484ZM616.148 50.6017C616.946 45.5609 617.497 40.1539 615.791 35.9755C614.899 33.7907 613.397 31.945 611.097 30.6789C608.84 29.4365 605.947 28.824 602.358 28.824V32.824C605.526 32.824 607.69 33.3695 609.168 34.1831C610.603 34.9729 611.513 36.081 612.087 37.4875C613.314 40.4915 613.014 44.8171 612.197 49.9762L616.148 50.6017Z" fill="black" mask="url(#path-1-outside-1_47_2)"/>
</g>
<defs>
<filter id="filter0_d_47_2" x="2.97495" y="4.55896" width="624.883" height="83.86" filterUnits="userSpaceOnUse" color-interpolation-filters="sRGB">
<feFlood flood-opacity="0" result="BackgroundImageFix"/>
<feColorMatrix in="SourceAlpha" type="matrix" values="0 0 0 0 0 0 0 0 0 0 0 0 0 0 0 0 0 0 127 0" result="hardAlpha"/>
<feOffset dy="6"/>
<feComposite in2="hardAlpha" operator="out"/>
<feColorMatrix type="matrix" values="0 0 0 0 0 0 0 0 0 0 0 0 0 0 0 0 0 0 1 0"/>
<feBlend mode="normal" in2="BackgroundImageFix" result="effect1_dropShadow_47_2"/>
<feBlend mode="normal" in="SourceGraphic" in2="effect1_dropShadow_47_2" result="shape"/>
</filter>
</defs>
</svg>
