<svg width="267" height="84" viewBox="0 0 267 84" fill="none" xmlns="http://www.w3.org/2000/svg">
<g filter="url(#filter0_d_6_43)">
<rect width="267" height="78" rx="10" fill="#FFF6B5"/>
<rect x="1" y="1" width="265" height="76" rx="9" stroke="black" stroke-width="2"/>
</g>
<path d="M45.39 38.1535C45.9033 38.7135 46.37 39.2501 46.79 39.7635C47.2333 40.2535 47.6067 40.7668 47.91 41.3035C48.2367 41.8168 48.4817 42.3768 48.645 42.9835C48.8317 43.5901 48.925 44.3018 48.925 45.1185C48.925 46.7051 48.5867 48.0818 47.91 49.2485C47.2333 50.4151 46.3467 51.3835 45.25 52.1535C44.1767 52.9235 42.94 53.5068 41.54 53.9035C40.1633 54.2768 38.775 54.4635 37.375 54.4635C36.5583 54.4635 35.73 54.4518 34.89 54.4285C34.0733 54.4051 33.2567 54.3818 32.44 54.3585C31.6933 54.3351 31.0517 54.0551 30.515 53.5185C29.9783 52.9818 29.5117 52.2935 29.115 51.4535C28.7417 50.6135 28.4267 49.6801 28.17 48.6535C27.9367 47.6035 27.75 46.5768 27.61 45.5735C27.47 44.5468 27.365 43.5901 27.295 42.7035C27.2483 41.8168 27.225 41.1051 27.225 40.5685C27.225 40.0551 27.26 39.4368 27.33 38.7135C27.4 37.9668 27.505 37.1851 27.645 36.3685C27.785 35.5518 27.9483 34.7118 28.135 33.8485C28.3217 32.9851 28.5433 32.1685 28.8 31.3985C29.0567 30.6051 29.325 29.8935 29.605 29.2635C29.9083 28.6335 30.235 28.1201 30.585 27.7235C31.0283 27.2335 31.565 26.8135 32.195 26.4635C32.8483 26.0901 33.5367 25.7985 34.26 25.5885C35.0067 25.3551 35.7533 25.1801 36.5 25.0635C37.2467 24.9468 37.935 24.8885 38.565 24.8885C39.5683 24.8885 40.63 25.0168 41.75 25.2735C42.87 25.5301 43.8967 25.9385 44.83 26.4985C45.7867 27.0351 46.5683 27.7351 47.175 28.5985C47.805 29.4385 48.12 30.4651 48.12 31.6785C48.12 32.9618 47.84 34.1168 47.28 35.1435C46.72 36.1468 46.09 37.1501 45.39 38.1535ZM34.19 47.7785C34.75 47.8485 35.2983 47.8835 35.835 47.8835C36.3717 47.8835 37.0017 47.8485 37.725 47.7785C38.4483 47.6851 39.1367 47.5218 39.79 47.2885C40.4433 47.0318 40.9917 46.6935 41.435 46.2735C41.9017 45.8301 42.135 45.2585 42.135 44.5585C42.135 44.1385 42.0417 43.7885 41.855 43.5085C41.6917 43.2285 41.4583 43.0068 41.155 42.8435C40.875 42.6568 40.5483 42.5285 40.175 42.4585C39.825 42.3885 39.475 42.3535 39.125 42.3535C38.3083 42.3535 37.445 42.5285 36.535 42.8785C35.625 43.2285 34.8433 43.6368 34.19 44.1035V47.7785ZM34.19 37.2085C34.5633 37.0918 35.0183 36.9635 35.555 36.8235C36.115 36.6601 36.6867 36.4735 37.27 36.2635C37.8533 36.0535 38.4367 35.8201 39.02 35.5635C39.6033 35.3068 40.1167 35.0151 40.56 34.6885C41.0267 34.3385 41.4 33.9535 41.68 33.5335C41.9833 33.1135 42.135 32.6351 42.135 32.0985C42.135 31.8185 42.0183 31.5968 41.785 31.4335C41.5517 31.2701 41.2717 31.1535 40.945 31.0835C40.6183 30.9901 40.2917 30.9318 39.965 30.9085C39.6383 30.8618 39.37 30.8385 39.16 30.8385C38.3433 30.8385 37.5383 30.9551 36.745 31.1885C35.9517 31.4218 35.17 31.6785 34.4 31.9585C34.33 32.6118 34.2717 33.2535 34.225 33.8835C34.1783 34.5135 34.155 35.1551 34.155 35.8085L34.19 37.2085ZM73.6509 42.0035C73.6509 44.2201 73.4175 46.0985 72.9509 47.6385C72.4842 49.1785 71.7375 50.4268 70.7109 51.3835C69.7075 52.3401 68.4125 53.0401 66.8259 53.4835C65.2625 53.9035 63.3725 54.1135 61.1559 54.1135C59.8259 54.1135 58.6125 53.8101 57.5159 53.2035C56.4192 52.5735 55.4625 51.7685 54.6459 50.7885C53.8292 49.8085 53.1642 48.7118 52.6509 47.4985C52.1609 46.2618 51.8692 45.0485 51.7759 43.8585C51.7292 43.2285 51.6825 42.5985 51.6359 41.9685C51.6125 41.3385 51.6009 40.7085 51.6009 40.0785C51.6009 39.5885 51.6125 38.9351 51.6359 38.1185C51.6592 37.2785 51.7175 36.3801 51.8109 35.4235C51.9275 34.4668 52.0792 33.4985 52.2659 32.5185C52.4759 31.5151 52.7442 30.6168 53.0709 29.8235C53.3975 29.0068 53.8059 28.3535 54.2959 27.8635C54.7859 27.3501 55.3692 27.0935 56.0459 27.0935C56.9092 27.0935 57.7025 27.2918 58.4259 27.6885C59.1492 28.0851 59.6042 28.7968 59.7909 29.8235C59.9542 30.7801 60.0125 31.8651 59.9659 33.0785C59.9425 34.2918 59.8959 35.5285 59.8259 36.7885C59.7559 38.0485 59.7092 39.2968 59.6859 40.5335C59.6625 41.7468 59.7325 42.8318 59.8959 43.7885C60.0592 44.7451 60.3625 45.5151 60.8059 46.0985C61.2492 46.6818 61.9142 46.9735 62.8009 46.9735C63.6642 46.9735 64.3875 46.9735 64.9709 46.9735C65.5775 46.9501 66.0559 46.8335 66.4059 46.6235C66.7559 46.4135 67.0009 46.0635 67.1409 45.5735C67.3042 45.0835 67.3859 44.3601 67.3859 43.4035C67.3859 42.4701 67.3275 41.5485 67.2109 40.6385C67.1175 39.7051 67.0009 38.7835 66.8609 37.8735C66.7442 36.9401 66.6275 36.0185 66.5109 35.1085C66.4175 34.1751 66.3709 33.2535 66.3709 32.3435C66.3709 31.8535 66.3825 31.3168 66.4059 30.7335C66.4525 30.1501 66.5809 29.6135 66.7909 29.1235C67.0242 28.6101 67.3742 28.1901 67.8409 27.8635C68.3075 27.5135 68.9725 27.3385 69.8359 27.3385C70.6992 27.3385 71.3875 27.6301 71.9009 28.2135C72.4375 28.7968 72.8459 29.5551 73.1259 30.4885C73.4059 31.3985 73.5925 32.4251 73.6859 33.5685C73.7792 34.6885 73.8142 35.7968 73.7909 36.8935C73.7909 37.9668 73.7675 38.9701 73.7209 39.9035C73.6742 40.8135 73.6509 41.5135 73.6509 42.0035ZM84.7787 44.1735C83.9853 43.3101 83.0753 42.3301 82.0487 41.2335C81.0453 40.1135 80.0887 38.9351 79.1787 37.6985C78.292 36.4385 77.5337 35.1551 76.9037 33.8485C76.297 32.5418 75.9937 31.2701 75.9937 30.0335C75.9937 29.1468 76.297 28.4118 76.9037 27.8285C77.5103 27.2218 78.257 26.9185 79.1437 26.9185C79.6103 26.9185 80.112 27.1168 80.6487 27.5135C81.1853 27.8868 81.722 28.3768 82.2587 28.9835C82.8187 29.5668 83.3553 30.2318 83.8687 30.9785C84.4053 31.7251 84.8953 32.4718 85.3387 33.2185C85.8053 33.9418 86.2253 34.6301 86.5987 35.2835C86.972 35.9135 87.2753 36.4268 87.5087 36.8235C87.6487 36.7535 87.847 36.4851 88.1037 36.0185C88.3837 35.5285 88.6987 34.9451 89.0487 34.2685C89.3987 33.5918 89.7953 32.8801 90.2387 32.1335C90.682 31.3635 91.1487 30.6518 91.6387 29.9985C92.1287 29.3451 92.642 28.8085 93.1787 28.3885C93.7387 27.9451 94.3103 27.7235 94.8937 27.7235C95.5937 27.7235 96.212 27.9801 96.7487 28.4935C97.3087 29.0068 97.5887 29.6135 97.5887 30.3135C97.5887 30.8268 97.4487 31.5035 97.1687 32.3435C96.8887 33.1835 96.5503 34.0585 96.1537 34.9685C95.757 35.8785 95.3487 36.7535 94.9287 37.5935C94.5087 38.4335 94.1703 39.0985 93.9137 39.5885C92.7703 41.6885 91.7203 43.8235 90.7637 45.9935C89.807 48.1401 88.9203 50.3335 88.1037 52.5735C87.9403 52.9701 87.777 53.3668 87.6137 53.7635C87.4503 54.1601 87.2637 54.5568 87.0537 54.9535C86.797 55.4201 86.4587 55.7935 86.0387 56.0735C85.642 56.3535 85.1753 56.4935 84.6387 56.4935C84.172 56.4935 83.7753 56.4001 83.4487 56.2135C83.1453 56.0501 82.9003 55.8168 82.7137 55.5135C82.527 55.2335 82.387 54.9068 82.2937 54.5335C82.2237 54.1601 82.1887 53.7751 82.1887 53.3785C82.1887 52.8651 82.282 52.2001 82.4687 51.3835C82.6787 50.5435 82.912 49.6801 83.1687 48.7935C83.4487 47.8835 83.7287 47.0201 84.0087 46.2035C84.312 45.3635 84.5687 44.6868 84.7787 44.1735ZM119.809 52.9235L115.679 52.9585C115.189 52.9585 114.676 52.9235 114.139 52.8535C113.602 52.7601 113.112 52.6085 112.669 52.3985C112.226 52.1885 111.852 51.8968 111.549 51.5235C111.269 51.1268 111.129 50.6135 111.129 49.9835C111.129 49.4001 111.281 48.9101 111.584 48.5135C111.911 48.1168 112.319 47.7901 112.809 47.5335C113.322 47.2768 113.894 47.0785 114.524 46.9385C115.154 46.7751 115.784 46.6701 116.414 46.6235C117.067 46.5535 117.674 46.5185 118.234 46.5185C118.794 46.4951 119.272 46.4835 119.669 46.4835C119.856 46.1101 119.937 45.7485 119.914 45.3985C119.914 45.0485 119.891 44.6868 119.844 44.3135C119.284 44.3135 118.724 44.3368 118.164 44.3835C117.627 44.4301 117.079 44.4535 116.519 44.4535C115.632 44.4535 114.792 44.2901 113.999 43.9635C113.206 43.6135 112.506 43.1468 111.899 42.5635C111.316 41.9568 110.849 41.2568 110.499 40.4635C110.172 39.6701 110.009 38.8185 110.009 37.9085C110.009 36.4851 110.359 35.2835 111.059 34.3035C111.759 33.3001 112.634 32.4718 113.684 31.8185C114.757 31.1418 115.924 30.6051 117.184 30.2085C118.467 29.8118 119.681 29.5085 120.824 29.2985C120.894 28.9018 120.952 28.4001 120.999 27.7935C121.069 27.1868 121.186 26.6035 121.349 26.0435C121.512 25.4835 121.746 25.0051 122.049 24.6085C122.376 24.1885 122.819 23.9785 123.379 23.9785C123.986 23.9785 124.464 24.1768 124.814 24.5735C125.164 24.9701 125.339 25.4601 125.339 26.0435C125.339 26.5101 125.292 26.9768 125.199 27.4435C125.129 27.8868 125.094 28.3418 125.094 28.8085V29.5435C125.537 29.7068 126.027 29.8935 126.564 30.1035C127.124 30.3135 127.649 30.5818 128.139 30.9085C128.629 31.2118 129.037 31.5851 129.364 32.0285C129.691 32.4718 129.854 32.9968 129.854 33.6035C129.854 34.3735 129.679 34.9568 129.329 35.3535C129.002 35.7268 128.582 35.9835 128.069 36.1235C127.556 36.2635 126.996 36.3335 126.389 36.3335C125.782 36.3335 125.211 36.3335 124.674 36.3335C124.627 36.8001 124.592 37.2551 124.569 37.6985C124.546 38.1418 124.534 38.5968 124.534 39.0635C125.584 39.1335 126.622 39.3435 127.649 39.6935C128.676 40.0435 129.597 40.5451 130.414 41.1985C131.231 41.8518 131.884 42.6451 132.374 43.5785C132.887 44.4885 133.144 45.5385 133.144 46.7285C133.144 48.1051 132.852 49.1901 132.269 49.9835C131.686 50.7768 130.951 51.3951 130.064 51.8385C129.177 52.2585 128.186 52.5501 127.089 52.7135C126.016 52.8768 124.977 53.0168 123.974 53.1335C123.951 53.4601 123.927 53.7985 123.904 54.1485C123.881 54.4985 123.811 54.8135 123.694 55.0935C123.577 55.3735 123.391 55.5951 123.134 55.7585C122.901 55.9451 122.562 56.0385 122.119 56.0385C121.722 56.0385 121.396 55.9335 121.139 55.7235C120.906 55.5135 120.707 55.2451 120.544 54.9185C120.381 54.6151 120.241 54.2885 120.124 53.9385C120.007 53.5651 119.902 53.2268 119.809 52.9235ZM120.019 39.7285C119.972 39.1685 119.996 38.6201 120.089 38.0835C120.182 37.5468 120.147 37.0101 119.984 36.4735C119.727 36.5201 119.342 36.6018 118.829 36.7185C118.339 36.8351 117.837 36.9985 117.324 37.2085C116.834 37.3951 116.391 37.6285 115.994 37.9085C115.621 38.1651 115.434 38.4451 115.434 38.7485C115.434 39.1451 115.597 39.4835 115.924 39.7635C116.274 40.0201 116.636 40.1485 117.009 40.1485C117.476 40.1485 117.977 40.1018 118.514 40.0085C119.051 39.8918 119.552 39.7985 120.019 39.7285ZM124.324 44.1735C124.277 44.5701 124.231 44.9668 124.184 45.3635C124.137 45.7368 124.207 46.1101 124.394 46.4835L125.304 46.5185C125.981 46.5185 126.412 46.3551 126.599 46.0285C126.786 45.7018 126.797 45.3751 126.634 45.0485C126.494 44.6985 126.214 44.4185 125.794 44.2085C125.374 43.9751 124.884 43.9635 124.324 44.1735ZM138.117 33.8135C137.697 33.4401 137.324 33.0785 136.997 32.7285C136.671 32.3785 136.507 31.9001 136.507 31.2935C136.507 30.6868 136.741 30.1618 137.207 29.7185C137.697 29.2751 138.316 28.9018 139.062 28.5985C139.832 28.2718 140.672 28.0151 141.582 27.8285C142.516 27.6185 143.426 27.4668 144.312 27.3735C145.222 27.2568 146.062 27.1751 146.832 27.1285C147.602 27.0818 148.209 27.0585 148.652 27.0585C150.356 27.0585 151.942 27.2568 153.412 27.6535C154.906 28.0501 156.201 28.6801 157.297 29.5435C158.394 30.3835 159.257 31.4801 159.887 32.8335C160.517 34.1635 160.832 35.7618 160.832 37.6285C160.832 38.5385 160.692 39.4368 160.412 40.3235C160.132 41.1868 159.736 41.9918 159.222 42.7385C158.382 43.9985 157.367 44.9435 156.177 45.5735C155.011 46.2035 153.762 46.6468 152.432 46.9035C151.102 47.1601 149.726 47.2885 148.302 47.2885C146.879 47.2885 145.502 47.2885 144.172 47.2885C144.056 47.6385 143.974 48.0585 143.927 48.5485C143.904 49.0151 143.869 49.5051 143.822 50.0185C143.799 50.5318 143.752 51.0451 143.682 51.5585C143.612 52.0718 143.484 52.5385 143.297 52.9585C143.111 53.3551 142.842 53.6818 142.492 53.9385C142.142 54.1718 141.687 54.2885 141.127 54.2885C140.497 54.2885 139.961 54.0668 139.517 53.6235C139.097 53.1801 138.736 52.6085 138.432 51.9085C138.152 51.2085 137.931 50.4268 137.767 49.5635C137.604 48.7001 137.476 47.8485 137.382 47.0085C137.312 46.1451 137.266 45.3518 137.242 44.6285C137.219 43.8818 137.207 43.2868 137.207 42.8435C137.207 41.3035 137.289 39.7868 137.452 38.2935C137.616 36.8001 137.837 35.3068 138.117 33.8135ZM144.032 39.8685C144.662 40.0085 145.292 40.1018 145.922 40.1485C146.576 40.1951 147.229 40.2185 147.882 40.2185C148.372 40.2185 148.944 40.2185 149.597 40.2185C150.251 40.2185 150.869 40.1485 151.452 40.0085C152.036 39.8451 152.526 39.5768 152.922 39.2035C153.342 38.8301 153.552 38.2818 153.552 37.5585C153.552 36.7651 153.377 36.1235 153.027 35.6335C152.701 35.1201 152.257 34.7351 151.697 34.4785C151.161 34.1985 150.542 34.0118 149.842 33.9185C149.166 33.8251 148.466 33.7901 147.742 33.8135C147.019 33.8368 146.307 33.8951 145.607 33.9885C144.931 34.0585 144.324 34.1168 143.787 34.1635C143.834 35.1201 143.869 36.0768 143.892 37.0335C143.939 37.9668 143.986 38.9118 144.032 39.8685ZM169.837 33.0085C169.37 32.9385 168.81 32.8801 168.157 32.8335C167.527 32.7635 166.92 32.6468 166.337 32.4835C165.754 32.2968 165.264 32.0285 164.867 31.6785C164.47 31.3051 164.272 30.7918 164.272 30.1385C164.272 29.4851 164.447 28.9485 164.797 28.5285C165.147 28.1085 165.602 27.7818 166.162 27.5485C166.722 27.2918 167.352 27.1051 168.052 26.9885C168.752 26.8718 169.452 26.8018 170.152 26.7785C170.875 26.7318 171.552 26.7201 172.182 26.7435C172.812 26.7435 173.349 26.7435 173.792 26.7435C174.282 26.7435 174.9 26.7201 175.647 26.6735C176.417 26.6268 177.152 26.6618 177.852 26.7785C178.552 26.8718 179.159 27.0818 179.672 27.4085C180.185 27.7351 180.442 28.2835 180.442 29.0535C180.442 29.6601 180.244 30.1735 179.847 30.5935C179.474 30.9901 179.019 31.3168 178.482 31.5735C177.945 31.8301 177.362 32.0401 176.732 32.2035C176.125 32.3435 175.6 32.4601 175.157 32.5535C175.204 33.6035 175.25 34.6535 175.297 35.7035C175.367 36.7301 175.402 37.7685 175.402 38.8185C175.402 39.4951 175.39 40.1835 175.367 40.8835C175.367 41.5601 175.355 42.2368 175.332 42.9135C175.309 43.8001 175.215 44.6751 175.052 45.5385C174.889 46.3785 174.807 47.2418 174.807 48.1285C175.274 48.2451 175.834 48.3851 176.487 48.5485C177.164 48.7118 177.805 48.9335 178.412 49.2135C179.042 49.4701 179.579 49.8085 180.022 50.2285C180.465 50.6251 180.687 51.1385 180.687 51.7685C180.687 52.3285 180.547 52.7835 180.267 53.1335C179.987 53.4601 179.614 53.7168 179.147 53.9035C178.704 54.0668 178.19 54.1718 177.607 54.2185C177.047 54.2885 176.475 54.3235 175.892 54.3235C175.332 54.3235 174.784 54.3001 174.247 54.2535C173.734 54.2301 173.29 54.2185 172.917 54.2185C172.474 54.2185 171.937 54.2301 171.307 54.2535C170.677 54.2768 170 54.2768 169.277 54.2535C168.577 54.2535 167.877 54.2068 167.177 54.1135C166.477 54.0201 165.847 53.8568 165.287 53.6235C164.75 53.3901 164.307 53.0635 163.957 52.6435C163.607 52.2001 163.432 51.6401 163.432 50.9635C163.432 50.1701 163.642 49.5635 164.062 49.1435C164.505 48.7235 165.03 48.4085 165.637 48.1985C166.267 47.9885 166.932 47.8601 167.632 47.8135C168.355 47.7668 168.997 47.7201 169.557 47.6735C169.674 46.6235 169.697 45.5968 169.627 44.5935C169.58 43.5901 169.557 42.5635 169.557 41.5135C169.557 40.0901 169.592 38.6785 169.662 37.2785C169.732 35.8551 169.79 34.4318 169.837 33.0085ZM183.51 33.3585C183.51 32.8685 183.393 32.4251 183.16 32.0285C182.95 31.6318 182.845 31.2001 182.845 30.7335C182.845 30.1035 183.055 29.5668 183.475 29.1235C183.895 28.6568 184.432 28.2835 185.085 28.0035C185.762 27.7001 186.508 27.4668 187.325 27.3035C188.142 27.1168 188.947 26.9768 189.74 26.8835C190.557 26.7901 191.315 26.7318 192.015 26.7085C192.715 26.6851 193.287 26.6735 193.73 26.6735C195.69 26.6735 197.44 27.0235 198.98 27.7235C200.543 28.4235 201.862 29.3801 202.935 30.5935C204.008 31.8068 204.825 33.2418 205.385 34.8985C205.968 36.5318 206.26 38.3051 206.26 40.2185C206.26 42.2951 205.84 44.2201 205 45.9935C204.16 47.7435 203.028 49.2601 201.605 50.5435C200.205 51.8035 198.56 52.7951 196.67 53.5185C194.803 54.2418 192.832 54.6035 190.755 54.6035C190.148 54.6035 189.53 54.5335 188.9 54.3935C188.293 54.2535 187.71 54.0668 187.15 53.8335C186.427 53.5535 185.855 53.1685 185.435 52.6785C185.015 52.1885 184.793 51.5585 184.77 50.7885C184.747 49.1785 184.665 47.6268 184.525 46.1335C184.385 44.6401 184.233 43.1818 184.07 41.7585C183.93 40.3351 183.802 38.9351 183.685 37.5585C183.568 36.1585 183.51 34.7585 183.51 33.3585ZM189.775 32.9035C190.032 35.3301 190.253 37.7568 190.44 40.1835C190.627 42.6101 190.685 45.0485 190.615 47.4985L190.79 47.8835C192.05 47.7668 193.193 47.6268 194.22 47.4635C195.27 47.3001 196.168 46.9968 196.915 46.5535C197.662 46.1101 198.233 45.4685 198.63 44.6285C199.05 43.7651 199.26 42.5868 199.26 41.0935C199.26 39.5301 199.05 38.1651 198.63 36.9985C198.233 35.8085 197.627 34.8518 196.81 34.1285C196.017 33.4051 195.025 32.9385 193.835 32.7285C192.668 32.4951 191.315 32.5535 189.775 32.9035ZM235.101 40.9185C235.101 42.7618 234.821 44.5118 234.261 46.1685C233.701 47.8251 232.884 49.2835 231.811 50.5435C230.761 51.8035 229.454 52.8068 227.891 53.5535C226.328 54.2768 224.531 54.6385 222.501 54.6385C220.354 54.6385 218.453 54.3118 216.796 53.6585C215.139 53.0051 213.739 52.0835 212.596 50.8935C211.476 49.7035 210.624 48.2918 210.041 46.6585C209.458 45.0018 209.166 43.1935 209.166 41.2335C209.166 38.6901 209.726 36.4151 210.846 34.4085C211.966 32.4018 213.658 30.7218 215.921 29.3685C216.458 29.0651 217.076 28.8085 217.776 28.5985C218.476 28.3885 219.199 28.2368 219.946 28.1435C220.693 28.0268 221.439 27.9451 222.186 27.8985C222.933 27.8518 223.621 27.8285 224.251 27.8285C226.118 27.8285 227.786 28.2368 229.256 29.0535C230.749 29.8701 232.044 30.9668 233.141 32.3435C233.584 32.8801 233.934 33.5101 234.191 34.2335C234.448 34.9335 234.646 35.6685 234.786 36.4385C234.926 37.2085 235.008 37.9901 235.031 38.7835C235.078 39.5535 235.101 40.2651 235.101 40.9185ZM224.601 34.7935C223.714 34.7935 222.874 34.8518 222.081 34.9685C221.288 35.0851 220.564 35.3068 219.911 35.6335C219.281 35.9368 218.721 36.3685 218.231 36.9285C217.741 37.4885 217.356 38.2001 217.076 39.0635C216.889 39.6235 216.703 40.1951 216.516 40.7785C216.353 41.3385 216.271 41.9218 216.271 42.5285C216.271 44.6285 216.773 46.1801 217.776 47.1835C218.803 48.1635 220.424 48.6535 222.641 48.6535C223.854 48.6535 224.858 48.5485 225.651 48.3385C226.444 48.1285 227.086 47.7901 227.576 47.3235C228.089 46.8335 228.486 46.2268 228.766 45.5035C229.046 44.7568 229.279 43.8585 229.466 42.8085C229.629 41.7585 229.723 40.7551 229.746 39.7985C229.793 38.8185 229.664 37.9668 229.361 37.2435C229.058 36.4968 228.533 35.9018 227.786 35.4585C227.063 35.0151 226.001 34.7935 224.601 34.7935Z" fill="black"/>
<defs>
<filter id="filter0_d_6_43" x="0" y="0" width="267" height="84" filterUnits="userSpaceOnUse" color-interpolation-filters="sRGB">
<feFlood flood-opacity="0" result="BackgroundImageFix"/>
<feColorMatrix in="SourceAlpha" type="matrix" values="0 0 0 0 0 0 0 0 0 0 0 0 0 0 0 0 0 0 127 0" result="hardAlpha"/>
<feOffset dy="6"/>
<feComposite in2="hardAlpha" operator="out"/>
<feColorMatrix type="matrix" values="0 0 0 0 0 0 0 0 0 0 0 0 0 0 0 0 0 0 1 0"/>
<feBlend mode="normal" in2="BackgroundImageFix" result="effect1_dropShadow_6_43"/>
<feBlend mode="normal" in="SourceGraphic" in2="effect1_dropShadow_6_43" result="shape"/>
</filter>
</defs>
</svg>
