<svg width="345" height="98" viewBox="0 0 345 98" fill="none" xmlns="http://www.w3.org/2000/svg">
<g filter="url(#filter0_d_5_17)">
<rect width="345" height="92" rx="10" fill="#FFF6B5"/>
<rect x="1" y="1" width="343" height="90" rx="9" stroke="black" stroke-width="2"/>
</g>
<path d="M86.39 42.11C86.9033 42.67 87.37 43.2067 87.79 43.72C88.2333 44.21 88.6067 44.7233 88.91 45.26C89.2367 45.7733 89.4817 46.3333 89.645 46.94C89.8317 47.5467 89.925 48.2583 89.925 49.075C89.925 50.6617 89.5867 52.0383 88.91 53.205C88.2333 54.3717 87.3467 55.34 86.25 56.11C85.1767 56.88 83.94 57.4633 82.54 57.86C81.1633 58.2333 79.775 58.42 78.375 58.42C77.5583 58.42 76.73 58.4083 75.89 58.385C75.0733 58.3617 74.2567 58.3383 73.44 58.315C72.6933 58.2917 72.0517 58.0117 71.515 57.475C70.9783 56.9383 70.5117 56.25 70.115 55.41C69.7417 54.57 69.4267 53.6367 69.17 52.61C68.9367 51.56 68.75 50.5333 68.61 49.53C68.47 48.5033 68.365 47.5467 68.295 46.66C68.2483 45.7733 68.225 45.0617 68.225 44.525C68.225 44.0117 68.26 43.3933 68.33 42.67C68.4 41.9233 68.505 41.1417 68.645 40.325C68.785 39.5083 68.9483 38.6683 69.135 37.805C69.3217 36.9417 69.5433 36.125 69.8 35.355C70.0567 34.5617 70.325 33.85 70.605 33.22C70.9083 32.59 71.235 32.0767 71.585 31.68C72.0283 31.19 72.565 30.77 73.195 30.42C73.8483 30.0467 74.5367 29.755 75.26 29.545C76.0067 29.3117 76.7533 29.1367 77.5 29.02C78.2467 28.9033 78.935 28.845 79.565 28.845C80.5683 28.845 81.63 28.9733 82.75 29.23C83.87 29.4867 84.8967 29.895 85.83 30.455C86.7867 30.9917 87.5683 31.6917 88.175 32.555C88.805 33.395 89.12 34.4217 89.12 35.635C89.12 36.9183 88.84 38.0733 88.28 39.1C87.72 40.1033 87.09 41.1067 86.39 42.11ZM75.19 51.735C75.75 51.805 76.2983 51.84 76.835 51.84C77.3717 51.84 78.0017 51.805 78.725 51.735C79.4483 51.6417 80.1367 51.4783 80.79 51.245C81.4433 50.9883 81.9917 50.65 82.435 50.23C82.9017 49.7867 83.135 49.215 83.135 48.515C83.135 48.095 83.0417 47.745 82.855 47.465C82.6917 47.185 82.4583 46.9633 82.155 46.8C81.875 46.6133 81.5483 46.485 81.175 46.415C80.825 46.345 80.475 46.31 80.125 46.31C79.3083 46.31 78.445 46.485 77.535 46.835C76.625 47.185 75.8433 47.5933 75.19 48.06V51.735ZM75.19 41.165C75.5633 41.0483 76.0183 40.92 76.555 40.78C77.115 40.6167 77.6867 40.43 78.27 40.22C78.8533 40.01 79.4367 39.7767 80.02 39.52C80.6033 39.2633 81.1167 38.9717 81.56 38.645C82.0267 38.295 82.4 37.91 82.68 37.49C82.9833 37.07 83.135 36.5917 83.135 36.055C83.135 35.775 83.0183 35.5533 82.785 35.39C82.5517 35.2267 82.2717 35.11 81.945 35.04C81.6183 34.9467 81.2917 34.8883 80.965 34.865C80.6383 34.8183 80.37 34.795 80.16 34.795C79.3433 34.795 78.5383 34.9117 77.745 35.145C76.9517 35.3783 76.17 35.635 75.4 35.915C75.33 36.5683 75.2717 37.21 75.225 37.84C75.1783 38.47 75.155 39.1117 75.155 39.765L75.19 41.165ZM114.651 45.96C114.651 48.1767 114.418 50.055 113.951 51.595C113.484 53.135 112.738 54.3833 111.711 55.34C110.708 56.2967 109.413 56.9967 107.826 57.44C106.263 57.86 104.373 58.07 102.156 58.07C100.826 58.07 99.6125 57.7667 98.5159 57.16C97.4192 56.53 96.4625 55.725 95.6459 54.745C94.8292 53.765 94.1642 52.6683 93.6509 51.455C93.1609 50.2183 92.8692 49.005 92.7759 47.815C92.7292 47.185 92.6825 46.555 92.6359 45.925C92.6125 45.295 92.6009 44.665 92.6009 44.035C92.6009 43.545 92.6125 42.8917 92.6359 42.075C92.6592 41.235 92.7175 40.3367 92.8109 39.38C92.9275 38.4233 93.0792 37.455 93.2659 36.475C93.4759 35.4717 93.7442 34.5733 94.0709 33.78C94.3975 32.9633 94.8059 32.31 95.2959 31.82C95.7859 31.3067 96.3692 31.05 97.0459 31.05C97.9092 31.05 98.7025 31.2483 99.4259 31.645C100.149 32.0417 100.604 32.7533 100.791 33.78C100.954 34.7367 101.013 35.8217 100.966 37.035C100.943 38.2483 100.896 39.485 100.826 40.745C100.756 42.005 100.709 43.2533 100.686 44.49C100.663 45.7033 100.733 46.7883 100.896 47.745C101.059 48.7017 101.363 49.4717 101.806 50.055C102.249 50.6383 102.914 50.93 103.801 50.93C104.664 50.93 105.388 50.93 105.971 50.93C106.578 50.9067 107.056 50.79 107.406 50.58C107.756 50.37 108.001 50.02 108.141 49.53C108.304 49.04 108.386 48.3167 108.386 47.36C108.386 46.4267 108.328 45.505 108.211 44.595C108.118 43.6617 108.001 42.74 107.861 41.83C107.744 40.8967 107.628 39.975 107.511 39.065C107.418 38.1317 107.371 37.21 107.371 36.3C107.371 35.81 107.383 35.2733 107.406 34.69C107.453 34.1067 107.581 33.57 107.791 33.08C108.024 32.5667 108.374 32.1467 108.841 31.82C109.308 31.47 109.973 31.295 110.836 31.295C111.699 31.295 112.388 31.5867 112.901 32.17C113.438 32.7533 113.846 33.5117 114.126 34.445C114.406 35.355 114.593 36.3817 114.686 37.525C114.779 38.645 114.814 39.7533 114.791 40.85C114.791 41.9233 114.768 42.9267 114.721 43.86C114.674 44.77 114.651 45.47 114.651 45.96ZM125.779 48.13C124.985 47.2667 124.075 46.2867 123.049 45.19C122.045 44.07 121.089 42.8917 120.179 41.655C119.292 40.395 118.534 39.1117 117.904 37.805C117.297 36.4983 116.994 35.2267 116.994 33.99C116.994 33.1033 117.297 32.3683 117.904 31.785C118.51 31.1783 119.257 30.875 120.144 30.875C120.61 30.875 121.112 31.0733 121.649 31.47C122.185 31.8433 122.722 32.3333 123.259 32.94C123.819 33.5233 124.355 34.1883 124.869 34.935C125.405 35.6817 125.895 36.4283 126.339 37.175C126.805 37.8983 127.225 38.5867 127.599 39.24C127.972 39.87 128.275 40.3833 128.509 40.78C128.649 40.71 128.847 40.4417 129.104 39.975C129.384 39.485 129.699 38.9017 130.049 38.225C130.399 37.5483 130.795 36.8367 131.239 36.09C131.682 35.32 132.149 34.6083 132.639 33.955C133.129 33.3017 133.642 32.765 134.179 32.345C134.739 31.9017 135.31 31.68 135.894 31.68C136.594 31.68 137.212 31.9367 137.749 32.45C138.309 32.9633 138.589 33.57 138.589 34.27C138.589 34.7833 138.449 35.46 138.169 36.3C137.889 37.14 137.55 38.015 137.154 38.925C136.757 39.835 136.349 40.71 135.929 41.55C135.509 42.39 135.17 43.055 134.914 43.545C133.77 45.645 132.72 47.78 131.764 49.95C130.807 52.0967 129.92 54.29 129.104 56.53C128.94 56.9267 128.777 57.3233 128.614 57.72C128.45 58.1167 128.264 58.5133 128.054 58.91C127.797 59.3767 127.459 59.75 127.039 60.03C126.642 60.31 126.175 60.45 125.639 60.45C125.172 60.45 124.775 60.3567 124.449 60.17C124.145 60.0067 123.9 59.7733 123.714 59.47C123.527 59.19 123.387 58.8633 123.294 58.49C123.224 58.1167 123.189 57.7317 123.189 57.335C123.189 56.8217 123.282 56.1567 123.469 55.34C123.679 54.5 123.912 53.6367 124.169 52.75C124.449 51.84 124.729 50.9767 125.009 50.16C125.312 49.32 125.569 48.6433 125.779 48.13ZM160.809 56.88L156.679 56.915C156.189 56.915 155.676 56.88 155.139 56.81C154.602 56.7167 154.112 56.565 153.669 56.355C153.226 56.145 152.852 55.8533 152.549 55.48C152.269 55.0833 152.129 54.57 152.129 53.94C152.129 53.3567 152.281 52.8667 152.584 52.47C152.911 52.0733 153.319 51.7467 153.809 51.49C154.322 51.2333 154.894 51.035 155.524 50.895C156.154 50.7317 156.784 50.6267 157.414 50.58C158.067 50.51 158.674 50.475 159.234 50.475C159.794 50.4517 160.272 50.44 160.669 50.44C160.856 50.0667 160.937 49.705 160.914 49.355C160.914 49.005 160.891 48.6433 160.844 48.27C160.284 48.27 159.724 48.2933 159.164 48.34C158.627 48.3867 158.079 48.41 157.519 48.41C156.632 48.41 155.792 48.2467 154.999 47.92C154.206 47.57 153.506 47.1033 152.899 46.52C152.316 45.9133 151.849 45.2133 151.499 44.42C151.172 43.6267 151.009 42.775 151.009 41.865C151.009 40.4417 151.359 39.24 152.059 38.26C152.759 37.2567 153.634 36.4283 154.684 35.775C155.757 35.0983 156.924 34.5617 158.184 34.165C159.467 33.7683 160.681 33.465 161.824 33.255C161.894 32.8583 161.952 32.3567 161.999 31.75C162.069 31.1433 162.186 30.56 162.349 30C162.512 29.44 162.746 28.9617 163.049 28.565C163.376 28.145 163.819 27.935 164.379 27.935C164.986 27.935 165.464 28.1333 165.814 28.53C166.164 28.9267 166.339 29.4167 166.339 30C166.339 30.4667 166.292 30.9333 166.199 31.4C166.129 31.8433 166.094 32.2983 166.094 32.765V33.5C166.537 33.6633 167.027 33.85 167.564 34.06C168.124 34.27 168.649 34.5383 169.139 34.865C169.629 35.1683 170.037 35.5417 170.364 35.985C170.691 36.4283 170.854 36.9533 170.854 37.56C170.854 38.33 170.679 38.9133 170.329 39.31C170.002 39.6833 169.582 39.94 169.069 40.08C168.556 40.22 167.996 40.29 167.389 40.29C166.782 40.29 166.211 40.29 165.674 40.29C165.627 40.7567 165.592 41.2117 165.569 41.655C165.546 42.0983 165.534 42.5533 165.534 43.02C166.584 43.09 167.622 43.3 168.649 43.65C169.676 44 170.597 44.5017 171.414 45.155C172.231 45.8083 172.884 46.6017 173.374 47.535C173.887 48.445 174.144 49.495 174.144 50.685C174.144 52.0617 173.852 53.1467 173.269 53.94C172.686 54.7333 171.951 55.3517 171.064 55.795C170.177 56.215 169.186 56.5067 168.089 56.67C167.016 56.8333 165.977 56.9733 164.974 57.09C164.951 57.4167 164.927 57.755 164.904 58.105C164.881 58.455 164.811 58.77 164.694 59.05C164.577 59.33 164.391 59.5517 164.134 59.715C163.901 59.9017 163.562 59.995 163.119 59.995C162.722 59.995 162.396 59.89 162.139 59.68C161.906 59.47 161.707 59.2017 161.544 58.875C161.381 58.5717 161.241 58.245 161.124 57.895C161.007 57.5217 160.902 57.1833 160.809 56.88ZM161.019 43.685C160.972 43.125 160.996 42.5767 161.089 42.04C161.182 41.5033 161.147 40.9667 160.984 40.43C160.727 40.4767 160.342 40.5583 159.829 40.675C159.339 40.7917 158.837 40.955 158.324 41.165C157.834 41.3517 157.391 41.585 156.994 41.865C156.621 42.1217 156.434 42.4017 156.434 42.705C156.434 43.1017 156.597 43.44 156.924 43.72C157.274 43.9767 157.636 44.105 158.009 44.105C158.476 44.105 158.977 44.0583 159.514 43.965C160.051 43.8483 160.552 43.755 161.019 43.685ZM165.324 48.13C165.277 48.5267 165.231 48.9233 165.184 49.32C165.137 49.6933 165.207 50.0667 165.394 50.44L166.304 50.475C166.981 50.475 167.412 50.3117 167.599 49.985C167.786 49.6583 167.797 49.3317 167.634 49.005C167.494 48.655 167.214 48.375 166.794 48.165C166.374 47.9317 165.884 47.92 165.324 48.13ZM179.117 37.77C178.697 37.3967 178.324 37.035 177.997 36.685C177.671 36.335 177.507 35.8567 177.507 35.25C177.507 34.6433 177.741 34.1183 178.207 33.675C178.697 33.2317 179.316 32.8583 180.062 32.555C180.832 32.2283 181.672 31.9717 182.582 31.785C183.516 31.575 184.426 31.4233 185.312 31.33C186.222 31.2133 187.062 31.1317 187.832 31.085C188.602 31.0383 189.209 31.015 189.652 31.015C191.356 31.015 192.942 31.2133 194.412 31.61C195.906 32.0067 197.201 32.6367 198.297 33.5C199.394 34.34 200.257 35.4367 200.887 36.79C201.517 38.12 201.832 39.7183 201.832 41.585C201.832 42.495 201.692 43.3933 201.412 44.28C201.132 45.1433 200.736 45.9483 200.222 46.695C199.382 47.955 198.367 48.9 197.177 49.53C196.011 50.16 194.762 50.6033 193.432 50.86C192.102 51.1167 190.726 51.245 189.302 51.245C187.879 51.245 186.502 51.245 185.172 51.245C185.056 51.595 184.974 52.015 184.927 52.505C184.904 52.9717 184.869 53.4617 184.822 53.975C184.799 54.4883 184.752 55.0017 184.682 55.515C184.612 56.0283 184.484 56.495 184.297 56.915C184.111 57.3117 183.842 57.6383 183.492 57.895C183.142 58.1283 182.687 58.245 182.127 58.245C181.497 58.245 180.961 58.0233 180.517 57.58C180.097 57.1367 179.736 56.565 179.432 55.865C179.152 55.165 178.931 54.3833 178.767 53.52C178.604 52.6567 178.476 51.805 178.382 50.965C178.312 50.1017 178.266 49.3083 178.242 48.585C178.219 47.8383 178.207 47.2433 178.207 46.8C178.207 45.26 178.289 43.7433 178.452 42.25C178.616 40.7567 178.837 39.2633 179.117 37.77ZM185.032 43.825C185.662 43.965 186.292 44.0583 186.922 44.105C187.576 44.1517 188.229 44.175 188.882 44.175C189.372 44.175 189.944 44.175 190.597 44.175C191.251 44.175 191.869 44.105 192.452 43.965C193.036 43.8017 193.526 43.5333 193.922 43.16C194.342 42.7867 194.552 42.2383 194.552 41.515C194.552 40.7217 194.377 40.08 194.027 39.59C193.701 39.0767 193.257 38.6917 192.697 38.435C192.161 38.155 191.542 37.9683 190.842 37.875C190.166 37.7817 189.466 37.7467 188.742 37.77C188.019 37.7933 187.307 37.8517 186.607 37.945C185.931 38.015 185.324 38.0733 184.787 38.12C184.834 39.0767 184.869 40.0333 184.892 40.99C184.939 41.9233 184.986 42.8683 185.032 43.825ZM210.837 36.965C210.37 36.895 209.81 36.8367 209.157 36.79C208.527 36.72 207.92 36.6033 207.337 36.44C206.754 36.2533 206.264 35.985 205.867 35.635C205.47 35.2617 205.272 34.7483 205.272 34.095C205.272 33.4417 205.447 32.905 205.797 32.485C206.147 32.065 206.602 31.7383 207.162 31.505C207.722 31.2483 208.352 31.0617 209.052 30.945C209.752 30.8283 210.452 30.7583 211.152 30.735C211.875 30.6883 212.552 30.6767 213.182 30.7C213.812 30.7 214.349 30.7 214.792 30.7C215.282 30.7 215.9 30.6767 216.647 30.63C217.417 30.5833 218.152 30.6183 218.852 30.735C219.552 30.8283 220.159 31.0383 220.672 31.365C221.185 31.6917 221.442 32.24 221.442 33.01C221.442 33.6167 221.244 34.13 220.847 34.55C220.474 34.9467 220.019 35.2733 219.482 35.53C218.945 35.7867 218.362 35.9967 217.732 36.16C217.125 36.3 216.6 36.4167 216.157 36.51C216.204 37.56 216.25 38.61 216.297 39.66C216.367 40.6867 216.402 41.725 216.402 42.775C216.402 43.4517 216.39 44.14 216.367 44.84C216.367 45.5167 216.355 46.1933 216.332 46.87C216.309 47.7567 216.215 48.6317 216.052 49.495C215.889 50.335 215.807 51.1983 215.807 52.085C216.274 52.2017 216.834 52.3417 217.487 52.505C218.164 52.6683 218.805 52.89 219.412 53.17C220.042 53.4267 220.579 53.765 221.022 54.185C221.465 54.5817 221.687 55.095 221.687 55.725C221.687 56.285 221.547 56.74 221.267 57.09C220.987 57.4167 220.614 57.6733 220.147 57.86C219.704 58.0233 219.19 58.1283 218.607 58.175C218.047 58.245 217.475 58.28 216.892 58.28C216.332 58.28 215.784 58.2567 215.247 58.21C214.734 58.1867 214.29 58.175 213.917 58.175C213.474 58.175 212.937 58.1867 212.307 58.21C211.677 58.2333 211 58.2333 210.277 58.21C209.577 58.21 208.877 58.1633 208.177 58.07C207.477 57.9767 206.847 57.8133 206.287 57.58C205.75 57.3467 205.307 57.02 204.957 56.6C204.607 56.1567 204.432 55.5967 204.432 54.92C204.432 54.1267 204.642 53.52 205.062 53.1C205.505 52.68 206.03 52.365 206.637 52.155C207.267 51.945 207.932 51.8167 208.632 51.77C209.355 51.7233 209.997 51.6767 210.557 51.63C210.674 50.58 210.697 49.5533 210.627 48.55C210.58 47.5467 210.557 46.52 210.557 45.47C210.557 44.0467 210.592 42.635 210.662 41.235C210.732 39.8117 210.79 38.3883 210.837 36.965ZM224.51 37.315C224.51 36.825 224.393 36.3817 224.16 35.985C223.95 35.5883 223.845 35.1567 223.845 34.69C223.845 34.06 224.055 33.5233 224.475 33.08C224.895 32.6133 225.432 32.24 226.085 31.96C226.762 31.6567 227.508 31.4233 228.325 31.26C229.142 31.0733 229.947 30.9333 230.74 30.84C231.557 30.7467 232.315 30.6883 233.015 30.665C233.715 30.6417 234.287 30.63 234.73 30.63C236.69 30.63 238.44 30.98 239.98 31.68C241.543 32.38 242.862 33.3367 243.935 34.55C245.008 35.7633 245.825 37.1983 246.385 38.855C246.968 40.4883 247.26 42.2617 247.26 44.175C247.26 46.2517 246.84 48.1767 246 49.95C245.16 51.7 244.028 53.2167 242.605 54.5C241.205 55.76 239.56 56.7517 237.67 57.475C235.803 58.1983 233.832 58.56 231.755 58.56C231.148 58.56 230.53 58.49 229.9 58.35C229.293 58.21 228.71 58.0233 228.15 57.79C227.427 57.51 226.855 57.125 226.435 56.635C226.015 56.145 225.793 55.515 225.77 54.745C225.747 53.135 225.665 51.5833 225.525 50.09C225.385 48.5967 225.233 47.1383 225.07 45.715C224.93 44.2917 224.802 42.8917 224.685 41.515C224.568 40.115 224.51 38.715 224.51 37.315ZM230.775 36.86C231.032 39.2867 231.253 41.7133 231.44 44.14C231.627 46.5667 231.685 49.005 231.615 51.455L231.79 51.84C233.05 51.7233 234.193 51.5833 235.22 51.42C236.27 51.2567 237.168 50.9533 237.915 50.51C238.662 50.0667 239.233 49.425 239.63 48.585C240.05 47.7217 240.26 46.5433 240.26 45.05C240.26 43.4867 240.05 42.1217 239.63 40.955C239.233 39.765 238.627 38.8083 237.81 38.085C237.017 37.3617 236.025 36.895 234.835 36.685C233.668 36.4517 232.315 36.51 230.775 36.86ZM276.101 44.875C276.101 46.7183 275.821 48.4683 275.261 50.125C274.701 51.7817 273.884 53.24 272.811 54.5C271.761 55.76 270.454 56.7633 268.891 57.51C267.328 58.2333 265.531 58.595 263.501 58.595C261.354 58.595 259.453 58.2683 257.796 57.615C256.139 56.9617 254.739 56.04 253.596 54.85C252.476 53.66 251.624 52.2483 251.041 50.615C250.458 48.9583 250.166 47.15 250.166 45.19C250.166 42.6467 250.726 40.3717 251.846 38.365C252.966 36.3583 254.658 34.6783 256.921 33.325C257.458 33.0217 258.076 32.765 258.776 32.555C259.476 32.345 260.199 32.1933 260.946 32.1C261.693 31.9833 262.439 31.9017 263.186 31.855C263.933 31.8083 264.621 31.785 265.251 31.785C267.118 31.785 268.786 32.1933 270.256 33.01C271.749 33.8267 273.044 34.9233 274.141 36.3C274.584 36.8367 274.934 37.4667 275.191 38.19C275.448 38.89 275.646 39.625 275.786 40.395C275.926 41.165 276.008 41.9467 276.031 42.74C276.078 43.51 276.101 44.2217 276.101 44.875ZM265.601 38.75C264.714 38.75 263.874 38.8083 263.081 38.925C262.288 39.0417 261.564 39.2633 260.911 39.59C260.281 39.8933 259.721 40.325 259.231 40.885C258.741 41.445 258.356 42.1567 258.076 43.02C257.889 43.58 257.703 44.1517 257.516 44.735C257.353 45.295 257.271 45.8783 257.271 46.485C257.271 48.585 257.773 50.1367 258.776 51.14C259.803 52.12 261.424 52.61 263.641 52.61C264.854 52.61 265.858 52.505 266.651 52.295C267.444 52.085 268.086 51.7467 268.576 51.28C269.089 50.79 269.486 50.1833 269.766 49.46C270.046 48.7133 270.279 47.815 270.466 46.765C270.629 45.715 270.723 44.7117 270.746 43.755C270.793 42.775 270.664 41.9233 270.361 41.2C270.058 40.4533 269.533 39.8583 268.786 39.415C268.063 38.9717 267.001 38.75 265.601 38.75Z" fill="black"/>
<defs>
<filter id="filter0_d_5_17" x="0" y="0" width="345" height="98" filterUnits="userSpaceOnUse" color-interpolation-filters="sRGB">
<feFlood flood-opacity="0" result="BackgroundImageFix"/>
<feColorMatrix in="SourceAlpha" type="matrix" values="0 0 0 0 0 0 0 0 0 0 0 0 0 0 0 0 0 0 127 0" result="hardAlpha"/>
<feOffset dy="6"/>
<feComposite in2="hardAlpha" operator="out"/>
<feColorMatrix type="matrix" values="0 0 0 0 0 0 0 0 0 0 0 0 0 0 0 0 0 0 1 0"/>
<feBlend mode="normal" in2="BackgroundImageFix" result="effect1_dropShadow_5_17"/>
<feBlend mode="normal" in="SourceGraphic" in2="effect1_dropShadow_5_17" result="shape"/>
</filter>
</defs>
</svg>
