<svg width="246" height="84" viewBox="0 0 246 84" fill="none" xmlns="http://www.w3.org/2000/svg">
<g filter="url(#filter0_d_6_46)">
<rect width="246" height="78" rx="10" fill="#9C6419"/>
<rect x="1" y="1" width="244" height="76" rx="9" stroke="black" stroke-width="2"/>
</g>
<path d="M59.695 44.2785C59.9517 44.6751 60.3483 45.2235 60.885 45.9235C61.445 46.6001 62.005 47.3118 62.565 48.0585C63.125 48.7818 63.615 49.4701 64.035 50.1235C64.455 50.7768 64.665 51.2785 64.665 51.6285C64.665 51.9551 64.595 52.2701 64.455 52.5735C64.315 52.8768 64.1167 53.1451 63.86 53.3785C63.6267 53.5885 63.3467 53.7635 63.02 53.9035C62.7167 54.0435 62.39 54.1135 62.04 54.1135C61.0833 54.1135 60.22 53.7985 59.45 53.1685C58.68 52.5385 57.9917 51.7801 57.385 50.8935C56.7783 50.0068 56.2533 49.0851 55.81 48.1285C55.3667 47.1718 55.005 46.3551 54.725 45.6785C53.885 45.8185 53.0917 45.9235 52.345 45.9935C52.2517 46.3668 52.1817 46.8335 52.135 47.3935C52.0883 47.9301 52.0183 48.5135 51.925 49.1435C51.855 49.7501 51.7617 50.3685 51.645 50.9985C51.5283 51.6051 51.3533 52.1535 51.12 52.6435C50.91 53.1335 50.6183 53.5418 50.245 53.8685C49.8717 54.1718 49.405 54.3235 48.845 54.3235C48.3783 54.3235 47.9583 54.1951 47.585 53.9385C47.2117 53.6585 46.9317 53.3201 46.745 52.9235C46.5117 52.4568 46.325 51.7568 46.185 50.8235C46.045 49.8901 45.9283 48.8401 45.835 47.6735C45.7417 46.4835 45.6717 45.2351 45.625 43.9285C45.6017 42.6218 45.5783 41.3618 45.555 40.1485C45.555 38.9118 45.555 37.7801 45.555 36.7535C45.555 35.7035 45.555 34.8518 45.555 34.1985C45.205 33.8951 44.89 33.5685 44.61 33.2185C44.3533 32.8685 44.225 32.4601 44.225 31.9935C44.225 31.3401 44.435 30.7685 44.855 30.2785C45.275 29.7885 45.8117 29.3685 46.465 29.0185C47.1417 28.6685 47.9 28.3885 48.74 28.1785C49.58 27.9451 50.42 27.7585 51.26 27.6185C52.1 27.4785 52.8933 27.3851 53.64 27.3385C54.3867 27.2918 55.005 27.2685 55.495 27.2685C56.8717 27.2685 58.2367 27.4435 59.59 27.7935C60.9433 28.1435 62.1567 28.6801 63.23 29.4035C64.3267 30.1268 65.2017 31.0251 65.855 32.0985C66.5317 33.1718 66.87 34.4318 66.87 35.8785C66.87 36.9751 66.6717 37.9551 66.275 38.8185C65.9017 39.6585 65.3883 40.4168 64.735 41.0935C64.0817 41.7468 63.3117 42.3418 62.425 42.8785C61.5617 43.3918 60.6517 43.8585 59.695 44.2785ZM61.025 35.3535C61.025 34.8168 60.7917 34.3735 60.325 34.0235C59.8583 33.6735 59.2983 33.4051 58.645 33.2185C57.9917 33.0085 57.3267 32.8685 56.65 32.7985C55.9967 32.7285 55.46 32.6935 55.04 32.6935C54.5967 32.6935 54.1533 32.7051 53.71 32.7285C53.29 32.7518 52.8583 32.7868 52.415 32.8335L52.345 39.5535C52.7417 39.5535 53.2317 39.5185 53.815 39.4485C54.4217 39.3551 55.04 39.2385 55.67 39.0985C56.3233 38.9585 56.965 38.7718 57.595 38.5385C58.2483 38.3051 58.82 38.0368 59.31 37.7335C59.8233 37.4301 60.2317 37.0801 60.535 36.6835C60.8617 36.2868 61.025 35.8435 61.025 35.3535ZM75.3288 48.0935C75.2588 48.6301 75.2238 49.2601 75.2238 49.9835C75.2238 50.6835 75.1538 51.3718 75.0138 52.0485C74.8738 52.7018 74.6171 53.2618 74.2438 53.7285C73.8705 54.1718 73.2871 54.3935 72.4938 54.3935C71.6771 54.3935 71.0588 54.1601 70.6388 53.6935C70.2188 53.2268 69.9155 52.6551 69.7288 51.9785C69.5655 51.2785 69.4721 50.5551 69.4488 49.8085C69.4255 49.0618 69.4138 48.4085 69.4138 47.8485C69.4138 46.8218 69.5071 45.5851 69.6938 44.1385C69.8805 42.6918 70.1721 41.1868 70.5688 39.6235C70.9655 38.0601 71.4671 36.5085 72.0738 34.9685C72.7038 33.4051 73.4505 32.0051 74.3138 30.7685C75.1771 29.5318 76.1688 28.5401 77.2888 27.7935C78.4088 27.0235 79.6688 26.6385 81.0688 26.6385C82.3288 26.6385 83.4021 26.9068 84.2888 27.4435C85.1755 27.9801 85.8988 28.6918 86.4588 29.5785C87.0421 30.4651 87.4971 31.4801 87.8238 32.6235C88.1505 33.7435 88.3955 34.8985 88.5588 36.0885C88.7221 37.2551 88.8155 38.4101 88.8388 39.5535C88.8855 40.6735 88.9088 41.6768 88.9088 42.5635C88.9088 43.0301 88.8971 43.6368 88.8738 44.3835C88.8505 45.1301 88.7921 45.9351 88.6988 46.7985C88.6288 47.6618 88.5005 48.5368 88.3138 49.4235C88.1505 50.3101 87.9171 51.1151 87.6138 51.8385C87.3105 52.5385 86.9255 53.1218 86.4588 53.5885C86.0155 54.0318 85.4671 54.2535 84.8138 54.2535C83.9038 54.2535 83.2271 53.9968 82.7838 53.4835C82.3638 52.9468 82.0721 52.3051 81.9088 51.5585C81.7688 50.7885 81.7105 49.9835 81.7338 49.1435C81.7805 48.3035 81.8038 47.5801 81.8038 46.9735L75.3288 48.0935ZM82.3638 42.2135C82.4338 41.6068 82.4921 41.0118 82.5388 40.4285C82.5855 39.8218 82.6088 39.2151 82.6088 38.6085C82.6088 38.2818 82.5855 37.8035 82.5388 37.1735C82.5155 36.5435 82.4455 35.9135 82.3288 35.2835C82.2355 34.6301 82.0838 34.0351 81.8738 33.4985C81.6871 32.9618 81.4305 32.6235 81.1038 32.4835C80.4738 32.8801 79.8788 33.4751 79.3188 34.2685C78.7588 35.0618 78.2688 35.9368 77.8488 36.8935C77.4288 37.8268 77.0905 38.7718 76.8338 39.7285C76.5771 40.6851 76.4371 41.5251 76.4138 42.2485C76.5305 42.2718 76.6355 42.2951 76.7288 42.3185C76.8221 42.3418 76.9271 42.3535 77.0438 42.3535C77.9305 42.3535 78.8171 42.3418 79.7038 42.3185C80.5905 42.2718 81.4771 42.2368 82.3638 42.2135ZM100.309 44.1735C99.5156 43.3101 98.6056 42.3301 97.5789 41.2335C96.5756 40.1135 95.6189 38.9351 94.7089 37.6985C93.8223 36.4385 93.0639 35.1551 92.4339 33.8485C91.8273 32.5418 91.5239 31.2701 91.5239 30.0335C91.5239 29.1468 91.8273 28.4118 92.4339 27.8285C93.0406 27.2218 93.7873 26.9185 94.6739 26.9185C95.1406 26.9185 95.6423 27.1168 96.1789 27.5135C96.7156 27.8868 97.2523 28.3768 97.7889 28.9835C98.3489 29.5668 98.8856 30.2318 99.3989 30.9785C99.9356 31.7251 100.426 32.4718 100.869 33.2185C101.336 33.9418 101.756 34.6301 102.129 35.2835C102.502 35.9135 102.806 36.4268 103.039 36.8235C103.179 36.7535 103.377 36.4851 103.634 36.0185C103.914 35.5285 104.229 34.9451 104.579 34.2685C104.929 33.5918 105.326 32.8801 105.769 32.1335C106.212 31.3635 106.679 30.6518 107.169 29.9985C107.659 29.3451 108.172 28.8085 108.709 28.3885C109.269 27.9451 109.841 27.7235 110.424 27.7235C111.124 27.7235 111.742 27.9801 112.279 28.4935C112.839 29.0068 113.119 29.6135 113.119 30.3135C113.119 30.8268 112.979 31.5035 112.699 32.3435C112.419 33.1835 112.081 34.0585 111.684 34.9685C111.287 35.8785 110.879 36.7535 110.459 37.5935C110.039 38.4335 109.701 39.0985 109.444 39.5885C108.301 41.6885 107.251 43.8235 106.294 45.9935C105.337 48.1401 104.451 50.3335 103.634 52.5735C103.471 52.9701 103.307 53.3668 103.144 53.7635C102.981 54.1601 102.794 54.5568 102.584 54.9535C102.327 55.4201 101.989 55.7935 101.569 56.0735C101.172 56.3535 100.706 56.4935 100.169 56.4935C99.7023 56.4935 99.3056 56.4001 98.9789 56.2135C98.6756 56.0501 98.4306 55.8168 98.2439 55.5135C98.0573 55.2335 97.9173 54.9068 97.8239 54.5335C97.7539 54.1601 97.7189 53.7751 97.7189 53.3785C97.7189 52.8651 97.8123 52.2001 97.9989 51.3835C98.2089 50.5435 98.4423 49.6801 98.6989 48.7935C98.9789 47.8835 99.2589 47.0201 99.5389 46.2035C99.8423 45.3635 100.099 44.6868 100.309 44.1735ZM115.95 33.3585C115.95 32.8685 115.833 32.4251 115.6 32.0285C115.39 31.6318 115.285 31.2001 115.285 30.7335C115.285 30.1035 115.495 29.5668 115.915 29.1235C116.335 28.6568 116.871 28.2835 117.525 28.0035C118.201 27.7001 118.948 27.4668 119.765 27.3035C120.581 27.1168 121.386 26.9768 122.18 26.8835C122.996 26.7901 123.755 26.7318 124.455 26.7085C125.155 26.6851 125.726 26.6735 126.17 26.6735C128.13 26.6735 129.88 27.0235 131.42 27.7235C132.983 28.4235 134.301 29.3801 135.375 30.5935C136.448 31.8068 137.265 33.2418 137.825 34.8985C138.408 36.5318 138.7 38.3051 138.7 40.2185C138.7 42.2951 138.28 44.2201 137.44 45.9935C136.6 47.7435 135.468 49.2601 134.045 50.5435C132.645 51.8035 131 52.7951 129.11 53.5185C127.243 54.2418 125.271 54.6035 123.195 54.6035C122.588 54.6035 121.97 54.5335 121.34 54.3935C120.733 54.2535 120.15 54.0668 119.59 53.8335C118.866 53.5535 118.295 53.1685 117.875 52.6785C117.455 52.1885 117.233 51.5585 117.21 50.7885C117.186 49.1785 117.105 47.6268 116.965 46.1335C116.825 44.6401 116.673 43.1818 116.51 41.7585C116.37 40.3351 116.241 38.9351 116.125 37.5585C116.008 36.1585 115.95 34.7585 115.95 33.3585ZM122.215 32.9035C122.471 35.3301 122.693 37.7568 122.88 40.1835C123.066 42.6101 123.125 45.0485 123.055 47.4985L123.23 47.8835C124.49 47.7668 125.633 47.6268 126.66 47.4635C127.71 47.3001 128.608 46.9968 129.355 46.5535C130.101 46.1101 130.673 45.4685 131.07 44.6285C131.49 43.7651 131.7 42.5868 131.7 41.0935C131.7 39.5301 131.49 38.1651 131.07 36.9985C130.673 35.8085 130.066 34.8518 129.25 34.1285C128.456 33.4051 127.465 32.9385 126.275 32.7285C125.108 32.4951 123.755 32.5535 122.215 32.9035ZM147.94 33.0085C147.474 32.9385 146.914 32.8801 146.26 32.8335C145.63 32.7635 145.024 32.6468 144.44 32.4835C143.857 32.2968 143.367 32.0285 142.97 31.6785C142.574 31.3051 142.375 30.7918 142.375 30.1385C142.375 29.4851 142.55 28.9485 142.9 28.5285C143.25 28.1085 143.705 27.7818 144.265 27.5485C144.825 27.2918 145.455 27.1051 146.155 26.9885C146.855 26.8718 147.555 26.8018 148.255 26.7785C148.979 26.7318 149.655 26.7201 150.285 26.7435C150.915 26.7435 151.452 26.7435 151.895 26.7435C152.385 26.7435 153.004 26.7201 153.75 26.6735C154.52 26.6268 155.255 26.6618 155.955 26.7785C156.655 26.8718 157.262 27.0818 157.775 27.4085C158.289 27.7351 158.545 28.2835 158.545 29.0535C158.545 29.6601 158.347 30.1735 157.95 30.5935C157.577 30.9901 157.122 31.3168 156.585 31.5735C156.049 31.8301 155.465 32.0401 154.835 32.2035C154.229 32.3435 153.704 32.4601 153.26 32.5535C153.307 33.6035 153.354 34.6535 153.4 35.7035C153.47 36.7301 153.505 37.7685 153.505 38.8185C153.505 39.4951 153.494 40.1835 153.47 40.8835C153.47 41.5601 153.459 42.2368 153.435 42.9135C153.412 43.8001 153.319 44.6751 153.155 45.5385C152.992 46.3785 152.91 47.2418 152.91 48.1285C153.377 48.2451 153.937 48.3851 154.59 48.5485C155.267 48.7118 155.909 48.9335 156.515 49.2135C157.145 49.4701 157.682 49.8085 158.125 50.2285C158.569 50.6251 158.79 51.1385 158.79 51.7685C158.79 52.3285 158.65 52.7835 158.37 53.1335C158.09 53.4601 157.717 53.7168 157.25 53.9035C156.807 54.0668 156.294 54.1718 155.71 54.2185C155.15 54.2885 154.579 54.3235 153.995 54.3235C153.435 54.3235 152.887 54.3001 152.35 54.2535C151.837 54.2301 151.394 54.2185 151.02 54.2185C150.577 54.2185 150.04 54.2301 149.41 54.2535C148.78 54.2768 148.104 54.2768 147.38 54.2535C146.68 54.2535 145.98 54.2068 145.28 54.1135C144.58 54.0201 143.95 53.8568 143.39 53.6235C142.854 53.3901 142.41 53.0635 142.06 52.6435C141.71 52.2001 141.535 51.6401 141.535 50.9635C141.535 50.1701 141.745 49.5635 142.165 49.1435C142.609 48.7235 143.134 48.4085 143.74 48.1985C144.37 47.9885 145.035 47.8601 145.735 47.8135C146.459 47.7668 147.1 47.7201 147.66 47.6735C147.777 46.6235 147.8 45.5968 147.73 44.5935C147.684 43.5901 147.66 42.5635 147.66 41.5135C147.66 40.0901 147.695 38.6785 147.765 37.2785C147.835 35.8551 147.894 34.4318 147.94 33.0085ZM183.244 42.0035C183.244 44.2201 183.01 46.0985 182.544 47.6385C182.077 49.1785 181.33 50.4268 180.304 51.3835C179.3 52.3401 178.005 53.0401 176.419 53.4835C174.855 53.9035 172.965 54.1135 170.749 54.1135C169.419 54.1135 168.205 53.8101 167.109 53.2035C166.012 52.5735 165.055 51.7685 164.239 50.7885C163.422 49.8085 162.757 48.7118 162.244 47.4985C161.754 46.2618 161.462 45.0485 161.369 43.8585C161.322 43.2285 161.275 42.5985 161.229 41.9685C161.205 41.3385 161.194 40.7085 161.194 40.0785C161.194 39.5885 161.205 38.9351 161.229 38.1185C161.252 37.2785 161.31 36.3801 161.404 35.4235C161.52 34.4668 161.672 33.4985 161.859 32.5185C162.069 31.5151 162.337 30.6168 162.664 29.8235C162.99 29.0068 163.399 28.3535 163.889 27.8635C164.379 27.3501 164.962 27.0935 165.639 27.0935C166.502 27.0935 167.295 27.2918 168.019 27.6885C168.742 28.0851 169.197 28.7968 169.384 29.8235C169.547 30.7801 169.605 31.8651 169.559 33.0785C169.535 34.2918 169.489 35.5285 169.419 36.7885C169.349 38.0485 169.302 39.2968 169.279 40.5335C169.255 41.7468 169.325 42.8318 169.489 43.7885C169.652 44.7451 169.955 45.5151 170.399 46.0985C170.842 46.6818 171.507 46.9735 172.394 46.9735C173.257 46.9735 173.98 46.9735 174.564 46.9735C175.17 46.9501 175.649 46.8335 175.999 46.6235C176.349 46.4135 176.594 46.0635 176.734 45.5735C176.897 45.0835 176.979 44.3601 176.979 43.4035C176.979 42.4701 176.92 41.5485 176.804 40.6385C176.71 39.7051 176.594 38.7835 176.454 37.8735C176.337 36.9401 176.22 36.0185 176.104 35.1085C176.01 34.1751 175.964 33.2535 175.964 32.3435C175.964 31.8535 175.975 31.3168 175.999 30.7335C176.045 30.1501 176.174 29.6135 176.384 29.1235C176.617 28.6101 176.967 28.1901 177.434 27.8635C177.9 27.5135 178.565 27.3385 179.429 27.3385C180.292 27.3385 180.98 27.6301 181.494 28.2135C182.03 28.7968 182.439 29.5551 182.719 30.4885C182.999 31.3985 183.185 32.4251 183.279 33.5685C183.372 34.6885 183.407 35.7968 183.384 36.8935C183.384 37.9668 183.36 38.9701 183.314 39.9035C183.267 40.8135 183.244 41.5135 183.244 42.0035ZM199.411 42.2485C199.691 41.6418 200.006 40.9301 200.356 40.1135C200.73 39.2735 201.126 38.3985 201.546 37.4885C201.966 36.5551 202.398 35.6101 202.841 34.6535C203.285 33.6735 203.728 32.7518 204.171 31.8885C204.638 31.0018 205.081 30.1968 205.501 29.4735C205.945 28.7268 206.353 28.1085 206.726 27.6185C207.053 27.2218 207.438 26.9185 207.881 26.7085C208.325 26.4985 208.791 26.3935 209.281 26.3935C210.098 26.3935 210.798 26.5918 211.381 26.9885C211.965 27.3851 212.361 27.9918 212.571 28.8085C212.641 29.1118 212.711 29.7185 212.781 30.6285C212.851 31.5385 212.91 32.6118 212.956 33.8485C213.003 35.0618 213.05 36.3801 213.096 37.8035C213.143 39.2035 213.178 40.5451 213.201 41.8285C213.225 43.0885 213.236 44.2318 213.236 45.2585C213.26 46.2851 213.271 47.0201 213.271 47.4635C213.271 48.0235 213.248 48.6885 213.201 49.4585C213.178 50.2285 213.061 50.9635 212.851 51.6635C212.665 52.3635 212.35 52.9585 211.906 53.4485C211.486 53.9385 210.891 54.1835 210.121 54.1835C209.375 54.1835 208.78 53.9618 208.336 53.5185C207.893 53.0518 207.555 52.4685 207.321 51.7685C207.111 51.0451 206.971 50.2401 206.901 49.3535C206.831 48.4668 206.808 47.5918 206.831 46.7285C206.855 45.8418 206.89 45.0135 206.936 44.2435C207.006 43.4735 207.041 42.8435 207.041 42.3535C207.041 42.0968 207.03 41.8285 207.006 41.5485C207.006 41.2685 206.995 41.0001 206.971 40.7435C206.551 41.3735 206.061 42.2135 205.501 43.2635C204.941 44.3135 204.323 45.3401 203.646 46.3435C202.993 47.3468 202.281 48.2218 201.511 48.9685C200.765 49.6918 199.971 50.0535 199.131 50.0535C198.455 50.0535 197.825 49.8085 197.241 49.3185C196.658 48.8285 196.121 48.2451 195.631 47.5685C195.141 46.8685 194.686 46.1451 194.266 45.3985C193.87 44.6518 193.52 44.0218 193.216 43.5085C193.123 43.9285 193.065 44.4768 193.041 45.1535C193.041 45.8301 193.018 46.5651 192.971 47.3585C192.948 48.1285 192.89 48.9101 192.796 49.7035C192.726 50.4968 192.586 51.2201 192.376 51.8735C192.19 52.5035 191.91 53.0168 191.536 53.4135C191.163 53.8101 190.673 54.0085 190.066 54.0085C188.783 54.0085 187.943 53.3668 187.546 52.0835C187.336 51.4068 187.15 50.5551 186.986 49.5285C186.846 48.5018 186.718 47.3818 186.601 46.1685C186.508 44.9551 186.426 43.7068 186.356 42.4235C186.31 41.1168 186.263 39.8451 186.216 38.6085C186.193 37.3718 186.17 36.2168 186.146 35.1435C186.146 34.0468 186.146 33.1135 186.146 32.3435C186.146 31.7135 186.205 31.1068 186.321 30.5235C186.438 29.9168 186.636 29.3801 186.916 28.9135C187.196 28.4468 187.57 28.0735 188.036 27.7935C188.526 27.5135 189.145 27.3735 189.891 27.3735C190.638 27.3735 191.268 27.5601 191.781 27.9335C192.318 28.3068 192.75 28.8201 193.076 29.4735C193.496 30.3135 193.963 31.3285 194.476 32.5185C195.013 33.6851 195.561 34.8868 196.121 36.1235C196.705 37.3368 197.276 38.4918 197.836 39.5885C198.396 40.6851 198.921 41.5718 199.411 42.2485Z" fill="white"/>
<defs>
<filter id="filter0_d_6_46" x="0" y="0" width="246" height="84" filterUnits="userSpaceOnUse" color-interpolation-filters="sRGB">
<feFlood flood-opacity="0" result="BackgroundImageFix"/>
<feColorMatrix in="SourceAlpha" type="matrix" values="0 0 0 0 0 0 0 0 0 0 0 0 0 0 0 0 0 0 127 0" result="hardAlpha"/>
<feOffset dy="6"/>
<feComposite in2="hardAlpha" operator="out"/>
<feColorMatrix type="matrix" values="0 0 0 0 0 0 0 0 0 0 0 0 0 0 0 0 0 0 1 0"/>
<feBlend mode="normal" in2="BackgroundImageFix" result="effect1_dropShadow_6_46"/>
<feBlend mode="normal" in="SourceGraphic" in2="effect1_dropShadow_6_46" result="shape"/>
</filter>
</defs>
</svg>
