<svg width="171" height="32" viewBox="0 0 171 32" fill="none" xmlns="http://www.w3.org/2000/svg">
<g filter="url(#filter0_d_60_41)">
<path d="M15.625 3.65C16.125 3.65 16.7083 3.7 17.375 3.8C18.0583 3.88333 18.7083 4.04167 19.325 4.275C19.9417 4.50833 20.4667 4.84167 20.9 5.275C21.3333 5.69167 21.55 6.23333 21.55 6.9C21.55 7.21667 21.4917 7.51667 21.375 7.8C21.275 8.06667 21.125 8.30833 20.925 8.525C20.725 8.725 20.4917 8.88333 20.225 9C19.9583 9.11667 19.6667 9.175 19.35 9.175C19.0167 9.175 18.675 9.15 18.325 9.1C17.975 9.05 17.6167 8.99167 17.25 8.925C16.55 8.80833 15.7833 8.825 14.95 8.975C14.1333 9.125 13.3583 9.40833 12.625 9.825C11.9083 10.2417 11.3083 10.7917 10.825 11.475C10.3417 12.1417 10.1 12.95 10.1 13.9C10.1 14.3833 10.1917 14.8417 10.375 15.275C10.5583 15.6917 10.8083 16.0583 11.125 16.375C11.4583 16.6917 11.8333 16.9417 12.25 17.125C12.6833 17.2917 13.1417 17.375 13.625 17.375C14.125 17.375 14.6083 17.3167 15.075 17.2C15.5583 17.0667 16.025 16.9333 16.475 16.8C16.9417 16.65 17.3833 16.5167 17.8 16.4C18.2333 16.2667 18.65 16.2 19.05 16.2C19.4 16.2 19.7333 16.2667 20.05 16.4C20.3667 16.5333 20.6417 16.7167 20.875 16.95C21.125 17.1667 21.3167 17.4333 21.45 17.75C21.5833 18.05 21.65 18.3833 21.65 18.75C21.65 19.2667 21.5083 19.7083 21.225 20.075C20.9583 20.425 20.6083 20.7167 20.175 20.95C19.7417 21.1833 19.2417 21.3667 18.675 21.5C18.125 21.6167 17.5667 21.7083 17 21.775C16.4333 21.825 15.8833 21.8583 15.35 21.875C14.8333 21.875 14.3917 21.875 14.025 21.875C12.825 21.875 11.675 21.675 10.575 21.275C9.49167 20.8583 8.53333 20.2833 7.7 19.55C6.86667 18.8167 6.2 17.9333 5.7 16.9C5.21667 15.85 4.975 14.7 4.975 13.45C4.975 12.0333 5.275 10.725 5.875 9.525C6.49167 8.325 7.29167 7.29167 8.275 6.425C9.275 5.55833 10.4083 4.88333 11.675 4.4C12.9583 3.9 14.275 3.65 15.625 3.65ZM42.2006 12.625C42.2006 13.9417 42.0006 15.1917 41.6006 16.375C41.2006 17.5583 40.6173 18.6 39.8506 19.5C39.1006 20.4 38.1673 21.1167 37.0506 21.65C35.9339 22.1667 34.6506 22.425 33.2006 22.425C31.6673 22.425 30.3089 22.1917 29.1256 21.725C27.9423 21.2583 26.9423 20.6 26.1256 19.75C25.3256 18.9 24.7173 17.8917 24.3006 16.725C23.8839 15.5417 23.6756 14.25 23.6756 12.85C23.6756 11.0333 24.0756 9.40833 24.8756 7.975C25.6756 6.54167 26.8839 5.34167 28.5006 4.375C28.8839 4.15833 29.3256 3.975 29.8256 3.825C30.3256 3.675 30.8423 3.56667 31.3756 3.5C31.9089 3.41667 32.4423 3.35833 32.9756 3.325C33.5089 3.29167 34.0006 3.275 34.4506 3.275C35.7839 3.275 36.9756 3.56667 38.0256 4.15C39.0923 4.73333 40.0173 5.51667 40.8006 6.5C41.1173 6.88333 41.3673 7.33333 41.5506 7.85C41.7339 8.35 41.8756 8.875 41.9756 9.425C42.0756 9.975 42.1339 10.5333 42.1506 11.1C42.1839 11.65 42.2006 12.1583 42.2006 12.625ZM34.7006 8.25C34.0673 8.25 33.4673 8.29167 32.9006 8.375C32.3339 8.45833 31.8173 8.61667 31.3506 8.85C30.9006 9.06667 30.5006 9.375 30.1506 9.775C29.8006 10.175 29.5256 10.6833 29.3256 11.3C29.1923 11.7 29.0589 12.1083 28.9256 12.525C28.8089 12.925 28.7506 13.3417 28.7506 13.775C28.7506 15.275 29.1089 16.3833 29.8256 17.1C30.5589 17.8 31.7173 18.15 33.3006 18.15C34.1673 18.15 34.8839 18.075 35.4506 17.925C36.0173 17.775 36.4756 17.5333 36.8256 17.2C37.1923 16.85 37.4756 16.4167 37.6756 15.9C37.8756 15.3667 38.0423 14.725 38.1756 13.975C38.2923 13.225 38.3589 12.5083 38.3756 11.825C38.4089 11.125 38.3173 10.5167 38.1006 10C37.8839 9.46667 37.5089 9.04167 36.9756 8.725C36.4589 8.40833 35.7006 8.25 34.7006 8.25ZM53.9305 13.575C54.1305 13.1417 54.3555 12.6333 54.6055 12.05C54.8721 11.45 55.1555 10.825 55.4555 10.175C55.7555 9.50833 56.0638 8.83333 56.3805 8.15C56.6971 7.45 57.0138 6.79167 57.3305 6.175C57.6638 5.54167 57.9805 4.96667 58.2805 4.45C58.5971 3.91667 58.8888 3.475 59.1555 3.125C59.3888 2.84167 59.6638 2.625 59.9805 2.475C60.2971 2.325 60.6305 2.25 60.9805 2.25C61.5638 2.25 62.0638 2.39167 62.4805 2.675C62.8971 2.95833 63.1805 3.39167 63.3305 3.975C63.3805 4.19167 63.4305 4.625 63.4805 5.275C63.5305 5.925 63.5721 6.69167 63.6055 7.575C63.6388 8.44167 63.6721 9.38333 63.7055 10.4C63.7388 11.4 63.7638 12.3583 63.7805 13.275C63.7971 14.175 63.8055 14.9917 63.8055 15.725C63.8221 16.4583 63.8305 16.9833 63.8305 17.3C63.8305 17.7 63.8138 18.175 63.7805 18.725C63.7638 19.275 63.6805 19.8 63.5305 20.3C63.3971 20.8 63.1721 21.225 62.8555 21.575C62.5555 21.925 62.1305 22.1 61.5805 22.1C61.0471 22.1 60.6221 21.9417 60.3055 21.625C59.9888 21.2917 59.7471 20.875 59.5805 20.375C59.4305 19.8583 59.3305 19.2833 59.2805 18.65C59.2305 18.0167 59.2138 17.3917 59.2305 16.775C59.2471 16.1417 59.2721 15.55 59.3055 15C59.3555 14.45 59.3805 14 59.3805 13.65C59.3805 13.4667 59.3721 13.275 59.3555 13.075C59.3555 12.875 59.3471 12.6833 59.3305 12.5C59.0305 12.95 58.6805 13.55 58.2805 14.3C57.8805 15.05 57.4388 15.7833 56.9555 16.5C56.4888 17.2167 55.9805 17.8417 55.4305 18.375C54.8971 18.8917 54.3305 19.15 53.7305 19.15C53.2471 19.15 52.7971 18.975 52.3805 18.625C51.9638 18.275 51.5805 17.8583 51.2305 17.375C50.8805 16.875 50.5555 16.3583 50.2555 15.825C49.9721 15.2917 49.7221 14.8417 49.5055 14.475C49.4388 14.775 49.3971 15.1667 49.3805 15.65C49.3805 16.1333 49.3638 16.6583 49.3305 17.225C49.3138 17.775 49.2721 18.3333 49.2055 18.9C49.1555 19.4667 49.0555 19.9833 48.9055 20.45C48.7721 20.9 48.5721 21.2667 48.3055 21.55C48.0388 21.8333 47.6888 21.975 47.2555 21.975C46.3388 21.975 45.7388 21.5167 45.4555 20.6C45.3055 20.1167 45.1721 19.5083 45.0555 18.775C44.9555 18.0417 44.8638 17.2417 44.7805 16.375C44.7138 15.5083 44.6555 14.6167 44.6055 13.7C44.5721 12.7667 44.5388 11.8583 44.5055 10.975C44.4888 10.0917 44.4721 9.26667 44.4555 8.5C44.4555 7.71667 44.4555 7.05 44.4555 6.5C44.4555 6.05 44.4971 5.61667 44.5805 5.2C44.6638 4.76667 44.8055 4.38333 45.0055 4.05C45.2055 3.71667 45.4721 3.45 45.8055 3.25C46.1555 3.05 46.5971 2.95 47.1305 2.95C47.6638 2.95 48.1138 3.08333 48.4805 3.35C48.8638 3.61667 49.1721 3.98333 49.4055 4.45C49.7055 5.05 50.0388 5.775 50.4055 6.625C50.7888 7.45833 51.1805 8.31667 51.5805 9.2C51.9971 10.0667 52.4055 10.8917 52.8055 11.675C53.2055 12.4583 53.5805 13.0917 53.9305 13.575ZM75.5369 13.575C75.7369 13.1417 75.9619 12.6333 76.2119 12.05C76.4786 11.45 76.7619 10.825 77.0619 10.175C77.3619 9.50833 77.6702 8.83333 77.9869 8.15C78.3036 7.45 78.6202 6.79167 78.9369 6.175C79.2702 5.54167 79.5869 4.96667 79.8869 4.45C80.2036 3.91667 80.4952 3.475 80.7619 3.125C80.9952 2.84167 81.2702 2.625 81.5869 2.475C81.9036 2.325 82.2369 2.25 82.5869 2.25C83.1702 2.25 83.6702 2.39167 84.0869 2.675C84.5036 2.95833 84.7869 3.39167 84.9369 3.975C84.9869 4.19167 85.0369 4.625 85.0869 5.275C85.1369 5.925 85.1786 6.69167 85.2119 7.575C85.2452 8.44167 85.2786 9.38333 85.3119 10.4C85.3452 11.4 85.3702 12.3583 85.3869 13.275C85.4036 14.175 85.4119 14.9917 85.4119 15.725C85.4286 16.4583 85.4369 16.9833 85.4369 17.3C85.4369 17.7 85.4202 18.175 85.3869 18.725C85.3702 19.275 85.2869 19.8 85.1369 20.3C85.0036 20.8 84.7786 21.225 84.4619 21.575C84.1619 21.925 83.7369 22.1 83.1869 22.1C82.6536 22.1 82.2286 21.9417 81.9119 21.625C81.5952 21.2917 81.3536 20.875 81.1869 20.375C81.0369 19.8583 80.9369 19.2833 80.8869 18.65C80.8369 18.0167 80.8202 17.3917 80.8369 16.775C80.8536 16.1417 80.8786 15.55 80.9119 15C80.9619 14.45 80.9869 14 80.9869 13.65C80.9869 13.4667 80.9786 13.275 80.9619 13.075C80.9619 12.875 80.9536 12.6833 80.9369 12.5C80.6369 12.95 80.2869 13.55 79.8869 14.3C79.4869 15.05 79.0452 15.7833 78.5619 16.5C78.0952 17.2167 77.5869 17.8417 77.0369 18.375C76.5036 18.8917 75.9369 19.15 75.3369 19.15C74.8536 19.15 74.4036 18.975 73.9869 18.625C73.5702 18.275 73.1869 17.8583 72.8369 17.375C72.4869 16.875 72.1619 16.3583 71.8619 15.825C71.5786 15.2917 71.3286 14.8417 71.1119 14.475C71.0452 14.775 71.0036 15.1667 70.9869 15.65C70.9869 16.1333 70.9702 16.6583 70.9369 17.225C70.9202 17.775 70.8786 18.3333 70.8119 18.9C70.7619 19.4667 70.6619 19.9833 70.5119 20.45C70.3786 20.9 70.1786 21.2667 69.9119 21.55C69.6452 21.8333 69.2952 21.975 68.8619 21.975C67.9452 21.975 67.3452 21.5167 67.0619 20.6C66.9119 20.1167 66.7786 19.5083 66.6619 18.775C66.5619 18.0417 66.4702 17.2417 66.3869 16.375C66.3202 15.5083 66.2619 14.6167 66.2119 13.7C66.1786 12.7667 66.1452 11.8583 66.1119 10.975C66.0952 10.0917 66.0786 9.26667 66.0619 8.5C66.0619 7.71667 66.0619 7.05 66.0619 6.5C66.0619 6.05 66.1036 5.61667 66.1869 5.2C66.2702 4.76667 66.4119 4.38333 66.6119 4.05C66.8119 3.71667 67.0786 3.45 67.4119 3.25C67.7619 3.05 68.2036 2.95 68.7369 2.95C69.2702 2.95 69.7202 3.08333 70.0869 3.35C70.4702 3.61667 70.7786 3.98333 71.0119 4.45C71.3119 5.05 71.6452 5.775 72.0119 6.625C72.3952 7.45833 72.7869 8.31667 73.1869 9.2C73.6036 10.0667 74.0119 10.8917 74.4119 11.675C74.8119 12.4583 75.1869 13.0917 75.5369 13.575ZM103.368 13.4C103.368 14.9833 103.202 16.325 102.868 17.425C102.535 18.525 102.002 19.4167 101.268 20.1C100.552 20.7833 99.6267 21.2833 98.4934 21.6C97.3767 21.9 96.0267 22.05 94.4434 22.05C93.4934 22.05 92.6267 21.8333 91.8434 21.4C91.06 20.95 90.3767 20.375 89.7934 19.675C89.21 18.975 88.735 18.1917 88.3684 17.325C88.0184 16.4417 87.81 15.575 87.7434 14.725C87.71 14.275 87.6767 13.825 87.6434 13.375C87.6267 12.925 87.6184 12.475 87.6184 12.025C87.6184 11.675 87.6267 11.2083 87.6434 10.625C87.66 10.025 87.7017 9.38333 87.7684 8.7C87.8517 8.01667 87.96 7.325 88.0934 6.625C88.2434 5.90833 88.435 5.26667 88.6684 4.7C88.9017 4.11667 89.1934 3.65 89.5434 3.3C89.8934 2.93333 90.31 2.75 90.7934 2.75C91.41 2.75 91.9767 2.89167 92.4934 3.175C93.01 3.45833 93.335 3.96667 93.4684 4.7C93.585 5.38333 93.6267 6.15833 93.5934 7.025C93.5767 7.89167 93.5434 8.775 93.4934 9.675C93.4434 10.575 93.41 11.4667 93.3934 12.35C93.3767 13.2167 93.4267 13.9917 93.5434 14.675C93.66 15.3583 93.8767 15.9083 94.1934 16.325C94.51 16.7417 94.985 16.95 95.6184 16.95C96.235 16.95 96.7517 16.95 97.1684 16.95C97.6017 16.9333 97.9434 16.85 98.1934 16.7C98.4434 16.55 98.6184 16.3 98.7184 15.95C98.835 15.6 98.8934 15.0833 98.8934 14.4C98.8934 13.7333 98.8517 13.075 98.7684 12.425C98.7017 11.7583 98.6184 11.1 98.5184 10.45C98.435 9.78333 98.3517 9.125 98.2684 8.475C98.2017 7.80833 98.1684 7.15 98.1684 6.5C98.1684 6.15 98.1767 5.76667 98.1934 5.35C98.2267 4.93333 98.3184 4.55 98.4684 4.2C98.635 3.83333 98.885 3.53333 99.2184 3.3C99.5517 3.05 100.027 2.925 100.643 2.925C101.26 2.925 101.752 3.13333 102.118 3.55C102.502 3.96667 102.793 4.50833 102.993 5.175C103.193 5.825 103.327 6.55833 103.393 7.375C103.46 8.175 103.485 8.96667 103.468 9.75C103.468 10.5167 103.452 11.2333 103.418 11.9C103.385 12.55 103.368 13.05 103.368 13.4ZM115.342 14C115.492 12.8667 115.567 11.7833 115.567 10.75C115.567 9.71667 115.567 8.64167 115.567 7.525C115.567 7.05833 115.6 6.58333 115.667 6.1C115.733 5.61667 115.858 5.18333 116.042 4.8C116.242 4.4 116.508 4.075 116.842 3.825C117.192 3.575 117.65 3.45 118.217 3.45C118.717 3.45 119.133 3.575 119.467 3.825C119.8 4.075 120.067 4.4 120.267 4.8C120.467 5.18333 120.608 5.60833 120.692 6.075C120.775 6.54167 120.817 6.98333 120.817 7.4C120.817 7.76667 120.783 8.33333 120.717 9.1C120.667 9.86667 120.6 10.7333 120.517 11.7C120.433 12.65 120.333 13.6417 120.217 14.675C120.117 15.6917 120.008 16.6417 119.892 17.525C119.775 18.4083 119.667 19.1667 119.567 19.8C119.483 20.4167 119.408 20.8 119.342 20.95C119.175 21.3667 118.925 21.7167 118.592 22C118.258 22.2667 117.867 22.4 117.417 22.4C117.167 22.4 116.925 22.35 116.692 22.25C116.475 22.1667 116.267 22.0583 116.067 21.925C115.917 21.8083 115.675 21.5417 115.342 21.125C115.025 20.6917 114.667 20.1833 114.267 19.6C113.867 19 113.442 18.3667 112.992 17.7C112.542 17.0167 112.1 16.3583 111.667 15.725C111.25 15.075 110.867 14.4917 110.517 13.975C110.183 13.4417 109.917 13.0417 109.717 12.775C109.7 13.0583 109.683 13.4417 109.667 13.925C109.667 14.3917 109.658 14.9083 109.642 15.475C109.642 16.025 109.633 16.6 109.617 17.2C109.6 17.7833 109.575 18.35 109.542 18.9C109.508 19.4333 109.467 19.9083 109.417 20.325C109.367 20.7417 109.3 21.0583 109.217 21.275C109.083 21.6083 108.883 21.8667 108.617 22.05C108.367 22.25 108.067 22.35 107.717 22.35C106.95 22.35 106.417 21.9833 106.117 21.25C106.033 21.0667 105.958 20.65 105.892 20C105.842 19.35 105.783 18.575 105.717 17.675C105.667 16.7583 105.617 15.7833 105.567 14.75C105.533 13.7167 105.5 12.7333 105.467 11.8C105.433 10.85 105.408 10.0083 105.392 9.275C105.375 8.525 105.367 8 105.367 7.7C105.367 7.28333 105.392 6.85 105.442 6.4C105.508 5.93333 105.625 5.51667 105.792 5.15C105.975 4.76667 106.217 4.45 106.517 4.2C106.833 3.95 107.242 3.825 107.742 3.825C108.575 3.825 109.217 4.225 109.667 5.025C109.767 5.175 109.85 5.325 109.917 5.475C109.983 5.625 110.058 5.76667 110.142 5.9C110.842 7.36667 111.65 8.75833 112.567 10.075C113.483 11.375 114.408 12.6833 115.342 14ZM127.053 6.975C126.72 6.925 126.32 6.88333 125.853 6.85C125.403 6.8 124.97 6.71667 124.553 6.6C124.136 6.46667 123.786 6.275 123.503 6.025C123.22 5.75833 123.078 5.39167 123.078 4.925C123.078 4.45833 123.203 4.075 123.453 3.775C123.703 3.475 124.028 3.24167 124.428 3.075C124.828 2.89167 125.278 2.75833 125.778 2.675C126.278 2.59167 126.778 2.54167 127.278 2.525C127.795 2.49167 128.278 2.48333 128.728 2.5C129.178 2.5 129.561 2.5 129.878 2.5C130.228 2.5 130.67 2.48333 131.203 2.45C131.753 2.41667 132.278 2.44167 132.778 2.525C133.278 2.59167 133.711 2.74167 134.078 2.975C134.445 3.20833 134.628 3.6 134.628 4.15C134.628 4.58333 134.486 4.95 134.203 5.25C133.936 5.53333 133.611 5.76667 133.228 5.95C132.845 6.13333 132.428 6.28333 131.978 6.4C131.545 6.5 131.17 6.58333 130.853 6.65C130.886 7.4 130.92 8.15 130.953 8.9C131.003 9.63333 131.028 10.375 131.028 11.125C131.028 11.6083 131.02 12.1 131.003 12.6C131.003 13.0833 130.995 13.5667 130.978 14.05C130.961 14.6833 130.895 15.3083 130.778 15.925C130.661 16.525 130.603 17.1417 130.603 17.775C130.936 17.8583 131.336 17.9583 131.803 18.075C132.286 18.1917 132.745 18.35 133.178 18.55C133.628 18.7333 134.011 18.975 134.328 19.275C134.645 19.5583 134.803 19.925 134.803 20.375C134.803 20.775 134.703 21.1 134.503 21.35C134.303 21.5833 134.036 21.7667 133.703 21.9C133.386 22.0167 133.02 22.0917 132.603 22.125C132.203 22.175 131.795 22.2 131.378 22.2C130.978 22.2 130.586 22.1833 130.203 22.15C129.836 22.1333 129.52 22.125 129.253 22.125C128.936 22.125 128.553 22.1333 128.103 22.15C127.653 22.1667 127.17 22.1667 126.653 22.15C126.153 22.15 125.653 22.1167 125.153 22.05C124.653 21.9833 124.203 21.8667 123.803 21.7C123.42 21.5333 123.103 21.3 122.853 21C122.603 20.6833 122.478 20.2833 122.478 19.8C122.478 19.2333 122.628 18.8 122.928 18.5C123.245 18.2 123.62 17.975 124.053 17.825C124.503 17.675 124.978 17.5833 125.478 17.55C125.995 17.5167 126.453 17.4833 126.853 17.45C126.936 16.7 126.953 15.9667 126.903 15.25C126.87 14.5333 126.853 13.8 126.853 13.05C126.853 12.0333 126.878 11.025 126.928 10.025C126.978 9.00833 127.02 7.99167 127.053 6.975ZM140.47 7.525C140.12 7.475 139.695 7.41667 139.195 7.35C138.711 7.28333 138.245 7.175 137.795 7.025C137.361 6.875 136.986 6.66667 136.67 6.4C136.37 6.11667 136.22 5.74167 136.22 5.275C136.22 4.975 136.295 4.7 136.445 4.45C136.611 4.2 136.828 3.99167 137.095 3.825C137.245 3.725 137.536 3.63333 137.97 3.55C138.42 3.46667 138.936 3.39167 139.52 3.325C140.12 3.24167 140.753 3.175 141.42 3.125C142.086 3.05833 142.728 3.00833 143.345 2.975C143.978 2.94167 144.536 2.91667 145.02 2.9C145.52 2.86667 145.895 2.85 146.145 2.85C146.511 2.85 146.92 2.86667 147.37 2.9C147.836 2.93333 148.27 3.01667 148.67 3.15C149.086 3.28333 149.428 3.48333 149.695 3.75C149.978 4 150.12 4.35833 150.12 4.825C150.12 5.325 149.928 5.725 149.545 6.025C149.178 6.30833 148.728 6.53333 148.195 6.7C147.661 6.86667 147.103 6.98333 146.52 7.05C145.953 7.11667 145.47 7.18333 145.07 7.25C145.136 8.35 145.211 9.43333 145.295 10.5C145.378 11.55 145.42 12.6083 145.42 13.675C145.42 14.025 145.411 14.4833 145.395 15.05C145.395 15.6 145.37 16.1917 145.32 16.825C145.27 17.4583 145.178 18.1 145.045 18.75C144.928 19.3833 144.753 19.9667 144.52 20.5C144.303 21.0167 144.011 21.4417 143.645 21.775C143.295 22.0917 142.861 22.25 142.345 22.25C141.661 22.25 141.128 22.0167 140.745 21.55C140.378 21.0833 140.103 20.525 139.92 19.875C139.736 19.2083 139.628 18.525 139.595 17.825C139.561 17.125 139.545 16.55 139.545 16.1C139.545 15.3833 139.578 14.6667 139.645 13.95C139.728 13.2333 139.82 12.525 139.92 11.825C140.036 11.1083 140.145 10.3917 140.245 9.675C140.345 8.95833 140.42 8.24167 140.47 7.525ZM157.85 14.95C157.283 14.3333 156.633 13.6333 155.9 12.85C155.183 12.05 154.5 11.2083 153.85 10.325C153.217 9.425 152.675 8.50833 152.225 7.575C151.792 6.64167 151.575 5.73333 151.575 4.85C151.575 4.21667 151.792 3.69167 152.225 3.275C152.658 2.84167 153.192 2.625 153.825 2.625C154.158 2.625 154.517 2.76667 154.9 3.05C155.283 3.31667 155.667 3.66667 156.05 4.1C156.45 4.51667 156.833 4.99167 157.2 5.525C157.583 6.05833 157.933 6.59167 158.25 7.125C158.583 7.64167 158.883 8.13333 159.15 8.6C159.417 9.05 159.633 9.41667 159.8 9.7C159.9 9.65 160.042 9.45833 160.225 9.125C160.425 8.775 160.65 8.35833 160.9 7.875C161.15 7.39167 161.433 6.88333 161.75 6.35C162.067 5.8 162.4 5.29167 162.75 4.825C163.1 4.35833 163.467 3.975 163.85 3.675C164.25 3.35833 164.658 3.2 165.075 3.2C165.575 3.2 166.017 3.38333 166.4 3.75C166.8 4.11667 167 4.55 167 5.05C167 5.41667 166.9 5.9 166.7 6.5C166.5 7.1 166.258 7.725 165.975 8.375C165.692 9.025 165.4 9.65 165.1 10.25C164.8 10.85 164.558 11.325 164.375 11.675C163.558 13.175 162.808 14.7 162.125 16.25C161.442 17.7833 160.808 19.35 160.225 20.95C160.108 21.2333 159.992 21.5167 159.875 21.8C159.758 22.0833 159.625 22.3667 159.475 22.65C159.292 22.9833 159.05 23.25 158.75 23.45C158.467 23.65 158.133 23.75 157.75 23.75C157.417 23.75 157.133 23.6833 156.9 23.55C156.683 23.4333 156.508 23.2667 156.375 23.05C156.242 22.85 156.142 22.6167 156.075 22.35C156.025 22.0833 156 21.8083 156 21.525C156 21.1583 156.067 20.6833 156.2 20.1C156.35 19.5 156.517 18.8833 156.7 18.25C156.9 17.6 157.1 16.9833 157.3 16.4C157.517 15.8 157.7 15.3167 157.85 14.95Z" fill="black"/>
</g>
<defs>
<filter id="filter0_d_60_41" x="0.974976" y="2.25" width="170.025" height="29.5" filterUnits="userSpaceOnUse" color-interpolation-filters="sRGB">
<feFlood flood-opacity="0" result="BackgroundImageFix"/>
<feColorMatrix in="SourceAlpha" type="matrix" values="0 0 0 0 0 0 0 0 0 0 0 0 0 0 0 0 0 0 127 0" result="hardAlpha"/>
<feOffset dy="4"/>
<feGaussianBlur stdDeviation="2"/>
<feComposite in2="hardAlpha" operator="out"/>
<feColorMatrix type="matrix" values="0 0 0 0 0 0 0 0 0 0 0 0 0 0 0 0 0 0 0.25 0"/>
<feBlend mode="normal" in2="BackgroundImageFix" result="effect1_dropShadow_60_41"/>
<feBlend mode="normal" in="SourceGraphic" in2="effect1_dropShadow_60_41" result="shape"/>
</filter>
</defs>
</svg>
