<svg width="716" height="119" viewBox="0 0 716 119" fill="none" xmlns="http://www.w3.org/2000/svg">
<g filter="url(#filter0_d_5_13)">
<rect width="716" height="113" rx="10" fill="#9C6419"/>
<rect x="1.5" y="1.5" width="713" height="110" rx="8.5" stroke="black" stroke-width="3"/>
</g>
<path d="M42.37 57.75C42.37 59.33 42.13 60.83 41.65 62.25C41.17 63.67 40.47 64.92 39.55 66C38.65 67.08 37.53 67.94 36.19 68.58C34.85 69.2 33.31 69.51 31.57 69.51C29.73 69.51 28.1 69.23 26.68 68.67C25.26 68.11 24.06 67.32 23.08 66.3C22.12 65.28 21.39 64.07 20.89 62.67C20.39 61.25 20.14 59.7 20.14 58.02C20.14 55.84 20.62 53.89 21.58 52.17C22.54 50.45 23.99 49.01 25.93 47.85C26.39 47.59 26.92 47.37 27.52 47.19C28.12 47.01 28.74 46.88 29.38 46.8C30.02 46.7 30.66 46.63 31.3 46.59C31.94 46.55 32.53 46.53 33.07 46.53C34.67 46.53 36.1 46.88 37.36 47.58C38.64 48.28 39.75 49.22 40.69 50.4C41.07 50.86 41.37 51.4 41.59 52.02C41.81 52.62 41.98 53.25 42.1 53.91C42.22 54.57 42.29 55.24 42.31 55.92C42.35 56.58 42.37 57.19 42.37 57.75ZM33.37 52.5C32.61 52.5 31.89 52.55 31.21 52.65C30.53 52.75 29.91 52.94 29.35 53.22C28.81 53.48 28.33 53.85 27.91 54.33C27.49 54.81 27.16 55.42 26.92 56.16C26.76 56.64 26.6 57.13 26.44 57.63C26.3 58.11 26.23 58.61 26.23 59.13C26.23 60.93 26.66 62.26 27.52 63.12C28.4 63.96 29.79 64.38 31.69 64.38C32.73 64.38 33.59 64.29 34.27 64.11C34.95 63.93 35.5 63.64 35.92 63.24C36.36 62.82 36.7 62.3 36.94 61.68C37.18 61.04 37.38 60.27 37.54 59.37C37.68 58.47 37.76 57.61 37.78 56.79C37.82 55.95 37.71 55.22 37.45 54.6C37.19 53.96 36.74 53.45 36.1 53.07C35.48 52.69 34.57 52.5 33.37 52.5ZM48.9459 60.21C48.6659 59.79 48.2959 59.25 47.8359 58.59C47.3759 57.93 46.9259 57.24 46.4859 56.52C46.0659 55.78 45.6959 55.07 45.3759 54.39C45.0759 53.69 44.9259 53.11 44.9259 52.65C44.9259 52.31 44.9959 51.99 45.1359 51.69C45.2959 51.39 45.5059 51.13 45.7659 50.91C46.0259 50.67 46.3159 50.49 46.6359 50.37C46.9759 50.23 47.3259 50.16 47.6859 50.16C48.3059 50.16 48.8859 50.32 49.4259 50.64C49.9659 50.94 50.4759 51.32 50.9559 51.78C51.4359 52.22 51.8759 52.7 52.2759 53.22C52.6959 53.72 53.0859 54.16 53.4459 54.54C53.6859 54.18 53.9559 53.76 54.2559 53.28C54.5559 52.78 54.8959 52.31 55.2759 51.87C55.6559 51.41 56.0659 51.03 56.5059 50.73C56.9459 50.41 57.4259 50.25 57.9459 50.25C58.5059 50.25 58.9959 50.44 59.4159 50.82C59.8559 51.18 60.0759 51.62 60.0759 52.14C60.0759 52.66 59.9359 53.18 59.6559 53.7C59.3959 54.22 59.0659 54.72 58.6659 55.2C58.2659 55.68 57.8359 56.14 57.3759 56.58C56.9159 57.02 56.4959 57.41 56.1159 57.75C56.4559 58.27 56.9459 58.87 57.5859 59.55C58.2259 60.21 58.8559 60.89 59.4759 61.59C60.1159 62.29 60.6659 62.98 61.1259 63.66C61.5859 64.32 61.8159 64.92 61.8159 65.46C61.8159 65.82 61.7359 66.16 61.5759 66.48C61.4159 66.78 61.2059 67.05 60.9459 67.29C60.6859 67.53 60.3759 67.72 60.0159 67.86C59.6759 68 59.3159 68.07 58.9359 68.07C58.3959 68.07 57.7959 67.91 57.1359 67.59C56.4959 67.25 55.8459 66.85 55.1859 66.39C54.5459 65.93 53.9359 65.46 53.3559 64.98C52.7959 64.48 52.3259 64.06 51.9459 63.72C51.6259 64.04 51.3059 64.45 50.9859 64.95C50.6659 65.45 50.3159 65.94 49.9359 66.42C49.5759 66.9 49.1759 67.32 48.7359 67.68C48.3159 68.02 47.8459 68.19 47.3259 68.19C46.7059 68.19 46.1859 67.98 45.7659 67.56C45.3659 67.14 45.1659 66.66 45.1659 66.12C45.1659 65.8 45.3159 65.38 45.6159 64.86C45.9159 64.34 46.2659 63.81 46.6659 63.27C47.0859 62.71 47.5059 62.18 47.9259 61.68C48.3459 61.18 48.6759 60.78 48.9159 60.48L48.9459 60.21ZM70.2569 50.91V54.21C71.0369 54.31 71.8369 54.34 72.6569 54.3C73.4769 54.24 74.2869 54.21 75.0869 54.21C75.4269 54.21 75.7569 54.24 76.0769 54.3C76.3969 54.36 76.6769 54.47 76.9169 54.63C77.1769 54.79 77.3769 55 77.5169 55.26C77.6769 55.52 77.7569 55.85 77.7569 56.25C77.7569 56.65 77.6169 57 77.3369 57.3C77.0569 57.6 76.6869 57.86 76.2269 58.08C75.7669 58.3 75.2569 58.49 74.6969 58.65C74.1369 58.81 73.5769 58.95 73.0169 59.07C72.4769 59.17 71.9569 59.27 71.4569 59.37C70.9769 59.45 70.5869 59.52 70.2869 59.58C70.2269 59.86 70.1869 60.15 70.1669 60.45C70.1469 60.73 70.1369 61.02 70.1369 61.32C70.1369 61.8 70.1569 62.28 70.1969 62.76C70.2369 63.24 70.2969 63.72 70.3769 64.2C70.5369 64.28 70.7369 64.32 70.9769 64.32C71.6169 64.32 72.2569 64.26 72.8969 64.14C73.5569 64.02 74.2169 63.9 74.8769 63.78C75.5369 63.64 76.1969 63.51 76.8569 63.39C77.5369 63.27 78.2169 63.21 78.8969 63.21C79.4969 63.21 80.0569 63.4 80.5769 63.78C81.0969 64.14 81.3569 64.65 81.3569 65.31C81.3569 65.65 81.2769 65.96 81.1169 66.24C80.9769 66.5 80.7769 66.73 80.5169 66.93C80.3169 67.09 79.9569 67.26 79.4369 67.44C78.9169 67.62 78.3069 67.8 77.6069 67.98C76.9269 68.16 76.1869 68.33 75.3869 68.49C74.6069 68.65 73.8569 68.79 73.1369 68.91C72.4169 69.03 71.7569 69.12 71.1569 69.18C70.5769 69.26 70.1369 69.3 69.8369 69.3C68.9769 69.3 68.2469 69.13 67.6469 68.79C67.0669 68.45 66.5869 68 66.2069 67.44C65.8269 66.88 65.5269 66.24 65.3069 65.52C65.1069 64.8 64.9569 64.06 64.8569 63.3C64.7769 62.54 64.7269 61.78 64.7069 61.02C64.6869 60.26 64.6769 59.57 64.6769 58.95C64.6769 57.75 64.7269 56.56 64.8269 55.38C64.9269 54.18 65.0769 52.99 65.2769 51.81C65.2969 51.71 65.3169 51.61 65.3369 51.51C65.3569 51.39 65.3669 51.27 65.3669 51.15C65.3669 50.91 65.3169 50.71 65.2169 50.55C65.1369 50.37 65.0369 50.2 64.9169 50.04C64.8169 49.88 64.7169 49.71 64.6169 49.53C64.5369 49.35 64.4969 49.14 64.4969 48.9C64.4969 48.36 64.6969 47.91 65.0969 47.55C65.4969 47.19 66.0069 46.91 66.6269 46.71C67.2669 46.49 67.9669 46.33 68.7269 46.23C69.5069 46.13 70.2669 46.07 71.0069 46.05C71.7669 46.01 72.4569 46 73.0769 46.02C73.7169 46.02 74.2169 46.02 74.5769 46.02C74.9369 46.02 75.4169 46.01 76.0169 45.99C76.6169 45.97 77.1969 46.01 77.7569 46.11C78.3169 46.19 78.7969 46.37 79.1969 46.65C79.6169 46.91 79.8269 47.32 79.8269 47.88C79.8269 48.34 79.6969 48.71 79.4369 48.99C79.1969 49.27 78.8669 49.47 78.4469 49.59C77.7869 49.77 77.1069 49.91 76.4069 50.01C75.7269 50.11 75.0369 50.2 74.3369 50.28C73.6569 50.34 72.9669 50.42 72.2669 50.52C71.5869 50.6 70.9169 50.73 70.2569 50.91ZM86.0298 56.73C85.6698 56.73 85.3198 56.7 84.9798 56.64C84.6398 56.56 84.3398 56.44 84.0798 56.28C83.8398 56.12 83.6398 55.9 83.4798 55.62C83.3398 55.32 83.2698 54.96 83.2698 54.54C83.2698 53.98 83.5098 53.49 83.9898 53.07C84.5698 52.59 85.0298 52.16 85.3698 51.78C85.7298 51.38 86.0398 50.99 86.2998 50.61C86.5798 50.21 86.8498 49.8 87.1098 49.38C87.3898 48.94 87.7298 48.43 88.1298 47.85C88.3698 47.51 88.6798 47.23 89.0598 47.01C89.4398 46.79 89.8398 46.68 90.2598 46.68C90.8198 46.68 91.2798 46.83 91.6398 47.13C92.0198 47.41 92.3198 47.77 92.5398 48.21C92.7798 48.65 92.9398 49.13 93.0198 49.65C93.1198 50.17 93.1698 50.65 93.1698 51.09C93.1698 52.13 93.1598 53.23 93.1398 54.39C93.1198 55.55 93.0998 56.72 93.0798 57.9C93.0598 59.08 93.0298 60.25 92.9898 61.41C92.9698 62.57 92.9498 63.67 92.9298 64.71C92.9098 65.23 92.8298 65.74 92.6898 66.24C92.5698 66.74 92.3598 67.2 92.0598 67.62C91.7598 68.04 91.3798 68.39 90.9198 68.67C90.4798 68.93 89.9998 69.06 89.4798 69.06C88.5398 69.06 87.8198 68.8 87.3198 68.28C86.8198 67.76 86.4598 67.13 86.2398 66.39C86.0398 65.63 85.9298 64.84 85.9098 64.02C85.8898 63.18 85.8798 62.44 85.8798 61.8C85.8798 61.5 85.8898 61.15 85.9098 60.75C85.9298 60.35 85.9498 59.94 85.9698 59.52C86.0098 59.08 86.0398 58.66 86.0598 58.26C86.0798 57.84 86.0898 57.49 86.0898 57.21C86.0898 57.09 86.0698 56.93 86.0298 56.73ZM108.629 60.87C108.729 60.43 108.829 59.91 108.929 59.31C109.049 58.69 109.209 58.11 109.409 57.57C109.629 57.01 109.919 56.54 110.279 56.16C110.659 55.78 111.149 55.59 111.749 55.59C112.189 55.59 112.579 55.71 112.919 55.95C113.259 56.17 113.519 56.48 113.699 56.88C113.919 57.38 114.089 57.9 114.209 58.44C114.349 58.98 114.479 59.54 114.599 60.12C114.719 60.7 114.859 61.29 115.019 61.89C115.179 62.49 115.399 63.1 115.679 63.72C115.819 64.02 115.929 64.33 116.009 64.65C116.109 64.97 116.159 65.3 116.159 65.64C116.159 66.06 116.089 66.47 115.949 66.87C115.809 67.25 115.609 67.59 115.349 67.89C115.109 68.17 114.809 68.4 114.449 68.58C114.089 68.76 113.689 68.85 113.249 68.85C112.729 68.85 112.289 68.77 111.929 68.61C111.569 68.45 111.249 68.24 110.969 67.98C110.709 67.72 110.469 67.42 110.249 67.08C110.029 66.74 109.799 66.39 109.559 66.03C108.959 66.21 108.419 66.42 107.939 66.66C107.479 66.88 107.009 67.1 106.529 67.32C106.049 67.52 105.539 67.69 104.999 67.83C104.479 67.97 103.879 68.04 103.199 68.04C102.099 68.04 101.089 67.85 100.169 67.47C99.2495 67.09 98.4495 66.56 97.7695 65.88C97.1095 65.2 96.5895 64.4 96.2095 63.48C95.8295 62.54 95.6395 61.53 95.6395 60.45C95.6395 58.99 95.8895 57.62 96.3895 56.34C96.8895 55.04 97.5895 53.91 98.4895 52.95C99.3895 51.99 100.459 51.23 101.699 50.67C102.959 50.11 104.339 49.83 105.839 49.83C106.339 49.83 106.939 49.87 107.639 49.95C108.359 50.03 109.049 50.19 109.709 50.43C110.369 50.65 110.929 50.97 111.389 51.39C111.849 51.81 112.079 52.36 112.079 53.04C112.079 53.78 111.829 54.32 111.329 54.66C110.829 54.98 110.209 55.22 109.469 55.38C108.729 55.54 107.919 55.69 107.039 55.83C106.159 55.95 105.349 56.19 104.609 56.55C103.869 56.89 103.249 57.41 102.749 58.11C102.249 58.81 101.999 59.82 101.999 61.14C101.999 61.72 102.119 62.17 102.359 62.49C102.619 62.79 103.049 62.94 103.649 62.94C103.929 62.94 104.289 62.86 104.729 62.7C105.189 62.54 105.659 62.35 106.139 62.13C106.639 61.89 107.109 61.66 107.549 61.44C107.989 61.2 108.349 61.01 108.629 60.87ZM132.21 56.91C132.81 57.67 133.25 58.41 133.53 59.13C133.83 59.85 133.98 60.7 133.98 61.68C133.98 62.86 133.75 63.92 133.29 64.86C132.85 65.78 132.25 66.57 131.49 67.23C130.73 67.87 129.84 68.37 128.82 68.73C127.82 69.07 126.76 69.24 125.64 69.24C124.56 69.24 123.57 69.1 122.67 68.82C121.77 68.54 120.99 68.12 120.33 67.56C119.69 66.98 119.19 66.27 118.83 65.43C118.47 64.59 118.29 63.61 118.29 62.49C118.29 61.59 118.42 60.73 118.68 59.91C118.94 59.09 119.36 58.34 119.94 57.66C119.56 56.82 119.2 56.03 118.86 55.29C118.52 54.53 118.35 53.67 118.35 52.71C118.35 51.73 118.5 50.85 118.8 50.07C119.1 49.27 119.52 48.59 120.06 48.03C120.62 47.45 121.29 47.01 122.07 46.71C122.87 46.39 123.75 46.23 124.71 46.23C125.85 46.23 126.92 46.35 127.92 46.59C128.94 46.81 129.83 47.19 130.59 47.73C131.35 48.27 131.95 48.98 132.39 49.86C132.85 50.74 133.08 51.82 133.08 53.1C133.08 53.76 133 54.41 132.84 55.05C132.68 55.69 132.47 56.31 132.21 56.91ZM123.87 62.97C123.87 63.31 123.93 63.57 124.05 63.75C124.19 63.93 124.36 64.06 124.56 64.14C124.76 64.22 124.99 64.27 125.25 64.29C125.51 64.29 125.78 64.29 126.06 64.29C126.54 64.29 126.99 64.24 127.41 64.14C127.85 64.04 128.23 63.88 128.55 63.66C128.87 63.44 129.12 63.15 129.3 62.79C129.5 62.43 129.6 61.98 129.6 61.44C129.6 61.04 129.46 60.74 129.18 60.54C128.9 60.32 128.54 60.2 128.1 60.18C127.68 60.14 127.22 60.18 126.72 60.3C126.24 60.42 125.78 60.61 125.34 60.87C124.92 61.11 124.57 61.41 124.29 61.77C124.01 62.13 123.87 62.53 123.87 62.97ZM125.79 51.27C125.37 51.27 125.01 51.27 124.71 51.27C124.41 51.27 124.16 51.32 123.96 51.42C123.76 51.52 123.61 51.7 123.51 51.96C123.43 52.2 123.39 52.57 123.39 53.07C123.39 54.35 124.01 54.99 125.25 54.99C125.57 54.99 125.87 54.92 126.15 54.78C126.43 54.64 126.67 54.46 126.87 54.24C127.07 54.02 127.22 53.77 127.32 53.49C127.44 53.19 127.5 52.89 127.5 52.59C127.5 51.97 127.35 51.6 127.05 51.48C126.75 51.34 126.33 51.27 125.79 51.27ZM147.816 56.43C148.296 56.81 148.766 57.22 149.226 57.66C149.706 58.1 150.126 58.58 150.486 59.1C150.846 59.6 151.136 60.14 151.356 60.72C151.596 61.28 151.716 61.89 151.716 62.55C151.716 63.79 151.396 64.85 150.756 65.73C150.136 66.61 149.346 67.33 148.386 67.89C147.426 68.45 146.366 68.86 145.206 69.12C144.066 69.38 142.986 69.51 141.966 69.51C141.466 69.51 140.916 69.43 140.316 69.27C139.736 69.13 139.196 68.91 138.696 68.61C138.196 68.31 137.776 67.93 137.436 67.47C137.116 67.01 136.956 66.48 136.956 65.88C136.956 65.08 137.156 64.51 137.556 64.17C137.976 63.81 138.486 63.58 139.086 63.48C139.686 63.36 140.316 63.32 140.976 63.36C141.636 63.4 142.206 63.42 142.686 63.42C143.726 63.42 144.526 63.21 145.086 62.79C145.666 62.35 145.976 61.88 146.016 61.38C146.056 60.86 145.836 60.39 145.356 59.97C144.876 59.53 144.116 59.31 143.076 59.31C142.756 59.31 142.446 59.36 142.146 59.46C141.866 59.54 141.556 59.58 141.216 59.58C140.916 59.58 140.636 59.52 140.376 59.4C140.116 59.28 139.876 59.12 139.656 58.92C139.456 58.7 139.296 58.45 139.176 58.17C139.056 57.89 138.996 57.6 138.996 57.3C138.996 56.94 139.146 56.66 139.446 56.46C139.746 56.24 140.106 56.04 140.526 55.86C140.946 55.68 141.376 55.48 141.816 55.26C142.276 55.02 142.646 54.69 142.926 54.27C143.046 54.07 143.156 53.84 143.256 53.58C143.376 53.32 143.436 53.08 143.436 52.86C143.436 52.62 143.356 52.42 143.196 52.26C143.056 52.1 142.796 52.02 142.416 52.02C141.796 52.02 141.316 52.15 140.976 52.41C140.656 52.65 140.376 52.92 140.136 53.22C139.896 53.5 139.656 53.77 139.416 54.03C139.176 54.27 138.846 54.39 138.426 54.39C137.786 54.39 137.306 54.16 136.986 53.7C136.686 53.24 136.536 52.73 136.536 52.17C136.536 51.27 136.766 50.47 137.226 49.77C137.686 49.05 138.266 48.45 138.966 47.97C139.686 47.47 140.466 47.09 141.306 46.83C142.166 46.57 142.986 46.44 143.766 46.44C144.546 46.44 145.286 46.55 145.986 46.77C146.706 46.99 147.346 47.32 147.906 47.76C148.466 48.18 148.906 48.71 149.226 49.35C149.566 49.99 149.736 50.73 149.736 51.57C149.736 52.05 149.676 52.5 149.556 52.92C149.436 53.34 149.276 53.75 149.076 54.15C148.896 54.53 148.686 54.91 148.446 55.29C148.226 55.65 148.016 56.03 147.816 56.43ZM161.189 58.86L164.789 58.65C164.869 58.33 164.959 57.98 165.059 57.6C165.159 57.2 165.289 56.84 165.449 56.52C165.609 56.18 165.819 55.9 166.079 55.68C166.339 55.46 166.689 55.35 167.129 55.35C167.569 55.35 167.919 55.45 168.179 55.65C168.439 55.85 168.639 56.11 168.779 56.43C168.919 56.75 169.009 57.1 169.049 57.48C169.089 57.84 169.109 58.19 169.109 58.53C169.109 58.93 169.129 59.47 169.169 60.15C169.209 60.83 169.229 61.57 169.229 62.37C169.229 63.17 169.199 63.98 169.139 64.8C169.079 65.62 168.949 66.36 168.749 67.02C168.549 67.68 168.269 68.22 167.909 68.64C167.569 69.06 167.099 69.27 166.499 69.27C165.759 69.27 165.209 69.03 164.849 68.55C164.509 68.07 164.279 67.49 164.159 66.81C164.039 66.13 163.989 65.44 164.009 64.74C164.049 64.04 164.069 63.46 164.069 63C162.829 62.98 161.599 62.93 160.379 62.85C159.159 62.77 157.929 62.71 156.689 62.67C155.969 62.63 155.339 62.39 154.799 61.95C154.259 61.51 153.989 60.91 153.989 60.15C153.989 59.41 154.269 58.6 154.829 57.72C155.389 56.84 156.049 55.96 156.809 55.08C157.589 54.2 158.369 53.36 159.149 52.56C159.949 51.76 160.579 51.07 161.039 50.49C161.479 49.93 161.899 49.37 162.299 48.81C162.699 48.25 163.099 47.68 163.499 47.1C163.779 46.7 164.079 46.38 164.399 46.14C164.739 45.9 165.149 45.78 165.629 45.78C165.949 45.78 166.249 45.85 166.529 45.99C166.829 46.11 167.079 46.28 167.279 46.5C167.499 46.72 167.669 46.97 167.789 47.25C167.909 47.53 167.969 47.83 167.969 48.15C167.969 49.09 167.719 50.05 167.219 51.03C166.739 51.99 166.139 52.94 165.419 53.88C164.719 54.8 163.979 55.69 163.199 56.55C162.419 57.39 161.749 58.16 161.189 58.86ZM181.263 46.5C182.923 46.5 184.323 46.69 185.463 47.07C186.623 47.43 187.553 48 188.253 48.78C188.973 49.54 189.493 50.51 189.813 51.69C190.133 52.87 190.293 54.27 190.293 55.89C190.293 56.81 190.213 57.78 190.053 58.8C189.913 59.8 189.683 60.79 189.363 61.77C189.043 62.73 188.633 63.65 188.133 64.53C187.633 65.41 187.043 66.18 186.363 66.84C185.683 67.5 184.893 68.03 183.993 68.43C183.093 68.81 182.093 69 180.993 69C179.413 69 178.013 68.68 176.793 68.04C175.593 67.4 174.583 66.56 173.763 65.52C172.963 64.46 172.353 63.25 171.933 61.89C171.533 60.53 171.333 59.13 171.333 57.69C171.333 56.21 171.553 54.8 171.993 53.46C172.433 52.1 173.073 50.91 173.913 49.89C174.773 48.85 175.813 48.03 177.033 47.43C178.273 46.81 179.683 46.5 181.263 46.5ZM186.213 55.89C186.213 55.39 186.173 54.91 186.093 54.45C186.033 53.97 185.903 53.56 185.703 53.22C185.503 52.88 185.233 52.61 184.893 52.41C184.553 52.19 184.103 52.08 183.543 52.08C182.603 52.08 181.753 52.28 180.993 52.68C180.233 53.06 179.583 53.58 179.043 54.24C178.503 54.88 178.083 55.62 177.783 56.46C177.503 57.28 177.363 58.14 177.363 59.04C177.363 59.7 177.433 60.32 177.573 60.9C177.713 61.48 177.933 61.98 178.233 62.4C178.553 62.82 178.963 63.16 179.463 63.42C179.983 63.66 180.613 63.78 181.353 63.78C182.253 63.78 183.013 63.51 183.633 62.97C184.253 62.41 184.753 61.73 185.133 60.93C185.513 60.11 185.783 59.25 185.943 58.35C186.123 57.43 186.213 56.61 186.213 55.89ZM202.064 46.5C203.724 46.5 205.124 46.69 206.264 47.07C207.424 47.43 208.354 48 209.054 48.78C209.774 49.54 210.294 50.51 210.614 51.69C210.934 52.87 211.094 54.27 211.094 55.89C211.094 56.81 211.014 57.78 210.854 58.8C210.714 59.8 210.484 60.79 210.164 61.77C209.844 62.73 209.434 63.65 208.934 64.53C208.434 65.41 207.844 66.18 207.164 66.84C206.484 67.5 205.694 68.03 204.794 68.43C203.894 68.81 202.894 69 201.794 69C200.214 69 198.814 68.68 197.594 68.04C196.394 67.4 195.384 66.56 194.564 65.52C193.764 64.46 193.154 63.25 192.734 61.89C192.334 60.53 192.134 59.13 192.134 57.69C192.134 56.21 192.354 54.8 192.794 53.46C193.234 52.1 193.874 50.91 194.714 49.89C195.574 48.85 196.614 48.03 197.834 47.43C199.074 46.81 200.484 46.5 202.064 46.5ZM207.014 55.89C207.014 55.39 206.974 54.91 206.894 54.45C206.834 53.97 206.704 53.56 206.504 53.22C206.304 52.88 206.034 52.61 205.694 52.41C205.354 52.19 204.904 52.08 204.344 52.08C203.404 52.08 202.554 52.28 201.794 52.68C201.034 53.06 200.384 53.58 199.844 54.24C199.304 54.88 198.884 55.62 198.584 56.46C198.304 57.28 198.164 58.14 198.164 59.04C198.164 59.7 198.234 60.32 198.374 60.9C198.514 61.48 198.734 61.98 199.034 62.4C199.354 62.82 199.764 63.16 200.264 63.42C200.784 63.66 201.414 63.78 202.154 63.78C203.054 63.78 203.814 63.51 204.434 62.97C205.054 62.41 205.554 61.73 205.934 60.93C206.314 60.11 206.584 59.25 206.744 58.35C206.924 57.43 207.014 56.61 207.014 55.89ZM220.105 58.86L223.705 58.65C223.785 58.33 223.875 57.98 223.975 57.6C224.075 57.2 224.205 56.84 224.365 56.52C224.525 56.18 224.735 55.9 224.995 55.68C225.255 55.46 225.605 55.35 226.045 55.35C226.485 55.35 226.835 55.45 227.095 55.65C227.355 55.85 227.555 56.11 227.695 56.43C227.835 56.75 227.925 57.1 227.965 57.48C228.005 57.84 228.025 58.19 228.025 58.53C228.025 58.93 228.045 59.47 228.085 60.15C228.125 60.83 228.145 61.57 228.145 62.37C228.145 63.17 228.115 63.98 228.055 64.8C227.995 65.62 227.865 66.36 227.665 67.02C227.465 67.68 227.185 68.22 226.825 68.64C226.485 69.06 226.015 69.27 225.415 69.27C224.675 69.27 224.125 69.03 223.765 68.55C223.425 68.07 223.195 67.49 223.075 66.81C222.955 66.13 222.905 65.44 222.925 64.74C222.965 64.04 222.985 63.46 222.985 63C221.745 62.98 220.515 62.93 219.295 62.85C218.075 62.77 216.845 62.71 215.605 62.67C214.885 62.63 214.255 62.39 213.715 61.95C213.175 61.51 212.905 60.91 212.905 60.15C212.905 59.41 213.185 58.6 213.745 57.72C214.305 56.84 214.965 55.96 215.725 55.08C216.505 54.2 217.285 53.36 218.065 52.56C218.865 51.76 219.495 51.07 219.955 50.49C220.395 49.93 220.815 49.37 221.215 48.81C221.615 48.25 222.015 47.68 222.415 47.1C222.695 46.7 222.995 46.38 223.315 46.14C223.655 45.9 224.065 45.78 224.545 45.78C224.865 45.78 225.165 45.85 225.445 45.99C225.745 46.11 225.995 46.28 226.195 46.5C226.415 46.72 226.585 46.97 226.705 47.25C226.825 47.53 226.885 47.83 226.885 48.15C226.885 49.09 226.635 50.05 226.135 51.03C225.655 51.99 225.055 52.94 224.335 53.88C223.635 54.8 222.895 55.69 222.115 56.55C221.335 57.39 220.665 58.16 220.105 58.86ZM233.459 64.17C233.779 64.17 234.079 64.23 234.359 64.35C234.659 64.47 234.919 64.64 235.139 64.86C235.359 65.06 235.539 65.31 235.679 65.61C235.819 65.89 235.889 66.19 235.889 66.51C235.889 67.21 235.649 67.8 235.169 68.28C234.689 68.76 234.099 69 233.399 69C232.759 69 232.189 68.77 231.689 68.31C231.209 67.83 230.969 67.27 230.969 66.63C230.969 65.93 231.209 65.35 231.689 64.89C232.169 64.41 232.759 64.17 233.459 64.17ZM241.223 64.17C241.543 64.17 241.843 64.23 242.123 64.35C242.423 64.47 242.683 64.64 242.903 64.86C243.123 65.06 243.303 65.31 243.443 65.61C243.583 65.89 243.653 66.19 243.653 66.51C243.653 67.21 243.413 67.8 242.933 68.28C242.453 68.76 241.863 69 241.163 69C240.523 69 239.953 68.77 239.453 68.31C238.973 67.83 238.733 67.27 238.733 66.63C238.733 65.93 238.973 65.35 239.453 64.89C239.933 64.41 240.523 64.17 241.223 64.17ZM248.987 64.17C249.307 64.17 249.607 64.23 249.887 64.35C250.187 64.47 250.447 64.64 250.667 64.86C250.887 65.06 251.067 65.31 251.207 65.61C251.347 65.89 251.417 66.19 251.417 66.51C251.417 67.21 251.177 67.8 250.697 68.28C250.217 68.76 249.627 69 248.927 69C248.287 69 247.717 68.77 247.217 68.31C246.737 67.83 246.497 67.27 246.497 66.63C246.497 65.93 246.737 65.35 247.217 64.89C247.697 64.41 248.287 64.17 248.987 64.17ZM263.47 46.5C265.13 46.5 266.53 46.69 267.67 47.07C268.83 47.43 269.76 48 270.46 48.78C271.18 49.54 271.7 50.51 272.02 51.69C272.34 52.87 272.5 54.27 272.5 55.89C272.5 56.81 272.42 57.78 272.26 58.8C272.12 59.8 271.89 60.79 271.57 61.77C271.25 62.73 270.84 63.65 270.34 64.53C269.84 65.41 269.25 66.18 268.57 66.84C267.89 67.5 267.1 68.03 266.2 68.43C265.3 68.81 264.3 69 263.2 69C261.62 69 260.22 68.68 259 68.04C257.8 67.4 256.79 66.56 255.97 65.52C255.17 64.46 254.56 63.25 254.14 61.89C253.74 60.53 253.54 59.13 253.54 57.69C253.54 56.21 253.76 54.8 254.2 53.46C254.64 52.1 255.28 50.91 256.12 49.89C256.98 48.85 258.02 48.03 259.24 47.43C260.48 46.81 261.89 46.5 263.47 46.5ZM268.42 55.89C268.42 55.39 268.38 54.91 268.3 54.45C268.24 53.97 268.11 53.56 267.91 53.22C267.71 52.88 267.44 52.61 267.1 52.41C266.76 52.19 266.31 52.08 265.75 52.08C264.81 52.08 263.96 52.28 263.2 52.68C262.44 53.06 261.79 53.58 261.25 54.24C260.71 54.88 260.29 55.62 259.99 56.46C259.71 57.28 259.57 58.14 259.57 59.04C259.57 59.7 259.64 60.32 259.78 60.9C259.92 61.48 260.14 61.98 260.44 62.4C260.76 62.82 261.17 63.16 261.67 63.42C262.19 63.66 262.82 63.78 263.56 63.78C264.46 63.78 265.22 63.51 265.84 62.97C266.46 62.41 266.96 61.73 267.34 60.93C267.72 60.11 267.99 59.25 268.15 58.35C268.33 57.43 268.42 56.61 268.42 55.89ZM277.221 56.73C276.861 56.73 276.511 56.7 276.171 56.64C275.831 56.56 275.531 56.44 275.271 56.28C275.031 56.12 274.831 55.9 274.671 55.62C274.531 55.32 274.461 54.96 274.461 54.54C274.461 53.98 274.701 53.49 275.181 53.07C275.761 52.59 276.221 52.16 276.561 51.78C276.921 51.38 277.231 50.99 277.491 50.61C277.771 50.21 278.041 49.8 278.301 49.38C278.581 48.94 278.921 48.43 279.321 47.85C279.561 47.51 279.871 47.23 280.251 47.01C280.631 46.79 281.031 46.68 281.451 46.68C282.011 46.68 282.471 46.83 282.831 47.13C283.211 47.41 283.511 47.77 283.731 48.21C283.971 48.65 284.131 49.13 284.211 49.65C284.311 50.17 284.361 50.65 284.361 51.09C284.361 52.13 284.351 53.23 284.331 54.39C284.311 55.55 284.291 56.72 284.271 57.9C284.251 59.08 284.221 60.25 284.181 61.41C284.161 62.57 284.141 63.67 284.121 64.71C284.101 65.23 284.021 65.74 283.881 66.24C283.761 66.74 283.551 67.2 283.251 67.62C282.951 68.04 282.571 68.39 282.111 68.67C281.671 68.93 281.191 69.06 280.671 69.06C279.731 69.06 279.011 68.8 278.511 68.28C278.011 67.76 277.651 67.13 277.431 66.39C277.231 65.63 277.121 64.84 277.101 64.02C277.081 63.18 277.071 62.44 277.071 61.8C277.071 61.5 277.081 61.15 277.101 60.75C277.121 60.35 277.141 59.94 277.161 59.52C277.201 59.08 277.231 58.66 277.251 58.26C277.271 57.84 277.281 57.49 277.281 57.21C277.281 57.09 277.261 56.93 277.221 56.73ZM296.371 46.5C298.031 46.5 299.431 46.69 300.571 47.07C301.731 47.43 302.661 48 303.361 48.78C304.081 49.54 304.601 50.51 304.921 51.69C305.241 52.87 305.401 54.27 305.401 55.89C305.401 56.81 305.321 57.78 305.161 58.8C305.021 59.8 304.791 60.79 304.471 61.77C304.151 62.73 303.741 63.65 303.241 64.53C302.741 65.41 302.151 66.18 301.471 66.84C300.791 67.5 300.001 68.03 299.101 68.43C298.201 68.81 297.201 69 296.101 69C294.521 69 293.121 68.68 291.901 68.04C290.701 67.4 289.691 66.56 288.871 65.52C288.071 64.46 287.461 63.25 287.041 61.89C286.641 60.53 286.441 59.13 286.441 57.69C286.441 56.21 286.661 54.8 287.101 53.46C287.541 52.1 288.181 50.91 289.021 49.89C289.881 48.85 290.921 48.03 292.141 47.43C293.381 46.81 294.791 46.5 296.371 46.5ZM301.321 55.89C301.321 55.39 301.281 54.91 301.201 54.45C301.141 53.97 301.011 53.56 300.811 53.22C300.611 52.88 300.341 52.61 300.001 52.41C299.661 52.19 299.211 52.08 298.651 52.08C297.711 52.08 296.861 52.28 296.101 52.68C295.341 53.06 294.691 53.58 294.151 54.24C293.611 54.88 293.191 55.62 292.891 56.46C292.611 57.28 292.471 58.14 292.471 59.04C292.471 59.7 292.541 60.32 292.681 60.9C292.821 61.48 293.041 61.98 293.341 62.4C293.661 62.82 294.071 63.16 294.571 63.42C295.091 63.66 295.721 63.78 296.461 63.78C297.361 63.78 298.121 63.51 298.741 62.97C299.361 62.41 299.861 61.73 300.241 60.93C300.621 60.11 300.891 59.25 301.051 58.35C301.231 57.43 301.321 56.61 301.321 55.89ZM317.172 46.5C318.832 46.5 320.232 46.69 321.372 47.07C322.532 47.43 323.462 48 324.162 48.78C324.882 49.54 325.402 50.51 325.722 51.69C326.042 52.87 326.202 54.27 326.202 55.89C326.202 56.81 326.122 57.78 325.962 58.8C325.822 59.8 325.592 60.79 325.272 61.77C324.952 62.73 324.542 63.65 324.042 64.53C323.542 65.41 322.952 66.18 322.272 66.84C321.592 67.5 320.802 68.03 319.902 68.43C319.002 68.81 318.002 69 316.902 69C315.322 69 313.922 68.68 312.702 68.04C311.502 67.4 310.492 66.56 309.672 65.52C308.872 64.46 308.262 63.25 307.842 61.89C307.442 60.53 307.242 59.13 307.242 57.69C307.242 56.21 307.462 54.8 307.902 53.46C308.342 52.1 308.982 50.91 309.822 49.89C310.682 48.85 311.722 48.03 312.942 47.43C314.182 46.81 315.592 46.5 317.172 46.5ZM322.122 55.89C322.122 55.39 322.082 54.91 322.002 54.45C321.942 53.97 321.812 53.56 321.612 53.22C321.412 52.88 321.142 52.61 320.802 52.41C320.462 52.19 320.012 52.08 319.452 52.08C318.512 52.08 317.662 52.28 316.902 52.68C316.142 53.06 315.492 53.58 314.952 54.24C314.412 54.88 313.992 55.62 313.692 56.46C313.412 57.28 313.272 58.14 313.272 59.04C313.272 59.7 313.342 60.32 313.482 60.9C313.622 61.48 313.842 61.98 314.142 62.4C314.462 62.82 314.872 63.16 315.372 63.42C315.892 63.66 316.522 63.78 317.262 63.78C318.162 63.78 318.922 63.51 319.542 62.97C320.162 62.41 320.662 61.73 321.042 60.93C321.422 60.11 321.692 59.25 321.852 58.35C322.032 57.43 322.122 56.61 322.122 55.89ZM339.052 60.45C338.352 60.51 337.652 60.58 336.952 60.66C336.272 60.72 335.582 60.75 334.882 60.75C333.942 60.75 333.072 60.6 332.272 60.3C331.492 59.98 330.812 59.55 330.232 59.01C329.672 58.45 329.232 57.79 328.912 57.03C328.592 56.27 328.432 55.44 328.432 54.54C328.432 53.52 328.622 52.54 329.002 51.6C329.402 50.64 329.942 49.8 330.622 49.08C331.322 48.36 332.132 47.78 333.052 47.34C333.992 46.9 335.012 46.68 336.112 46.68C337.412 46.68 338.522 46.84 339.442 47.16C340.382 47.46 341.172 47.89 341.812 48.45C342.452 49.01 342.962 49.67 343.342 50.43C343.722 51.19 344.012 52.01 344.212 52.89C344.432 53.77 344.572 54.7 344.632 55.68C344.712 56.66 344.752 57.64 344.752 58.62C344.752 60.76 344.482 62.51 343.942 63.87C343.402 65.21 342.602 66.27 341.542 67.05C340.502 67.81 339.202 68.34 337.642 68.64C336.102 68.92 334.322 69.06 332.302 69.06C331.882 69.06 331.442 69.03 330.982 68.97C330.542 68.89 330.132 68.76 329.752 68.58C329.372 68.4 329.062 68.15 328.822 67.83C328.582 67.51 328.462 67.1 328.462 66.6C328.462 66.16 328.622 65.79 328.942 65.49C329.262 65.17 329.672 64.91 330.172 64.71C330.692 64.49 331.262 64.32 331.882 64.2C332.522 64.08 333.152 63.98 333.772 63.9C334.412 63.82 335.002 63.75 335.542 63.69C336.102 63.63 336.552 63.56 336.892 63.48C337.332 63.36 337.692 63.24 337.972 63.12C338.252 62.98 338.472 62.82 338.632 62.64C338.792 62.44 338.902 62.2 338.962 61.92C339.022 61.62 339.052 61.25 339.052 60.81V60.45ZM339.142 56.04C339.062 55.74 338.982 55.44 338.902 55.14C338.822 54.84 338.702 54.57 338.542 54.33C338.402 54.09 338.202 53.89 337.942 53.73C337.702 53.57 337.382 53.49 336.982 53.49C336.702 53.49 336.422 53.57 336.142 53.73C335.862 53.87 335.612 54.06 335.392 54.3C335.172 54.52 334.982 54.77 334.822 55.05C334.682 55.33 334.612 55.6 334.612 55.86C334.612 56.06 334.692 56.2 334.852 56.28C335.012 56.36 335.182 56.4 335.362 56.4C336.002 56.4 336.632 56.36 337.252 56.28C337.872 56.18 338.502 56.1 339.142 56.04ZM353.962 58.86L357.562 58.65C357.642 58.33 357.732 57.98 357.832 57.6C357.932 57.2 358.062 56.84 358.222 56.52C358.382 56.18 358.592 55.9 358.852 55.68C359.112 55.46 359.462 55.35 359.902 55.35C360.342 55.35 360.692 55.45 360.952 55.65C361.212 55.85 361.412 56.11 361.552 56.43C361.692 56.75 361.782 57.1 361.822 57.48C361.862 57.84 361.882 58.19 361.882 58.53C361.882 58.93 361.902 59.47 361.942 60.15C361.982 60.83 362.002 61.57 362.002 62.37C362.002 63.17 361.972 63.98 361.912 64.8C361.852 65.62 361.722 66.36 361.522 67.02C361.322 67.68 361.042 68.22 360.682 68.64C360.342 69.06 359.872 69.27 359.272 69.27C358.532 69.27 357.982 69.03 357.622 68.55C357.282 68.07 357.052 67.49 356.932 66.81C356.812 66.13 356.762 65.44 356.782 64.74C356.822 64.04 356.842 63.46 356.842 63C355.602 62.98 354.372 62.93 353.152 62.85C351.932 62.77 350.702 62.71 349.462 62.67C348.742 62.63 348.112 62.39 347.572 61.95C347.032 61.51 346.762 60.91 346.762 60.15C346.762 59.41 347.042 58.6 347.602 57.72C348.162 56.84 348.822 55.96 349.582 55.08C350.362 54.2 351.142 53.36 351.922 52.56C352.722 51.76 353.352 51.07 353.812 50.49C354.252 49.93 354.672 49.37 355.072 48.81C355.472 48.25 355.872 47.68 356.272 47.1C356.552 46.7 356.852 46.38 357.172 46.14C357.512 45.9 357.922 45.78 358.402 45.78C358.722 45.78 359.022 45.85 359.302 45.99C359.602 46.11 359.852 46.28 360.052 46.5C360.272 46.72 360.442 46.97 360.562 47.25C360.682 47.53 360.742 47.83 360.742 48.15C360.742 49.09 360.492 50.05 359.992 51.03C359.512 51.99 358.912 52.94 358.192 53.88C357.492 54.8 356.752 55.69 355.972 56.55C355.192 57.39 354.522 58.16 353.962 58.86ZM367.377 61.11C366.817 60.89 366.337 60.62 365.937 60.3C365.557 59.98 365.367 59.49 365.367 58.83C365.367 58.51 365.427 58.23 365.547 57.99C365.687 57.75 365.857 57.54 366.057 57.36C366.257 57.18 366.477 57.03 366.717 56.91C366.977 56.77 367.237 56.64 367.497 56.52V50.88C367.137 50.76 366.767 50.64 366.387 50.52C366.027 50.4 365.697 50.25 365.397 50.07C365.117 49.87 364.877 49.63 364.677 49.35C364.497 49.05 364.407 48.66 364.407 48.18C364.407 47.66 364.557 47.23 364.857 46.89C365.157 46.53 365.537 46.25 365.997 46.05C366.477 45.83 367.017 45.67 367.617 45.57C368.217 45.47 368.817 45.4 369.417 45.36C370.017 45.32 370.587 45.31 371.127 45.33C371.667 45.33 372.117 45.33 372.477 45.33C372.837 45.33 373.317 45.34 373.917 45.36C374.537 45.36 375.207 45.39 375.927 45.45C376.647 45.49 377.377 45.58 378.117 45.72C378.857 45.84 379.527 46.01 380.127 46.23C380.727 46.45 381.217 46.73 381.597 47.07C381.977 47.41 382.167 47.83 382.167 48.33C382.167 48.61 382.107 48.88 381.987 49.14C381.867 49.4 381.697 49.61 381.477 49.77C381.317 49.89 381.027 49.99 380.607 50.07C380.187 50.15 379.697 50.22 379.137 50.28C378.597 50.32 378.007 50.36 377.367 50.4C376.747 50.44 376.137 50.48 375.537 50.52C374.937 50.56 374.377 50.61 373.857 50.67C373.357 50.71 372.967 50.77 372.687 50.85L372.657 51.45C372.657 52.23 372.687 53.02 372.747 53.82C372.827 54.62 372.887 55.41 372.927 56.19C373.247 56.17 373.687 56.15 374.247 56.13C374.827 56.09 375.417 56.06 376.017 56.04C376.637 56 377.227 55.97 377.787 55.95C378.347 55.93 378.787 55.92 379.107 55.92C379.587 55.92 380.027 56.09 380.427 56.43C380.827 56.77 381.027 57.2 381.027 57.72C381.027 58.06 380.867 58.36 380.547 58.62C380.227 58.88 379.817 59.11 379.317 59.31C378.817 59.49 378.267 59.65 377.667 59.79C377.067 59.91 376.467 60.02 375.867 60.12C375.287 60.22 374.747 60.31 374.247 60.39C373.767 60.47 373.397 60.54 373.137 60.6C373.097 61 373.077 61.53 373.077 62.19C373.097 62.83 373.087 63.52 373.047 64.26C373.027 65 372.977 65.75 372.897 66.51C372.817 67.27 372.677 67.96 372.477 68.58C372.277 69.18 371.997 69.67 371.637 70.05C371.297 70.43 370.847 70.62 370.287 70.62C369.787 70.62 369.347 70.47 368.967 70.17C368.607 69.87 368.347 69.49 368.187 69.03C368.007 68.45 367.867 67.83 367.767 67.17C367.687 66.49 367.617 65.81 367.557 65.13C367.517 64.43 367.487 63.74 367.467 63.06C367.447 62.38 367.417 61.73 367.377 61.11ZM388.956 63.9C388.896 64.36 388.866 64.9 388.866 65.52C388.866 66.12 388.806 66.71 388.686 67.29C388.566 67.85 388.346 68.33 388.026 68.73C387.706 69.11 387.206 69.3 386.526 69.3C385.826 69.3 385.296 69.1 384.936 68.7C384.576 68.3 384.316 67.81 384.156 67.23C384.016 66.63 383.936 66.01 383.916 65.37C383.896 64.73 383.886 64.17 383.886 63.69C383.886 62.81 383.966 61.75 384.126 60.51C384.286 59.27 384.536 57.98 384.876 56.64C385.216 55.3 385.646 53.97 386.166 52.65C386.706 51.31 387.346 50.11 388.086 49.05C388.826 47.99 389.676 47.14 390.636 46.5C391.596 45.84 392.676 45.51 393.876 45.51C394.956 45.51 395.876 45.74 396.636 46.2C397.396 46.66 398.016 47.27 398.496 48.03C398.996 48.79 399.386 49.66 399.666 50.64C399.946 51.6 400.156 52.59 400.296 53.61C400.436 54.61 400.516 55.6 400.536 56.58C400.576 57.54 400.596 58.4 400.596 59.16C400.596 59.56 400.586 60.08 400.566 60.72C400.546 61.36 400.496 62.05 400.416 62.79C400.356 63.53 400.246 64.28 400.086 65.04C399.946 65.8 399.746 66.49 399.486 67.11C399.226 67.71 398.896 68.21 398.496 68.61C398.116 68.99 397.646 69.18 397.086 69.18C396.306 69.18 395.726 68.96 395.346 68.52C394.986 68.06 394.736 67.51 394.596 66.87C394.476 66.21 394.426 65.52 394.446 64.8C394.486 64.08 394.506 63.46 394.506 62.94L388.956 63.9ZM394.986 58.86C395.046 58.34 395.096 57.83 395.136 57.33C395.176 56.81 395.196 56.29 395.196 55.77C395.196 55.49 395.176 55.08 395.136 54.54C395.116 54 395.056 53.46 394.956 52.92C394.876 52.36 394.746 51.85 394.566 51.39C394.406 50.93 394.186 50.64 393.906 50.52C393.366 50.86 392.856 51.37 392.376 52.05C391.896 52.73 391.476 53.48 391.116 54.3C390.756 55.1 390.466 55.91 390.246 56.73C390.026 57.55 389.906 58.27 389.886 58.89C389.986 58.91 390.076 58.93 390.156 58.95C390.236 58.97 390.326 58.98 390.426 58.98C391.186 58.98 391.946 58.97 392.706 58.95C393.466 58.91 394.226 58.88 394.986 58.86ZM405.688 56.73C405.328 56.73 404.978 56.7 404.638 56.64C404.298 56.56 403.998 56.44 403.738 56.28C403.498 56.12 403.298 55.9 403.138 55.62C402.998 55.32 402.928 54.96 402.928 54.54C402.928 53.98 403.168 53.49 403.648 53.07C404.228 52.59 404.688 52.16 405.028 51.78C405.388 51.38 405.698 50.99 405.958 50.61C406.238 50.21 406.508 49.8 406.768 49.38C407.048 48.94 407.388 48.43 407.788 47.85C408.028 47.51 408.338 47.23 408.718 47.01C409.098 46.79 409.498 46.68 409.918 46.68C410.478 46.68 410.938 46.83 411.298 47.13C411.678 47.41 411.978 47.77 412.198 48.21C412.438 48.65 412.598 49.13 412.678 49.65C412.778 50.17 412.828 50.65 412.828 51.09C412.828 52.13 412.818 53.23 412.798 54.39C412.778 55.55 412.758 56.72 412.738 57.9C412.718 59.08 412.688 60.25 412.648 61.41C412.628 62.57 412.608 63.67 412.588 64.71C412.568 65.23 412.488 65.74 412.348 66.24C412.228 66.74 412.018 67.2 411.718 67.62C411.418 68.04 411.038 68.39 410.578 68.67C410.138 68.93 409.658 69.06 409.138 69.06C408.198 69.06 407.478 68.8 406.978 68.28C406.478 67.76 406.118 67.13 405.898 66.39C405.698 65.63 405.588 64.84 405.568 64.02C405.548 63.18 405.538 62.44 405.538 61.8C405.538 61.5 405.548 61.15 405.568 60.75C405.588 60.35 405.608 59.94 405.628 59.52C405.668 59.08 405.698 58.66 405.718 58.26C405.738 57.84 405.748 57.49 405.748 57.21C405.748 57.09 405.728 56.93 405.688 56.73ZM429.398 56.91C429.998 57.67 430.438 58.41 430.718 59.13C431.018 59.85 431.168 60.7 431.168 61.68C431.168 62.86 430.938 63.92 430.478 64.86C430.038 65.78 429.438 66.57 428.678 67.23C427.918 67.87 427.028 68.37 426.008 68.73C425.008 69.07 423.948 69.24 422.828 69.24C421.748 69.24 420.758 69.1 419.858 68.82C418.958 68.54 418.178 68.12 417.518 67.56C416.878 66.98 416.378 66.27 416.018 65.43C415.658 64.59 415.478 63.61 415.478 62.49C415.478 61.59 415.608 60.73 415.868 59.91C416.128 59.09 416.548 58.34 417.128 57.66C416.748 56.82 416.388 56.03 416.048 55.29C415.708 54.53 415.538 53.67 415.538 52.71C415.538 51.73 415.688 50.85 415.988 50.07C416.288 49.27 416.708 48.59 417.248 48.03C417.808 47.45 418.478 47.01 419.258 46.71C420.058 46.39 420.938 46.23 421.898 46.23C423.038 46.23 424.108 46.35 425.108 46.59C426.128 46.81 427.018 47.19 427.778 47.73C428.538 48.27 429.138 48.98 429.578 49.86C430.038 50.74 430.268 51.82 430.268 53.1C430.268 53.76 430.188 54.41 430.028 55.05C429.868 55.69 429.658 56.31 429.398 56.91ZM421.058 62.97C421.058 63.31 421.118 63.57 421.238 63.75C421.378 63.93 421.548 64.06 421.748 64.14C421.948 64.22 422.178 64.27 422.438 64.29C422.698 64.29 422.968 64.29 423.248 64.29C423.728 64.29 424.178 64.24 424.598 64.14C425.038 64.04 425.418 63.88 425.738 63.66C426.058 63.44 426.308 63.15 426.488 62.79C426.688 62.43 426.788 61.98 426.788 61.44C426.788 61.04 426.648 60.74 426.368 60.54C426.088 60.32 425.728 60.2 425.288 60.18C424.868 60.14 424.408 60.18 423.908 60.3C423.428 60.42 422.968 60.61 422.528 60.87C422.108 61.11 421.758 61.41 421.478 61.77C421.198 62.13 421.058 62.53 421.058 62.97ZM422.978 51.27C422.558 51.27 422.198 51.27 421.898 51.27C421.598 51.27 421.348 51.32 421.148 51.42C420.948 51.52 420.798 51.7 420.698 51.96C420.618 52.2 420.578 52.57 420.578 53.07C420.578 54.35 421.198 54.99 422.438 54.99C422.758 54.99 423.058 54.92 423.338 54.78C423.618 54.64 423.858 54.46 424.058 54.24C424.258 54.02 424.408 53.77 424.508 53.49C424.628 53.19 424.688 52.89 424.688 52.59C424.688 51.97 424.538 51.6 424.238 51.48C423.938 51.34 423.518 51.27 422.978 51.27ZM443.324 46.5C444.984 46.5 446.384 46.69 447.524 47.07C448.684 47.43 449.614 48 450.314 48.78C451.034 49.54 451.554 50.51 451.874 51.69C452.194 52.87 452.354 54.27 452.354 55.89C452.354 56.81 452.274 57.78 452.114 58.8C451.974 59.8 451.744 60.79 451.424 61.77C451.104 62.73 450.694 63.65 450.194 64.53C449.694 65.41 449.104 66.18 448.424 66.84C447.744 67.5 446.954 68.03 446.054 68.43C445.154 68.81 444.154 69 443.054 69C441.474 69 440.074 68.68 438.854 68.04C437.654 67.4 436.644 66.56 435.824 65.52C435.024 64.46 434.414 63.25 433.994 61.89C433.594 60.53 433.394 59.13 433.394 57.69C433.394 56.21 433.614 54.8 434.054 53.46C434.494 52.1 435.134 50.91 435.974 49.89C436.834 48.85 437.874 48.03 439.094 47.43C440.334 46.81 441.744 46.5 443.324 46.5ZM448.274 55.89C448.274 55.39 448.234 54.91 448.154 54.45C448.094 53.97 447.964 53.56 447.764 53.22C447.564 52.88 447.294 52.61 446.954 52.41C446.614 52.19 446.164 52.08 445.604 52.08C444.664 52.08 443.814 52.28 443.054 52.68C442.294 53.06 441.644 53.58 441.104 54.24C440.564 54.88 440.144 55.62 439.844 56.46C439.564 57.28 439.424 58.14 439.424 59.04C439.424 59.7 439.494 60.32 439.634 60.9C439.774 61.48 439.994 61.98 440.294 62.4C440.614 62.82 441.024 63.16 441.524 63.42C442.044 63.66 442.674 63.78 443.414 63.78C444.314 63.78 445.074 63.51 445.694 62.97C446.314 62.41 446.814 61.73 447.194 60.93C447.574 60.11 447.844 59.25 448.004 58.35C448.184 57.43 448.274 56.61 448.274 55.89Z" fill="white"/>
<g filter="url(#filter1_d_5_13)">
<rect x="525.546" y="19" width="174.284" height="79" rx="10" fill="#FFF6B5"/>
<rect x="527.046" y="20.5" width="171.284" height="76" rx="8.5" stroke="black" stroke-width="3"/>
</g>
<path d="M578.95 46.98C579.55 46.98 580.25 47.04 581.05 47.16C581.87 47.26 582.65 47.45 583.39 47.73C584.13 48.01 584.76 48.41 585.28 48.93C585.8 49.43 586.06 50.08 586.06 50.88C586.06 51.26 585.99 51.62 585.85 51.96C585.73 52.28 585.55 52.57 585.31 52.83C585.07 53.07 584.79 53.26 584.47 53.4C584.15 53.54 583.8 53.61 583.42 53.61C583.02 53.61 582.61 53.58 582.19 53.52C581.77 53.46 581.34 53.39 580.9 53.31C580.06 53.17 579.14 53.19 578.14 53.37C577.16 53.55 576.23 53.89 575.35 54.39C574.49 54.89 573.77 55.55 573.19 56.37C572.61 57.17 572.32 58.14 572.32 59.28C572.32 59.86 572.43 60.41 572.65 60.93C572.87 61.43 573.17 61.87 573.55 62.25C573.95 62.63 574.4 62.93 574.9 63.15C575.42 63.35 575.97 63.45 576.55 63.45C577.15 63.45 577.73 63.38 578.29 63.24C578.87 63.08 579.43 62.92 579.97 62.76C580.53 62.58 581.06 62.42 581.56 62.28C582.08 62.12 582.58 62.04 583.06 62.04C583.48 62.04 583.88 62.12 584.26 62.28C584.64 62.44 584.97 62.66 585.25 62.94C585.55 63.2 585.78 63.52 585.94 63.9C586.1 64.26 586.18 64.66 586.18 65.1C586.18 65.72 586.01 66.25 585.67 66.69C585.35 67.11 584.93 67.46 584.41 67.74C583.89 68.02 583.29 68.24 582.61 68.4C581.95 68.54 581.28 68.65 580.6 68.73C579.92 68.79 579.26 68.83 578.62 68.85C578 68.85 577.47 68.85 577.03 68.85C575.59 68.85 574.21 68.61 572.89 68.13C571.59 67.63 570.44 66.94 569.44 66.06C568.44 65.18 567.64 64.12 567.04 62.88C566.46 61.62 566.17 60.24 566.17 58.74C566.17 57.04 566.53 55.47 567.25 54.03C567.99 52.59 568.95 51.35 570.13 50.31C571.33 49.27 572.69 48.46 574.21 47.88C575.75 47.28 577.33 46.98 578.95 46.98ZM610.841 57.75C610.841 59.33 610.601 60.83 610.121 62.25C609.641 63.67 608.941 64.92 608.021 66C607.121 67.08 606.001 67.94 604.661 68.58C603.321 69.2 601.781 69.51 600.041 69.51C598.201 69.51 596.571 69.23 595.151 68.67C593.731 68.11 592.531 67.32 591.551 66.3C590.591 65.28 589.861 64.07 589.361 62.67C588.861 61.25 588.611 59.7 588.611 58.02C588.611 55.84 589.091 53.89 590.051 52.17C591.011 50.45 592.461 49.01 594.401 47.85C594.861 47.59 595.391 47.37 595.991 47.19C596.591 47.01 597.211 46.88 597.851 46.8C598.491 46.7 599.131 46.63 599.771 46.59C600.411 46.55 601.001 46.53 601.541 46.53C603.141 46.53 604.571 46.88 605.831 47.58C607.111 48.28 608.221 49.22 609.161 50.4C609.541 50.86 609.841 51.4 610.061 52.02C610.281 52.62 610.451 53.25 610.571 53.91C610.691 54.57 610.761 55.24 610.781 55.92C610.821 56.58 610.841 57.19 610.841 57.75ZM601.841 52.5C601.081 52.5 600.361 52.55 599.681 52.65C599.001 52.75 598.381 52.94 597.821 53.22C597.281 53.48 596.801 53.85 596.381 54.33C595.961 54.81 595.631 55.42 595.391 56.16C595.231 56.64 595.071 57.13 594.911 57.63C594.771 58.11 594.701 58.61 594.701 59.13C594.701 60.93 595.131 62.26 595.991 63.12C596.871 63.96 598.261 64.38 600.161 64.38C601.201 64.38 602.061 64.29 602.741 64.11C603.421 63.93 603.971 63.64 604.391 63.24C604.831 62.82 605.171 62.3 605.411 61.68C605.651 61.04 605.851 60.27 606.011 59.37C606.151 58.47 606.231 57.61 606.251 56.79C606.291 55.95 606.181 55.22 605.921 54.6C605.661 53.96 605.211 53.45 604.571 53.07C603.951 52.69 603.041 52.5 601.841 52.5ZM615.017 51.66C614.657 51.34 614.337 51.03 614.057 50.73C613.777 50.43 613.637 50.02 613.637 49.5C613.637 48.98 613.837 48.53 614.237 48.15C614.657 47.77 615.187 47.45 615.827 47.19C616.487 46.91 617.207 46.69 617.987 46.53C618.787 46.35 619.567 46.22 620.327 46.14C621.107 46.04 621.827 45.97 622.487 45.93C623.147 45.89 623.667 45.87 624.047 45.87C625.507 45.87 626.867 46.04 628.127 46.38C629.407 46.72 630.517 47.26 631.457 48C632.397 48.72 633.137 49.66 633.677 50.82C634.217 51.96 634.487 53.33 634.487 54.93C634.487 55.71 634.367 56.48 634.127 57.24C633.887 57.98 633.547 58.67 633.107 59.31C632.387 60.39 631.517 61.2 630.497 61.74C629.497 62.28 628.427 62.66 627.287 62.88C626.147 63.1 624.967 63.21 623.747 63.21C622.527 63.21 621.347 63.21 620.207 63.21C620.107 63.51 620.037 63.87 619.997 64.29C619.977 64.69 619.947 65.11 619.907 65.55C619.887 65.99 619.847 66.43 619.787 66.87C619.727 67.31 619.617 67.71 619.457 68.07C619.297 68.41 619.067 68.69 618.767 68.91C618.467 69.11 618.077 69.21 617.597 69.21C617.057 69.21 616.597 69.02 616.217 68.64C615.857 68.26 615.547 67.77 615.287 67.17C615.047 66.57 614.857 65.9 614.717 65.16C614.577 64.42 614.467 63.69 614.387 62.97C614.327 62.23 614.287 61.55 614.267 60.93C614.247 60.29 614.237 59.78 614.237 59.4C614.237 58.08 614.307 56.78 614.447 55.5C614.587 54.22 614.777 52.94 615.017 51.66ZM620.087 56.85C620.627 56.97 621.167 57.05 621.707 57.09C622.267 57.13 622.827 57.15 623.387 57.15C623.807 57.15 624.297 57.15 624.857 57.15C625.417 57.15 625.947 57.09 626.447 56.97C626.947 56.83 627.367 56.6 627.707 56.28C628.067 55.96 628.247 55.49 628.247 54.87C628.247 54.19 628.097 53.64 627.797 53.22C627.517 52.78 627.137 52.45 626.657 52.23C626.197 51.99 625.667 51.83 625.067 51.75C624.487 51.67 623.887 51.64 623.267 51.66C622.647 51.68 622.037 51.73 621.437 51.81C620.857 51.87 620.337 51.92 619.877 51.96C619.917 52.78 619.947 53.6 619.967 54.42C620.007 55.22 620.047 56.03 620.087 56.85ZM644.005 60.54C643.325 59.8 642.545 58.96 641.665 58.02C640.805 57.06 639.985 56.05 639.205 54.99C638.445 53.91 637.795 52.81 637.255 51.69C636.735 50.57 636.475 49.48 636.475 48.42C636.475 47.66 636.735 47.03 637.255 46.53C637.775 46.01 638.415 45.75 639.175 45.75C639.575 45.75 640.005 45.92 640.465 46.26C640.925 46.58 641.385 47 641.845 47.52C642.325 48.02 642.785 48.59 643.225 49.23C643.685 49.87 644.105 50.51 644.485 51.15C644.885 51.77 645.245 52.36 645.565 52.92C645.885 53.46 646.145 53.9 646.345 54.24C646.465 54.18 646.635 53.95 646.855 53.55C647.095 53.13 647.365 52.63 647.665 52.05C647.965 51.47 648.305 50.86 648.685 50.22C649.065 49.56 649.465 48.95 649.885 48.39C650.305 47.83 650.745 47.37 651.205 47.01C651.685 46.63 652.175 46.44 652.675 46.44C653.275 46.44 653.805 46.66 654.265 47.1C654.745 47.54 654.985 48.06 654.985 48.66C654.985 49.1 654.865 49.68 654.625 50.4C654.385 51.12 654.095 51.87 653.755 52.65C653.415 53.43 653.065 54.18 652.705 54.9C652.345 55.62 652.055 56.19 651.835 56.61C650.855 58.41 649.955 60.24 649.135 62.1C648.315 63.94 647.555 65.82 646.855 67.74C646.715 68.08 646.575 68.42 646.435 68.76C646.295 69.1 646.135 69.44 645.955 69.78C645.735 70.18 645.445 70.5 645.085 70.74C644.745 70.98 644.345 71.1 643.885 71.1C643.485 71.1 643.145 71.02 642.865 70.86C642.605 70.72 642.395 70.52 642.235 70.26C642.075 70.02 641.955 69.74 641.875 69.42C641.815 69.1 641.785 68.77 641.785 68.43C641.785 67.99 641.865 67.42 642.025 66.72C642.205 66 642.405 65.26 642.625 64.5C642.865 63.72 643.105 62.98 643.345 62.28C643.605 61.56 643.825 60.98 644.005 60.54Z" fill="black"/>
<defs>
<filter id="filter0_d_5_13" x="0" y="0" width="716" height="119" filterUnits="userSpaceOnUse" color-interpolation-filters="sRGB">
<feFlood flood-opacity="0" result="BackgroundImageFix"/>
<feColorMatrix in="SourceAlpha" type="matrix" values="0 0 0 0 0 0 0 0 0 0 0 0 0 0 0 0 0 0 127 0" result="hardAlpha"/>
<feOffset dy="6"/>
<feComposite in2="hardAlpha" operator="out"/>
<feColorMatrix type="matrix" values="0 0 0 0 0 0 0 0 0 0 0 0 0 0 0 0 0 0 1 0"/>
<feBlend mode="normal" in2="BackgroundImageFix" result="effect1_dropShadow_5_13"/>
<feBlend mode="normal" in="SourceGraphic" in2="effect1_dropShadow_5_13" result="shape"/>
</filter>
<filter id="filter1_d_5_13" x="525.546" y="19" width="174.284" height="84" filterUnits="userSpaceOnUse" color-interpolation-filters="sRGB">
<feFlood flood-opacity="0" result="BackgroundImageFix"/>
<feColorMatrix in="SourceAlpha" type="matrix" values="0 0 0 0 0 0 0 0 0 0 0 0 0 0 0 0 0 0 127 0" result="hardAlpha"/>
<feOffset dy="5"/>
<feComposite in2="hardAlpha" operator="out"/>
<feColorMatrix type="matrix" values="0 0 0 0 0 0 0 0 0 0 0 0 0 0 0 0 0 0 1 0"/>
<feBlend mode="normal" in2="BackgroundImageFix" result="effect1_dropShadow_5_13"/>
<feBlend mode="normal" in="SourceGraphic" in2="effect1_dropShadow_5_13" result="shape"/>
</filter>
</defs>
</svg>
