<svg width="996" height="80" viewBox="0 0 996 80" fill="none" xmlns="http://www.w3.org/2000/svg">
<rect width="120" height="80" rx="5" fill="black"/>
<path d="M47.838 20.25C51.2133 20.25 54.06 20.6363 56.378 21.409C58.7367 22.141 60.6277 23.3 62.051 24.886C63.515 26.4313 64.5723 28.4037 65.223 30.803C65.8737 33.2023 66.199 36.049 66.199 39.343C66.199 41.2137 66.0363 43.186 65.711 45.26C65.4263 47.2933 64.9587 49.3063 64.308 51.299C63.6573 53.251 62.8237 55.1217 61.807 56.911C60.7903 58.7003 59.5907 60.266 58.208 61.608C56.8253 62.95 55.219 64.0277 53.389 64.841C51.559 65.6137 49.5257 66 47.289 66C44.0763 66 41.2297 65.3493 38.749 64.048C36.309 62.7467 34.2553 61.0387 32.588 58.924C30.9613 56.7687 29.721 54.3083 28.867 51.543C28.0537 48.7777 27.647 45.931 27.647 43.003C27.647 39.9937 28.0943 37.1267 28.989 34.402C29.8837 31.6367 31.185 29.217 32.893 27.143C34.6417 25.0283 36.7563 23.361 39.237 22.141C41.7583 20.8803 44.6253 20.25 47.838 20.25ZM57.903 39.343C57.903 38.3263 57.8217 37.3503 57.659 36.415C57.537 35.439 57.2727 34.6053 56.866 33.914C56.4593 33.2227 55.9103 32.6737 55.219 32.267C54.5277 31.8197 53.6127 31.596 52.474 31.596C50.5627 31.596 48.8343 32.0027 47.289 32.816C45.7437 33.5887 44.422 34.646 43.324 35.988C42.226 37.2893 41.372 38.794 40.762 40.502C40.1927 42.1693 39.908 43.918 39.908 45.748C39.908 47.09 40.0503 48.3507 40.335 49.53C40.6197 50.7093 41.067 51.726 41.677 52.58C42.3277 53.434 43.1613 54.1253 44.178 54.654C45.2353 55.142 46.5163 55.386 48.021 55.386C49.851 55.386 51.3963 54.837 52.657 53.739C53.9177 52.6003 54.9343 51.2177 55.707 49.591C56.4797 47.9237 57.0287 46.175 57.354 44.345C57.72 42.4743 57.903 40.807 57.903 39.343ZM75.7979 41.051C75.0659 41.051 74.3543 40.99 73.6629 40.868C72.9716 40.7053 72.3616 40.4613 71.8329 40.136C71.3449 39.8107 70.9383 39.3633 70.6129 38.794C70.3283 38.184 70.1859 37.452 70.1859 36.598C70.1859 35.4593 70.6739 34.463 71.6499 33.609C72.8293 32.633 73.7646 31.7587 74.4559 30.986C75.1879 30.1727 75.8183 29.3797 76.3469 28.607C76.9163 27.7937 77.4653 26.96 77.9939 26.106C78.5633 25.2113 79.2546 24.1743 80.0679 22.995C80.5559 22.3037 81.1863 21.7343 81.9589 21.287C82.7316 20.8397 83.5449 20.616 84.3989 20.616C85.5376 20.616 86.4729 20.921 87.2049 21.531C87.9776 22.1003 88.5876 22.8323 89.0349 23.727C89.5229 24.6217 89.8483 25.5977 90.0109 26.655C90.2143 27.7123 90.3159 28.6883 90.3159 29.583C90.3159 31.6977 90.2956 33.9343 90.2549 36.293C90.2143 38.6517 90.1736 41.0307 90.1329 43.43C90.0923 45.8293 90.0313 48.2083 89.9499 50.567C89.9093 52.9257 89.8686 55.1623 89.8279 57.277C89.7873 58.3343 89.6246 59.3713 89.3399 60.388C89.0959 61.4047 88.6689 62.34 88.0589 63.194C87.4489 64.048 86.6763 64.7597 85.7409 65.329C84.8463 65.8577 83.8703 66.122 82.8129 66.122C80.9016 66.122 79.4376 65.5933 78.4209 64.536C77.4043 63.4787 76.6723 62.1977 76.2249 60.693C75.8183 59.1477 75.5946 57.5413 75.5539 55.874C75.5133 54.166 75.4929 52.6613 75.4929 51.36C75.4929 50.75 75.5133 50.0383 75.5539 49.225C75.5946 48.4117 75.6353 47.578 75.6759 46.724C75.7573 45.8293 75.8183 44.9753 75.8589 44.162C75.8996 43.308 75.9199 42.5963 75.9199 42.027C75.9199 41.783 75.8793 41.4577 75.7979 41.051Z" fill="white"/>
<rect x="454" width="120" height="80" rx="5" fill="black"/>
<path d="M493.838 20.25C497.213 20.25 500.06 20.6363 502.378 21.409C504.737 22.141 506.628 23.3 508.051 24.886C509.515 26.4313 510.572 28.4037 511.223 30.803C511.874 33.2023 512.199 36.049 512.199 39.343C512.199 41.2137 512.036 43.186 511.711 45.26C511.426 47.2933 510.959 49.3063 510.308 51.299C509.657 53.251 508.824 55.1217 507.807 56.911C506.79 58.7003 505.591 60.266 504.208 61.608C502.825 62.95 501.219 64.0277 499.389 64.841C497.559 65.6137 495.526 66 493.289 66C490.076 66 487.23 65.3493 484.749 64.048C482.309 62.7467 480.255 61.0387 478.588 58.924C476.961 56.7687 475.721 54.3083 474.867 51.543C474.054 48.7777 473.647 45.931 473.647 43.003C473.647 39.9937 474.094 37.1267 474.989 34.402C475.884 31.6367 477.185 29.217 478.893 27.143C480.642 25.0283 482.756 23.361 485.237 22.141C487.758 20.8803 490.625 20.25 493.838 20.25ZM503.903 39.343C503.903 38.3263 503.822 37.3503 503.659 36.415C503.537 35.439 503.273 34.6053 502.866 33.914C502.459 33.2227 501.91 32.6737 501.219 32.267C500.528 31.8197 499.613 31.596 498.474 31.596C496.563 31.596 494.834 32.0027 493.289 32.816C491.744 33.5887 490.422 34.646 489.324 35.988C488.226 37.2893 487.372 38.794 486.762 40.502C486.193 42.1693 485.908 43.918 485.908 45.748C485.908 47.09 486.05 48.3507 486.335 49.53C486.62 50.7093 487.067 51.726 487.677 52.58C488.328 53.434 489.161 54.1253 490.178 54.654C491.235 55.142 492.516 55.386 494.021 55.386C495.851 55.386 497.396 54.837 498.657 53.739C499.918 52.6003 500.934 51.2177 501.707 49.591C502.48 47.9237 503.029 46.175 503.354 44.345C503.72 42.4743 503.903 40.807 503.903 39.343ZM544.124 55.203C544.897 55.3657 545.73 55.569 546.625 55.813C547.56 56.0163 548.414 56.3213 549.187 56.728C549.96 57.094 550.61 57.6227 551.139 58.314C551.668 58.9647 551.932 59.7983 551.932 60.815C551.932 61.913 551.668 62.767 551.139 63.377C550.651 63.987 550.021 64.4547 549.248 64.78C548.475 65.1053 547.621 65.3087 546.686 65.39C545.791 65.4713 544.937 65.512 544.124 65.512C543.107 65.512 542.091 65.39 541.074 65.146C540.057 64.902 539.02 64.78 537.963 64.78C537.15 64.78 536.357 64.8817 535.584 65.085C534.811 65.2883 534.039 65.512 533.266 65.756C532.493 65.9593 531.741 66.1627 531.009 66.366C530.277 66.5693 529.525 66.671 528.752 66.671C527.369 66.671 526.19 66.183 525.214 65.207C524.238 64.231 523.75 63.0517 523.75 61.669C523.75 60.4083 524.319 59.1477 525.458 57.887C526.597 56.5857 527.959 55.203 529.545 53.739C531.172 52.275 532.839 50.6687 534.547 48.92C536.255 47.1307 537.658 45.1177 538.756 42.881C539.244 41.9457 539.691 40.868 540.098 39.648C540.505 38.3873 540.688 37.208 540.647 36.11C540.647 35.012 540.322 34.0767 539.671 33.304C539.02 32.5313 537.882 32.145 536.255 32.145C535.279 32.145 534.323 32.328 533.388 32.694C532.453 33.06 531.619 33.5683 530.887 34.219C530.196 34.829 529.626 35.5813 529.179 36.476C528.772 37.33 528.569 38.2653 528.569 39.282C528.569 39.9327 528.671 40.5427 528.874 41.112C529.077 41.6407 529.281 42.1693 529.484 42.698C529.728 43.2267 529.952 43.7553 530.155 44.284C530.358 44.772 530.46 45.321 530.46 45.931C530.46 47.2323 529.992 48.2897 529.057 49.103C528.122 49.9163 527.044 50.323 525.824 50.323C524.482 50.323 523.221 49.9367 522.042 49.164C520.903 48.3507 519.927 47.3543 519.114 46.175C518.301 44.955 517.65 43.6537 517.162 42.271C516.715 40.8883 516.491 39.587 516.491 38.367C516.491 35.6423 517.06 33.1617 518.199 30.925C519.338 28.6883 520.842 26.777 522.713 25.191C524.584 23.5643 526.739 22.3037 529.179 21.409C531.619 20.5143 534.12 20.067 536.682 20.067C538.797 20.067 540.83 20.3923 542.782 21.043C544.734 21.653 546.462 22.568 547.967 23.788C549.512 25.008 550.732 26.5127 551.627 28.302C552.562 30.0913 553.03 32.1247 553.03 34.402C553.03 35.988 552.847 37.574 552.481 39.16C552.115 40.746 551.607 42.3117 550.956 43.857C550.346 45.4023 549.614 46.8867 548.76 48.31C547.906 49.7333 547.011 51.055 546.076 52.275C545.71 52.7223 545.324 53.19 544.917 53.678C544.551 54.1253 544.287 54.6337 544.124 55.203Z" fill="white"/>
<rect x="876" width="120" height="80" rx="5" fill="black"/>
<path d="M915.838 20.25C919.213 20.25 922.06 20.6363 924.378 21.409C926.737 22.141 928.628 23.3 930.051 24.886C931.515 26.4313 932.572 28.4037 933.223 30.803C933.874 33.2023 934.199 36.049 934.199 39.343C934.199 41.2137 934.036 43.186 933.711 45.26C933.426 47.2933 932.959 49.3063 932.308 51.299C931.657 53.251 930.824 55.1217 929.807 56.911C928.79 58.7003 927.591 60.266 926.208 61.608C924.825 62.95 923.219 64.0277 921.389 64.841C919.559 65.6137 917.526 66 915.289 66C912.076 66 909.23 65.3493 906.749 64.048C904.309 62.7467 902.255 61.0387 900.588 58.924C898.961 56.7687 897.721 54.3083 896.867 51.543C896.054 48.7777 895.647 45.931 895.647 43.003C895.647 39.9937 896.094 37.1267 896.989 34.402C897.884 31.6367 899.185 29.217 900.893 27.143C902.642 25.0283 904.756 23.361 907.237 22.141C909.758 20.8803 912.625 20.25 915.838 20.25ZM925.903 39.343C925.903 38.3263 925.822 37.3503 925.659 36.415C925.537 35.439 925.273 34.6053 924.866 33.914C924.459 33.2227 923.91 32.6737 923.219 32.267C922.528 31.8197 921.613 31.596 920.474 31.596C918.563 31.596 916.834 32.0027 915.289 32.816C913.744 33.5887 912.422 34.646 911.324 35.988C910.226 37.2893 909.372 38.794 908.762 40.502C908.193 42.1693 907.908 43.918 907.908 45.748C907.908 47.09 908.05 48.3507 908.335 49.53C908.62 50.7093 909.067 51.726 909.677 52.58C910.328 53.434 911.161 54.1253 912.178 54.654C913.235 55.142 914.516 55.386 916.021 55.386C917.851 55.386 919.396 54.837 920.657 53.739C921.918 52.6003 922.934 51.2177 923.707 49.591C924.48 47.9237 925.029 46.175 925.354 44.345C925.72 42.4743 925.903 40.807 925.903 39.343ZM961.549 40.441C962.525 41.2137 963.481 42.0473 964.416 42.942C965.392 43.8367 966.246 44.8127 966.978 45.87C967.71 46.8867 968.3 47.9847 968.747 49.164C969.235 50.3027 969.479 51.543 969.479 52.885C969.479 55.4063 968.828 57.5617 967.527 59.351C966.266 61.1403 964.66 62.6043 962.708 63.743C960.756 64.8817 958.601 65.7153 956.242 66.244C953.924 66.7727 951.728 67.037 949.654 67.037C948.637 67.037 947.519 66.8743 946.299 66.549C945.12 66.2643 944.022 65.817 943.005 65.207C941.988 64.597 941.134 63.8243 940.443 62.889C939.792 61.9537 939.467 60.876 939.467 59.656C939.467 58.0293 939.874 56.8703 940.687 56.179C941.541 55.447 942.578 54.9793 943.798 54.776C945.018 54.532 946.299 54.4507 947.641 54.532C948.983 54.6133 950.142 54.654 951.118 54.654C953.233 54.654 954.859 54.227 955.998 53.373C957.177 52.4783 957.808 51.5227 957.889 50.506C957.97 49.4487 957.523 48.493 956.547 47.639C955.571 46.7443 954.026 46.297 951.911 46.297C951.26 46.297 950.63 46.3987 950.02 46.602C949.451 46.7647 948.82 46.846 948.129 46.846C947.519 46.846 946.95 46.724 946.421 46.48C945.892 46.236 945.404 45.9107 944.957 45.504C944.55 45.0567 944.225 44.5483 943.981 43.979C943.737 43.4097 943.615 42.82 943.615 42.21C943.615 41.478 943.92 40.9087 944.53 40.502C945.14 40.0547 945.872 39.648 946.726 39.282C947.58 38.916 948.454 38.5093 949.349 38.062C950.284 37.574 951.037 36.903 951.606 36.049C951.85 35.6423 952.074 35.1747 952.277 34.646C952.521 34.1173 952.643 33.6293 952.643 33.182C952.643 32.694 952.48 32.2873 952.155 31.962C951.87 31.6367 951.342 31.474 950.569 31.474C949.308 31.474 948.332 31.7383 947.641 32.267C946.99 32.755 946.421 33.304 945.933 33.914C945.445 34.4833 944.957 35.0323 944.469 35.561C943.981 36.049 943.31 36.293 942.456 36.293C941.155 36.293 940.179 35.8253 939.528 34.89C938.918 33.9547 938.613 32.9177 938.613 31.779C938.613 29.949 939.081 28.3223 940.016 26.899C940.951 25.435 942.131 24.215 943.554 23.239C945.018 22.2223 946.604 21.4497 948.312 20.921C950.061 20.3923 951.728 20.128 953.314 20.128C954.9 20.128 956.405 20.3517 957.828 20.799C959.292 21.2463 960.593 21.9173 961.732 22.812C962.871 23.666 963.765 24.7437 964.416 26.045C965.107 27.3463 965.453 28.851 965.453 30.559C965.453 31.535 965.331 32.45 965.087 33.304C964.843 34.158 964.518 34.9917 964.111 35.805C963.745 36.5777 963.318 37.3503 962.83 38.123C962.383 38.855 961.956 39.6277 961.549 40.441Z" fill="white"/>
<line x1="116" y1="38.5" x2="454" y2="38.5" stroke="black" stroke-dasharray="12 12"/>
<line x1="558.002" y1="38.5" x2="880.001" y2="39.5455" stroke="black" stroke-dasharray="12 12"/>
</svg>
