<svg width="186" height="31" viewBox="0 0 186 31" fill="none" xmlns="http://www.w3.org/2000/svg">
<g filter="url(#filter0_d_60_42)">
<path d="M5.325 7.55C5.025 7.28333 4.75833 7.025 4.525 6.775C4.29167 6.525 4.175 6.18333 4.175 5.75C4.175 5.31667 4.34167 4.94167 4.675 4.625C5.025 4.30833 5.46667 4.04167 6 3.825C6.55 3.59167 7.15 3.40833 7.8 3.275C8.46667 3.125 9.11667 3.01667 9.75 2.95C10.4 2.86667 11 2.80833 11.55 2.775C12.1 2.74167 12.5333 2.725 12.85 2.725C14.0667 2.725 15.2 2.86667 16.25 3.15C17.3167 3.43333 18.2417 3.88333 19.025 4.5C19.8083 5.1 20.425 5.88333 20.875 6.85C21.325 7.8 21.55 8.94167 21.55 10.275C21.55 10.925 21.45 11.5667 21.25 12.2C21.05 12.8167 20.7667 13.3917 20.4 13.925C19.8 14.825 19.075 15.5 18.225 15.95C17.3917 16.4 16.5 16.7167 15.55 16.9C14.6 17.0833 13.6167 17.175 12.6 17.175C11.5833 17.175 10.6 17.175 9.65 17.175C9.56667 17.425 9.50833 17.725 9.475 18.075C9.45833 18.4083 9.43333 18.7583 9.4 19.125C9.38333 19.4917 9.35 19.8583 9.3 20.225C9.25 20.5917 9.15833 20.925 9.025 21.225C8.89167 21.5083 8.7 21.7417 8.45 21.925C8.2 22.0917 7.875 22.175 7.475 22.175C7.025 22.175 6.64167 22.0167 6.325 21.7C6.025 21.3833 5.76667 20.975 5.55 20.475C5.35 19.975 5.19167 19.4167 5.075 18.8C4.95833 18.1833 4.86667 17.575 4.8 16.975C4.75 16.3583 4.71667 15.7917 4.7 15.275C4.68333 14.7417 4.675 14.3167 4.675 14C4.675 12.9 4.73333 11.8167 4.85 10.75C4.96667 9.68333 5.125 8.61667 5.325 7.55ZM9.55 11.875C10 11.975 10.45 12.0417 10.9 12.075C11.3667 12.1083 11.8333 12.125 12.3 12.125C12.65 12.125 13.0583 12.125 13.525 12.125C13.9917 12.125 14.4333 12.075 14.85 11.975C15.2667 11.8583 15.6167 11.6667 15.9 11.4C16.2 11.1333 16.35 10.7417 16.35 10.225C16.35 9.65833 16.225 9.2 15.975 8.85C15.7417 8.48333 15.425 8.20833 15.025 8.025C14.6417 7.825 14.2 7.69167 13.7 7.625C13.2167 7.55833 12.7167 7.53333 12.2 7.55C11.6833 7.56667 11.175 7.60833 10.675 7.675C10.1917 7.725 9.75833 7.76667 9.375 7.8C9.40833 8.48333 9.43333 9.16667 9.45 9.85C9.48333 10.5167 9.51667 11.1917 9.55 11.875ZM27.9818 6.975C27.6485 6.925 27.2485 6.88333 26.7818 6.85C26.3318 6.8 25.8985 6.71667 25.4818 6.6C25.0652 6.46667 24.7152 6.275 24.4318 6.025C24.1485 5.75833 24.0068 5.39167 24.0068 4.925C24.0068 4.45833 24.1318 4.075 24.3818 3.775C24.6318 3.475 24.9568 3.24167 25.3568 3.075C25.7568 2.89167 26.2068 2.75833 26.7068 2.675C27.2068 2.59167 27.7068 2.54167 28.2068 2.525C28.7235 2.49167 29.2068 2.48333 29.6568 2.5C30.1068 2.5 30.4902 2.5 30.8068 2.5C31.1568 2.5 31.5985 2.48333 32.1318 2.45C32.6818 2.41667 33.2068 2.44167 33.7068 2.525C34.2068 2.59167 34.6402 2.74167 35.0068 2.975C35.3735 3.20833 35.5568 3.6 35.5568 4.15C35.5568 4.58333 35.4152 4.95 35.1318 5.25C34.8652 5.53333 34.5402 5.76667 34.1568 5.95C33.7735 6.13333 33.3568 6.28333 32.9068 6.4C32.4735 6.5 32.0985 6.58333 31.7818 6.65C31.8152 7.4 31.8485 8.15 31.8818 8.9C31.9318 9.63333 31.9568 10.375 31.9568 11.125C31.9568 11.6083 31.9485 12.1 31.9318 12.6C31.9318 13.0833 31.9235 13.5667 31.9068 14.05C31.8902 14.6833 31.8235 15.3083 31.7068 15.925C31.5902 16.525 31.5318 17.1417 31.5318 17.775C31.8652 17.8583 32.2652 17.9583 32.7318 18.075C33.2152 18.1917 33.6735 18.35 34.1068 18.55C34.5568 18.7333 34.9402 18.975 35.2568 19.275C35.5735 19.5583 35.7318 19.925 35.7318 20.375C35.7318 20.775 35.6318 21.1 35.4318 21.35C35.2318 21.5833 34.9652 21.7667 34.6318 21.9C34.3152 22.0167 33.9485 22.0917 33.5318 22.125C33.1318 22.175 32.7235 22.2 32.3068 22.2C31.9068 22.2 31.5152 22.1833 31.1318 22.15C30.7652 22.1333 30.4485 22.125 30.1818 22.125C29.8652 22.125 29.4818 22.1333 29.0318 22.15C28.5818 22.1667 28.0985 22.1667 27.5818 22.15C27.0818 22.15 26.5818 22.1167 26.0818 22.05C25.5818 21.9833 25.1318 21.8667 24.7318 21.7C24.3485 21.5333 24.0318 21.3 23.7818 21C23.5318 20.6833 23.4068 20.2833 23.4068 19.8C23.4068 19.2333 23.5568 18.8 23.8568 18.5C24.1735 18.2 24.5485 17.975 24.9818 17.825C25.4318 17.675 25.9068 17.5833 26.4068 17.55C26.9235 17.5167 27.3818 17.4833 27.7818 17.45C27.8652 16.7 27.8818 15.9667 27.8318 15.25C27.7985 14.5333 27.7818 13.8 27.7818 13.05C27.7818 12.0333 27.8068 11.025 27.8568 10.025C27.9068 9.00833 27.9485 7.99167 27.9818 6.975ZM37.7484 7.225C37.7484 6.875 37.6651 6.55833 37.4984 6.275C37.3484 5.99167 37.2734 5.68333 37.2734 5.35C37.2734 4.9 37.4234 4.51667 37.7234 4.2C38.0234 3.86667 38.4068 3.6 38.8734 3.4C39.3568 3.18333 39.8901 3.01667 40.4734 2.9C41.0568 2.76667 41.6318 2.66667 42.1984 2.6C42.7818 2.53333 43.3234 2.49167 43.8234 2.475C44.3234 2.45833 44.7318 2.45 45.0484 2.45C46.4484 2.45 47.6984 2.7 48.7984 3.2C49.9151 3.7 50.8568 4.38333 51.6234 5.25C52.3901 6.11667 52.9734 7.14167 53.3734 8.325C53.7901 9.49167 53.9984 10.7583 53.9984 12.125C53.9984 13.6083 53.6984 14.9833 53.0984 16.25C52.4984 17.5 51.6901 18.5833 50.6734 19.5C49.6734 20.4 48.4984 21.1083 47.1484 21.625C45.8151 22.1417 44.4068 22.4 42.9234 22.4C42.4901 22.4 42.0484 22.35 41.5984 22.25C41.1651 22.15 40.7484 22.0167 40.3484 21.85C39.8318 21.65 39.4234 21.375 39.1234 21.025C38.8234 20.675 38.6651 20.225 38.6484 19.675C38.6318 18.525 38.5734 17.4167 38.4734 16.35C38.3734 15.2833 38.2651 14.2417 38.1484 13.225C38.0484 12.2083 37.9568 11.2083 37.8734 10.225C37.7901 9.225 37.7484 8.225 37.7484 7.225ZM42.2234 6.9C42.4068 8.63333 42.5651 10.3667 42.6984 12.1C42.8318 13.8333 42.8734 15.575 42.8234 17.325L42.9484 17.6C43.8484 17.5167 44.6651 17.4167 45.3984 17.3C46.1484 17.1833 46.7901 16.9667 47.3234 16.65C47.8568 16.3333 48.2651 15.875 48.5484 15.275C48.8484 14.6583 48.9984 13.8167 48.9984 12.75C48.9984 11.6333 48.8484 10.6583 48.5484 9.825C48.2651 8.975 47.8318 8.29167 47.2484 7.775C46.6818 7.25833 45.9734 6.925 45.1234 6.775C44.2901 6.60833 43.3234 6.65 42.2234 6.9ZM74.599 12.625C74.599 13.9417 74.399 15.1917 73.999 16.375C73.599 17.5583 73.0157 18.6 72.249 19.5C71.499 20.4 70.5657 21.1167 69.449 21.65C68.3324 22.1667 67.049 22.425 65.599 22.425C64.0657 22.425 62.7074 22.1917 61.524 21.725C60.3407 21.2583 59.3407 20.6 58.524 19.75C57.724 18.9 57.1157 17.8917 56.699 16.725C56.2824 15.5417 56.074 14.25 56.074 12.85C56.074 11.0333 56.474 9.40833 57.274 7.975C58.074 6.54167 59.2824 5.34167 60.899 4.375C61.2824 4.15833 61.724 3.975 62.224 3.825C62.724 3.675 63.2407 3.56667 63.774 3.5C64.3074 3.41667 64.8407 3.35833 65.374 3.325C65.9074 3.29167 66.399 3.275 66.849 3.275C68.1824 3.275 69.374 3.56667 70.424 4.15C71.4907 4.73333 72.4157 5.51667 73.199 6.5C73.5157 6.88333 73.7657 7.33333 73.949 7.85C74.1324 8.35 74.274 8.875 74.374 9.425C74.474 9.975 74.5324 10.5333 74.549 11.1C74.5824 11.65 74.599 12.1583 74.599 12.625ZM67.099 8.25C66.4657 8.25 65.8657 8.29167 65.299 8.375C64.7324 8.45833 64.2157 8.61667 63.749 8.85C63.299 9.06667 62.899 9.375 62.549 9.775C62.199 10.175 61.924 10.6833 61.724 11.3C61.5907 11.7 61.4574 12.1083 61.324 12.525C61.2074 12.925 61.149 13.3417 61.149 13.775C61.149 15.275 61.5074 16.3833 62.224 17.1C62.9574 17.8 64.1157 18.15 65.699 18.15C66.5657 18.15 67.2824 18.075 67.849 17.925C68.4157 17.775 68.874 17.5333 69.224 17.2C69.5907 16.85 69.874 16.4167 70.074 15.9C70.274 15.3667 70.4407 14.725 70.574 13.975C70.6907 13.225 70.7574 12.5083 70.774 11.825C70.8074 11.125 70.7157 10.5167 70.499 10C70.2824 9.46667 69.9074 9.04167 69.374 8.725C68.8574 8.40833 68.099 8.25 67.099 8.25ZM86.7539 14C86.9039 12.8667 86.9789 11.7833 86.9789 10.75C86.9789 9.71667 86.9789 8.64167 86.9789 7.525C86.9789 7.05833 87.0122 6.58333 87.0789 6.1C87.1456 5.61667 87.2706 5.18333 87.4539 4.8C87.6539 4.4 87.9206 4.075 88.2539 3.825C88.6039 3.575 89.0622 3.45 89.6289 3.45C90.1289 3.45 90.5456 3.575 90.8789 3.825C91.2122 4.075 91.4789 4.4 91.6789 4.8C91.8789 5.18333 92.0206 5.60833 92.1039 6.075C92.1872 6.54167 92.2289 6.98333 92.2289 7.4C92.2289 7.76667 92.1956 8.33333 92.1289 9.1C92.0789 9.86667 92.0122 10.7333 91.9289 11.7C91.8456 12.65 91.7456 13.6417 91.6289 14.675C91.5289 15.6917 91.4206 16.6417 91.3039 17.525C91.1872 18.4083 91.0789 19.1667 90.9789 19.8C90.8956 20.4167 90.8206 20.8 90.7539 20.95C90.5872 21.3667 90.3372 21.7167 90.0039 22C89.6706 22.2667 89.2789 22.4 88.8289 22.4C88.5789 22.4 88.3372 22.35 88.1039 22.25C87.8872 22.1667 87.6789 22.0583 87.4789 21.925C87.3289 21.8083 87.0872 21.5417 86.7539 21.125C86.4372 20.6917 86.0789 20.1833 85.6789 19.6C85.2789 19 84.8539 18.3667 84.4039 17.7C83.9539 17.0167 83.5122 16.3583 83.0789 15.725C82.6622 15.075 82.2789 14.4917 81.9289 13.975C81.5956 13.4417 81.3289 13.0417 81.1289 12.775C81.1122 13.0583 81.0956 13.4417 81.0789 13.925C81.0789 14.3917 81.0706 14.9083 81.0539 15.475C81.0539 16.025 81.0456 16.6 81.0289 17.2C81.0122 17.7833 80.9872 18.35 80.9539 18.9C80.9206 19.4333 80.8789 19.9083 80.8289 20.325C80.7789 20.7417 80.7122 21.0583 80.6289 21.275C80.4956 21.6083 80.2956 21.8667 80.0289 22.05C79.7789 22.25 79.4789 22.35 79.1289 22.35C78.3622 22.35 77.8289 21.9833 77.5289 21.25C77.4456 21.0667 77.3706 20.65 77.3039 20C77.2539 19.35 77.1956 18.575 77.1289 17.675C77.0789 16.7583 77.0289 15.7833 76.9789 14.75C76.9456 13.7167 76.9122 12.7333 76.8789 11.8C76.8456 10.85 76.8206 10.0083 76.8039 9.275C76.7872 8.525 76.7789 8 76.7789 7.7C76.7789 7.28333 76.8039 6.85 76.8539 6.4C76.9206 5.93333 77.0372 5.51667 77.2039 5.15C77.3872 4.76667 77.6289 4.45 77.9289 4.2C78.2456 3.95 78.6539 3.825 79.1539 3.825C79.9872 3.825 80.6289 4.225 81.0789 5.025C81.1789 5.175 81.2622 5.325 81.3289 5.475C81.3956 5.625 81.4706 5.76667 81.5539 5.9C82.2539 7.36667 83.0622 8.75833 83.9789 10.075C84.8956 11.375 85.8206 12.6833 86.7539 14ZM112.465 12.625C112.465 13.9417 112.265 15.1917 111.865 16.375C111.465 17.5583 110.882 18.6 110.115 19.5C109.365 20.4 108.432 21.1167 107.315 21.65C106.199 22.1667 104.915 22.425 103.465 22.425C101.932 22.425 100.574 22.1917 99.3902 21.725C98.2069 21.2583 97.2069 20.6 96.3902 19.75C95.5902 18.9 94.9819 17.8917 94.5652 16.725C94.1486 15.5417 93.9402 14.25 93.9402 12.85C93.9402 11.0333 94.3402 9.40833 95.1402 7.975C95.9402 6.54167 97.1486 5.34167 98.7652 4.375C99.1486 4.15833 99.5902 3.975 100.09 3.825C100.59 3.675 101.107 3.56667 101.64 3.5C102.174 3.41667 102.707 3.35833 103.24 3.325C103.774 3.29167 104.265 3.275 104.715 3.275C106.049 3.275 107.24 3.56667 108.29 4.15C109.357 4.73333 110.282 5.51667 111.065 6.5C111.382 6.88333 111.632 7.33333 111.815 7.85C111.999 8.35 112.14 8.875 112.24 9.425C112.34 9.975 112.399 10.5333 112.415 11.1C112.449 11.65 112.465 12.1583 112.465 12.625ZM104.965 8.25C104.332 8.25 103.732 8.29167 103.165 8.375C102.599 8.45833 102.082 8.61667 101.615 8.85C101.165 9.06667 100.765 9.375 100.415 9.775C100.065 10.175 99.7902 10.6833 99.5902 11.3C99.4569 11.7 99.3236 12.1083 99.1902 12.525C99.0736 12.925 99.0152 13.3417 99.0152 13.775C99.0152 15.275 99.3736 16.3833 100.09 17.1C100.824 17.8 101.982 18.15 103.565 18.15C104.432 18.15 105.149 18.075 105.715 17.925C106.282 17.775 106.74 17.5333 107.09 17.2C107.457 16.85 107.74 16.4167 107.94 15.9C108.14 15.3667 108.307 14.725 108.44 13.975C108.557 13.225 108.624 12.5083 108.64 11.825C108.674 11.125 108.582 10.5167 108.365 10C108.149 9.46667 107.774 9.04167 107.24 8.725C106.724 8.40833 105.965 8.25 104.965 8.25ZM124.195 13.575C124.395 13.1417 124.62 12.6333 124.87 12.05C125.137 11.45 125.42 10.825 125.72 10.175C126.02 9.50833 126.328 8.83333 126.645 8.15C126.962 7.45 127.278 6.79167 127.595 6.175C127.928 5.54167 128.245 4.96667 128.545 4.45C128.862 3.91667 129.153 3.475 129.42 3.125C129.653 2.84167 129.928 2.625 130.245 2.475C130.562 2.325 130.895 2.25 131.245 2.25C131.828 2.25 132.328 2.39167 132.745 2.675C133.162 2.95833 133.445 3.39167 133.595 3.975C133.645 4.19167 133.695 4.625 133.745 5.275C133.795 5.925 133.837 6.69167 133.87 7.575C133.903 8.44167 133.937 9.38333 133.97 10.4C134.003 11.4 134.028 12.3583 134.045 13.275C134.062 14.175 134.07 14.9917 134.07 15.725C134.087 16.4583 134.095 16.9833 134.095 17.3C134.095 17.7 134.078 18.175 134.045 18.725C134.028 19.275 133.945 19.8 133.795 20.3C133.662 20.8 133.437 21.225 133.12 21.575C132.82 21.925 132.395 22.1 131.845 22.1C131.312 22.1 130.887 21.9417 130.57 21.625C130.253 21.2917 130.012 20.875 129.845 20.375C129.695 19.8583 129.595 19.2833 129.545 18.65C129.495 18.0167 129.478 17.3917 129.495 16.775C129.512 16.1417 129.537 15.55 129.57 15C129.62 14.45 129.645 14 129.645 13.65C129.645 13.4667 129.637 13.275 129.62 13.075C129.62 12.875 129.612 12.6833 129.595 12.5C129.295 12.95 128.945 13.55 128.545 14.3C128.145 15.05 127.703 15.7833 127.22 16.5C126.753 17.2167 126.245 17.8417 125.695 18.375C125.162 18.8917 124.595 19.15 123.995 19.15C123.512 19.15 123.062 18.975 122.645 18.625C122.228 18.275 121.845 17.8583 121.495 17.375C121.145 16.875 120.82 16.3583 120.52 15.825C120.237 15.2917 119.987 14.8417 119.77 14.475C119.703 14.775 119.662 15.1667 119.645 15.65C119.645 16.1333 119.628 16.6583 119.595 17.225C119.578 17.775 119.537 18.3333 119.47 18.9C119.42 19.4667 119.32 19.9833 119.17 20.45C119.037 20.9 118.837 21.2667 118.57 21.55C118.303 21.8333 117.953 21.975 117.52 21.975C116.603 21.975 116.003 21.5167 115.72 20.6C115.57 20.1167 115.437 19.5083 115.32 18.775C115.22 18.0417 115.128 17.2417 115.045 16.375C114.978 15.5083 114.92 14.6167 114.87 13.7C114.837 12.7667 114.803 11.8583 114.77 10.975C114.753 10.0917 114.737 9.26667 114.72 8.5C114.72 7.71667 114.72 7.05 114.72 6.5C114.72 6.05 114.762 5.61667 114.845 5.2C114.928 4.76667 115.07 4.38333 115.27 4.05C115.47 3.71667 115.737 3.45 116.07 3.25C116.42 3.05 116.862 2.95 117.395 2.95C117.928 2.95 118.378 3.08333 118.745 3.35C119.128 3.61667 119.437 3.98333 119.67 4.45C119.97 5.05 120.303 5.775 120.67 6.625C121.053 7.45833 121.445 8.31667 121.845 9.2C122.262 10.0667 122.67 10.8917 123.07 11.675C123.47 12.4583 123.845 13.0917 124.195 13.575ZM140.702 6.975C140.368 6.925 139.968 6.88333 139.502 6.85C139.052 6.8 138.618 6.71667 138.202 6.6C137.785 6.46667 137.435 6.275 137.152 6.025C136.868 5.75833 136.727 5.39167 136.727 4.925C136.727 4.45833 136.852 4.075 137.102 3.775C137.352 3.475 137.677 3.24167 138.077 3.075C138.477 2.89167 138.927 2.75833 139.427 2.675C139.927 2.59167 140.427 2.54167 140.927 2.525C141.443 2.49167 141.927 2.48333 142.377 2.5C142.827 2.5 143.21 2.5 143.527 2.5C143.877 2.5 144.318 2.48333 144.852 2.45C145.402 2.41667 145.927 2.44167 146.427 2.525C146.927 2.59167 147.36 2.74167 147.727 2.975C148.093 3.20833 148.277 3.6 148.277 4.15C148.277 4.58333 148.135 4.95 147.852 5.25C147.585 5.53333 147.26 5.76667 146.877 5.95C146.493 6.13333 146.077 6.28333 145.627 6.4C145.193 6.5 144.818 6.58333 144.502 6.65C144.535 7.4 144.568 8.15 144.602 8.9C144.652 9.63333 144.677 10.375 144.677 11.125C144.677 11.6083 144.668 12.1 144.652 12.6C144.652 13.0833 144.643 13.5667 144.627 14.05C144.61 14.6833 144.543 15.3083 144.427 15.925C144.31 16.525 144.252 17.1417 144.252 17.775C144.585 17.8583 144.985 17.9583 145.452 18.075C145.935 18.1917 146.393 18.35 146.827 18.55C147.277 18.7333 147.66 18.975 147.977 19.275C148.293 19.5583 148.452 19.925 148.452 20.375C148.452 20.775 148.352 21.1 148.152 21.35C147.952 21.5833 147.685 21.7667 147.352 21.9C147.035 22.0167 146.668 22.0917 146.252 22.125C145.852 22.175 145.443 22.2 145.027 22.2C144.627 22.2 144.235 22.1833 143.852 22.15C143.485 22.1333 143.168 22.125 142.902 22.125C142.585 22.125 142.202 22.1333 141.752 22.15C141.302 22.1667 140.818 22.1667 140.302 22.15C139.802 22.15 139.302 22.1167 138.802 22.05C138.302 21.9833 137.852 21.8667 137.452 21.7C137.068 21.5333 136.752 21.3 136.502 21C136.252 20.6833 136.127 20.2833 136.127 19.8C136.127 19.2333 136.277 18.8 136.577 18.5C136.893 18.2 137.268 17.975 137.702 17.825C138.152 17.675 138.627 17.5833 139.127 17.55C139.643 17.5167 140.102 17.4833 140.502 17.45C140.585 16.7 140.602 15.9667 140.552 15.25C140.518 14.5333 140.502 13.8 140.502 13.05C140.502 12.0333 140.527 11.025 140.577 10.025C140.627 9.00833 140.668 7.99167 140.702 6.975ZM160.743 3.65C161.243 3.65 161.826 3.7 162.493 3.8C163.176 3.88333 163.826 4.04167 164.443 4.275C165.06 4.50833 165.585 4.84167 166.018 5.275C166.451 5.69167 166.668 6.23333 166.668 6.9C166.668 7.21667 166.61 7.51667 166.493 7.8C166.393 8.06667 166.243 8.30833 166.043 8.525C165.843 8.725 165.61 8.88333 165.343 9C165.076 9.11667 164.785 9.175 164.468 9.175C164.135 9.175 163.793 9.15 163.443 9.1C163.093 9.05 162.735 8.99167 162.368 8.925C161.668 8.80833 160.901 8.825 160.068 8.975C159.251 9.125 158.476 9.40833 157.743 9.825C157.026 10.2417 156.426 10.7917 155.943 11.475C155.46 12.1417 155.218 12.95 155.218 13.9C155.218 14.3833 155.31 14.8417 155.493 15.275C155.676 15.6917 155.926 16.0583 156.243 16.375C156.576 16.6917 156.951 16.9417 157.368 17.125C157.801 17.2917 158.26 17.375 158.743 17.375C159.243 17.375 159.726 17.3167 160.193 17.2C160.676 17.0667 161.143 16.9333 161.593 16.8C162.06 16.65 162.501 16.5167 162.918 16.4C163.351 16.2667 163.768 16.2 164.168 16.2C164.518 16.2 164.851 16.2667 165.168 16.4C165.485 16.5333 165.76 16.7167 165.993 16.95C166.243 17.1667 166.435 17.4333 166.568 17.75C166.701 18.05 166.768 18.3833 166.768 18.75C166.768 19.2667 166.626 19.7083 166.343 20.075C166.076 20.425 165.726 20.7167 165.293 20.95C164.86 21.1833 164.36 21.3667 163.793 21.5C163.243 21.6167 162.685 21.7083 162.118 21.775C161.551 21.825 161.001 21.8583 160.468 21.875C159.951 21.875 159.51 21.875 159.143 21.875C157.943 21.875 156.793 21.675 155.693 21.275C154.61 20.8583 153.651 20.2833 152.818 19.55C151.985 18.8167 151.318 17.9333 150.818 16.9C150.335 15.85 150.093 14.7 150.093 13.45C150.093 12.0333 150.393 10.725 150.993 9.525C151.61 8.325 152.41 7.29167 153.393 6.425C154.393 5.55833 155.526 4.88333 156.793 4.4C158.076 3.9 159.393 3.65 160.743 3.65ZM177.219 21.85C176.352 22.05 175.452 22.1333 174.519 22.1C173.585 22.0833 172.669 22.0583 171.769 22.025C171.385 22.0083 171.019 21.9417 170.669 21.825C170.319 21.6917 170.002 21.5167 169.719 21.3C169.452 21.0833 169.235 20.825 169.069 20.525C168.919 20.2083 168.852 19.8583 168.869 19.475C168.885 19.1417 168.977 18.8333 169.144 18.55C169.31 18.2667 169.519 18.025 169.769 17.825C170.035 17.625 170.327 17.4667 170.644 17.35C170.977 17.2333 171.319 17.1833 171.669 17.2C172.102 17.2167 172.51 17.2917 172.894 17.425C173.277 17.5583 173.685 17.6417 174.119 17.675C174.285 17.675 174.477 17.6667 174.694 17.65C174.927 17.6167 175.135 17.5667 175.319 17.5C175.519 17.4167 175.685 17.3083 175.819 17.175C175.952 17.0417 176.019 16.8667 176.019 16.65C176.052 16.1 175.885 15.6417 175.519 15.275C175.152 14.9083 174.685 14.575 174.119 14.275C173.552 13.975 172.935 13.6667 172.269 13.35C171.619 13.0333 171.019 12.65 170.469 12.2C169.919 11.75 169.469 11.1917 169.119 10.525C168.769 9.85833 168.619 9.01667 168.669 8C168.719 7.03333 168.927 6.2 169.294 5.5C169.677 4.8 170.185 4.225 170.819 3.775C171.452 3.325 172.194 3 173.044 2.8C173.894 2.6 174.81 2.51667 175.794 2.55C176.377 2.58333 177.01 2.7 177.694 2.9C178.377 3.1 179.002 3.38333 179.569 3.75C180.152 4.11667 180.627 4.55833 180.994 5.075C181.377 5.575 181.552 6.14167 181.519 6.775C181.502 7.00833 181.444 7.23333 181.344 7.45C181.244 7.65 181.102 7.83333 180.919 8C180.752 8.16667 180.552 8.3 180.319 8.4C180.102 8.48333 179.86 8.51667 179.594 8.5C179.344 8.48333 179.102 8.425 178.869 8.325C178.635 8.225 178.385 8.125 178.119 8.025C177.869 7.90833 177.594 7.8 177.294 7.7C177.01 7.6 176.685 7.54167 176.319 7.525C175.635 7.49167 175.077 7.55 174.644 7.7C174.227 7.83333 173.935 8.025 173.769 8.275C173.602 8.50833 173.569 8.775 173.669 9.075C173.769 9.375 174.01 9.65833 174.394 9.925C174.677 10.125 174.977 10.3 175.294 10.45C175.61 10.5833 175.927 10.7083 176.244 10.825C176.56 10.9417 176.877 11.0583 177.194 11.175C177.527 11.275 177.852 11.4 178.169 11.55C178.985 11.9333 179.652 12.4333 180.169 13.05C180.702 13.65 181.085 14.3 181.319 15C181.569 15.7 181.66 16.4167 181.594 17.15C181.544 17.8833 181.344 18.5667 180.994 19.2C180.66 19.8333 180.177 20.3917 179.544 20.875C178.91 21.3417 178.135 21.6667 177.219 21.85Z" fill="black"/>
</g>
<defs>
<filter id="filter0_d_60_42" x="0.174988" y="2.25" width="185.519" height="28.175" filterUnits="userSpaceOnUse" color-interpolation-filters="sRGB">
<feFlood flood-opacity="0" result="BackgroundImageFix"/>
<feColorMatrix in="SourceAlpha" type="matrix" values="0 0 0 0 0 0 0 0 0 0 0 0 0 0 0 0 0 0 127 0" result="hardAlpha"/>
<feOffset dy="4"/>
<feGaussianBlur stdDeviation="2"/>
<feComposite in2="hardAlpha" operator="out"/>
<feColorMatrix type="matrix" values="0 0 0 0 0 0 0 0 0 0 0 0 0 0 0 0 0 0 0.25 0"/>
<feBlend mode="normal" in2="BackgroundImageFix" result="effect1_dropShadow_60_42"/>
<feBlend mode="normal" in="SourceGraphic" in2="effect1_dropShadow_60_42" result="shape"/>
</filter>
</defs>
</svg>
