<svg width="920" height="155" viewBox="0 0 920 155" fill="none" xmlns="http://www.w3.org/2000/svg">
<g filter="url(#filter0_d_24_42)">
<rect width="920" height="149" rx="10" fill="white"/>
<rect x="1" y="1" width="918" height="147" rx="9" stroke="black" stroke-width="2"/>
</g>
<path d="M44.32 105.36L41.96 105.38C41.68 105.38 41.3867 105.36 41.08 105.32C40.7733 105.267 40.4933 105.18 40.24 105.06C39.9867 104.94 39.7733 104.773 39.6 104.56C39.44 104.333 39.36 104.04 39.36 103.68C39.36 103.347 39.4467 103.067 39.62 102.84C39.8067 102.613 40.04 102.427 40.32 102.28C40.6133 102.133 40.94 102.02 41.3 101.94C41.66 101.847 42.02 101.787 42.38 101.76C42.7533 101.72 43.1 101.7 43.42 101.7C43.74 101.687 44.0133 101.68 44.24 101.68C44.3467 101.467 44.3933 101.26 44.38 101.06C44.38 100.86 44.3667 100.653 44.34 100.44C44.02 100.44 43.7 100.453 43.38 100.48C43.0733 100.507 42.76 100.52 42.44 100.52C41.9333 100.52 41.4533 100.427 41 100.24C40.5467 100.04 40.1467 99.7733 39.8 99.44C39.4667 99.0933 39.2 98.6933 39 98.24C38.8133 97.7867 38.72 97.3 38.72 96.78C38.72 95.9667 38.92 95.28 39.32 94.72C39.72 94.1467 40.22 93.6733 40.82 93.3C41.4333 92.9133 42.1 92.6067 42.82 92.38C43.5533 92.1533 44.2467 91.98 44.9 91.86C44.94 91.6333 44.9733 91.3467 45 91C45.04 90.6533 45.1067 90.32 45.2 90C45.2933 89.68 45.4267 89.4067 45.6 89.18C45.7867 88.94 46.04 88.82 46.36 88.82C46.7067 88.82 46.98 88.9333 47.18 89.16C47.38 89.3867 47.48 89.6667 47.48 90C47.48 90.2667 47.4533 90.5333 47.4 90.8C47.36 91.0533 47.34 91.3133 47.34 91.58V92C47.5933 92.0933 47.8733 92.2 48.18 92.32C48.5 92.44 48.8 92.5933 49.08 92.78C49.36 92.9533 49.5933 93.1667 49.78 93.42C49.9667 93.6733 50.06 93.9733 50.06 94.32C50.06 94.76 49.96 95.0933 49.76 95.32C49.5733 95.5333 49.3333 95.68 49.04 95.76C48.7467 95.84 48.4267 95.88 48.08 95.88C47.7333 95.88 47.4067 95.88 47.1 95.88C47.0733 96.1467 47.0533 96.4067 47.04 96.66C47.0267 96.9133 47.02 97.1733 47.02 97.44C47.62 97.48 48.2133 97.6 48.8 97.8C49.3867 98 49.9133 98.2867 50.38 98.66C50.8467 99.0333 51.22 99.4867 51.5 100.02C51.7933 100.54 51.94 101.14 51.94 101.82C51.94 102.607 51.7733 103.227 51.44 103.68C51.1067 104.133 50.6867 104.487 50.18 104.74C49.6733 104.98 49.1067 105.147 48.48 105.24C47.8667 105.333 47.2733 105.413 46.7 105.48C46.6867 105.667 46.6733 105.86 46.66 106.06C46.6467 106.26 46.6067 106.44 46.54 106.6C46.4733 106.76 46.3667 106.887 46.22 106.98C46.0867 107.087 45.8933 107.14 45.64 107.14C45.4133 107.14 45.2267 107.08 45.08 106.96C44.9467 106.84 44.8333 106.687 44.74 106.5C44.6467 106.327 44.5667 106.14 44.5 105.94C44.4333 105.727 44.3733 105.533 44.32 105.36ZM44.44 97.82C44.4133 97.5 44.4267 97.1867 44.48 96.88C44.5333 96.5733 44.5133 96.2667 44.42 95.96C44.2733 95.9867 44.0533 96.0333 43.76 96.1C43.48 96.1667 43.1933 96.26 42.9 96.38C42.62 96.4867 42.3667 96.62 42.14 96.78C41.9267 96.9267 41.82 97.0867 41.82 97.26C41.82 97.4867 41.9133 97.68 42.1 97.84C42.3 97.9867 42.5067 98.06 42.72 98.06C42.9867 98.06 43.2733 98.0333 43.58 97.98C43.8867 97.9133 44.1733 97.86 44.44 97.82ZM46.9 100.36C46.8733 100.587 46.8467 100.813 46.82 101.04C46.7933 101.253 46.8333 101.467 46.94 101.68L47.46 101.7C47.8467 101.7 48.0933 101.607 48.2 101.42C48.3067 101.233 48.3133 101.047 48.22 100.86C48.14 100.66 47.98 100.5 47.74 100.38C47.5 100.247 47.22 100.24 46.9 100.36ZM58.2619 104.52C58.2352 104.947 58.2152 105.453 58.2019 106.04C58.1885 106.627 58.1085 107.187 57.9619 107.72C57.8285 108.267 57.6019 108.727 57.2819 109.1C56.9619 109.487 56.4952 109.68 55.8819 109.68C55.4952 109.68 55.1685 109.593 54.9019 109.42C54.6352 109.26 54.4219 109.047 54.2619 108.78C54.1019 108.527 53.9885 108.233 53.9219 107.9C53.8552 107.58 53.8219 107.26 53.8219 106.94C53.8219 106.14 53.8485 105.333 53.9019 104.52C53.9685 103.707 54.0352 102.893 54.1019 102.08C54.1819 101.253 54.2485 100.433 54.3019 99.62C54.3685 98.7933 54.4019 97.9667 54.4019 97.14C54.4019 96.8733 54.3752 96.6133 54.3219 96.36C54.2685 96.1067 54.2419 95.8533 54.2419 95.6C54.2419 95.2933 54.3619 95.02 54.6019 94.78C54.8552 94.5267 55.1752 94.3067 55.5619 94.12C55.9619 93.92 56.4019 93.7533 56.8819 93.62C57.3752 93.4733 57.8552 93.3533 58.3219 93.26C58.8019 93.1667 59.2419 93.1 59.6419 93.06C60.0419 93.0067 60.3619 92.98 60.6019 92.98C61.5085 92.98 62.3419 93.1467 63.1019 93.48C63.8619 93.8 64.5152 94.2533 65.0619 94.84C65.6085 95.4133 66.0352 96.0933 66.3419 96.88C66.6485 97.6533 66.8019 98.4867 66.8019 99.38C66.8019 100.233 66.6752 100.947 66.4219 101.52C66.1685 102.08 65.8285 102.547 65.4019 102.92C64.9752 103.28 64.4752 103.56 63.9019 103.76C63.3419 103.947 62.7419 104.087 62.1019 104.18C61.4752 104.273 60.8285 104.34 60.1619 104.38C59.5085 104.42 58.8752 104.467 58.2619 104.52ZM58.0219 99.64C58.5419 99.6667 59.0685 99.7 59.6019 99.74C60.1352 99.78 60.6619 99.8 61.1819 99.8C61.5685 99.8 61.8419 99.7133 62.0019 99.54C62.1752 99.3533 62.2619 99.0733 62.2619 98.7C62.2619 98.2867 62.1885 97.96 62.0419 97.72C61.8952 97.48 61.6952 97.2933 61.4419 97.16C61.2019 97.0267 60.9219 96.94 60.6019 96.9C60.2952 96.86 59.9752 96.84 59.6419 96.84C59.2952 96.84 58.9485 96.8667 58.6019 96.92C58.2552 96.96 57.9085 97.0133 57.5619 97.08L58.0219 99.64ZM72.6614 104.1C72.6614 104.553 72.5481 104.96 72.3214 105.32C72.0947 105.667 71.7281 105.84 71.2214 105.84C70.7814 105.84 70.4081 105.687 70.1014 105.38C69.8081 105.073 69.5681 104.7 69.3814 104.26C69.1947 103.82 69.0547 103.36 68.9614 102.88C68.8814 102.4 68.8414 101.993 68.8414 101.66C68.8414 101.34 68.8614 100.953 68.9014 100.5C68.9414 100.033 69.0281 99.5933 69.1614 99.18C69.3081 98.7667 69.5081 98.4133 69.7614 98.12C70.0281 97.8267 70.3814 97.68 70.8214 97.68C71.1147 97.68 71.3614 97.7267 71.5614 97.82C71.7614 97.9133 71.9281 98.0467 72.0614 98.22C72.1947 98.38 72.2947 98.5733 72.3614 98.8C72.4414 99.0133 72.5014 99.2467 72.5414 99.5C72.5681 99.7133 72.5881 99.9467 72.6014 100.2C72.6147 100.453 72.6214 100.753 72.6214 101.1C72.6214 101.447 72.6214 101.867 72.6214 102.36C72.6214 102.84 72.6347 103.42 72.6614 104.1ZM72.5614 94.32C72.5614 94.5333 72.5214 94.74 72.4414 94.94C72.3614 95.1267 72.2481 95.3 72.1014 95.46C71.9547 95.6067 71.7814 95.7267 71.5814 95.82C71.3947 95.9 71.1947 95.94 70.9814 95.94C70.7547 95.94 70.5481 95.8933 70.3614 95.8C70.1747 95.7067 70.0081 95.5867 69.8614 95.44C69.7147 95.2933 69.6014 95.12 69.5214 94.92C69.4414 94.72 69.4014 94.5133 69.4014 94.3C69.4014 93.8867 69.5481 93.5267 69.8414 93.22C70.1481 92.9133 70.5147 92.76 70.9414 92.76C71.3947 92.76 71.7747 92.9067 72.0814 93.2C72.4014 93.48 72.5614 93.8533 72.5614 94.32ZM83.6245 93.8C83.6512 93.5467 83.6712 93.26 83.6845 92.94C83.7112 92.6067 83.7445 92.2667 83.7845 91.92C83.8379 91.5733 83.9045 91.24 83.9845 90.92C84.0779 90.5867 84.2045 90.2933 84.3645 90.04C84.5245 89.7733 84.7245 89.56 84.9645 89.4C85.2045 89.24 85.5045 89.16 85.8645 89.16C86.2912 89.16 86.6379 89.2467 86.9045 89.42C87.1712 89.5933 87.3712 89.82 87.5045 90.1C87.6512 90.3667 87.7445 90.6733 87.7845 91.02C87.8379 91.3533 87.8645 91.6933 87.8645 92.04C87.8645 92.8533 87.8579 93.78 87.8445 94.82C87.8312 95.8467 87.7979 96.9 87.7445 97.98C87.7045 99.0467 87.6445 100.093 87.5645 101.12C87.4979 102.133 87.4045 103.027 87.2845 103.8C87.2445 104.053 87.1845 104.267 87.1045 104.44C87.0379 104.6 86.9445 104.733 86.8245 104.84C86.7179 104.947 86.5779 105.04 86.4045 105.12C86.2312 105.187 86.0245 105.247 85.7845 105.3C85.0112 105.473 84.2312 105.647 83.4445 105.82C82.6712 105.993 81.8845 106.08 81.0845 106.08C80.1379 106.08 79.2579 105.94 78.4445 105.66C77.6445 105.367 76.9512 104.947 76.3645 104.4C75.7779 103.853 75.3179 103.193 74.9845 102.42C74.6645 101.633 74.5045 100.747 74.5045 99.76C74.5045 98.8267 74.6645 97.9733 74.9845 97.2C75.3179 96.4267 75.7712 95.7667 76.3445 95.22C76.9179 94.6733 77.5979 94.2467 78.3845 93.94C79.1845 93.6333 80.0445 93.48 80.9645 93.48C81.3912 93.48 81.8045 93.52 82.2045 93.6C82.6179 93.6667 83.0312 93.7533 83.4445 93.86L83.6245 93.8ZM83.5045 97.9C83.1979 97.8333 82.8912 97.7667 82.5845 97.7C82.2912 97.6333 81.9845 97.6 81.6645 97.6C81.2779 97.6 80.8912 97.6333 80.5045 97.7C80.1179 97.7533 79.7712 97.8667 79.4645 98.04C79.1579 98.2 78.9045 98.4267 78.7045 98.72C78.5045 99.0133 78.4045 99.3867 78.4045 99.84C78.4045 100.427 78.4779 100.9 78.6245 101.26C78.7845 101.607 79.0045 101.873 79.2845 102.06C79.5779 102.247 79.9245 102.367 80.3245 102.42C80.7379 102.473 81.1979 102.5 81.7045 102.5C82.0912 102.5 82.4645 102.48 82.8245 102.44C83.1979 102.4 83.5712 102.327 83.9445 102.22L83.5045 97.9ZM96.0631 105.68C95.3298 105.68 94.6098 105.58 93.9031 105.38C93.1965 105.167 92.5231 104.867 91.8831 104.48C91.3765 104.16 90.9698 103.8 90.6631 103.4C90.3565 102.987 90.1165 102.547 89.9431 102.08C89.7831 101.6 89.6765 101.1 89.6231 100.58C89.5698 100.047 89.5431 99.5 89.5431 98.94C89.5431 96.6867 90.1365 94.9667 91.3231 93.78C92.5098 92.58 94.2298 91.98 96.4831 91.98C97.5631 91.98 98.4965 92.18 99.2831 92.58C100.07 92.9667 100.716 93.48 101.223 94.12C101.743 94.76 102.116 95.4933 102.343 96.32C102.583 97.1333 102.683 97.9733 102.643 98.84C102.603 99.6933 102.43 100.533 102.123 101.36C101.83 102.173 101.41 102.9 100.863 103.54C100.316 104.18 99.6365 104.7 98.8231 105.1C98.0231 105.487 97.1031 105.68 96.0631 105.68ZM96.6231 96.04C95.3298 96.04 94.3965 96.3333 93.8231 96.92C93.2631 97.4933 92.9831 98.4267 92.9831 99.72C92.9831 100.227 93.0565 100.633 93.2031 100.94C93.3631 101.247 93.5765 101.487 93.8431 101.66C94.1098 101.82 94.4298 101.933 94.8031 102C95.1765 102.053 95.5831 102.08 96.0231 102.08C96.6498 102.08 97.1898 101.933 97.6431 101.64C98.1098 101.333 98.4698 100.96 98.7231 100.52C98.9898 100.067 99.1498 99.58 99.2031 99.06C99.2698 98.54 99.2231 98.06 99.0631 97.62C98.9031 97.1667 98.6165 96.7933 98.2031 96.5C97.8031 96.1933 97.2765 96.04 96.6231 96.04ZM114.204 104.1C114.204 104.553 114.091 104.96 113.864 105.32C113.638 105.667 113.271 105.84 112.764 105.84C112.324 105.84 111.951 105.687 111.644 105.38C111.351 105.073 111.111 104.7 110.924 104.26C110.738 103.82 110.598 103.36 110.504 102.88C110.424 102.4 110.384 101.993 110.384 101.66C110.384 101.34 110.404 100.953 110.444 100.5C110.484 100.033 110.571 99.5933 110.704 99.18C110.851 98.7667 111.051 98.4133 111.304 98.12C111.571 97.8267 111.924 97.68 112.364 97.68C112.658 97.68 112.904 97.7267 113.104 97.82C113.304 97.9133 113.471 98.0467 113.604 98.22C113.738 98.38 113.838 98.5733 113.904 98.8C113.984 99.0133 114.044 99.2467 114.084 99.5C114.111 99.7133 114.131 99.9467 114.144 100.2C114.158 100.453 114.164 100.753 114.164 101.1C114.164 101.447 114.164 101.867 114.164 102.36C114.164 102.84 114.178 103.42 114.204 104.1ZM114.104 94.32C114.104 94.5333 114.064 94.74 113.984 94.94C113.904 95.1267 113.791 95.3 113.644 95.46C113.498 95.6067 113.324 95.7267 113.124 95.82C112.938 95.9 112.738 95.94 112.524 95.94C112.298 95.94 112.091 95.8933 111.904 95.8C111.718 95.7067 111.551 95.5867 111.404 95.44C111.258 95.2933 111.144 95.12 111.064 94.92C110.984 94.72 110.944 94.5133 110.944 94.3C110.944 93.8867 111.091 93.5267 111.384 93.22C111.691 92.9133 112.058 92.76 112.484 92.76C112.938 92.76 113.318 92.9067 113.624 93.2C113.944 93.48 114.104 93.8533 114.104 94.32ZM122.528 96.38C122.754 96.3667 122.981 96.36 123.208 96.36C123.448 96.3467 123.681 96.34 123.908 96.34C125.054 96.34 125.934 96.5 126.548 96.82C127.174 97.1267 127.628 97.5467 127.908 98.08C128.188 98.6133 128.348 99.24 128.388 99.96C128.428 100.667 128.448 101.42 128.448 102.22C128.448 103.007 128.248 103.647 127.848 104.14C127.461 104.633 126.974 105.02 126.388 105.3C125.801 105.567 125.154 105.747 124.448 105.84C123.741 105.933 123.081 105.98 122.468 105.98C122.134 105.98 121.748 105.98 121.308 105.98C120.868 105.967 120.408 105.94 119.928 105.9C119.448 105.847 118.974 105.767 118.508 105.66C118.054 105.553 117.648 105.4 117.288 105.2C116.928 105 116.634 104.74 116.408 104.42C116.181 104.087 116.068 103.687 116.068 103.22C116.068 102.9 116.141 102.6 116.288 102.32C116.434 102.04 116.621 101.8 116.848 101.6C117.088 101.387 117.354 101.22 117.648 101.1C117.954 100.98 118.261 100.92 118.568 100.92C119.394 100.92 120.208 100.987 121.008 101.12C121.821 101.253 122.641 101.32 123.468 101.32C123.668 101.32 123.868 101.313 124.068 101.3C124.268 101.287 124.468 101.267 124.668 101.24C124.694 101.08 124.728 100.92 124.768 100.76C124.808 100.6 124.828 100.44 124.828 100.28C124.828 100.093 124.688 99.9667 124.408 99.9C124.141 99.82 123.828 99.78 123.468 99.78C123.121 99.7667 122.774 99.7733 122.428 99.8C122.081 99.8267 121.828 99.84 121.668 99.84C120.841 99.84 120.088 99.7933 119.408 99.7C118.741 99.6067 118.161 99.4133 117.668 99.12C117.188 98.8133 116.814 98.38 116.548 97.82C116.281 97.2467 116.148 96.4933 116.148 95.56C116.148 94.7467 116.328 94.04 116.688 93.44C117.048 92.84 117.514 92.3467 118.088 91.96C118.674 91.5733 119.328 91.2867 120.048 91.1C120.768 90.9133 121.488 90.82 122.208 90.82C122.461 90.82 122.774 90.84 123.148 90.88C123.534 90.9067 123.934 90.96 124.348 91.04C124.761 91.1067 125.168 91.2067 125.568 91.34C125.981 91.4733 126.348 91.64 126.668 91.84C127.001 92.0267 127.268 92.2533 127.468 92.52C127.668 92.7867 127.768 93.0933 127.768 93.44C127.768 93.7467 127.714 94.0067 127.608 94.22C127.501 94.4333 127.354 94.6067 127.168 94.74C126.981 94.86 126.768 94.9467 126.528 95C126.288 95.0533 126.028 95.08 125.747 95.08C125.228 95.08 124.708 95.0467 124.188 94.98C123.681 94.9133 123.168 94.88 122.648 94.88C121.661 94.88 120.934 94.9667 120.467 95.14C120.014 95.3133 119.794 95.5 119.808 95.7C119.821 95.8867 120.061 96.06 120.528 96.22C120.994 96.3667 121.661 96.42 122.528 96.38ZM138.104 99.6C137.864 99.5333 137.618 99.4733 137.364 99.42C137.124 99.3667 136.898 99.2867 136.684 99.18C136.471 99.0733 136.298 98.9267 136.164 98.74C136.031 98.5533 135.964 98.3 135.964 97.98C135.964 97.6733 136.038 97.4267 136.184 97.24C136.331 97.0533 136.518 96.9067 136.744 96.8C136.971 96.68 137.218 96.5933 137.484 96.54C137.751 96.4733 137.998 96.4067 138.224 96.34C138.278 95.9267 138.338 95.4467 138.404 94.9C138.484 94.34 138.604 93.8067 138.764 93.3C138.938 92.7933 139.184 92.3667 139.504 92.02C139.824 91.66 140.258 91.48 140.804 91.48C141.378 91.48 141.791 91.6533 142.044 92C142.311 92.3333 142.484 92.74 142.564 93.22C142.644 93.7 142.671 94.2067 142.644 94.74C142.618 95.26 142.604 95.7067 142.604 96.08C142.831 96.1467 143.031 96.18 143.204 96.18C143.538 96.18 143.951 96.1667 144.444 96.14C144.951 96.1 145.431 96.1133 145.884 96.18C146.351 96.2467 146.744 96.4067 147.064 96.66C147.398 96.9 147.564 97.3067 147.564 97.88C147.564 98.2667 147.478 98.5867 147.304 98.84C147.131 99.08 146.904 99.2733 146.624 99.42C146.344 99.5667 146.024 99.6733 145.664 99.74C145.304 99.8067 144.938 99.8533 144.564 99.88C144.204 99.8933 143.851 99.9 143.504 99.9C143.158 99.8867 142.858 99.88 142.604 99.88C142.591 99.9467 142.578 100.007 142.564 100.06C142.564 100.1 142.564 100.153 142.564 100.22C142.564 100.727 142.651 101.093 142.824 101.32C142.998 101.533 143.218 101.673 143.484 101.74C143.764 101.807 144.071 101.827 144.404 101.8C144.751 101.76 145.098 101.74 145.444 101.74C145.791 101.74 146.124 101.767 146.444 101.82C146.778 101.873 147.071 101.973 147.324 102.12C147.578 102.267 147.778 102.473 147.924 102.74C148.084 103.007 148.164 103.353 148.164 103.78C148.164 104.34 148.024 104.767 147.744 105.06C147.464 105.353 147.118 105.56 146.704 105.68C146.291 105.8 145.844 105.867 145.364 105.88C144.898 105.893 144.471 105.9 144.084 105.9C142.991 105.9 142.078 105.76 141.344 105.48C140.624 105.187 140.031 104.773 139.564 104.24C139.111 103.693 138.771 103.033 138.544 102.26C138.331 101.473 138.184 100.587 138.104 99.6ZM153.556 99.22C153.622 99.8733 153.689 100.533 153.756 101.2C153.836 101.853 153.876 102.507 153.876 103.16C153.876 103.467 153.856 103.78 153.816 104.1C153.776 104.42 153.689 104.713 153.556 104.98C153.436 105.247 153.256 105.467 153.016 105.64C152.776 105.8 152.462 105.88 152.076 105.88C151.436 105.88 150.956 105.6 150.636 105.04C150.516 104.827 150.409 104.527 150.316 104.14C150.236 103.74 150.162 103.307 150.096 102.84C150.042 102.36 149.996 101.853 149.956 101.32C149.929 100.787 149.902 100.273 149.876 99.78C149.862 99.2733 149.849 98.8067 149.836 98.38C149.836 97.9533 149.836 97.6067 149.836 97.34C149.836 97.0733 149.829 96.7333 149.816 96.32C149.802 95.8933 149.796 95.4533 149.796 95C149.809 94.5333 149.842 94.0667 149.896 93.6C149.962 93.1333 150.062 92.7133 150.196 92.34C150.342 91.9533 150.536 91.6467 150.776 91.42C151.016 91.18 151.329 91.06 151.716 91.06C152.062 91.06 152.342 91.14 152.556 91.3C152.782 91.46 152.956 91.6733 153.076 91.94C153.196 92.1933 153.276 92.4867 153.316 92.82C153.369 93.14 153.396 93.4733 153.396 93.82C153.409 94.1533 153.409 94.48 153.396 94.8C153.382 95.1067 153.376 95.3733 153.376 95.6V96.26H153.496C153.709 96.26 153.922 96.2333 154.136 96.18C154.362 96.1267 154.582 96.0733 154.796 96.02C155.022 95.9533 155.249 95.8933 155.476 95.84C155.702 95.7867 155.936 95.76 156.176 95.76C157.162 95.76 157.949 95.9133 158.536 96.22C159.136 96.5133 159.596 96.9267 159.916 97.46C160.236 97.98 160.442 98.5933 160.536 99.3C160.642 100.007 160.696 100.767 160.696 101.58C160.696 101.927 160.689 102.32 160.676 102.76C160.676 103.2 160.622 103.613 160.516 104C160.422 104.387 160.242 104.72 159.976 105C159.722 105.267 159.349 105.4 158.856 105.4C158.456 105.4 158.129 105.313 157.876 105.14C157.636 104.953 157.442 104.713 157.296 104.42C157.162 104.113 157.062 103.773 156.996 103.4C156.942 103.027 156.909 102.653 156.896 102.28C156.882 101.893 156.876 101.52 156.876 101.16C156.889 100.8 156.889 100.493 156.876 100.24C156.849 99.9067 156.796 99.6533 156.716 99.48C156.636 99.2933 156.516 99.16 156.356 99.08C156.209 99 156.016 98.9533 155.776 98.94C155.549 98.9267 155.282 98.92 154.976 98.92C154.469 98.92 153.996 99.02 153.556 99.22ZM166.376 100.86C166.549 101.34 166.809 101.72 167.156 102C167.516 102.28 167.949 102.42 168.456 102.42C168.669 102.42 168.882 102.4 169.096 102.36C169.309 102.307 169.516 102.253 169.716 102.2C169.929 102.133 170.136 102.08 170.336 102.04C170.549 101.987 170.762 101.96 170.976 101.96C171.402 101.96 171.776 102.08 172.096 102.32C172.429 102.547 172.596 102.893 172.596 103.36C172.596 103.773 172.409 104.14 172.036 104.46C171.676 104.78 171.242 105.053 170.736 105.28C170.242 105.507 169.729 105.68 169.196 105.8C168.662 105.92 168.229 105.98 167.896 105.98C167.136 105.98 166.416 105.813 165.736 105.48C165.056 105.147 164.456 104.707 163.936 104.16C163.416 103.613 163.002 102.987 162.696 102.28C162.402 101.573 162.256 100.847 162.256 100.1C162.256 99.1533 162.422 98.2467 162.756 97.38C163.089 96.5133 163.549 95.7533 164.136 95.1C164.736 94.4333 165.442 93.9067 166.256 93.52C167.082 93.12 167.989 92.92 168.976 92.92C169.576 92.92 170.116 93.02 170.596 93.22C171.089 93.42 171.509 93.7 171.856 94.06C172.202 94.42 172.469 94.8467 172.656 95.34C172.842 95.8333 172.936 96.3733 172.936 96.96C172.936 97.5867 172.869 98.16 172.736 98.68C172.602 99.2 172.382 99.6533 172.076 100.04C171.782 100.413 171.396 100.707 170.916 100.92C170.449 101.133 169.876 101.24 169.196 101.24C168.716 101.24 168.242 101.193 167.776 101.1C167.309 101.007 166.842 100.927 166.376 100.86ZM166.576 97.68C167.069 97.6933 167.556 97.7067 168.036 97.72C168.529 97.7333 169.016 97.74 169.496 97.74C169.856 97.74 170.089 97.6333 170.196 97.42C170.316 97.2067 170.376 96.9333 170.376 96.6C170.376 96.2667 170.256 96.0467 170.016 95.94C169.789 95.8333 169.529 95.78 169.236 95.78C168.636 95.78 168.102 95.9733 167.636 96.36C167.182 96.7333 166.829 97.1733 166.576 97.68ZM186.579 100.28C186.805 100.307 187.092 100.34 187.439 100.38C187.799 100.407 188.139 100.467 188.459 100.56C188.792 100.64 189.072 100.773 189.299 100.96C189.539 101.133 189.659 101.38 189.659 101.7C189.659 102.047 189.552 102.293 189.339 102.44C189.139 102.587 188.892 102.687 188.599 102.74C188.305 102.793 187.999 102.813 187.679 102.8C187.359 102.773 187.085 102.76 186.859 102.76C186.819 103.04 186.799 103.4 186.799 103.84C186.812 104.267 186.819 104.727 186.819 105.22C186.819 105.7 186.805 106.187 186.779 106.68C186.752 107.173 186.679 107.62 186.559 108.02C186.439 108.42 186.259 108.74 186.019 108.98C185.779 109.233 185.452 109.36 185.039 109.36C184.679 109.36 184.372 109.233 184.119 108.98C183.879 108.74 183.672 108.427 183.499 108.04C183.325 107.653 183.185 107.22 183.079 106.74C182.972 106.26 182.885 105.787 182.819 105.32C182.765 104.84 182.719 104.393 182.679 103.98C182.639 103.553 182.599 103.213 182.559 102.96C182.332 102.947 182.092 102.92 181.839 102.88C181.599 102.827 181.379 102.753 181.179 102.66C180.979 102.553 180.812 102.413 180.679 102.24C180.559 102.053 180.499 101.813 180.499 101.52C180.499 101.293 180.552 101.107 180.659 100.96C180.779 100.8 180.919 100.673 181.079 100.58C181.252 100.487 181.439 100.413 181.639 100.36C181.839 100.293 182.025 100.24 182.199 100.2C182.252 100.107 182.279 99.9933 182.279 99.86C182.279 99.2867 182.252 98.7133 182.199 98.14C182.145 97.5667 182.119 96.9933 182.119 96.42C182.119 95.7267 182.252 95.08 182.519 94.48C182.799 93.88 183.172 93.36 183.639 92.92C184.105 92.4667 184.645 92.1133 185.259 91.86C185.885 91.6067 186.539 91.48 187.219 91.48C187.632 91.48 188.072 91.5467 188.539 91.68C189.019 91.8 189.452 91.9867 189.839 92.24C190.225 92.48 190.545 92.7867 190.799 93.16C191.065 93.52 191.199 93.9467 191.199 94.44C191.199 94.8267 191.072 95.18 190.819 95.5C190.565 95.8067 190.225 95.96 189.799 95.96C189.492 95.96 189.192 95.8933 188.899 95.76C188.619 95.6133 188.305 95.54 187.959 95.54C187.652 95.54 187.385 95.56 187.159 95.6C186.945 95.64 186.765 95.7133 186.619 95.82C186.485 95.9267 186.385 96.0867 186.319 96.3C186.252 96.5 186.219 96.76 186.219 97.08C186.219 97.6 186.245 98.14 186.299 98.7C186.365 99.2467 186.459 99.7733 186.579 100.28ZM196.353 104.1C196.353 104.553 196.239 104.96 196.013 105.32C195.786 105.667 195.419 105.84 194.913 105.84C194.473 105.84 194.099 105.687 193.793 105.38C193.499 105.073 193.259 104.7 193.073 104.26C192.886 103.82 192.746 103.36 192.653 102.88C192.573 102.4 192.533 101.993 192.533 101.66C192.533 101.34 192.553 100.953 192.593 100.5C192.633 100.033 192.719 99.5933 192.853 99.18C192.999 98.7667 193.199 98.4133 193.453 98.12C193.719 97.8267 194.073 97.68 194.513 97.68C194.806 97.68 195.053 97.7267 195.253 97.82C195.453 97.9133 195.619 98.0467 195.753 98.22C195.886 98.38 195.986 98.5733 196.053 98.8C196.133 99.0133 196.193 99.2467 196.233 99.5C196.259 99.7133 196.279 99.9467 196.293 100.2C196.306 100.453 196.313 100.753 196.313 101.1C196.313 101.447 196.313 101.867 196.313 102.36C196.313 102.84 196.326 103.42 196.353 104.1ZM196.253 94.32C196.253 94.5333 196.213 94.74 196.133 94.94C196.053 95.1267 195.939 95.3 195.793 95.46C195.646 95.6067 195.473 95.7267 195.273 95.82C195.086 95.9 194.886 95.94 194.673 95.94C194.446 95.94 194.239 95.8933 194.053 95.8C193.866 95.7067 193.699 95.5867 193.553 95.44C193.406 95.2933 193.293 95.12 193.213 94.92C193.133 94.72 193.093 94.5133 193.093 94.3C193.093 93.8867 193.239 93.5267 193.533 93.22C193.839 92.9133 194.206 92.76 194.633 92.76C195.086 92.76 195.466 92.9067 195.773 93.2C196.093 93.48 196.253 93.8533 196.253 94.32ZM202.216 94.96C202.416 94.9067 202.636 94.84 202.876 94.76C203.129 94.68 203.383 94.6067 203.636 94.54C203.903 94.46 204.156 94.4 204.396 94.36C204.649 94.3067 204.876 94.28 205.076 94.28C205.356 94.28 205.643 94.3333 205.936 94.44C206.243 94.5333 206.516 94.6733 206.756 94.86C207.009 95.0467 207.216 95.2667 207.376 95.52C207.536 95.7733 207.616 96.06 207.616 96.38C207.616 96.9 207.503 97.2867 207.276 97.54C207.049 97.7933 206.763 97.9733 206.416 98.08C206.083 98.1733 205.716 98.22 205.316 98.22C204.916 98.2067 204.543 98.2 204.196 98.2C203.703 98.2 203.336 98.28 203.096 98.44C202.869 98.6 202.716 98.82 202.636 99.1C202.569 99.3667 202.549 99.6733 202.576 100.02C202.603 100.353 202.629 100.7 202.656 101.06C202.683 101.407 202.703 101.747 202.716 102.08C202.729 102.413 202.736 102.753 202.736 103.1C202.736 103.393 202.683 103.693 202.576 104C202.469 104.293 202.323 104.567 202.136 104.82C201.949 105.06 201.723 105.26 201.456 105.42C201.203 105.567 200.916 105.64 200.596 105.64C200.009 105.64 199.569 105.487 199.276 105.18C198.983 104.873 198.769 104.5 198.636 104.06C198.503 103.607 198.429 103.133 198.416 102.64C198.416 102.133 198.416 101.687 198.416 101.3C198.416 101.02 198.409 100.64 198.396 100.16C198.383 99.6667 198.376 99.14 198.376 98.58C198.389 98.02 198.429 97.4533 198.496 96.88C198.563 96.3067 198.676 95.7933 198.836 95.34C198.996 94.8733 199.216 94.4933 199.496 94.2C199.776 93.9067 200.136 93.76 200.576 93.76C200.856 93.76 201.069 93.8 201.216 93.88C201.363 93.96 201.483 94.06 201.576 94.18C201.669 94.3 201.756 94.4333 201.836 94.58C201.929 94.7133 202.056 94.84 202.216 94.96ZM215.828 96.38C216.055 96.3667 216.282 96.36 216.508 96.36C216.748 96.3467 216.982 96.34 217.208 96.34C218.355 96.34 219.235 96.5 219.848 96.82C220.475 97.1267 220.928 97.5467 221.208 98.08C221.488 98.6133 221.648 99.24 221.688 99.96C221.728 100.667 221.748 101.42 221.748 102.22C221.748 103.007 221.548 103.647 221.148 104.14C220.762 104.633 220.275 105.02 219.688 105.3C219.102 105.567 218.455 105.747 217.748 105.84C217.042 105.933 216.382 105.98 215.768 105.98C215.435 105.98 215.048 105.98 214.608 105.98C214.168 105.967 213.708 105.94 213.228 105.9C212.748 105.847 212.275 105.767 211.808 105.66C211.355 105.553 210.948 105.4 210.588 105.2C210.228 105 209.935 104.74 209.708 104.42C209.482 104.087 209.368 103.687 209.368 103.22C209.368 102.9 209.442 102.6 209.588 102.32C209.735 102.04 209.922 101.8 210.148 101.6C210.388 101.387 210.655 101.22 210.948 101.1C211.255 100.98 211.562 100.92 211.868 100.92C212.695 100.92 213.508 100.987 214.308 101.12C215.122 101.253 215.942 101.32 216.768 101.32C216.968 101.32 217.168 101.313 217.368 101.3C217.568 101.287 217.768 101.267 217.968 101.24C217.995 101.08 218.028 100.92 218.068 100.76C218.108 100.6 218.128 100.44 218.128 100.28C218.128 100.093 217.988 99.9667 217.708 99.9C217.442 99.82 217.128 99.78 216.768 99.78C216.422 99.7667 216.075 99.7733 215.728 99.8C215.382 99.8267 215.128 99.84 214.968 99.84C214.142 99.84 213.388 99.7933 212.708 99.7C212.042 99.6067 211.462 99.4133 210.968 99.12C210.488 98.8133 210.115 98.38 209.848 97.82C209.582 97.2467 209.448 96.4933 209.448 95.56C209.448 94.7467 209.628 94.04 209.988 93.44C210.348 92.84 210.815 92.3467 211.388 91.96C211.975 91.5733 212.628 91.2867 213.348 91.1C214.068 90.9133 214.788 90.82 215.508 90.82C215.762 90.82 216.075 90.84 216.448 90.88C216.835 90.9067 217.235 90.96 217.648 91.04C218.062 91.1067 218.468 91.2067 218.868 91.34C219.282 91.4733 219.648 91.64 219.968 91.84C220.302 92.0267 220.568 92.2533 220.768 92.52C220.968 92.7867 221.068 93.0933 221.068 93.44C221.068 93.7467 221.015 94.0067 220.908 94.22C220.802 94.4333 220.655 94.6067 220.468 94.74C220.282 94.86 220.068 94.9467 219.828 95C219.588 95.0533 219.328 95.08 219.048 95.08C218.528 95.08 218.008 95.0467 217.488 94.98C216.982 94.9133 216.468 94.88 215.948 94.88C214.962 94.88 214.235 94.9667 213.768 95.14C213.315 95.3133 213.095 95.5 213.108 95.7C213.122 95.8867 213.362 96.06 213.828 96.22C214.295 96.3667 214.962 96.42 215.828 96.38ZM225.565 99.6C225.325 99.5333 225.078 99.4733 224.825 99.42C224.585 99.3667 224.358 99.2867 224.145 99.18C223.932 99.0733 223.758 98.9267 223.625 98.74C223.492 98.5533 223.425 98.3 223.425 97.98C223.425 97.6733 223.498 97.4267 223.645 97.24C223.792 97.0533 223.978 96.9067 224.205 96.8C224.432 96.68 224.678 96.5933 224.945 96.54C225.212 96.4733 225.458 96.4067 225.685 96.34C225.738 95.9267 225.798 95.4467 225.865 94.9C225.945 94.34 226.065 93.8067 226.225 93.3C226.398 92.7933 226.645 92.3667 226.965 92.02C227.285 91.66 227.718 91.48 228.265 91.48C228.838 91.48 229.252 91.6533 229.505 92C229.772 92.3333 229.945 92.74 230.025 93.22C230.105 93.7 230.132 94.2067 230.105 94.74C230.078 95.26 230.065 95.7067 230.065 96.08C230.292 96.1467 230.492 96.18 230.665 96.18C230.998 96.18 231.412 96.1667 231.905 96.14C232.412 96.1 232.892 96.1133 233.345 96.18C233.812 96.2467 234.205 96.4067 234.525 96.66C234.858 96.9 235.025 97.3067 235.025 97.88C235.025 98.2667 234.938 98.5867 234.765 98.84C234.592 99.08 234.365 99.2733 234.085 99.42C233.805 99.5667 233.485 99.6733 233.125 99.74C232.765 99.8067 232.398 99.8533 232.025 99.88C231.665 99.8933 231.312 99.9 230.965 99.9C230.618 99.8867 230.318 99.88 230.065 99.88C230.052 99.9467 230.038 100.007 230.025 100.06C230.025 100.1 230.025 100.153 230.025 100.22C230.025 100.727 230.112 101.093 230.285 101.32C230.458 101.533 230.678 101.673 230.945 101.74C231.225 101.807 231.532 101.827 231.865 101.8C232.212 101.76 232.558 101.74 232.905 101.74C233.252 101.74 233.585 101.767 233.905 101.82C234.238 101.873 234.532 101.973 234.785 102.12C235.038 102.267 235.238 102.473 235.385 102.74C235.545 103.007 235.625 103.353 235.625 103.78C235.625 104.34 235.485 104.767 235.205 105.06C234.925 105.353 234.578 105.56 234.165 105.68C233.752 105.8 233.305 105.867 232.825 105.88C232.358 105.893 231.932 105.9 231.545 105.9C230.452 105.9 229.538 105.76 228.805 105.48C228.085 105.187 227.492 104.773 227.025 104.24C226.572 103.693 226.232 103.033 226.005 102.26C225.792 101.473 225.645 100.587 225.565 99.6ZM252.296 93.8C252.323 93.5467 252.343 93.26 252.356 92.94C252.383 92.6067 252.416 92.2667 252.456 91.92C252.51 91.5733 252.576 91.24 252.656 90.92C252.75 90.5867 252.876 90.2933 253.036 90.04C253.196 89.7733 253.396 89.56 253.636 89.4C253.876 89.24 254.176 89.16 254.536 89.16C254.963 89.16 255.31 89.2467 255.576 89.42C255.843 89.5933 256.043 89.82 256.176 90.1C256.323 90.3667 256.416 90.6733 256.456 91.02C256.51 91.3533 256.536 91.6933 256.536 92.04C256.536 92.8533 256.53 93.78 256.516 94.82C256.503 95.8467 256.47 96.9 256.416 97.98C256.376 99.0467 256.316 100.093 256.236 101.12C256.17 102.133 256.076 103.027 255.956 103.8C255.916 104.053 255.856 104.267 255.776 104.44C255.71 104.6 255.616 104.733 255.496 104.84C255.39 104.947 255.25 105.04 255.076 105.12C254.903 105.187 254.696 105.247 254.456 105.3C253.683 105.473 252.903 105.647 252.116 105.82C251.343 105.993 250.556 106.08 249.756 106.08C248.81 106.08 247.93 105.94 247.116 105.66C246.316 105.367 245.623 104.947 245.036 104.4C244.45 103.853 243.99 103.193 243.656 102.42C243.336 101.633 243.176 100.747 243.176 99.76C243.176 98.8267 243.336 97.9733 243.656 97.2C243.99 96.4267 244.443 95.7667 245.016 95.22C245.59 94.6733 246.27 94.2467 247.056 93.94C247.856 93.6333 248.716 93.48 249.636 93.48C250.063 93.48 250.476 93.52 250.876 93.6C251.29 93.6667 251.703 93.7533 252.116 93.86L252.296 93.8ZM252.176 97.9C251.87 97.8333 251.563 97.7667 251.256 97.7C250.963 97.6333 250.656 97.6 250.336 97.6C249.95 97.6 249.563 97.6333 249.176 97.7C248.79 97.7533 248.443 97.8667 248.136 98.04C247.83 98.2 247.576 98.4267 247.376 98.72C247.176 99.0133 247.076 99.3867 247.076 99.84C247.076 100.427 247.15 100.9 247.296 101.26C247.456 101.607 247.676 101.873 247.956 102.06C248.25 102.247 248.596 102.367 248.996 102.42C249.41 102.473 249.87 102.5 250.376 102.5C250.763 102.5 251.136 102.48 251.496 102.44C251.87 102.4 252.243 102.327 252.616 102.22L252.176 97.9ZM264.735 105.68C264.002 105.68 263.282 105.58 262.575 105.38C261.868 105.167 261.195 104.867 260.555 104.48C260.048 104.16 259.642 103.8 259.335 103.4C259.028 102.987 258.788 102.547 258.615 102.08C258.455 101.6 258.348 101.1 258.295 100.58C258.242 100.047 258.215 99.5 258.215 98.94C258.215 96.6867 258.808 94.9667 259.995 93.78C261.182 92.58 262.902 91.98 265.155 91.98C266.235 91.98 267.168 92.18 267.955 92.58C268.742 92.9667 269.388 93.48 269.895 94.12C270.415 94.76 270.788 95.4933 271.015 96.32C271.255 97.1333 271.355 97.9733 271.315 98.84C271.275 99.6933 271.102 100.533 270.795 101.36C270.502 102.173 270.082 102.9 269.535 103.54C268.988 104.18 268.308 104.7 267.495 105.1C266.695 105.487 265.775 105.68 264.735 105.68ZM265.295 96.04C264.002 96.04 263.068 96.3333 262.495 96.92C261.935 97.4933 261.655 98.4267 261.655 99.72C261.655 100.227 261.728 100.633 261.875 100.94C262.035 101.247 262.248 101.487 262.515 101.66C262.782 101.82 263.102 101.933 263.475 102C263.848 102.053 264.255 102.08 264.695 102.08C265.322 102.08 265.862 101.933 266.315 101.64C266.782 101.333 267.142 100.96 267.395 100.52C267.662 100.067 267.822 99.58 267.875 99.06C267.942 98.54 267.895 98.06 267.735 97.62C267.575 97.1667 267.288 96.7933 266.875 96.5C266.475 96.1933 265.948 96.04 265.295 96.04ZM282.396 101.94C281.676 102.06 280.95 102.193 280.216 102.34C279.496 102.487 278.776 102.56 278.056 102.56C277.323 102.56 276.656 102.42 276.056 102.14C275.47 101.86 274.963 101.487 274.536 101.02C274.123 100.553 273.796 100.007 273.556 99.38C273.33 98.7533 273.216 98.0867 273.216 97.38C273.216 96.5133 273.403 95.74 273.776 95.06C274.15 94.3667 274.636 93.7867 275.236 93.32C275.85 92.84 276.536 92.4733 277.296 92.22C278.07 91.9667 278.85 91.84 279.636 91.84C280.383 91.84 281.096 91.96 281.776 92.2C281.936 91.84 282.136 91.5133 282.376 91.22C282.616 90.9133 282.963 90.76 283.416 90.76C283.696 90.76 283.936 90.8133 284.136 90.92C284.336 91.0267 284.496 91.1667 284.616 91.34C284.75 91.5133 284.85 91.7133 284.916 91.94C284.983 92.1667 285.016 92.4067 285.016 92.66C285.016 93.34 284.963 94.0267 284.856 94.72C284.763 95.4 284.716 96.0933 284.716 96.8C284.716 97.68 284.736 98.56 284.776 99.44C284.83 100.307 284.856 101.18 284.856 102.06C284.856 102.633 284.843 103.207 284.816 103.78C284.803 104.34 284.716 104.873 284.556 105.38C284.41 105.873 284.176 106.32 283.856 106.72C283.536 107.133 283.076 107.48 282.476 107.76C281.996 107.987 281.503 108.167 280.996 108.3C280.49 108.447 279.963 108.52 279.416 108.52C279.056 108.52 278.596 108.46 278.036 108.34C277.49 108.22 276.956 108.04 276.436 107.8C275.916 107.56 275.47 107.267 275.096 106.92C274.736 106.573 274.556 106.167 274.556 105.7C274.556 105.3 274.703 104.953 274.996 104.66C275.29 104.367 275.643 104.22 276.056 104.22C276.376 104.22 276.69 104.267 276.996 104.36C277.303 104.44 277.616 104.533 277.936 104.64C278.256 104.733 278.576 104.82 278.896 104.9C279.216 104.98 279.55 105.02 279.896 105.02C280.47 105.02 280.923 104.96 281.256 104.84C281.59 104.707 281.836 104.513 281.996 104.26C282.17 104.007 282.276 103.687 282.316 103.3C282.37 102.913 282.396 102.46 282.396 101.94ZM282.036 96.04C281.823 96.0133 281.61 95.9933 281.396 95.98C281.183 95.9533 280.963 95.94 280.736 95.94C280.456 95.94 280.103 95.98 279.676 96.06C279.263 96.1267 278.856 96.24 278.456 96.4C278.07 96.56 277.736 96.7667 277.456 97.02C277.176 97.2733 277.036 97.58 277.036 97.94C277.036 98.2733 277.116 98.56 277.276 98.8C277.45 99.04 277.716 99.16 278.076 99.16C278.756 99.16 279.463 99.0733 280.196 98.9C280.943 98.7267 281.656 98.5867 282.336 98.48C282.283 98.0667 282.236 97.66 282.196 97.26C282.156 96.86 282.103 96.4533 282.036 96.04ZM299.291 98.98C299.331 98.6467 299.371 98.3333 299.411 98.04C299.451 97.7467 299.518 97.4867 299.611 97.26C299.704 97.0333 299.831 96.8533 299.991 96.72C300.164 96.5733 300.398 96.4933 300.691 96.48C301.131 96.4533 301.478 96.5867 301.731 96.88C301.998 97.1733 302.211 97.5467 302.371 98C302.544 98.44 302.684 98.9267 302.791 99.46C302.911 99.98 303.044 100.467 303.191 100.92C303.351 101.373 303.544 101.747 303.771 102.04C304.011 102.333 304.338 102.467 304.751 102.44C305.031 102.427 305.251 102.313 305.411 102.1C305.584 101.873 305.718 101.613 305.811 101.32C305.904 101.013 305.964 100.707 305.991 100.4C306.018 100.08 306.024 99.82 306.011 99.62C305.984 99.2867 305.931 98.9533 305.851 98.62C305.771 98.2733 305.684 97.9333 305.591 97.6C305.498 97.2533 305.411 96.9067 305.331 96.56C305.264 96.2133 305.224 95.8667 305.211 95.52C305.184 95.2533 305.198 94.98 305.251 94.7C305.304 94.42 305.398 94.1667 305.531 93.94C305.678 93.7133 305.864 93.5267 306.091 93.38C306.318 93.2333 306.591 93.1533 306.911 93.14C307.298 93.1267 307.624 93.1933 307.891 93.34C308.158 93.4867 308.371 93.6933 308.531 93.96C308.704 94.2133 308.838 94.5067 308.931 94.84C309.024 95.1733 309.091 95.52 309.131 95.88C309.171 96.2267 309.198 96.5733 309.211 96.92C309.224 97.2533 309.238 97.5467 309.251 97.8C309.291 98.5333 309.278 99.3467 309.211 100.24C309.144 101.12 308.958 101.96 308.651 102.76C308.358 103.547 307.918 104.213 307.331 104.76C306.758 105.307 305.978 105.607 304.991 105.66C304.444 105.687 303.964 105.613 303.551 105.44C303.138 105.253 302.764 105.007 302.431 104.7C302.111 104.393 301.818 104.053 301.551 103.68C301.284 103.293 301.024 102.907 300.771 102.52C300.571 102.907 300.351 103.287 300.111 103.66C299.884 104.02 299.624 104.347 299.331 104.64C299.051 104.933 298.718 105.173 298.331 105.36C297.958 105.547 297.518 105.653 297.011 105.68C296.131 105.72 295.404 105.547 294.831 105.16C294.271 104.773 293.824 104.273 293.491 103.66C293.171 103.047 292.944 102.373 292.811 101.64C292.678 100.907 292.591 100.207 292.551 99.54C292.538 99.2733 292.531 98.94 292.531 98.54C292.531 98.1267 292.551 97.6933 292.591 97.24C292.644 96.7867 292.718 96.3333 292.811 95.88C292.918 95.4267 293.058 95.02 293.231 94.66C293.418 94.2867 293.651 93.9867 293.931 93.76C294.211 93.52 294.544 93.3867 294.931 93.36C295.358 93.3467 295.704 93.4333 295.971 93.62C296.238 93.7933 296.444 94.04 296.591 94.36C296.738 94.6667 296.838 95.02 296.891 95.42C296.958 95.8067 296.991 96.2067 296.991 96.62C297.004 97.02 297.004 97.4067 296.991 97.78C296.991 98.1533 296.998 98.4733 297.011 98.74C297.064 99.7533 297.191 100.54 297.391 101.1C297.591 101.647 297.811 101.947 298.051 102C298.291 102.04 298.524 101.813 298.751 101.32C298.991 100.827 299.171 100.047 299.291 98.98ZM315.083 104.1C315.083 104.553 314.97 104.96 314.743 105.32C314.517 105.667 314.15 105.84 313.643 105.84C313.203 105.84 312.83 105.687 312.523 105.38C312.23 105.073 311.99 104.7 311.803 104.26C311.617 103.82 311.477 103.36 311.383 102.88C311.303 102.4 311.263 101.993 311.263 101.66C311.263 101.34 311.283 100.953 311.323 100.5C311.363 100.033 311.45 99.5933 311.583 99.18C311.73 98.7667 311.93 98.4133 312.183 98.12C312.45 97.8267 312.803 97.68 313.243 97.68C313.537 97.68 313.783 97.7267 313.983 97.82C314.183 97.9133 314.35 98.0467 314.483 98.22C314.617 98.38 314.717 98.5733 314.783 98.8C314.863 99.0133 314.923 99.2467 314.963 99.5C314.99 99.7133 315.01 99.9467 315.023 100.2C315.037 100.453 315.043 100.753 315.043 101.1C315.043 101.447 315.043 101.867 315.043 102.36C315.043 102.84 315.057 103.42 315.083 104.1ZM314.983 94.32C314.983 94.5333 314.943 94.74 314.863 94.94C314.783 95.1267 314.67 95.3 314.523 95.46C314.377 95.6067 314.203 95.7267 314.003 95.82C313.817 95.9 313.617 95.94 313.403 95.94C313.177 95.94 312.97 95.8933 312.783 95.8C312.597 95.7067 312.43 95.5867 312.283 95.44C312.137 95.2933 312.023 95.12 311.943 94.92C311.863 94.72 311.823 94.5133 311.823 94.3C311.823 93.8867 311.97 93.5267 312.263 93.22C312.57 92.9133 312.937 92.76 313.363 92.76C313.817 92.76 314.197 92.9067 314.503 93.2C314.823 93.48 314.983 93.8533 314.983 94.32ZM322.926 100.28C323.153 100.307 323.44 100.34 323.786 100.38C324.146 100.407 324.486 100.467 324.806 100.56C325.14 100.64 325.42 100.773 325.646 100.96C325.886 101.133 326.006 101.38 326.006 101.7C326.006 102.047 325.9 102.293 325.686 102.44C325.486 102.587 325.24 102.687 324.946 102.74C324.653 102.793 324.346 102.813 324.026 102.8C323.706 102.773 323.433 102.76 323.206 102.76C323.166 103.04 323.146 103.4 323.146 103.84C323.16 104.267 323.166 104.727 323.166 105.22C323.166 105.7 323.153 106.187 323.126 106.68C323.1 107.173 323.026 107.62 322.906 108.02C322.786 108.42 322.606 108.74 322.366 108.98C322.126 109.233 321.8 109.36 321.386 109.36C321.026 109.36 320.72 109.233 320.466 108.98C320.226 108.74 320.02 108.427 319.846 108.04C319.673 107.653 319.533 107.22 319.426 106.74C319.32 106.26 319.233 105.787 319.166 105.32C319.113 104.84 319.066 104.393 319.026 103.98C318.986 103.553 318.946 103.213 318.906 102.96C318.68 102.947 318.44 102.92 318.186 102.88C317.946 102.827 317.726 102.753 317.526 102.66C317.326 102.553 317.16 102.413 317.026 102.24C316.906 102.053 316.846 101.813 316.846 101.52C316.846 101.293 316.9 101.107 317.006 100.96C317.126 100.8 317.266 100.673 317.426 100.58C317.6 100.487 317.786 100.413 317.986 100.36C318.186 100.293 318.373 100.24 318.546 100.2C318.6 100.107 318.626 99.9933 318.626 99.86C318.626 99.2867 318.6 98.7133 318.546 98.14C318.493 97.5667 318.466 96.9933 318.466 96.42C318.466 95.7267 318.6 95.08 318.866 94.48C319.146 93.88 319.52 93.36 319.986 92.92C320.453 92.4667 320.993 92.1133 321.606 91.86C322.233 91.6067 322.886 91.48 323.566 91.48C323.98 91.48 324.42 91.5467 324.886 91.68C325.366 91.8 325.8 91.9867 326.186 92.24C326.573 92.48 326.893 92.7867 327.146 93.16C327.413 93.52 327.546 93.9467 327.546 94.44C327.546 94.8267 327.42 95.18 327.166 95.5C326.913 95.8067 326.573 95.96 326.146 95.96C325.84 95.96 325.54 95.8933 325.246 95.76C324.966 95.6133 324.653 95.54 324.306 95.54C324 95.54 323.733 95.56 323.506 95.6C323.293 95.64 323.113 95.7133 322.966 95.82C322.833 95.9267 322.733 96.0867 322.666 96.3C322.6 96.5 322.566 96.76 322.566 97.08C322.566 97.6 322.593 98.14 322.646 98.7C322.713 99.2467 322.806 99.7733 322.926 100.28ZM339.16 104.52C339.134 104.947 339.114 105.453 339.1 106.04C339.087 106.627 339.007 107.187 338.86 107.72C338.727 108.267 338.5 108.727 338.18 109.1C337.86 109.487 337.394 109.68 336.78 109.68C336.394 109.68 336.067 109.593 335.8 109.42C335.534 109.26 335.32 109.047 335.16 108.78C335 108.527 334.887 108.233 334.82 107.9C334.754 107.58 334.72 107.26 334.72 106.94C334.72 106.14 334.747 105.333 334.8 104.52C334.867 103.707 334.934 102.893 335 102.08C335.08 101.253 335.147 100.433 335.2 99.62C335.267 98.7933 335.3 97.9667 335.3 97.14C335.3 96.8733 335.274 96.6133 335.22 96.36C335.167 96.1067 335.14 95.8533 335.14 95.6C335.14 95.2933 335.26 95.02 335.5 94.78C335.754 94.5267 336.074 94.3067 336.46 94.12C336.86 93.92 337.3 93.7533 337.78 93.62C338.274 93.4733 338.754 93.3533 339.22 93.26C339.7 93.1667 340.14 93.1 340.54 93.06C340.94 93.0067 341.26 92.98 341.5 92.98C342.407 92.98 343.24 93.1467 344 93.48C344.76 93.8 345.414 94.2533 345.96 94.84C346.507 95.4133 346.934 96.0933 347.24 96.88C347.547 97.6533 347.7 98.4867 347.7 99.38C347.7 100.233 347.574 100.947 347.32 101.52C347.067 102.08 346.727 102.547 346.3 102.92C345.874 103.28 345.374 103.56 344.8 103.76C344.24 103.947 343.64 104.087 343 104.18C342.374 104.273 341.727 104.34 341.06 104.38C340.407 104.42 339.774 104.467 339.16 104.52ZM338.92 99.64C339.44 99.6667 339.967 99.7 340.5 99.74C341.034 99.78 341.56 99.8 342.08 99.8C342.467 99.8 342.74 99.7133 342.9 99.54C343.074 99.3533 343.16 99.0733 343.16 98.7C343.16 98.2867 343.087 97.96 342.94 97.72C342.794 97.48 342.594 97.2933 342.34 97.16C342.1 97.0267 341.82 96.94 341.5 96.9C341.194 96.86 340.874 96.84 340.54 96.84C340.194 96.84 339.847 96.8667 339.5 96.92C339.154 96.96 338.807 97.0133 338.46 97.08L338.92 99.64ZM353.56 104.1C353.56 104.553 353.447 104.96 353.22 105.32C352.993 105.667 352.627 105.84 352.12 105.84C351.68 105.84 351.307 105.687 351 105.38C350.707 105.073 350.467 104.7 350.28 104.26C350.093 103.82 349.953 103.36 349.86 102.88C349.78 102.4 349.74 101.993 349.74 101.66C349.74 101.34 349.76 100.953 349.8 100.5C349.84 100.033 349.927 99.5933 350.06 99.18C350.207 98.7667 350.407 98.4133 350.66 98.12C350.927 97.8267 351.28 97.68 351.72 97.68C352.013 97.68 352.26 97.7267 352.46 97.82C352.66 97.9133 352.827 98.0467 352.96 98.22C353.093 98.38 353.193 98.5733 353.26 98.8C353.34 99.0133 353.4 99.2467 353.44 99.5C353.467 99.7133 353.487 99.9467 353.5 100.2C353.513 100.453 353.52 100.753 353.52 101.1C353.52 101.447 353.52 101.867 353.52 102.36C353.52 102.84 353.533 103.42 353.56 104.1ZM353.46 94.32C353.46 94.5333 353.42 94.74 353.34 94.94C353.26 95.1267 353.147 95.3 353 95.46C352.853 95.6067 352.68 95.7267 352.48 95.82C352.293 95.9 352.093 95.94 351.88 95.94C351.653 95.94 351.447 95.8933 351.26 95.8C351.073 95.7067 350.907 95.5867 350.76 95.44C350.613 95.2933 350.5 95.12 350.42 94.92C350.34 94.72 350.3 94.5133 350.3 94.3C350.3 93.8867 350.447 93.5267 350.74 93.22C351.047 92.9133 351.413 92.76 351.84 92.76C352.293 92.76 352.673 92.9067 352.98 93.2C353.3 93.48 353.46 93.8533 353.46 94.32ZM358.743 95.02C358.956 94.9 359.15 94.7933 359.323 94.7C359.51 94.5933 359.69 94.5067 359.863 94.44C360.036 94.36 360.216 94.3 360.403 94.26C360.603 94.2067 360.836 94.18 361.103 94.18C361.89 94.18 362.536 94.3067 363.043 94.56C363.563 94.8 363.983 95.1333 364.303 95.56C364.623 95.9733 364.856 96.46 365.003 97.02C365.163 97.58 365.27 98.1733 365.323 98.8C365.376 99.4133 365.396 100.04 365.383 100.68C365.383 101.32 365.383 101.933 365.383 102.52C365.383 102.787 365.356 103.08 365.303 103.4C365.263 103.72 365.183 104.02 365.063 104.3C364.943 104.567 364.77 104.793 364.543 104.98C364.33 105.153 364.05 105.24 363.703 105.24C363.103 105.24 362.63 105.033 362.283 104.62C361.95 104.193 361.75 103.62 361.683 102.9C361.643 102.367 361.63 101.753 361.643 101.06C361.656 100.367 361.65 99.72 361.623 99.12C361.61 98.5067 361.556 97.9933 361.463 97.58C361.37 97.1533 361.196 96.94 360.943 96.94C360.716 96.94 360.496 97.04 360.283 97.24C360.083 97.4267 359.903 97.6533 359.743 97.92C359.583 98.1867 359.45 98.4667 359.343 98.76C359.25 99.04 359.203 99.28 359.203 99.48C359.203 99.9867 359.243 100.5 359.323 101.02C359.416 101.54 359.463 102.053 359.463 102.56C359.463 102.88 359.443 103.213 359.403 103.56C359.363 103.907 359.276 104.227 359.143 104.52C359.01 104.813 358.816 105.053 358.563 105.24C358.31 105.427 357.976 105.52 357.563 105.52C356.99 105.52 356.556 105.353 356.263 105.02C355.983 104.673 355.783 104.26 355.663 103.78C355.543 103.287 355.483 102.773 355.483 102.24C355.483 101.707 355.483 101.247 355.483 100.86C355.483 100.66 355.483 100.387 355.483 100.04C355.483 99.6933 355.483 99.3133 355.483 98.9C355.496 98.4867 355.51 98.06 355.523 97.62C355.55 97.1667 355.576 96.74 355.603 96.34C355.643 95.94 355.683 95.5867 355.723 95.28C355.776 94.96 355.843 94.7333 355.923 94.6C356.043 94.3733 356.216 94.1867 356.443 94.04C356.67 93.8933 356.916 93.82 357.183 93.82C357.396 93.82 357.576 93.8533 357.723 93.92C357.883 93.9867 358.016 94.08 358.123 94.2C358.243 94.3067 358.35 94.4333 358.443 94.58C358.536 94.7267 358.636 94.8733 358.743 95.02ZM371.356 100.86C371.529 101.34 371.789 101.72 372.136 102C372.496 102.28 372.929 102.42 373.436 102.42C373.649 102.42 373.863 102.4 374.076 102.36C374.289 102.307 374.496 102.253 374.696 102.2C374.909 102.133 375.116 102.08 375.316 102.04C375.529 101.987 375.743 101.96 375.956 101.96C376.383 101.96 376.756 102.08 377.076 102.32C377.409 102.547 377.576 102.893 377.576 103.36C377.576 103.773 377.389 104.14 377.016 104.46C376.656 104.78 376.223 105.053 375.716 105.28C375.223 105.507 374.709 105.68 374.176 105.8C373.643 105.92 373.209 105.98 372.876 105.98C372.116 105.98 371.396 105.813 370.716 105.48C370.036 105.147 369.436 104.707 368.916 104.16C368.396 103.613 367.983 102.987 367.676 102.28C367.383 101.573 367.236 100.847 367.236 100.1C367.236 99.1533 367.403 98.2467 367.736 97.38C368.069 96.5133 368.529 95.7533 369.116 95.1C369.716 94.4333 370.423 93.9067 371.236 93.52C372.063 93.12 372.969 92.92 373.956 92.92C374.556 92.92 375.096 93.02 375.576 93.22C376.069 93.42 376.489 93.7 376.836 94.06C377.183 94.42 377.449 94.8467 377.636 95.34C377.823 95.8333 377.916 96.3733 377.916 96.96C377.916 97.5867 377.849 98.16 377.716 98.68C377.583 99.2 377.363 99.6533 377.056 100.04C376.763 100.413 376.376 100.707 375.896 100.92C375.429 101.133 374.856 101.24 374.176 101.24C373.696 101.24 373.223 101.193 372.756 101.1C372.289 101.007 371.823 100.927 371.356 100.86ZM371.556 97.68C372.049 97.6933 372.536 97.7067 373.016 97.72C373.509 97.7333 373.996 97.74 374.476 97.74C374.836 97.74 375.069 97.6333 375.176 97.42C375.296 97.2067 375.356 96.9333 375.356 96.6C375.356 96.2667 375.236 96.0467 374.996 95.94C374.769 95.8333 374.509 95.78 374.216 95.78C373.616 95.78 373.083 95.9733 372.616 96.36C372.163 96.7333 371.809 97.1733 371.556 97.68ZM388.319 100.58C388.386 100.287 388.453 99.94 388.519 99.54C388.599 99.1267 388.706 98.74 388.839 98.38C388.986 98.0067 389.179 97.6933 389.419 97.44C389.673 97.1867 389.999 97.06 390.399 97.06C390.693 97.06 390.953 97.14 391.179 97.3C391.406 97.4467 391.579 97.6533 391.699 97.92C391.846 98.2533 391.959 98.6 392.039 98.96C392.133 99.32 392.219 99.6933 392.299 100.08C392.379 100.467 392.473 100.86 392.579 101.26C392.686 101.66 392.833 102.067 393.019 102.48C393.113 102.68 393.186 102.887 393.239 103.1C393.306 103.313 393.339 103.533 393.339 103.76C393.339 104.04 393.293 104.313 393.199 104.58C393.106 104.833 392.973 105.06 392.799 105.26C392.639 105.447 392.439 105.6 392.199 105.72C391.959 105.84 391.693 105.9 391.399 105.9C391.053 105.9 390.759 105.847 390.519 105.74C390.279 105.633 390.066 105.493 389.879 105.32C389.706 105.147 389.546 104.947 389.399 104.72C389.253 104.493 389.099 104.26 388.939 104.02C388.539 104.14 388.179 104.28 387.859 104.44C387.553 104.587 387.239 104.733 386.919 104.88C386.599 105.013 386.259 105.127 385.899 105.22C385.553 105.313 385.153 105.36 384.699 105.36C383.966 105.36 383.293 105.233 382.679 104.98C382.066 104.727 381.533 104.373 381.079 103.92C380.639 103.467 380.293 102.933 380.039 102.32C379.786 101.693 379.659 101.02 379.659 100.3C379.659 99.3267 379.826 98.4133 380.159 97.56C380.493 96.6933 380.959 95.94 381.559 95.3C382.159 94.66 382.873 94.1533 383.699 93.78C384.539 93.4067 385.459 93.22 386.459 93.22C386.793 93.22 387.193 93.2467 387.659 93.3C388.139 93.3533 388.599 93.46 389.039 93.62C389.479 93.7667 389.853 93.98 390.159 94.26C390.466 94.54 390.619 94.9067 390.619 95.36C390.619 95.8533 390.453 96.2133 390.119 96.44C389.786 96.6533 389.373 96.8133 388.879 96.92C388.386 97.0267 387.846 97.1267 387.259 97.22C386.673 97.3 386.133 97.46 385.639 97.7C385.146 97.9267 384.733 98.2733 384.399 98.74C384.066 99.2067 383.899 99.88 383.899 100.76C383.899 101.147 383.979 101.447 384.139 101.66C384.313 101.86 384.599 101.96 384.999 101.96C385.186 101.96 385.426 101.907 385.719 101.8C386.026 101.693 386.339 101.567 386.659 101.42C386.993 101.26 387.306 101.107 387.599 100.96C387.893 100.8 388.133 100.673 388.319 100.58ZM399.18 104.52C399.153 104.947 399.133 105.453 399.12 106.04C399.107 106.627 399.027 107.187 398.88 107.72C398.747 108.267 398.52 108.727 398.2 109.1C397.88 109.487 397.413 109.68 396.8 109.68C396.413 109.68 396.087 109.593 395.82 109.42C395.553 109.26 395.34 109.047 395.18 108.78C395.02 108.527 394.907 108.233 394.84 107.9C394.773 107.58 394.74 107.26 394.74 106.94C394.74 106.14 394.767 105.333 394.82 104.52C394.887 103.707 394.953 102.893 395.02 102.08C395.1 101.253 395.167 100.433 395.22 99.62C395.287 98.7933 395.32 97.9667 395.32 97.14C395.32 96.8733 395.293 96.6133 395.24 96.36C395.187 96.1067 395.16 95.8533 395.16 95.6C395.16 95.2933 395.28 95.02 395.52 94.78C395.773 94.5267 396.093 94.3067 396.48 94.12C396.88 93.92 397.32 93.7533 397.8 93.62C398.293 93.4733 398.773 93.3533 399.24 93.26C399.72 93.1667 400.16 93.1 400.56 93.06C400.96 93.0067 401.28 92.98 401.52 92.98C402.427 92.98 403.26 93.1467 404.02 93.48C404.78 93.8 405.433 94.2533 405.98 94.84C406.527 95.4133 406.953 96.0933 407.26 96.88C407.567 97.6533 407.72 98.4867 407.72 99.38C407.72 100.233 407.593 100.947 407.34 101.52C407.087 102.08 406.747 102.547 406.32 102.92C405.893 103.28 405.393 103.56 404.82 103.76C404.26 103.947 403.66 104.087 403.02 104.18C402.393 104.273 401.747 104.34 401.08 104.38C400.427 104.42 399.793 104.467 399.18 104.52ZM398.94 99.64C399.46 99.6667 399.987 99.7 400.52 99.74C401.053 99.78 401.58 99.8 402.1 99.8C402.487 99.8 402.76 99.7133 402.92 99.54C403.093 99.3533 403.18 99.0733 403.18 98.7C403.18 98.2867 403.107 97.96 402.96 97.72C402.813 97.48 402.613 97.2933 402.36 97.16C402.12 97.0267 401.84 96.94 401.52 96.9C401.213 96.86 400.893 96.84 400.56 96.84C400.213 96.84 399.867 96.8667 399.52 96.92C399.173 96.96 398.827 97.0133 398.48 97.08L398.94 99.64ZM414.199 104.52C414.173 104.947 414.153 105.453 414.139 106.04C414.126 106.627 414.046 107.187 413.899 107.72C413.766 108.267 413.539 108.727 413.219 109.1C412.899 109.487 412.433 109.68 411.819 109.68C411.433 109.68 411.106 109.593 410.839 109.42C410.573 109.26 410.359 109.047 410.199 108.78C410.039 108.527 409.926 108.233 409.859 107.9C409.793 107.58 409.759 107.26 409.759 106.94C409.759 106.14 409.786 105.333 409.839 104.52C409.906 103.707 409.973 102.893 410.039 102.08C410.119 101.253 410.186 100.433 410.239 99.62C410.306 98.7933 410.339 97.9667 410.339 97.14C410.339 96.8733 410.313 96.6133 410.259 96.36C410.206 96.1067 410.179 95.8533 410.179 95.6C410.179 95.2933 410.299 95.02 410.539 94.78C410.793 94.5267 411.113 94.3067 411.499 94.12C411.899 93.92 412.339 93.7533 412.819 93.62C413.313 93.4733 413.793 93.3533 414.259 93.26C414.739 93.1667 415.179 93.1 415.579 93.06C415.979 93.0067 416.299 92.98 416.539 92.98C417.446 92.98 418.279 93.1467 419.039 93.48C419.799 93.8 420.453 94.2533 420.999 94.84C421.546 95.4133 421.973 96.0933 422.279 96.88C422.586 97.6533 422.739 98.4867 422.739 99.38C422.739 100.233 422.613 100.947 422.359 101.52C422.106 102.08 421.766 102.547 421.339 102.92C420.913 103.28 420.413 103.56 419.839 103.76C419.279 103.947 418.679 104.087 418.039 104.18C417.413 104.273 416.766 104.34 416.099 104.38C415.446 104.42 414.813 104.467 414.199 104.52ZM413.959 99.64C414.479 99.6667 415.006 99.7 415.539 99.74C416.073 99.78 416.599 99.8 417.119 99.8C417.506 99.8 417.779 99.7133 417.939 99.54C418.113 99.3533 418.199 99.0733 418.199 98.7C418.199 98.2867 418.126 97.96 417.979 97.72C417.833 97.48 417.633 97.2933 417.379 97.16C417.139 97.0267 416.859 96.94 416.539 96.9C416.233 96.86 415.913 96.84 415.579 96.84C415.233 96.84 414.886 96.8667 414.539 96.92C414.193 96.96 413.846 97.0133 413.499 97.08L413.959 99.64ZM427.179 106.04C426.859 106.04 426.572 105.947 426.319 105.76C426.066 105.56 425.866 105.327 425.719 105.06C425.559 104.74 425.412 104.213 425.279 103.48C425.159 102.733 425.052 101.933 424.959 101.08C424.879 100.227 424.819 99.4133 424.779 98.64C424.739 97.8533 424.719 97.26 424.719 96.86C424.719 96.6067 424.726 96.2867 424.739 95.9C424.752 95.5 424.779 95.08 424.819 94.64C424.859 94.1867 424.926 93.74 425.019 93.3C425.112 92.8467 425.239 92.44 425.399 92.08C425.572 91.7067 425.779 91.4067 426.019 91.18C426.259 90.9533 426.559 90.84 426.919 90.84C427.292 90.84 427.599 90.9333 427.839 91.12C428.079 91.3067 428.272 91.5533 428.419 91.86C428.566 92.1667 428.666 92.5133 428.719 92.9C428.786 93.2733 428.826 93.6533 428.839 94.04C428.852 94.4267 428.852 94.8067 428.839 95.18C428.839 95.54 428.839 95.8467 428.839 96.1C428.839 97.4733 428.806 98.8533 428.739 100.24C428.686 101.627 428.632 103.007 428.579 104.38C428.552 104.833 428.439 105.227 428.239 105.56C428.039 105.88 427.686 106.04 427.179 106.04ZM434.52 100.86C434.693 101.34 434.953 101.72 435.3 102C435.66 102.28 436.093 102.42 436.6 102.42C436.813 102.42 437.027 102.4 437.24 102.36C437.453 102.307 437.66 102.253 437.86 102.2C438.073 102.133 438.28 102.08 438.48 102.04C438.693 101.987 438.907 101.96 439.12 101.96C439.547 101.96 439.92 102.08 440.24 102.32C440.573 102.547 440.74 102.893 440.74 103.36C440.74 103.773 440.553 104.14 440.18 104.46C439.82 104.78 439.387 105.053 438.88 105.28C438.387 105.507 437.873 105.68 437.34 105.8C436.807 105.92 436.373 105.98 436.04 105.98C435.28 105.98 434.56 105.813 433.88 105.48C433.2 105.147 432.6 104.707 432.08 104.16C431.56 103.613 431.147 102.987 430.84 102.28C430.547 101.573 430.4 100.847 430.4 100.1C430.4 99.1533 430.567 98.2467 430.9 97.38C431.233 96.5133 431.693 95.7533 432.28 95.1C432.88 94.4333 433.587 93.9067 434.4 93.52C435.227 93.12 436.133 92.92 437.12 92.92C437.72 92.92 438.26 93.02 438.74 93.22C439.233 93.42 439.653 93.7 440 94.06C440.347 94.42 440.613 94.8467 440.8 95.34C440.987 95.8333 441.08 96.3733 441.08 96.96C441.08 97.5867 441.013 98.16 440.88 98.68C440.747 99.2 440.527 99.6533 440.22 100.04C439.927 100.413 439.54 100.707 439.06 100.92C438.593 101.133 438.02 101.24 437.34 101.24C436.86 101.24 436.387 101.193 435.92 101.1C435.453 101.007 434.987 100.927 434.52 100.86ZM434.72 97.68C435.213 97.6933 435.7 97.7067 436.18 97.72C436.673 97.7333 437.16 97.74 437.64 97.74C438 97.74 438.233 97.6333 438.34 97.42C438.46 97.2067 438.52 96.9333 438.52 96.6C438.52 96.2667 438.4 96.0467 438.16 95.94C437.933 95.8333 437.673 95.78 437.38 95.78C436.78 95.78 436.247 95.9733 435.78 96.36C435.327 96.7333 434.973 97.1733 434.72 97.68ZM452.403 99.22C452.47 99.8733 452.537 100.533 452.603 101.2C452.683 101.853 452.723 102.507 452.723 103.16C452.723 103.467 452.703 103.78 452.663 104.1C452.623 104.42 452.537 104.713 452.403 104.98C452.283 105.247 452.103 105.467 451.863 105.64C451.623 105.8 451.31 105.88 450.923 105.88C450.283 105.88 449.803 105.6 449.483 105.04C449.363 104.827 449.257 104.527 449.163 104.14C449.083 103.74 449.01 103.307 448.943 102.84C448.89 102.36 448.843 101.853 448.803 101.32C448.777 100.787 448.75 100.273 448.723 99.78C448.71 99.2733 448.697 98.8067 448.683 98.38C448.683 97.9533 448.683 97.6067 448.683 97.34C448.683 97.0733 448.677 96.7333 448.663 96.32C448.65 95.8933 448.643 95.4533 448.643 95C448.657 94.5333 448.69 94.0667 448.743 93.6C448.81 93.1333 448.91 92.7133 449.043 92.34C449.19 91.9533 449.383 91.6467 449.623 91.42C449.863 91.18 450.177 91.06 450.563 91.06C450.91 91.06 451.19 91.14 451.403 91.3C451.63 91.46 451.803 91.6733 451.923 91.94C452.043 92.1933 452.123 92.4867 452.163 92.82C452.217 93.14 452.243 93.4733 452.243 93.82C452.257 94.1533 452.257 94.48 452.243 94.8C452.23 95.1067 452.223 95.3733 452.223 95.6V96.26H452.343C452.557 96.26 452.77 96.2333 452.983 96.18C453.21 96.1267 453.43 96.0733 453.643 96.02C453.87 95.9533 454.097 95.8933 454.323 95.84C454.55 95.7867 454.783 95.76 455.023 95.76C456.01 95.76 456.797 95.9133 457.383 96.22C457.983 96.5133 458.443 96.9267 458.763 97.46C459.083 97.98 459.29 98.5933 459.383 99.3C459.49 100.007 459.543 100.767 459.543 101.58C459.543 101.927 459.537 102.32 459.523 102.76C459.523 103.2 459.47 103.613 459.363 104C459.27 104.387 459.09 104.72 458.823 105C458.57 105.267 458.197 105.4 457.703 105.4C457.303 105.4 456.977 105.313 456.723 105.14C456.483 104.953 456.29 104.713 456.143 104.42C456.01 104.113 455.91 103.773 455.843 103.4C455.79 103.027 455.757 102.653 455.743 102.28C455.73 101.893 455.723 101.52 455.723 101.16C455.737 100.8 455.737 100.493 455.723 100.24C455.697 99.9067 455.643 99.6533 455.563 99.48C455.483 99.2933 455.363 99.16 455.203 99.08C455.057 99 454.863 98.9533 454.623 98.94C454.397 98.9267 454.13 98.92 453.823 98.92C453.317 98.92 452.843 99.02 452.403 99.22ZM469.823 100.58C469.89 100.287 469.957 99.94 470.023 99.54C470.103 99.1267 470.21 98.74 470.343 98.38C470.49 98.0067 470.683 97.6933 470.923 97.44C471.177 97.1867 471.503 97.06 471.903 97.06C472.197 97.06 472.457 97.14 472.683 97.3C472.91 97.4467 473.083 97.6533 473.203 97.92C473.35 98.2533 473.463 98.6 473.543 98.96C473.637 99.32 473.723 99.6933 473.803 100.08C473.883 100.467 473.977 100.86 474.083 101.26C474.19 101.66 474.337 102.067 474.523 102.48C474.617 102.68 474.69 102.887 474.743 103.1C474.81 103.313 474.843 103.533 474.843 103.76C474.843 104.04 474.797 104.313 474.703 104.58C474.61 104.833 474.477 105.06 474.303 105.26C474.143 105.447 473.943 105.6 473.703 105.72C473.463 105.84 473.197 105.9 472.903 105.9C472.557 105.9 472.263 105.847 472.023 105.74C471.783 105.633 471.57 105.493 471.383 105.32C471.21 105.147 471.05 104.947 470.903 104.72C470.757 104.493 470.603 104.26 470.443 104.02C470.043 104.14 469.683 104.28 469.363 104.44C469.057 104.587 468.743 104.733 468.423 104.88C468.103 105.013 467.763 105.127 467.403 105.22C467.057 105.313 466.657 105.36 466.203 105.36C465.47 105.36 464.797 105.233 464.183 104.98C463.57 104.727 463.037 104.373 462.583 103.92C462.143 103.467 461.797 102.933 461.543 102.32C461.29 101.693 461.163 101.02 461.163 100.3C461.163 99.3267 461.33 98.4133 461.663 97.56C461.997 96.6933 462.463 95.94 463.063 95.3C463.663 94.66 464.377 94.1533 465.203 93.78C466.043 93.4067 466.963 93.22 467.963 93.22C468.297 93.22 468.697 93.2467 469.163 93.3C469.643 93.3533 470.103 93.46 470.543 93.62C470.983 93.7667 471.357 93.98 471.663 94.26C471.97 94.54 472.123 94.9067 472.123 95.36C472.123 95.8533 471.957 96.2133 471.623 96.44C471.29 96.6533 470.877 96.8133 470.383 96.92C469.89 97.0267 469.35 97.1267 468.763 97.22C468.177 97.3 467.637 97.46 467.143 97.7C466.65 97.9267 466.237 98.2733 465.903 98.74C465.57 99.2067 465.403 99.88 465.403 100.76C465.403 101.147 465.483 101.447 465.643 101.66C465.817 101.86 466.103 101.96 466.503 101.96C466.69 101.96 466.93 101.907 467.223 101.8C467.53 101.693 467.843 101.567 468.163 101.42C468.497 101.26 468.81 101.107 469.103 100.96C469.397 100.8 469.637 100.673 469.823 100.58ZM478.124 99.6C477.884 99.5333 477.637 99.4733 477.384 99.42C477.144 99.3667 476.917 99.2867 476.704 99.18C476.49 99.0733 476.317 98.9267 476.184 98.74C476.05 98.5533 475.984 98.3 475.984 97.98C475.984 97.6733 476.057 97.4267 476.204 97.24C476.35 97.0533 476.537 96.9067 476.764 96.8C476.99 96.68 477.237 96.5933 477.504 96.54C477.77 96.4733 478.017 96.4067 478.244 96.34C478.297 95.9267 478.357 95.4467 478.424 94.9C478.504 94.34 478.624 93.8067 478.784 93.3C478.957 92.7933 479.204 92.3667 479.524 92.02C479.844 91.66 480.277 91.48 480.824 91.48C481.397 91.48 481.81 91.6533 482.064 92C482.33 92.3333 482.504 92.74 482.584 93.22C482.664 93.7 482.69 94.2067 482.664 94.74C482.637 95.26 482.624 95.7067 482.624 96.08C482.85 96.1467 483.05 96.18 483.224 96.18C483.557 96.18 483.97 96.1667 484.464 96.14C484.97 96.1 485.45 96.1133 485.904 96.18C486.37 96.2467 486.764 96.4067 487.084 96.66C487.417 96.9 487.584 97.3067 487.584 97.88C487.584 98.2667 487.497 98.5867 487.324 98.84C487.15 99.08 486.924 99.2733 486.644 99.42C486.364 99.5667 486.044 99.6733 485.684 99.74C485.324 99.8067 484.957 99.8533 484.584 99.88C484.224 99.8933 483.87 99.9 483.524 99.9C483.177 99.8867 482.877 99.88 482.624 99.88C482.61 99.9467 482.597 100.007 482.584 100.06C482.584 100.1 482.584 100.153 482.584 100.22C482.584 100.727 482.67 101.093 482.844 101.32C483.017 101.533 483.237 101.673 483.504 101.74C483.784 101.807 484.09 101.827 484.424 101.8C484.77 101.76 485.117 101.74 485.464 101.74C485.81 101.74 486.144 101.767 486.464 101.82C486.797 101.873 487.09 101.973 487.344 102.12C487.597 102.267 487.797 102.473 487.944 102.74C488.104 103.007 488.184 103.353 488.184 103.78C488.184 104.34 488.044 104.767 487.764 105.06C487.484 105.353 487.137 105.56 486.724 105.68C486.31 105.8 485.864 105.867 485.384 105.88C484.917 105.893 484.49 105.9 484.104 105.9C483.01 105.9 482.097 105.76 481.364 105.48C480.644 105.187 480.05 104.773 479.584 104.24C479.13 103.693 478.79 103.033 478.564 102.26C478.35 101.473 478.204 100.587 478.124 99.6ZM502.235 105.68C501.502 105.68 500.782 105.58 500.075 105.38C499.368 105.167 498.695 104.867 498.055 104.48C497.548 104.16 497.142 103.8 496.835 103.4C496.528 102.987 496.288 102.547 496.115 102.08C495.955 101.6 495.848 101.1 495.795 100.58C495.742 100.047 495.715 99.5 495.715 98.94C495.715 96.6867 496.308 94.9667 497.495 93.78C498.682 92.58 500.402 91.98 502.655 91.98C503.735 91.98 504.668 92.18 505.455 92.58C506.242 92.9667 506.888 93.48 507.395 94.12C507.915 94.76 508.288 95.4933 508.515 96.32C508.755 97.1333 508.855 97.9733 508.815 98.84C508.775 99.6933 508.602 100.533 508.295 101.36C508.002 102.173 507.582 102.9 507.035 103.54C506.488 104.18 505.808 104.7 504.995 105.1C504.195 105.487 503.275 105.68 502.235 105.68ZM502.795 96.04C501.502 96.04 500.568 96.3333 499.995 96.92C499.435 97.4933 499.155 98.4267 499.155 99.72C499.155 100.227 499.228 100.633 499.375 100.94C499.535 101.247 499.748 101.487 500.015 101.66C500.282 101.82 500.602 101.933 500.975 102C501.348 102.053 501.755 102.08 502.195 102.08C502.822 102.08 503.362 101.933 503.815 101.64C504.282 101.333 504.642 100.96 504.895 100.52C505.162 100.067 505.322 99.58 505.375 99.06C505.442 98.54 505.395 98.06 505.235 97.62C505.075 97.1667 504.788 96.7933 504.375 96.5C503.975 96.1933 503.448 96.04 502.795 96.04ZM514.016 95.02C514.23 94.9 514.423 94.7933 514.596 94.7C514.783 94.5933 514.963 94.5067 515.136 94.44C515.31 94.36 515.49 94.3 515.676 94.26C515.876 94.2067 516.11 94.18 516.376 94.18C517.163 94.18 517.81 94.3067 518.316 94.56C518.836 94.8 519.256 95.1333 519.576 95.56C519.896 95.9733 520.13 96.46 520.276 97.02C520.436 97.58 520.543 98.1733 520.596 98.8C520.65 99.4133 520.67 100.04 520.656 100.68C520.656 101.32 520.656 101.933 520.656 102.52C520.656 102.787 520.63 103.08 520.576 103.4C520.536 103.72 520.456 104.02 520.336 104.3C520.216 104.567 520.043 104.793 519.816 104.98C519.603 105.153 519.323 105.24 518.976 105.24C518.376 105.24 517.903 105.033 517.556 104.62C517.223 104.193 517.023 103.62 516.956 102.9C516.916 102.367 516.903 101.753 516.916 101.06C516.93 100.367 516.923 99.72 516.896 99.12C516.883 98.5067 516.83 97.9933 516.736 97.58C516.643 97.1533 516.47 96.94 516.216 96.94C515.99 96.94 515.77 97.04 515.556 97.24C515.356 97.4267 515.176 97.6533 515.016 97.92C514.856 98.1867 514.723 98.4667 514.616 98.76C514.523 99.04 514.476 99.28 514.476 99.48C514.476 99.9867 514.516 100.5 514.596 101.02C514.69 101.54 514.736 102.053 514.736 102.56C514.736 102.88 514.716 103.213 514.676 103.56C514.636 103.907 514.55 104.227 514.416 104.52C514.283 104.813 514.09 105.053 513.836 105.24C513.583 105.427 513.25 105.52 512.836 105.52C512.263 105.52 511.83 105.353 511.536 105.02C511.256 104.673 511.056 104.26 510.936 103.78C510.816 103.287 510.756 102.773 510.756 102.24C510.756 101.707 510.756 101.247 510.756 100.86C510.756 100.66 510.756 100.387 510.756 100.04C510.756 99.6933 510.756 99.3133 510.756 98.9C510.77 98.4867 510.783 98.06 510.796 97.62C510.823 97.1667 510.85 96.74 510.876 96.34C510.916 95.94 510.956 95.5867 510.996 95.28C511.05 94.96 511.116 94.7333 511.196 94.6C511.316 94.3733 511.49 94.1867 511.716 94.04C511.943 93.8933 512.19 93.82 512.456 93.82C512.67 93.82 512.85 93.8533 512.996 93.92C513.156 93.9867 513.29 94.08 513.396 94.2C513.516 94.3067 513.623 94.4333 513.716 94.58C513.81 94.7267 513.91 94.8733 514.016 95.02ZM534.949 96.38C535.176 96.3667 535.403 96.36 535.629 96.36C535.869 96.3467 536.103 96.34 536.329 96.34C537.476 96.34 538.356 96.5 538.969 96.82C539.596 97.1267 540.049 97.5467 540.329 98.08C540.609 98.6133 540.769 99.24 540.809 99.96C540.849 100.667 540.869 101.42 540.869 102.22C540.869 103.007 540.669 103.647 540.269 104.14C539.883 104.633 539.396 105.02 538.809 105.3C538.223 105.567 537.576 105.747 536.869 105.84C536.163 105.933 535.503 105.98 534.889 105.98C534.556 105.98 534.169 105.98 533.729 105.98C533.289 105.967 532.829 105.94 532.349 105.9C531.869 105.847 531.396 105.767 530.929 105.66C530.476 105.553 530.069 105.4 529.709 105.2C529.349 105 529.056 104.74 528.829 104.42C528.603 104.087 528.489 103.687 528.489 103.22C528.489 102.9 528.563 102.6 528.709 102.32C528.856 102.04 529.043 101.8 529.269 101.6C529.509 101.387 529.776 101.22 530.069 101.1C530.376 100.98 530.683 100.92 530.989 100.92C531.816 100.92 532.629 100.987 533.429 101.12C534.243 101.253 535.063 101.32 535.889 101.32C536.089 101.32 536.289 101.313 536.489 101.3C536.689 101.287 536.889 101.267 537.089 101.24C537.116 101.08 537.149 100.92 537.189 100.76C537.229 100.6 537.249 100.44 537.249 100.28C537.249 100.093 537.109 99.9667 536.829 99.9C536.563 99.82 536.249 99.78 535.889 99.78C535.543 99.7667 535.196 99.7733 534.849 99.8C534.503 99.8267 534.249 99.84 534.089 99.84C533.263 99.84 532.509 99.7933 531.829 99.7C531.163 99.6067 530.583 99.4133 530.089 99.12C529.609 98.8133 529.236 98.38 528.969 97.82C528.703 97.2467 528.569 96.4933 528.569 95.56C528.569 94.7467 528.749 94.04 529.109 93.44C529.469 92.84 529.936 92.3467 530.509 91.96C531.096 91.5733 531.749 91.2867 532.469 91.1C533.189 90.9133 533.909 90.82 534.629 90.82C534.883 90.82 535.196 90.84 535.569 90.88C535.956 90.9067 536.356 90.96 536.769 91.04C537.183 91.1067 537.589 91.2067 537.989 91.34C538.403 91.4733 538.769 91.64 539.089 91.84C539.423 92.0267 539.689 92.2533 539.889 92.52C540.089 92.7867 540.189 93.0933 540.189 93.44C540.189 93.7467 540.136 94.0067 540.029 94.22C539.923 94.4333 539.776 94.6067 539.589 94.74C539.403 94.86 539.189 94.9467 538.949 95C538.709 95.0533 538.449 95.08 538.169 95.08C537.649 95.08 537.129 95.0467 536.609 94.98C536.103 94.9133 535.589 94.88 535.069 94.88C534.083 94.88 533.356 94.9667 532.889 95.14C532.436 95.3133 532.216 95.5 532.229 95.7C532.243 95.8867 532.483 96.06 532.949 96.22C533.416 96.3667 534.083 96.42 534.949 96.38ZM549.266 105.68C548.533 105.68 547.813 105.58 547.106 105.38C546.4 105.167 545.726 104.867 545.086 104.48C544.58 104.16 544.173 103.8 543.866 103.4C543.56 102.987 543.32 102.547 543.146 102.08C542.986 101.6 542.88 101.1 542.826 100.58C542.773 100.047 542.746 99.5 542.746 98.94C542.746 96.6867 543.34 94.9667 544.526 93.78C545.713 92.58 547.433 91.98 549.686 91.98C550.766 91.98 551.7 92.18 552.486 92.58C553.273 92.9667 553.92 93.48 554.426 94.12C554.946 94.76 555.32 95.4933 555.546 96.32C555.786 97.1333 555.886 97.9733 555.846 98.84C555.806 99.6933 555.633 100.533 555.326 101.36C555.033 102.173 554.613 102.9 554.066 103.54C553.52 104.18 552.84 104.7 552.026 105.1C551.226 105.487 550.306 105.68 549.266 105.68ZM549.826 96.04C548.533 96.04 547.6 96.3333 547.026 96.92C546.466 97.4933 546.186 98.4267 546.186 99.72C546.186 100.227 546.26 100.633 546.406 100.94C546.566 101.247 546.78 101.487 547.046 101.66C547.313 101.82 547.633 101.933 548.006 102C548.38 102.053 548.786 102.08 549.226 102.08C549.853 102.08 550.393 101.933 550.846 101.64C551.313 101.333 551.673 100.96 551.926 100.52C552.193 100.067 552.353 99.58 552.406 99.06C552.473 98.54 552.426 98.06 552.266 97.62C552.106 97.1667 551.82 96.7933 551.406 96.5C551.006 96.1933 550.48 96.04 549.826 96.04ZM560.148 106.04C559.828 106.04 559.541 105.947 559.288 105.76C559.034 105.56 558.834 105.327 558.688 105.06C558.528 104.74 558.381 104.213 558.248 103.48C558.128 102.733 558.021 101.933 557.928 101.08C557.848 100.227 557.788 99.4133 557.748 98.64C557.708 97.8533 557.688 97.26 557.688 96.86C557.688 96.6067 557.694 96.2867 557.708 95.9C557.721 95.5 557.748 95.08 557.788 94.64C557.828 94.1867 557.894 93.74 557.988 93.3C558.081 92.8467 558.208 92.44 558.368 92.08C558.541 91.7067 558.748 91.4067 558.988 91.18C559.228 90.9533 559.528 90.84 559.888 90.84C560.261 90.84 560.568 90.9333 560.808 91.12C561.048 91.3067 561.241 91.5533 561.388 91.86C561.534 92.1667 561.634 92.5133 561.688 92.9C561.754 93.2733 561.794 93.6533 561.808 94.04C561.821 94.4267 561.821 94.8067 561.808 95.18C561.808 95.54 561.808 95.8467 561.808 96.1C561.808 97.4733 561.774 98.8533 561.708 100.24C561.654 101.627 561.601 103.007 561.548 104.38C561.521 104.833 561.408 105.227 561.208 105.56C561.008 105.88 560.654 106.04 560.148 106.04ZM572.089 100.58C572.156 100.287 572.222 99.94 572.289 99.54C572.369 99.1267 572.476 98.74 572.609 98.38C572.756 98.0067 572.949 97.6933 573.189 97.44C573.442 97.1867 573.769 97.06 574.169 97.06C574.462 97.06 574.722 97.14 574.949 97.3C575.176 97.4467 575.349 97.6533 575.469 97.92C575.616 98.2533 575.729 98.6 575.809 98.96C575.902 99.32 575.989 99.6933 576.069 100.08C576.149 100.467 576.242 100.86 576.349 101.26C576.456 101.66 576.602 102.067 576.789 102.48C576.882 102.68 576.956 102.887 577.009 103.1C577.076 103.313 577.109 103.533 577.109 103.76C577.109 104.04 577.062 104.313 576.969 104.58C576.876 104.833 576.742 105.06 576.569 105.26C576.409 105.447 576.209 105.6 575.969 105.72C575.729 105.84 575.462 105.9 575.169 105.9C574.822 105.9 574.529 105.847 574.289 105.74C574.049 105.633 573.836 105.493 573.649 105.32C573.476 105.147 573.316 104.947 573.169 104.72C573.022 104.493 572.869 104.26 572.709 104.02C572.309 104.14 571.949 104.28 571.629 104.44C571.322 104.587 571.009 104.733 570.689 104.88C570.369 105.013 570.029 105.127 569.669 105.22C569.322 105.313 568.922 105.36 568.469 105.36C567.736 105.36 567.062 105.233 566.449 104.98C565.836 104.727 565.302 104.373 564.849 103.92C564.409 103.467 564.062 102.933 563.809 102.32C563.556 101.693 563.429 101.02 563.429 100.3C563.429 99.3267 563.596 98.4133 563.929 97.56C564.262 96.6933 564.729 95.94 565.329 95.3C565.929 94.66 566.642 94.1533 567.469 93.78C568.309 93.4067 569.229 93.22 570.229 93.22C570.562 93.22 570.962 93.2467 571.429 93.3C571.909 93.3533 572.369 93.46 572.809 93.62C573.249 93.7667 573.622 93.98 573.929 94.26C574.236 94.54 574.389 94.9067 574.389 95.36C574.389 95.8533 574.222 96.2133 573.889 96.44C573.556 96.6533 573.142 96.8133 572.649 96.92C572.156 97.0267 571.616 97.1267 571.029 97.22C570.442 97.3 569.902 97.46 569.409 97.7C568.916 97.9267 568.502 98.2733 568.169 98.74C567.836 99.2067 567.669 99.88 567.669 100.76C567.669 101.147 567.749 101.447 567.909 101.66C568.082 101.86 568.369 101.96 568.769 101.96C568.956 101.96 569.196 101.907 569.489 101.8C569.796 101.693 570.109 101.567 570.429 101.42C570.762 101.26 571.076 101.107 571.369 100.96C571.662 100.8 571.902 100.673 572.089 100.58ZM581.809 95.02C582.023 94.9 582.216 94.7933 582.389 94.7C582.576 94.5933 582.756 94.5067 582.929 94.44C583.103 94.36 583.283 94.3 583.469 94.26C583.669 94.2067 583.903 94.18 584.169 94.18C584.956 94.18 585.603 94.3067 586.109 94.56C586.629 94.8 587.049 95.1333 587.369 95.56C587.689 95.9733 587.923 96.46 588.069 97.02C588.229 97.58 588.336 98.1733 588.389 98.8C588.443 99.4133 588.463 100.04 588.449 100.68C588.449 101.32 588.449 101.933 588.449 102.52C588.449 102.787 588.423 103.08 588.369 103.4C588.329 103.72 588.249 104.02 588.129 104.3C588.009 104.567 587.836 104.793 587.609 104.98C587.396 105.153 587.116 105.24 586.769 105.24C586.169 105.24 585.696 105.033 585.349 104.62C585.016 104.193 584.816 103.62 584.749 102.9C584.709 102.367 584.696 101.753 584.709 101.06C584.723 100.367 584.716 99.72 584.689 99.12C584.676 98.5067 584.623 97.9933 584.529 97.58C584.436 97.1533 584.263 96.94 584.009 96.94C583.783 96.94 583.563 97.04 583.349 97.24C583.149 97.4267 582.969 97.6533 582.809 97.92C582.649 98.1867 582.516 98.4667 582.409 98.76C582.316 99.04 582.269 99.28 582.269 99.48C582.269 99.9867 582.309 100.5 582.389 101.02C582.483 101.54 582.529 102.053 582.529 102.56C582.529 102.88 582.509 103.213 582.469 103.56C582.429 103.907 582.343 104.227 582.209 104.52C582.076 104.813 581.883 105.053 581.629 105.24C581.376 105.427 581.043 105.52 580.629 105.52C580.056 105.52 579.623 105.353 579.329 105.02C579.049 104.673 578.849 104.26 578.729 103.78C578.609 103.287 578.549 102.773 578.549 102.24C578.549 101.707 578.549 101.247 578.549 100.86C578.549 100.66 578.549 100.387 578.549 100.04C578.549 99.6933 578.549 99.3133 578.549 98.9C578.563 98.4867 578.576 98.06 578.589 97.62C578.616 97.1667 578.643 96.74 578.669 96.34C578.709 95.94 578.749 95.5867 578.789 95.28C578.843 94.96 578.909 94.7333 578.989 94.6C579.109 94.3733 579.283 94.1867 579.509 94.04C579.736 93.8933 579.983 93.82 580.249 93.82C580.463 93.82 580.643 93.8533 580.789 93.92C580.949 93.9867 581.083 94.08 581.189 94.2C581.309 94.3067 581.416 94.4333 581.509 94.58C581.603 94.7267 581.703 94.8733 581.809 95.02ZM599.023 100.58C599.089 100.287 599.156 99.94 599.223 99.54C599.303 99.1267 599.409 98.74 599.543 98.38C599.689 98.0067 599.883 97.6933 600.122 97.44C600.376 97.1867 600.703 97.06 601.103 97.06C601.396 97.06 601.656 97.14 601.883 97.3C602.109 97.4467 602.283 97.6533 602.403 97.92C602.549 98.2533 602.663 98.6 602.743 98.96C602.836 99.32 602.923 99.6933 603.003 100.08C603.083 100.467 603.176 100.86 603.283 101.26C603.389 101.66 603.536 102.067 603.723 102.48C603.816 102.68 603.889 102.887 603.943 103.1C604.009 103.313 604.043 103.533 604.043 103.76C604.043 104.04 603.996 104.313 603.903 104.58C603.809 104.833 603.676 105.06 603.503 105.26C603.343 105.447 603.143 105.6 602.903 105.72C602.663 105.84 602.396 105.9 602.103 105.9C601.756 105.9 601.463 105.847 601.223 105.74C600.982 105.633 600.769 105.493 600.582 105.32C600.409 105.147 600.249 104.947 600.103 104.72C599.956 104.493 599.803 104.26 599.643 104.02C599.243 104.14 598.883 104.28 598.563 104.44C598.256 104.587 597.943 104.733 597.623 104.88C597.303 105.013 596.963 105.127 596.603 105.22C596.256 105.313 595.856 105.36 595.403 105.36C594.669 105.36 593.996 105.233 593.383 104.98C592.769 104.727 592.236 104.373 591.783 103.92C591.343 103.467 590.996 102.933 590.743 102.32C590.489 101.693 590.363 101.02 590.363 100.3C590.363 99.3267 590.529 98.4133 590.863 97.56C591.196 96.6933 591.663 95.94 592.263 95.3C592.863 94.66 593.576 94.1533 594.403 93.78C595.243 93.4067 596.163 93.22 597.163 93.22C597.496 93.22 597.896 93.2467 598.363 93.3C598.843 93.3533 599.303 93.46 599.743 93.62C600.183 93.7667 600.556 93.98 600.862 94.26C601.169 94.54 601.322 94.9067 601.322 95.36C601.322 95.8533 601.156 96.2133 600.823 96.44C600.489 96.6533 600.076 96.8133 599.583 96.92C599.089 97.0267 598.549 97.1267 597.963 97.22C597.376 97.3 596.836 97.46 596.343 97.7C595.849 97.9267 595.436 98.2733 595.103 98.74C594.769 99.2067 594.603 99.88 594.603 100.76C594.603 101.147 594.683 101.447 594.842 101.66C595.016 101.86 595.303 101.96 595.703 101.96C595.889 101.96 596.129 101.907 596.423 101.8C596.729 101.693 597.043 101.567 597.363 101.42C597.696 101.26 598.009 101.107 598.303 100.96C598.596 100.8 598.836 100.673 599.023 100.58Z" fill="black"/>
<path d="M50.9643 40.85C50.6643 41.5 50.3309 42.1667 49.9643 42.85C49.6143 43.5167 49.2059 44.125 48.7393 44.675C48.2726 45.225 47.7226 45.675 47.0893 46.025C46.4726 46.3917 45.7476 46.575 44.9143 46.575C43.8143 46.575 42.9143 46.3 42.2143 45.75C41.5143 45.2 40.9559 44.5083 40.5393 43.675C40.1226 42.8417 39.8309 41.9333 39.6643 40.95C39.5143 39.9667 39.4393 39.05 39.4393 38.2C39.4393 37.5333 39.4726 36.7083 39.5393 35.725C39.6059 34.7417 39.7059 33.7417 39.8393 32.725C39.9726 31.6917 40.1393 30.7083 40.3393 29.775C40.5393 28.825 40.7809 28.0583 41.0643 27.475C41.2476 27.0917 41.5143 26.7583 41.8643 26.475C42.2143 26.1917 42.6059 26.05 43.0393 26.05C43.4559 26.05 43.8059 26.1333 44.0893 26.3C44.3726 26.45 44.5976 26.6583 44.7643 26.925C44.9309 27.1917 45.0476 27.5 45.1143 27.85C45.1809 28.1833 45.2143 28.525 45.2143 28.875C45.2143 30.3917 45.1393 31.9 44.9893 33.4C44.8393 34.8833 44.7643 36.3833 44.7643 37.9C44.7643 38.2333 44.7726 38.6 44.7893 39C44.8059 39.3833 44.8393 39.7667 44.8893 40.15C44.9393 40.5333 45.0226 40.9083 45.1393 41.275C45.2559 41.625 45.4143 41.9333 45.6143 42.2L45.8143 42.225C46.0809 42.225 46.3559 42.0333 46.6393 41.65C46.9393 41.2667 47.2309 40.775 47.5143 40.175C47.8143 39.575 48.1059 38.9083 48.3893 38.175C48.6726 37.4417 48.9226 36.7417 49.1393 36.075C49.3726 35.3917 49.5726 34.7833 49.7393 34.25C49.9059 33.7 50.0309 33.3083 50.1143 33.075C50.2476 32.6917 50.4393 32.375 50.6893 32.125C50.9559 31.875 51.2976 31.75 51.7143 31.75C52.0976 31.75 52.4393 31.875 52.7393 32.125C53.0393 32.3583 53.2393 32.6583 53.3393 33.025C53.3893 33.2083 53.4226 33.3833 53.4393 33.55C53.4559 33.7167 53.4726 33.8917 53.4893 34.075C53.5226 34.5083 53.5726 34.9417 53.6393 35.375C53.7226 35.7917 53.8309 36.2167 53.9643 36.65C54.3976 38.1667 54.8643 39.2583 55.3643 39.925C55.8643 40.5917 56.3309 40.8667 56.7643 40.75C57.1976 40.6167 57.5559 40.1167 57.8393 39.25C58.1393 38.3667 58.2893 37.15 58.2893 35.6C58.2893 34.65 58.2643 33.7083 58.2143 32.775C58.1643 31.8417 58.1393 30.9 58.1393 29.95C58.1393 29.6 58.1809 29.225 58.2643 28.825C58.3476 28.425 58.4809 28.0583 58.6643 27.725C58.8476 27.3917 59.0809 27.1167 59.3643 26.9C59.6643 26.6667 60.0309 26.55 60.4643 26.55C60.9643 26.55 61.3809 26.7 61.7143 27C62.0643 27.3 62.3476 27.6917 62.5643 28.175C62.7809 28.6583 62.9476 29.2 63.0643 29.8C63.1809 30.4 63.2559 31 63.2893 31.6C63.3393 32.1833 63.3643 32.7417 63.3643 33.275C63.3809 33.8083 63.3893 34.25 63.3893 34.6C63.3893 35.3167 63.3476 36.1 63.2643 36.95C63.1976 37.7833 63.0643 38.6333 62.8643 39.5C62.6643 40.3667 62.3976 41.2083 62.0643 42.025C61.7309 42.825 61.3059 43.5417 60.7893 44.175C60.2893 44.7917 59.6809 45.2917 58.9643 45.675C58.2643 46.0417 57.4476 46.225 56.5143 46.225C55.7309 46.225 55.0559 46.0583 54.4893 45.725C53.9393 45.375 53.4559 44.9333 53.0393 44.4C52.6226 43.8667 52.2476 43.2917 51.9143 42.675C51.5976 42.0417 51.2809 41.4333 50.9643 40.85ZM77.3188 40.15L70.2938 40.875C70.1604 41.675 70.1188 42.4917 70.1688 43.325C70.2354 44.1583 70.2688 44.9833 70.2688 45.8C70.2688 46.3667 70.1271 46.8167 69.8438 47.15C69.5604 47.5 69.1188 47.675 68.5188 47.675C68.0688 47.675 67.6854 47.4417 67.3688 46.975C67.0521 46.525 66.7854 45.9417 66.5688 45.225C66.3521 44.4917 66.1771 43.6917 66.0438 42.825C65.9104 41.9583 65.8104 41.1167 65.7438 40.3C65.6771 39.4833 65.6354 38.75 65.6188 38.1C65.6021 37.4333 65.5938 36.95 65.5938 36.65C65.5938 35.4 65.6604 34.1583 65.7938 32.925C65.9438 31.675 66.1271 30.4333 66.3438 29.2C66.4271 28.6833 66.6188 28.2583 66.9188 27.925C67.2354 27.575 67.6771 27.4 68.2438 27.4C68.7104 27.4 69.0938 27.55 69.3938 27.85C69.7104 28.1333 69.9104 28.4917 69.9938 28.925C70.2438 30.1583 70.3521 31.4333 70.3188 32.75C70.2854 34.05 70.2688 35.325 70.2688 36.575C70.9521 36.6083 71.5271 36.6167 71.9938 36.6C72.4604 36.5667 72.9271 36.5333 73.3938 36.5C73.8771 36.45 74.4271 36.4167 75.0438 36.4C75.6604 36.3667 76.4604 36.3583 77.4438 36.375C77.4604 36.225 77.4854 35.95 77.5188 35.55C77.5688 35.15 77.6188 34.6833 77.6688 34.15C77.7354 33.6167 77.8021 33.0583 77.8688 32.475C77.9521 31.875 78.0271 31.3083 78.0938 30.775C78.1771 30.2417 78.2604 29.7667 78.3438 29.35C78.4271 28.9333 78.5104 28.65 78.5938 28.5C78.7438 28.2 78.9521 27.9583 79.2188 27.775C79.5021 27.575 79.8188 27.475 80.1688 27.475C80.8188 27.475 81.3021 27.7417 81.6188 28.275C81.9354 28.7917 82.1521 29.4167 82.2688 30.15C82.4021 30.8667 82.4604 31.6 82.4438 32.35C82.4438 33.0833 82.4438 33.675 82.4438 34.125C82.4438 34.7583 82.4188 35.5583 82.3688 36.525C82.3354 37.4917 82.2771 38.5 82.1938 39.55C82.1271 40.5833 82.0354 41.5833 81.9188 42.55C81.8188 43.5 81.7021 44.2833 81.5688 44.9C81.4688 45.3333 81.2521 45.6833 80.9188 45.95C80.5854 46.2167 80.2021 46.35 79.7688 46.35C79.3521 46.35 79.0104 46.2333 78.7438 46C78.4771 45.7833 78.2604 45.4917 78.0938 45.125C77.9271 44.7583 77.8021 44.35 77.7188 43.9C77.6354 43.4333 77.5688 42.975 77.5188 42.525C77.4688 42.0583 77.4271 41.6167 77.3938 41.2C77.3771 40.7833 77.3521 40.4333 77.3188 40.15ZM103.033 36.625C103.033 37.9417 102.833 39.1917 102.433 40.375C102.033 41.5583 101.449 42.6 100.683 43.5C99.9326 44.4 98.9993 45.1167 97.8826 45.65C96.766 46.1667 95.4826 46.425 94.0326 46.425C92.4993 46.425 91.141 46.1917 89.9576 45.725C88.7743 45.2583 87.7743 44.6 86.9576 43.75C86.1576 42.9 85.5493 41.8917 85.1326 40.725C84.716 39.5417 84.5076 38.25 84.5076 36.85C84.5076 35.0333 84.9076 33.4083 85.7076 31.975C86.5076 30.5417 87.716 29.3417 89.3326 28.375C89.716 28.1583 90.1576 27.975 90.6576 27.825C91.1576 27.675 91.6743 27.5667 92.2076 27.5C92.741 27.4167 93.2743 27.3583 93.8076 27.325C94.341 27.2917 94.8326 27.275 95.2826 27.275C96.616 27.275 97.8076 27.5667 98.8576 28.15C99.9243 28.7333 100.849 29.5167 101.633 30.5C101.949 30.8833 102.199 31.3333 102.383 31.85C102.566 32.35 102.708 32.875 102.808 33.425C102.908 33.975 102.966 34.5333 102.983 35.1C103.016 35.65 103.033 36.1583 103.033 36.625ZM95.5326 32.25C94.8993 32.25 94.2993 32.2917 93.7326 32.375C93.166 32.4583 92.6493 32.6167 92.1826 32.85C91.7326 33.0667 91.3326 33.375 90.9826 33.775C90.6326 34.175 90.3576 34.6833 90.1576 35.3C90.0243 35.7 89.891 36.1083 89.7576 36.525C89.641 36.925 89.5826 37.3417 89.5826 37.775C89.5826 39.275 89.941 40.3833 90.6576 41.1C91.391 41.8 92.5493 42.15 94.1326 42.15C94.9993 42.15 95.716 42.075 96.2826 41.925C96.8493 41.775 97.3076 41.5333 97.6576 41.2C98.0243 40.85 98.3076 40.4167 98.5076 39.9C98.7076 39.3667 98.8743 38.725 99.0076 37.975C99.1243 37.225 99.191 36.5083 99.2076 35.825C99.241 35.125 99.1493 34.5167 98.9326 34C98.716 33.4667 98.341 33.0417 97.8076 32.725C97.291 32.4083 96.5326 32.25 95.5326 32.25ZM116.962 30.975C116.629 30.925 116.229 30.8833 115.762 30.85C115.312 30.8 114.879 30.7167 114.462 30.6C114.046 30.4667 113.696 30.275 113.412 30.025C113.129 29.7583 112.987 29.3917 112.987 28.925C112.987 28.4583 113.112 28.075 113.362 27.775C113.612 27.475 113.937 27.2417 114.337 27.075C114.737 26.8917 115.187 26.7583 115.687 26.675C116.187 26.5917 116.687 26.5417 117.187 26.525C117.704 26.4917 118.187 26.4833 118.637 26.5C119.087 26.5 119.471 26.5 119.787 26.5C120.137 26.5 120.579 26.4833 121.112 26.45C121.662 26.4167 122.187 26.4417 122.687 26.525C123.187 26.5917 123.621 26.7417 123.987 26.975C124.354 27.2083 124.537 27.6 124.537 28.15C124.537 28.5833 124.396 28.95 124.112 29.25C123.846 29.5333 123.521 29.7667 123.137 29.95C122.754 30.1333 122.337 30.2833 121.887 30.4C121.454 30.5 121.079 30.5833 120.762 30.65C120.796 31.4 120.829 32.15 120.862 32.9C120.912 33.6333 120.937 34.375 120.937 35.125C120.937 35.6083 120.929 36.1 120.912 36.6C120.912 37.0833 120.904 37.5667 120.887 38.05C120.871 38.6833 120.804 39.3083 120.687 39.925C120.571 40.525 120.512 41.1417 120.512 41.775C120.846 41.8583 121.246 41.9583 121.712 42.075C122.196 42.1917 122.654 42.35 123.087 42.55C123.537 42.7333 123.921 42.975 124.237 43.275C124.554 43.5583 124.712 43.925 124.712 44.375C124.712 44.775 124.612 45.1 124.412 45.35C124.212 45.5833 123.946 45.7667 123.612 45.9C123.296 46.0167 122.929 46.0917 122.512 46.125C122.112 46.175 121.704 46.2 121.287 46.2C120.887 46.2 120.496 46.1833 120.112 46.15C119.746 46.1333 119.429 46.125 119.162 46.125C118.846 46.125 118.462 46.1333 118.012 46.15C117.562 46.1667 117.079 46.1667 116.562 46.15C116.062 46.15 115.562 46.1167 115.062 46.05C114.562 45.9833 114.112 45.8667 113.712 45.7C113.329 45.5333 113.012 45.3 112.762 45C112.512 44.6833 112.387 44.2833 112.387 43.8C112.387 43.2333 112.537 42.8 112.837 42.5C113.154 42.2 113.529 41.975 113.962 41.825C114.412 41.675 114.887 41.5833 115.387 41.55C115.904 41.5167 116.362 41.4833 116.762 41.45C116.846 40.7 116.862 39.9667 116.812 39.25C116.779 38.5333 116.762 37.8 116.762 37.05C116.762 36.0333 116.787 35.025 116.837 34.025C116.887 33.0083 116.929 31.9917 116.962 30.975ZM134.754 45.85C133.887 46.05 132.987 46.1333 132.054 46.1C131.121 46.0833 130.204 46.0583 129.304 46.025C128.921 46.0083 128.554 45.9417 128.204 45.825C127.854 45.6917 127.537 45.5167 127.254 45.3C126.987 45.0833 126.771 44.825 126.604 44.525C126.454 44.2083 126.387 43.8583 126.404 43.475C126.421 43.1417 126.512 42.8333 126.679 42.55C126.846 42.2667 127.054 42.025 127.304 41.825C127.571 41.625 127.862 41.4667 128.179 41.35C128.512 41.2333 128.854 41.1833 129.204 41.2C129.637 41.2167 130.046 41.2917 130.429 41.425C130.812 41.5583 131.221 41.6417 131.654 41.675C131.821 41.675 132.012 41.6667 132.229 41.65C132.462 41.6167 132.671 41.5667 132.854 41.5C133.054 41.4167 133.221 41.3083 133.354 41.175C133.487 41.0417 133.554 40.8667 133.554 40.65C133.587 40.1 133.421 39.6417 133.054 39.275C132.687 38.9083 132.221 38.575 131.654 38.275C131.087 37.975 130.471 37.6667 129.804 37.35C129.154 37.0333 128.554 36.65 128.004 36.2C127.454 35.75 127.004 35.1917 126.654 34.525C126.304 33.8583 126.154 33.0167 126.204 32C126.254 31.0333 126.462 30.2 126.829 29.5C127.212 28.8 127.721 28.225 128.354 27.775C128.987 27.325 129.729 27 130.579 26.8C131.429 26.6 132.346 26.5167 133.329 26.55C133.912 26.5833 134.546 26.7 135.229 26.9C135.912 27.1 136.537 27.3833 137.104 27.75C137.687 28.1167 138.162 28.5583 138.529 29.075C138.912 29.575 139.087 30.1417 139.054 30.775C139.037 31.0083 138.979 31.2333 138.879 31.45C138.779 31.65 138.637 31.8333 138.454 32C138.287 32.1667 138.087 32.3 137.854 32.4C137.637 32.4833 137.396 32.5167 137.129 32.5C136.879 32.4833 136.637 32.425 136.404 32.325C136.171 32.225 135.921 32.125 135.654 32.025C135.404 31.9083 135.129 31.8 134.829 31.7C134.546 31.6 134.221 31.5417 133.854 31.525C133.171 31.4917 132.612 31.55 132.179 31.7C131.762 31.8333 131.471 32.025 131.304 32.275C131.137 32.5083 131.104 32.775 131.204 33.075C131.304 33.375 131.546 33.6583 131.929 33.925C132.212 34.125 132.512 34.3 132.829 34.45C133.146 34.5833 133.462 34.7083 133.779 34.825C134.096 34.9417 134.412 35.0583 134.729 35.175C135.062 35.275 135.387 35.4 135.704 35.55C136.521 35.9333 137.187 36.4333 137.704 37.05C138.237 37.65 138.621 38.3 138.854 39C139.104 39.7 139.196 40.4167 139.129 41.15C139.079 41.8833 138.879 42.5667 138.529 43.2C138.196 43.8333 137.712 44.3917 137.079 44.875C136.446 45.3417 135.671 45.6667 134.754 45.85ZM149.725 31.55C149.425 31.2833 149.159 31.025 148.925 30.775C148.692 30.525 148.575 30.1833 148.575 29.75C148.575 29.3167 148.742 28.9417 149.075 28.625C149.425 28.3083 149.867 28.0417 150.4 27.825C150.95 27.5917 151.55 27.4083 152.2 27.275C152.867 27.125 153.517 27.0167 154.15 26.95C154.8 26.8667 155.4 26.8083 155.95 26.775C156.5 26.7417 156.934 26.725 157.25 26.725C158.467 26.725 159.6 26.8667 160.65 27.15C161.717 27.4333 162.642 27.8833 163.425 28.5C164.209 29.1 164.825 29.8833 165.275 30.85C165.725 31.8 165.95 32.9417 165.95 34.275C165.95 34.925 165.85 35.5667 165.65 36.2C165.45 36.8167 165.167 37.3917 164.8 37.925C164.2 38.825 163.475 39.5 162.625 39.95C161.792 40.4 160.9 40.7167 159.95 40.9C159 41.0833 158.017 41.175 157 41.175C155.984 41.175 155 41.175 154.05 41.175C153.967 41.425 153.909 41.725 153.875 42.075C153.859 42.4083 153.834 42.7583 153.8 43.125C153.784 43.4917 153.75 43.8583 153.7 44.225C153.65 44.5917 153.559 44.925 153.425 45.225C153.292 45.5083 153.1 45.7417 152.85 45.925C152.6 46.0917 152.275 46.175 151.875 46.175C151.425 46.175 151.042 46.0167 150.725 45.7C150.425 45.3833 150.167 44.975 149.95 44.475C149.75 43.975 149.592 43.4167 149.475 42.8C149.359 42.1833 149.267 41.575 149.2 40.975C149.15 40.3583 149.117 39.7917 149.1 39.275C149.084 38.7417 149.075 38.3167 149.075 38C149.075 36.9 149.134 35.8167 149.25 34.75C149.367 33.6833 149.525 32.6167 149.725 31.55ZM153.95 35.875C154.4 35.975 154.85 36.0417 155.3 36.075C155.767 36.1083 156.234 36.125 156.7 36.125C157.05 36.125 157.459 36.125 157.925 36.125C158.392 36.125 158.834 36.075 159.25 35.975C159.667 35.8583 160.017 35.6667 160.3 35.4C160.6 35.1333 160.75 34.7417 160.75 34.225C160.75 33.6583 160.625 33.2 160.375 32.85C160.142 32.4833 159.825 32.2083 159.425 32.025C159.042 31.825 158.6 31.6917 158.1 31.625C157.617 31.5583 157.117 31.5333 156.6 31.55C156.084 31.5667 155.575 31.6083 155.075 31.675C154.592 31.725 154.159 31.7667 153.775 31.8C153.809 32.4833 153.834 33.1667 153.85 33.85C153.884 34.5167 153.917 35.1917 153.95 35.875ZM172.382 30.975C172.049 30.925 171.649 30.8833 171.182 30.85C170.732 30.8 170.299 30.7167 169.882 30.6C169.466 30.4667 169.116 30.275 168.832 30.025C168.549 29.7583 168.407 29.3917 168.407 28.925C168.407 28.4583 168.532 28.075 168.782 27.775C169.032 27.475 169.357 27.2417 169.757 27.075C170.157 26.8917 170.607 26.7583 171.107 26.675C171.607 26.5917 172.107 26.5417 172.607 26.525C173.124 26.4917 173.607 26.4833 174.057 26.5C174.507 26.5 174.891 26.5 175.207 26.5C175.557 26.5 175.999 26.4833 176.532 26.45C177.082 26.4167 177.607 26.4417 178.107 26.525C178.607 26.5917 179.041 26.7417 179.407 26.975C179.774 27.2083 179.957 27.6 179.957 28.15C179.957 28.5833 179.816 28.95 179.532 29.25C179.266 29.5333 178.941 29.7667 178.557 29.95C178.174 30.1333 177.757 30.2833 177.307 30.4C176.874 30.5 176.499 30.5833 176.182 30.65C176.216 31.4 176.249 32.15 176.282 32.9C176.332 33.6333 176.357 34.375 176.357 35.125C176.357 35.6083 176.349 36.1 176.332 36.6C176.332 37.0833 176.324 37.5667 176.307 38.05C176.291 38.6833 176.224 39.3083 176.107 39.925C175.991 40.525 175.932 41.1417 175.932 41.775C176.266 41.8583 176.666 41.9583 177.132 42.075C177.616 42.1917 178.074 42.35 178.507 42.55C178.957 42.7333 179.341 42.975 179.657 43.275C179.974 43.5583 180.132 43.925 180.132 44.375C180.132 44.775 180.032 45.1 179.832 45.35C179.632 45.5833 179.366 45.7667 179.032 45.9C178.716 46.0167 178.349 46.0917 177.932 46.125C177.532 46.175 177.124 46.2 176.707 46.2C176.307 46.2 175.916 46.1833 175.532 46.15C175.166 46.1333 174.849 46.125 174.582 46.125C174.266 46.125 173.882 46.1333 173.432 46.15C172.982 46.1667 172.499 46.1667 171.982 46.15C171.482 46.15 170.982 46.1167 170.482 46.05C169.982 45.9833 169.532 45.8667 169.132 45.7C168.749 45.5333 168.432 45.3 168.182 45C167.932 44.6833 167.807 44.2833 167.807 43.8C167.807 43.2333 167.957 42.8 168.257 42.5C168.574 42.2 168.949 41.975 169.382 41.825C169.832 41.675 170.307 41.5833 170.807 41.55C171.324 41.5167 171.782 41.4833 172.182 41.45C172.266 40.7 172.282 39.9667 172.232 39.25C172.199 38.5333 172.182 37.8 172.182 37.05C172.182 36.0333 172.207 35.025 172.257 34.025C172.307 33.0083 172.349 31.9917 172.382 30.975ZM182.149 31.225C182.149 30.875 182.065 30.5583 181.899 30.275C181.749 29.9917 181.674 29.6833 181.674 29.35C181.674 28.9 181.824 28.5167 182.124 28.2C182.424 27.8667 182.807 27.6 183.274 27.4C183.757 27.1833 184.29 27.0167 184.874 26.9C185.457 26.7667 186.032 26.6667 186.599 26.6C187.182 26.5333 187.724 26.4917 188.224 26.475C188.724 26.4583 189.132 26.45 189.449 26.45C190.849 26.45 192.099 26.7 193.199 27.2C194.315 27.7 195.257 28.3833 196.024 29.25C196.79 30.1167 197.374 31.1417 197.774 32.325C198.19 33.4917 198.399 34.7583 198.399 36.125C198.399 37.6083 198.099 38.9833 197.499 40.25C196.899 41.5 196.09 42.5833 195.074 43.5C194.074 44.4 192.899 45.1083 191.549 45.625C190.215 46.1417 188.807 46.4 187.324 46.4C186.89 46.4 186.449 46.35 185.999 46.25C185.565 46.15 185.149 46.0167 184.749 45.85C184.232 45.65 183.824 45.375 183.524 45.025C183.224 44.675 183.065 44.225 183.049 43.675C183.032 42.525 182.974 41.4167 182.874 40.35C182.774 39.2833 182.665 38.2417 182.549 37.225C182.449 36.2083 182.357 35.2083 182.274 34.225C182.19 33.225 182.149 32.225 182.149 31.225ZM186.624 30.9C186.807 32.6333 186.965 34.3667 187.099 36.1C187.232 37.8333 187.274 39.575 187.224 41.325L187.349 41.6C188.249 41.5167 189.065 41.4167 189.799 41.3C190.549 41.1833 191.19 40.9667 191.724 40.65C192.257 40.3333 192.665 39.875 192.949 39.275C193.249 38.6583 193.399 37.8167 193.399 36.75C193.399 35.6333 193.249 34.6583 192.949 33.825C192.665 32.975 192.232 32.2917 191.649 31.775C191.082 31.2583 190.374 30.925 189.524 30.775C188.69 30.6083 187.724 30.65 186.624 30.9ZM218.999 36.625C218.999 37.9417 218.799 39.1917 218.399 40.375C217.999 41.5583 217.416 42.6 216.649 43.5C215.899 44.4 214.966 45.1167 213.849 45.65C212.733 46.1667 211.449 46.425 209.999 46.425C208.466 46.425 207.108 46.1917 205.924 45.725C204.741 45.2583 203.741 44.6 202.924 43.75C202.124 42.9 201.516 41.8917 201.099 40.725C200.683 39.5417 200.474 38.25 200.474 36.85C200.474 35.0333 200.874 33.4083 201.674 31.975C202.474 30.5417 203.683 29.3417 205.299 28.375C205.683 28.1583 206.124 27.975 206.624 27.825C207.124 27.675 207.641 27.5667 208.174 27.5C208.708 27.4167 209.241 27.3583 209.774 27.325C210.308 27.2917 210.799 27.275 211.249 27.275C212.583 27.275 213.774 27.5667 214.824 28.15C215.891 28.7333 216.816 29.5167 217.599 30.5C217.916 30.8833 218.166 31.3333 218.349 31.85C218.533 32.35 218.674 32.875 218.774 33.425C218.874 33.975 218.933 34.5333 218.949 35.1C218.983 35.65 218.999 36.1583 218.999 36.625ZM211.499 32.25C210.866 32.25 210.266 32.2917 209.699 32.375C209.133 32.4583 208.616 32.6167 208.149 32.85C207.699 33.0667 207.299 33.375 206.949 33.775C206.599 34.175 206.324 34.6833 206.124 35.3C205.991 35.7 205.858 36.1083 205.724 36.525C205.608 36.925 205.549 37.3417 205.549 37.775C205.549 39.275 205.908 40.3833 206.624 41.1C207.358 41.8 208.516 42.15 210.099 42.15C210.966 42.15 211.683 42.075 212.249 41.925C212.816 41.775 213.274 41.5333 213.624 41.2C213.991 40.85 214.274 40.4167 214.474 39.9C214.674 39.3667 214.841 38.725 214.974 37.975C215.091 37.225 215.158 36.5083 215.174 35.825C215.208 35.125 215.116 34.5167 214.899 34C214.683 33.4667 214.308 33.0417 213.774 32.725C213.258 32.4083 212.499 32.25 211.499 32.25ZM234.629 31.15C234.629 31.8333 234.538 32.45 234.354 33C234.188 33.55 233.954 34.075 233.654 34.575C233.371 35.0583 233.038 35.5417 232.654 36.025C232.288 36.4917 231.904 36.9833 231.504 37.5C231.238 37.8333 231.029 38.225 230.879 38.675C230.729 39.1083 230.546 39.525 230.329 39.925C230.129 40.325 229.863 40.6667 229.529 40.95C229.196 41.2167 228.721 41.35 228.104 41.35C227.754 41.35 227.438 41.275 227.154 41.125C226.871 40.9583 226.629 40.7583 226.429 40.525C226.246 40.275 226.104 40 226.004 39.7C225.904 39.3833 225.854 39.075 225.854 38.775C225.854 38.225 225.963 37.7167 226.179 37.25C226.413 36.7667 226.696 36.3167 227.029 35.9C227.379 35.4667 227.746 35.05 228.129 34.65C228.529 34.2333 228.896 33.8167 229.229 33.4C229.579 32.9667 229.863 32.5167 230.079 32.05C230.313 31.5833 230.429 31.075 230.429 30.525C230.429 30.1917 230.371 29.925 230.254 29.725C230.138 29.525 229.971 29.375 229.754 29.275C229.554 29.175 229.313 29.1083 229.029 29.075C228.763 29.0417 228.471 29.025 228.154 29.025C227.721 29.025 227.346 29.1083 227.029 29.275C226.713 29.425 226.446 29.6333 226.229 29.9C226.013 30.1667 225.854 30.475 225.754 30.825C225.654 31.1583 225.604 31.5 225.604 31.85C225.604 32.1333 225.646 32.425 225.729 32.725C225.813 33.0083 225.854 33.2917 225.854 33.575C225.854 34.0583 225.679 34.475 225.329 34.825C224.979 35.1583 224.538 35.325 224.004 35.325C223.504 35.325 223.071 35.2083 222.704 34.975C222.338 34.725 222.029 34.4167 221.779 34.05C221.546 33.6667 221.363 33.2583 221.229 32.825C221.113 32.3917 221.054 31.9833 221.054 31.6C221.054 30.7167 221.254 29.8833 221.654 29.1C222.071 28.3167 222.613 27.6333 223.279 27.05C223.963 26.45 224.738 25.9833 225.604 25.65C226.471 25.3 227.371 25.125 228.304 25.125C229.154 25.125 229.963 25.2583 230.729 25.525C231.496 25.775 232.163 26.1417 232.729 26.625C233.313 27.0917 233.771 27.6583 234.104 28.325C234.454 28.975 234.629 29.7083 234.629 30.525V31.15ZM228.029 47.1C227.479 47.1 227.029 46.9333 226.679 46.6C226.329 46.2833 226.154 45.8667 226.154 45.35C226.154 44.8667 226.338 44.4583 226.704 44.125C227.088 43.775 227.538 43.6 228.054 43.6C228.588 43.6 229.038 43.775 229.404 44.125C229.771 44.4583 229.954 44.8667 229.954 45.35C229.954 45.8333 229.763 46.2417 229.379 46.575C228.996 46.925 228.546 47.1 228.029 47.1Z" fill="black"/>
<path d="M846 37H874" stroke="black" stroke-width="2" stroke-linecap="round"/>
<defs>
<filter id="filter0_d_24_42" x="0" y="0" width="920" height="155" filterUnits="userSpaceOnUse" color-interpolation-filters="sRGB">
<feFlood flood-opacity="0" result="BackgroundImageFix"/>
<feColorMatrix in="SourceAlpha" type="matrix" values="0 0 0 0 0 0 0 0 0 0 0 0 0 0 0 0 0 0 127 0" result="hardAlpha"/>
<feOffset dy="6"/>
<feComposite in2="hardAlpha" operator="out"/>
<feColorMatrix type="matrix" values="0 0 0 0 0 0 0 0 0 0 0 0 0 0 0 0 0 0 1 0"/>
<feBlend mode="normal" in2="BackgroundImageFix" result="effect1_dropShadow_24_42"/>
<feBlend mode="normal" in="SourceGraphic" in2="effect1_dropShadow_24_42" result="shape"/>
</filter>
</defs>
</svg>
