<svg width="920" height="155" viewBox="0 0 920 155" fill="none" xmlns="http://www.w3.org/2000/svg">
<g filter="url(#filter0_d_24_50)">
<rect width="920" height="149" rx="10" fill="white"/>
<rect x="1" y="1" width="918" height="147" rx="9" stroke="black" stroke-width="2"/>
</g>
<path d="M45.5 105.88C44.8067 106.04 44.0867 106.107 43.34 106.08C42.5933 106.067 41.86 106.047 41.14 106.02C40.8333 106.007 40.54 105.953 40.26 105.86C39.98 105.753 39.7267 105.613 39.5 105.44C39.2867 105.267 39.1133 105.06 38.98 104.82C38.86 104.567 38.8067 104.287 38.82 103.98C38.8333 103.713 38.9067 103.467 39.04 103.24C39.1733 103.013 39.34 102.82 39.54 102.66C39.7533 102.5 39.9867 102.373 40.24 102.28C40.5067 102.187 40.78 102.147 41.06 102.16C41.4067 102.173 41.7333 102.233 42.04 102.34C42.3467 102.447 42.6733 102.513 43.02 102.54C43.1533 102.54 43.3067 102.533 43.48 102.52C43.6667 102.493 43.8333 102.453 43.98 102.4C44.14 102.333 44.2733 102.247 44.38 102.14C44.4867 102.033 44.54 101.893 44.54 101.72C44.5667 101.28 44.4333 100.913 44.14 100.62C43.8467 100.327 43.4733 100.06 43.02 99.82C42.5667 99.58 42.0733 99.3333 41.54 99.08C41.02 98.8267 40.54 98.52 40.1 98.16C39.66 97.8 39.3 97.3533 39.02 96.82C38.74 96.2867 38.62 95.6133 38.66 94.8C38.7 94.0267 38.8667 93.36 39.16 92.8C39.4667 92.24 39.8733 91.78 40.38 91.42C40.8867 91.06 41.48 90.8 42.16 90.64C42.84 90.48 43.5733 90.4133 44.36 90.44C44.8267 90.4667 45.3333 90.56 45.88 90.72C46.4267 90.88 46.9267 91.1067 47.38 91.4C47.8467 91.6933 48.2267 92.0467 48.52 92.46C48.8267 92.86 48.9667 93.3133 48.94 93.82C48.9267 94.0067 48.88 94.1867 48.8 94.36C48.72 94.52 48.6067 94.6667 48.46 94.8C48.3267 94.9333 48.1667 95.04 47.98 95.12C47.8067 95.1867 47.6133 95.2133 47.4 95.2C47.2 95.1867 47.0067 95.14 46.82 95.06C46.6333 94.98 46.4333 94.9 46.22 94.82C46.02 94.7267 45.8 94.64 45.56 94.56C45.3333 94.48 45.0733 94.4333 44.78 94.42C44.2333 94.3933 43.7867 94.44 43.44 94.56C43.1067 94.6667 42.8733 94.82 42.74 95.02C42.6067 95.2067 42.58 95.42 42.66 95.66C42.74 95.9 42.9333 96.1267 43.24 96.34C43.4667 96.5 43.7067 96.64 43.96 96.76C44.2133 96.8667 44.4667 96.9667 44.72 97.06C44.9733 97.1533 45.2267 97.2467 45.48 97.34C45.7467 97.42 46.0067 97.52 46.26 97.64C46.9133 97.9467 47.4467 98.3467 47.86 98.84C48.2867 99.32 48.5933 99.84 48.78 100.4C48.98 100.96 49.0533 101.533 49 102.12C48.96 102.707 48.8 103.253 48.52 103.76C48.2533 104.267 47.8667 104.713 47.36 105.1C46.8533 105.473 46.2333 105.733 45.5 105.88ZM65.3573 98.5C65.3573 99.5533 65.1973 100.553 64.8773 101.5C64.5573 102.447 64.0907 103.28 63.4773 104C62.8773 104.72 62.1307 105.293 61.2373 105.72C60.344 106.133 59.3173 106.34 58.1573 106.34C56.9307 106.34 55.844 106.153 54.8973 105.78C53.9507 105.407 53.1507 104.88 52.4973 104.2C51.8573 103.52 51.3707 102.713 51.0373 101.78C50.704 100.833 50.5373 99.8 50.5373 98.68C50.5373 97.2267 50.8573 95.9267 51.4973 94.78C52.1373 93.6333 53.104 92.6733 54.3973 91.9C54.704 91.7267 55.0573 91.58 55.4573 91.46C55.8573 91.34 56.2707 91.2533 56.6973 91.2C57.124 91.1333 57.5507 91.0867 57.9773 91.06C58.404 91.0333 58.7973 91.02 59.1573 91.02C60.224 91.02 61.1773 91.2533 62.0173 91.72C62.8707 92.1867 63.6107 92.8133 64.2373 93.6C64.4907 93.9067 64.6907 94.2667 64.8373 94.68C64.984 95.08 65.0973 95.5 65.1773 95.94C65.2573 96.38 65.304 96.8267 65.3173 97.28C65.344 97.72 65.3573 98.1267 65.3573 98.5ZM59.3573 95C58.8507 95 58.3707 95.0333 57.9173 95.1C57.464 95.1667 57.0507 95.2933 56.6773 95.48C56.3173 95.6533 55.9973 95.9 55.7173 96.22C55.4373 96.54 55.2173 96.9467 55.0573 97.44C54.9507 97.76 54.844 98.0867 54.7373 98.42C54.644 98.74 54.5973 99.0733 54.5973 99.42C54.5973 100.62 54.884 101.507 55.4573 102.08C56.044 102.64 56.9707 102.92 58.2373 102.92C58.9307 102.92 59.504 102.86 59.9573 102.74C60.4107 102.62 60.7773 102.427 61.0573 102.16C61.3507 101.88 61.5773 101.533 61.7373 101.12C61.8973 100.693 62.0307 100.18 62.1373 99.58C62.2307 98.98 62.284 98.4067 62.2973 97.86C62.324 97.3 62.2507 96.8133 62.0773 96.4C61.904 95.9733 61.604 95.6333 61.1773 95.38C60.764 95.1267 60.1573 95 59.3573 95ZM71.5413 102.16C71.9946 102.107 72.4479 102.067 72.9013 102.04C73.3679 102 73.8346 101.98 74.3013 101.98C74.5946 101.98 74.8813 102.02 75.1613 102.1C75.4546 102.18 75.7146 102.307 75.9413 102.48C76.1679 102.64 76.3479 102.847 76.4813 103.1C76.6279 103.34 76.7013 103.62 76.7013 103.94C76.7013 104.487 76.5613 104.907 76.2812 105.2C76.0013 105.493 75.6546 105.707 75.2413 105.84C74.8279 105.96 74.3879 106.027 73.9213 106.04C73.4546 106.053 73.0346 106.06 72.6613 106.06C72.1946 106.06 71.7346 106.087 71.2812 106.14C70.8279 106.207 70.3679 106.24 69.9013 106.24C69.3146 106.24 68.8279 106.08 68.4413 105.76C68.0546 105.44 67.8013 105 67.6813 104.44C67.4546 103.36 67.3079 102.24 67.2413 101.08C67.1879 99.9067 67.1613 98.7667 67.1613 97.66C67.1613 97.3 67.1546 96.8667 67.1413 96.36C67.1413 95.84 67.1413 95.3133 67.1413 94.78C67.1546 94.2467 67.1746 93.7333 67.2013 93.24C67.2279 92.7467 67.2813 92.34 67.3613 92.02C67.4679 91.5933 67.6613 91.26 67.9413 91.02C68.2213 90.78 68.5813 90.66 69.0213 90.66C69.6346 90.66 70.0946 90.94 70.4013 91.5C70.5879 91.8333 70.7346 92.2733 70.8413 92.82C70.9613 93.3667 71.0546 93.9667 71.1213 94.62C71.1879 95.26 71.2346 95.94 71.2613 96.66C71.2879 97.3667 71.3079 98.06 71.3213 98.74C71.3479 99.42 71.3746 100.06 71.4013 100.66C71.4279 101.247 71.4746 101.747 71.5413 102.16ZM81.3955 102.6C81.3555 102.907 81.3355 103.267 81.3355 103.68C81.3355 104.08 81.2955 104.473 81.2155 104.86C81.1355 105.233 80.9888 105.553 80.7755 105.82C80.5621 106.073 80.2288 106.2 79.7755 106.2C79.3088 106.2 78.9555 106.067 78.7155 105.8C78.4755 105.533 78.3021 105.207 78.1955 104.82C78.1021 104.42 78.0488 104.007 78.0355 103.58C78.0221 103.153 78.0155 102.78 78.0155 102.46C78.0155 101.873 78.0688 101.167 78.1755 100.34C78.2821 99.5133 78.4488 98.6533 78.6755 97.76C78.9021 96.8667 79.1888 95.98 79.5355 95.1C79.8955 94.2067 80.3221 93.4067 80.8155 92.7C81.3088 91.9933 81.8755 91.4267 82.5155 91C83.1555 90.56 83.8755 90.34 84.6755 90.34C85.3955 90.34 86.0088 90.4933 86.5155 90.8C87.0221 91.1067 87.4355 91.5133 87.7555 92.02C88.0888 92.5267 88.3488 93.1067 88.5355 93.76C88.7221 94.4 88.8621 95.06 88.9555 95.74C89.0488 96.4067 89.1021 97.0667 89.1155 97.72C89.1421 98.36 89.1555 98.9333 89.1555 99.44C89.1555 99.7067 89.1488 100.053 89.1355 100.48C89.1221 100.907 89.0888 101.367 89.0355 101.86C88.9955 102.353 88.9221 102.853 88.8155 103.36C88.7221 103.867 88.5888 104.327 88.4155 104.74C88.2421 105.14 88.0221 105.473 87.7555 105.74C87.5021 105.993 87.1888 106.12 86.8155 106.12C86.2955 106.12 85.9088 105.973 85.6555 105.68C85.4155 105.373 85.2488 105.007 85.1555 104.58C85.0755 104.14 85.0421 103.68 85.0555 103.2C85.0821 102.72 85.0955 102.307 85.0955 101.96L81.3955 102.6ZM85.4155 99.24C85.4555 98.8933 85.4888 98.5533 85.5155 98.22C85.5421 97.8733 85.5555 97.5267 85.5555 97.18C85.5555 96.9933 85.5421 96.72 85.5155 96.36C85.5021 96 85.4621 95.64 85.3955 95.28C85.3421 94.9067 85.2555 94.5667 85.1355 94.26C85.0288 93.9533 84.8821 93.76 84.6955 93.68C84.3355 93.9067 83.9955 94.2467 83.6755 94.7C83.3555 95.1533 83.0755 95.6533 82.8355 96.2C82.5955 96.7333 82.4021 97.2733 82.2555 97.82C82.1088 98.3667 82.0288 98.8467 82.0155 99.26C82.0821 99.2733 82.1421 99.2867 82.1955 99.3C82.2488 99.3133 82.3088 99.32 82.3755 99.32C82.8821 99.32 83.3888 99.3133 83.8955 99.3C84.4021 99.2733 84.9088 99.2533 85.4155 99.24ZM98.8898 99.6C99.0098 98.6933 99.0698 97.8267 99.0698 97C99.0698 96.1733 99.0698 95.3133 99.0698 94.42C99.0698 94.0467 99.0965 93.6667 99.1498 93.28C99.2032 92.8933 99.3032 92.5467 99.4498 92.24C99.6098 91.92 99.8232 91.66 100.09 91.46C100.37 91.26 100.737 91.16 101.19 91.16C101.59 91.16 101.923 91.26 102.19 91.46C102.457 91.66 102.67 91.92 102.83 92.24C102.99 92.5467 103.103 92.8867 103.17 93.26C103.237 93.6333 103.27 93.9867 103.27 94.32C103.27 94.6133 103.243 95.0667 103.19 95.68C103.15 96.2933 103.097 96.9867 103.03 97.76C102.963 98.52 102.883 99.3133 102.79 100.14C102.71 100.953 102.623 101.713 102.53 102.42C102.437 103.127 102.35 103.733 102.27 104.24C102.203 104.733 102.143 105.04 102.09 105.16C101.957 105.493 101.757 105.773 101.49 106C101.223 106.213 100.91 106.32 100.55 106.32C100.35 106.32 100.157 106.28 99.9698 106.2C99.7965 106.133 99.6298 106.047 99.4698 105.94C99.3498 105.847 99.1565 105.633 98.8898 105.3C98.6365 104.953 98.3498 104.547 98.0298 104.08C97.7098 103.6 97.3698 103.093 97.0098 102.56C96.6498 102.013 96.2965 101.487 95.9498 100.98C95.6165 100.46 95.3098 99.9933 95.0298 99.58C94.7632 99.1533 94.5498 98.8333 94.3898 98.62C94.3765 98.8467 94.3632 99.1533 94.3498 99.54C94.3498 99.9133 94.3432 100.327 94.3298 100.78C94.3298 101.22 94.3232 101.68 94.3098 102.16C94.2965 102.627 94.2765 103.08 94.2498 103.52C94.2232 103.947 94.1898 104.327 94.1498 104.66C94.1098 104.993 94.0565 105.247 93.9898 105.42C93.8832 105.687 93.7232 105.893 93.5098 106.04C93.3098 106.2 93.0698 106.28 92.7898 106.28C92.1765 106.28 91.7498 105.987 91.5098 105.4C91.4432 105.253 91.3832 104.92 91.3298 104.4C91.2898 103.88 91.2432 103.26 91.1898 102.54C91.1498 101.807 91.1098 101.027 91.0698 100.2C91.0432 99.3733 91.0165 98.5867 90.9898 97.84C90.9632 97.08 90.9432 96.4067 90.9298 95.82C90.9165 95.22 90.9098 94.8 90.9098 94.56C90.9098 94.2267 90.9298 93.88 90.9698 93.52C91.0232 93.1467 91.1165 92.8133 91.2498 92.52C91.3965 92.2133 91.5898 91.96 91.8298 91.76C92.0832 91.56 92.4098 91.46 92.8098 91.46C93.4765 91.46 93.9898 91.78 94.3498 92.42C94.4298 92.54 94.4965 92.66 94.5498 92.78C94.6032 92.9 94.6632 93.0133 94.7298 93.12C95.2898 94.2933 95.9365 95.4067 96.6698 96.46C97.4032 97.5 98.1432 98.5467 98.8898 99.6ZM107.919 102.6C107.879 102.907 107.859 103.267 107.859 103.68C107.859 104.08 107.819 104.473 107.739 104.86C107.659 105.233 107.512 105.553 107.299 105.82C107.086 106.073 106.752 106.2 106.299 106.2C105.832 106.2 105.479 106.067 105.239 105.8C104.999 105.533 104.826 105.207 104.719 104.82C104.626 104.42 104.572 104.007 104.559 103.58C104.546 103.153 104.539 102.78 104.539 102.46C104.539 101.873 104.592 101.167 104.699 100.34C104.806 99.5133 104.972 98.6533 105.199 97.76C105.426 96.8667 105.712 95.98 106.059 95.1C106.419 94.2067 106.846 93.4067 107.339 92.7C107.832 91.9933 108.399 91.4267 109.039 91C109.679 90.56 110.399 90.34 111.199 90.34C111.919 90.34 112.532 90.4933 113.039 90.8C113.546 91.1067 113.959 91.5133 114.279 92.02C114.612 92.5267 114.872 93.1067 115.059 93.76C115.246 94.4 115.386 95.06 115.479 95.74C115.572 96.4067 115.626 97.0667 115.639 97.72C115.666 98.36 115.679 98.9333 115.679 99.44C115.679 99.7067 115.672 100.053 115.659 100.48C115.646 100.907 115.612 101.367 115.559 101.86C115.519 102.353 115.446 102.853 115.339 103.36C115.246 103.867 115.112 104.327 114.939 104.74C114.766 105.14 114.546 105.473 114.279 105.74C114.026 105.993 113.712 106.12 113.339 106.12C112.819 106.12 112.432 105.973 112.179 105.68C111.939 105.373 111.772 105.007 111.679 104.58C111.599 104.14 111.566 103.68 111.579 103.2C111.606 102.72 111.619 102.307 111.619 101.96L107.919 102.6ZM111.939 99.24C111.979 98.8933 112.012 98.5533 112.039 98.22C112.066 97.8733 112.079 97.5267 112.079 97.18C112.079 96.9933 112.066 96.72 112.039 96.36C112.026 96 111.986 95.64 111.919 95.28C111.866 94.9067 111.779 94.5667 111.659 94.26C111.552 93.9533 111.406 93.76 111.219 93.68C110.859 93.9067 110.519 94.2467 110.199 94.7C109.879 95.1533 109.599 95.6533 109.359 96.2C109.119 96.7333 108.926 97.2733 108.779 97.82C108.632 98.3667 108.552 98.8467 108.539 99.26C108.606 99.2733 108.666 99.2867 108.719 99.3C108.772 99.3133 108.832 99.32 108.899 99.32C109.406 99.32 109.912 99.3133 110.419 99.3C110.926 99.2733 111.432 99.2533 111.939 99.24Z" fill="black"/>
<path d="M50.7387 40.85C50.4387 41.5 50.1053 42.1667 49.7387 42.85C49.3887 43.5167 48.9803 44.125 48.5137 44.675C48.047 45.225 47.497 45.675 46.8637 46.025C46.247 46.3917 45.522 46.575 44.6887 46.575C43.5887 46.575 42.6887 46.3 41.9887 45.75C41.2887 45.2 40.7303 44.5083 40.3137 43.675C39.897 42.8417 39.6053 41.9333 39.4387 40.95C39.2887 39.9667 39.2137 39.05 39.2137 38.2C39.2137 37.5333 39.247 36.7083 39.3137 35.725C39.3803 34.7417 39.4803 33.7417 39.6137 32.725C39.747 31.6917 39.9137 30.7083 40.1137 29.775C40.3137 28.825 40.5553 28.0583 40.8387 27.475C41.022 27.0917 41.2887 26.7583 41.6387 26.475C41.9887 26.1917 42.3803 26.05 42.8137 26.05C43.2303 26.05 43.5803 26.1333 43.8637 26.3C44.147 26.45 44.372 26.6583 44.5387 26.925C44.7053 27.1917 44.822 27.5 44.8887 27.85C44.9553 28.1833 44.9887 28.525 44.9887 28.875C44.9887 30.3917 44.9137 31.9 44.7637 33.4C44.6137 34.8833 44.5387 36.3833 44.5387 37.9C44.5387 38.2333 44.547 38.6 44.5637 39C44.5803 39.3833 44.6137 39.7667 44.6637 40.15C44.7137 40.5333 44.797 40.9083 44.9137 41.275C45.0303 41.625 45.1887 41.9333 45.3887 42.2L45.5887 42.225C45.8553 42.225 46.1303 42.0333 46.4137 41.65C46.7137 41.2667 47.0053 40.775 47.2887 40.175C47.5887 39.575 47.8803 38.9083 48.1637 38.175C48.447 37.4417 48.697 36.7417 48.9137 36.075C49.147 35.3917 49.347 34.7833 49.5137 34.25C49.6803 33.7 49.8053 33.3083 49.8887 33.075C50.022 32.6917 50.2137 32.375 50.4637 32.125C50.7303 31.875 51.072 31.75 51.4887 31.75C51.872 31.75 52.2137 31.875 52.5137 32.125C52.8137 32.3583 53.0137 32.6583 53.1137 33.025C53.1637 33.2083 53.197 33.3833 53.2137 33.55C53.2303 33.7167 53.247 33.8917 53.2637 34.075C53.297 34.5083 53.347 34.9417 53.4137 35.375C53.497 35.7917 53.6053 36.2167 53.7387 36.65C54.172 38.1667 54.6387 39.2583 55.1387 39.925C55.6387 40.5917 56.1053 40.8667 56.5387 40.75C56.972 40.6167 57.3303 40.1167 57.6137 39.25C57.9137 38.3667 58.0637 37.15 58.0637 35.6C58.0637 34.65 58.0387 33.7083 57.9887 32.775C57.9387 31.8417 57.9137 30.9 57.9137 29.95C57.9137 29.6 57.9553 29.225 58.0387 28.825C58.122 28.425 58.2553 28.0583 58.4387 27.725C58.622 27.3917 58.8553 27.1167 59.1387 26.9C59.4387 26.6667 59.8053 26.55 60.2387 26.55C60.7387 26.55 61.1553 26.7 61.4887 27C61.8387 27.3 62.122 27.6917 62.3387 28.175C62.5553 28.6583 62.722 29.2 62.8387 29.8C62.9553 30.4 63.0303 31 63.0637 31.6C63.1137 32.1833 63.1387 32.7417 63.1387 33.275C63.1553 33.8083 63.1637 34.25 63.1637 34.6C63.1637 35.3167 63.122 36.1 63.0387 36.95C62.972 37.7833 62.8387 38.6333 62.6387 39.5C62.4387 40.3667 62.172 41.2083 61.8387 42.025C61.5053 42.825 61.0803 43.5417 60.5637 44.175C60.0637 44.7917 59.4553 45.2917 58.7387 45.675C58.0387 46.0417 57.222 46.225 56.2887 46.225C55.5053 46.225 54.8303 46.0583 54.2637 45.725C53.7137 45.375 53.2303 44.9333 52.8137 44.4C52.397 43.8667 52.022 43.2917 51.6887 42.675C51.372 42.0417 51.0553 41.4333 50.7387 40.85ZM77.0932 40.15L70.0682 40.875C69.9348 41.675 69.8932 42.4917 69.9432 43.325C70.0098 44.1583 70.0432 44.9833 70.0432 45.8C70.0432 46.3667 69.9015 46.8167 69.6182 47.15C69.3348 47.5 68.8932 47.675 68.2932 47.675C67.8432 47.675 67.4598 47.4417 67.1432 46.975C66.8265 46.525 66.5598 45.9417 66.3432 45.225C66.1265 44.4917 65.9515 43.6917 65.8182 42.825C65.6848 41.9583 65.5848 41.1167 65.5182 40.3C65.4515 39.4833 65.4098 38.75 65.3932 38.1C65.3765 37.4333 65.3682 36.95 65.3682 36.65C65.3682 35.4 65.4348 34.1583 65.5682 32.925C65.7182 31.675 65.9015 30.4333 66.1182 29.2C66.2015 28.6833 66.3932 28.2583 66.6932 27.925C67.0098 27.575 67.4515 27.4 68.0182 27.4C68.4848 27.4 68.8682 27.55 69.1682 27.85C69.4848 28.1333 69.6848 28.4917 69.7682 28.925C70.0182 30.1583 70.1265 31.4333 70.0932 32.75C70.0598 34.05 70.0432 35.325 70.0432 36.575C70.7265 36.6083 71.3015 36.6167 71.7682 36.6C72.2348 36.5667 72.7015 36.5333 73.1682 36.5C73.6515 36.45 74.2015 36.4167 74.8182 36.4C75.4348 36.3667 76.2348 36.3583 77.2182 36.375C77.2348 36.225 77.2598 35.95 77.2932 35.55C77.3432 35.15 77.3932 34.6833 77.4432 34.15C77.5098 33.6167 77.5765 33.0583 77.6432 32.475C77.7265 31.875 77.8015 31.3083 77.8682 30.775C77.9515 30.2417 78.0348 29.7667 78.1182 29.35C78.2015 28.9333 78.2848 28.65 78.3682 28.5C78.5182 28.2 78.7265 27.9583 78.9932 27.775C79.2765 27.575 79.5932 27.475 79.9432 27.475C80.5932 27.475 81.0765 27.7417 81.3932 28.275C81.7098 28.7917 81.9265 29.4167 82.0432 30.15C82.1765 30.8667 82.2348 31.6 82.2182 32.35C82.2182 33.0833 82.2182 33.675 82.2182 34.125C82.2182 34.7583 82.1932 35.5583 82.1432 36.525C82.1098 37.4917 82.0515 38.5 81.9682 39.55C81.9015 40.5833 81.8098 41.5833 81.6932 42.55C81.5932 43.5 81.4765 44.2833 81.3432 44.9C81.2432 45.3333 81.0265 45.6833 80.6932 45.95C80.3598 46.2167 79.9765 46.35 79.5432 46.35C79.1265 46.35 78.7848 46.2333 78.5182 46C78.2515 45.7833 78.0348 45.4917 77.8682 45.125C77.7015 44.7583 77.5765 44.35 77.4932 43.9C77.4098 43.4333 77.3432 42.975 77.2932 42.525C77.2432 42.0583 77.2015 41.6167 77.1682 41.2C77.1515 40.7833 77.1265 40.4333 77.0932 40.15ZM102.807 36.625C102.807 37.9417 102.607 39.1917 102.207 40.375C101.807 41.5583 101.224 42.6 100.457 43.5C99.707 44.4 98.7737 45.1167 97.657 45.65C96.5404 46.1667 95.257 46.425 93.807 46.425C92.2737 46.425 90.9154 46.1917 89.732 45.725C88.5487 45.2583 87.5487 44.6 86.732 43.75C85.932 42.9 85.3237 41.8917 84.907 40.725C84.4904 39.5417 84.282 38.25 84.282 36.85C84.282 35.0333 84.682 33.4083 85.482 31.975C86.282 30.5417 87.4904 29.3417 89.107 28.375C89.4904 28.1583 89.932 27.975 90.432 27.825C90.932 27.675 91.4487 27.5667 91.982 27.5C92.5154 27.4167 93.0487 27.3583 93.582 27.325C94.1154 27.2917 94.607 27.275 95.057 27.275C96.3904 27.275 97.582 27.5667 98.632 28.15C99.6987 28.7333 100.624 29.5167 101.407 30.5C101.724 30.8833 101.974 31.3333 102.157 31.85C102.34 32.35 102.482 32.875 102.582 33.425C102.682 33.975 102.74 34.5333 102.757 35.1C102.79 35.65 102.807 36.1583 102.807 36.625ZM95.307 32.25C94.6737 32.25 94.0737 32.2917 93.507 32.375C92.9404 32.4583 92.4237 32.6167 91.957 32.85C91.507 33.0667 91.107 33.375 90.757 33.775C90.407 34.175 90.132 34.6833 89.932 35.3C89.7987 35.7 89.6654 36.1083 89.532 36.525C89.4154 36.925 89.357 37.3417 89.357 37.775C89.357 39.275 89.7154 40.3833 90.432 41.1C91.1654 41.8 92.3237 42.15 93.907 42.15C94.7737 42.15 95.4904 42.075 96.057 41.925C96.6237 41.775 97.082 41.5333 97.432 41.2C97.7987 40.85 98.082 40.4167 98.282 39.9C98.482 39.3667 98.6487 38.725 98.782 37.975C98.8987 37.225 98.9654 36.5083 98.982 35.825C99.0154 35.125 98.9237 34.5167 98.707 34C98.4904 33.4667 98.1154 33.0417 97.582 32.725C97.0654 32.4083 96.307 32.25 95.307 32.25ZM122.887 27.65C123.387 27.65 123.97 27.7 124.637 27.8C125.32 27.8833 125.97 28.0417 126.587 28.275C127.203 28.5083 127.728 28.8417 128.162 29.275C128.595 29.6917 128.812 30.2333 128.812 30.9C128.812 31.2167 128.753 31.5167 128.637 31.8C128.537 32.0667 128.387 32.3083 128.187 32.525C127.987 32.725 127.753 32.8833 127.487 33C127.22 33.1167 126.928 33.175 126.612 33.175C126.278 33.175 125.937 33.15 125.587 33.1C125.237 33.05 124.878 32.9917 124.512 32.925C123.812 32.8083 123.045 32.825 122.212 32.975C121.395 33.125 120.62 33.4083 119.887 33.825C119.17 34.2417 118.57 34.7917 118.087 35.475C117.603 36.1417 117.362 36.95 117.362 37.9C117.362 38.3833 117.453 38.8417 117.637 39.275C117.82 39.6917 118.07 40.0583 118.387 40.375C118.72 40.6917 119.095 40.9417 119.512 41.125C119.945 41.2917 120.403 41.375 120.887 41.375C121.387 41.375 121.87 41.3167 122.337 41.2C122.82 41.0667 123.287 40.9333 123.737 40.8C124.203 40.65 124.645 40.5167 125.062 40.4C125.495 40.2667 125.912 40.2 126.312 40.2C126.662 40.2 126.995 40.2667 127.312 40.4C127.628 40.5333 127.903 40.7167 128.137 40.95C128.387 41.1667 128.578 41.4333 128.712 41.75C128.845 42.05 128.912 42.3833 128.912 42.75C128.912 43.2667 128.77 43.7083 128.487 44.075C128.22 44.425 127.87 44.7167 127.437 44.95C127.003 45.1833 126.503 45.3667 125.937 45.5C125.387 45.6167 124.828 45.7083 124.262 45.775C123.695 45.825 123.145 45.8583 122.612 45.875C122.095 45.875 121.653 45.875 121.287 45.875C120.087 45.875 118.937 45.675 117.837 45.275C116.753 44.8583 115.795 44.2833 114.962 43.55C114.128 42.8167 113.462 41.9333 112.962 40.9C112.478 39.85 112.237 38.7 112.237 37.45C112.237 36.0333 112.537 34.725 113.137 33.525C113.753 32.325 114.553 31.2917 115.537 30.425C116.537 29.5583 117.67 28.8833 118.937 28.4C120.22 27.9 121.537 27.65 122.887 27.65ZM142.962 40.15L135.937 40.875C135.804 41.675 135.762 42.4917 135.812 43.325C135.879 44.1583 135.912 44.9833 135.912 45.8C135.912 46.3667 135.771 46.8167 135.487 47.15C135.204 47.5 134.762 47.675 134.162 47.675C133.712 47.675 133.329 47.4417 133.012 46.975C132.696 46.525 132.429 45.9417 132.212 45.225C131.996 44.4917 131.821 43.6917 131.687 42.825C131.554 41.9583 131.454 41.1167 131.387 40.3C131.321 39.4833 131.279 38.75 131.262 38.1C131.246 37.4333 131.237 36.95 131.237 36.65C131.237 35.4 131.304 34.1583 131.437 32.925C131.587 31.675 131.771 30.4333 131.987 29.2C132.071 28.6833 132.262 28.2583 132.562 27.925C132.879 27.575 133.321 27.4 133.887 27.4C134.354 27.4 134.737 27.55 135.037 27.85C135.354 28.1333 135.554 28.4917 135.637 28.925C135.887 30.1583 135.996 31.4333 135.962 32.75C135.929 34.05 135.912 35.325 135.912 36.575C136.596 36.6083 137.171 36.6167 137.637 36.6C138.104 36.5667 138.571 36.5333 139.037 36.5C139.521 36.45 140.071 36.4167 140.687 36.4C141.304 36.3667 142.104 36.3583 143.087 36.375C143.104 36.225 143.129 35.95 143.162 35.55C143.212 35.15 143.262 34.6833 143.312 34.15C143.379 33.6167 143.446 33.0583 143.512 32.475C143.596 31.875 143.671 31.3083 143.737 30.775C143.821 30.2417 143.904 29.7667 143.987 29.35C144.071 28.9333 144.154 28.65 144.237 28.5C144.387 28.2 144.596 27.9583 144.862 27.775C145.146 27.575 145.462 27.475 145.812 27.475C146.462 27.475 146.946 27.7417 147.262 28.275C147.579 28.7917 147.796 29.4167 147.912 30.15C148.046 30.8667 148.104 31.6 148.087 32.35C148.087 33.0833 148.087 33.675 148.087 34.125C148.087 34.7583 148.062 35.5583 148.012 36.525C147.979 37.4917 147.921 38.5 147.837 39.55C147.771 40.5833 147.679 41.5833 147.562 42.55C147.462 43.5 147.346 44.2833 147.212 44.9C147.112 45.3333 146.896 45.6833 146.562 45.95C146.229 46.2167 145.846 46.35 145.412 46.35C144.996 46.35 144.654 46.2333 144.387 46C144.121 45.7833 143.904 45.4917 143.737 45.125C143.571 44.7583 143.446 44.35 143.362 43.9C143.279 43.4333 143.212 42.975 143.162 42.525C143.112 42.0583 143.071 41.6167 143.037 41.2C143.021 40.7833 142.996 40.4333 142.962 40.15ZM154.251 41.75C154.201 42.1333 154.176 42.5833 154.176 43.1C154.176 43.6 154.126 44.0917 154.026 44.575C153.926 45.0417 153.743 45.4417 153.476 45.775C153.21 46.0917 152.793 46.25 152.226 46.25C151.643 46.25 151.201 46.0833 150.901 45.75C150.601 45.4167 150.385 45.0083 150.251 44.525C150.135 44.025 150.068 43.5083 150.051 42.975C150.035 42.4417 150.026 41.975 150.026 41.575C150.026 40.8417 150.093 39.9583 150.226 38.925C150.36 37.8917 150.568 36.8167 150.851 35.7C151.135 34.5833 151.493 33.475 151.926 32.375C152.376 31.2583 152.91 30.2583 153.526 29.375C154.143 28.4917 154.851 27.7833 155.651 27.25C156.451 26.7 157.351 26.425 158.351 26.425C159.251 26.425 160.018 26.6167 160.651 27C161.285 27.3833 161.801 27.8917 162.201 28.525C162.618 29.1583 162.943 29.8833 163.176 30.7C163.41 31.5 163.585 32.325 163.701 33.175C163.818 34.0083 163.885 34.8333 163.901 35.65C163.935 36.45 163.951 37.1667 163.951 37.8C163.951 38.1333 163.943 38.5667 163.926 39.1C163.91 39.6333 163.868 40.2083 163.801 40.825C163.751 41.4417 163.66 42.0667 163.526 42.7C163.41 43.3333 163.243 43.9083 163.026 44.425C162.81 44.925 162.535 45.3417 162.201 45.675C161.885 45.9917 161.493 46.15 161.026 46.15C160.376 46.15 159.893 45.9667 159.576 45.6C159.276 45.2167 159.068 44.7583 158.951 44.225C158.851 43.675 158.81 43.1 158.826 42.5C158.86 41.9 158.876 41.3833 158.876 40.95L154.251 41.75ZM159.276 37.55C159.326 37.1167 159.368 36.6917 159.401 36.275C159.435 35.8417 159.451 35.4083 159.451 34.975C159.451 34.7417 159.435 34.4 159.401 33.95C159.385 33.5 159.335 33.05 159.251 32.6C159.185 32.1333 159.076 31.7083 158.926 31.325C158.793 30.9417 158.61 30.7 158.376 30.6C157.926 30.8833 157.501 31.3083 157.101 31.875C156.701 32.4417 156.351 33.0667 156.051 33.75C155.751 34.4167 155.51 35.0917 155.326 35.775C155.143 36.4583 155.043 37.0583 155.026 37.575C155.11 37.5917 155.185 37.6083 155.251 37.625C155.318 37.6417 155.393 37.65 155.476 37.65C156.11 37.65 156.743 37.6417 157.376 37.625C158.01 37.5917 158.643 37.5667 159.276 37.55ZM170.594 30.975C170.261 30.925 169.861 30.8833 169.394 30.85C168.944 30.8 168.511 30.7167 168.094 30.6C167.677 30.4667 167.327 30.275 167.044 30.025C166.761 29.7583 166.619 29.3917 166.619 28.925C166.619 28.4583 166.744 28.075 166.994 27.775C167.244 27.475 167.569 27.2417 167.969 27.075C168.369 26.8917 168.819 26.7583 169.319 26.675C169.819 26.5917 170.319 26.5417 170.819 26.525C171.336 26.4917 171.819 26.4833 172.269 26.5C172.719 26.5 173.102 26.5 173.419 26.5C173.769 26.5 174.211 26.4833 174.744 26.45C175.294 26.4167 175.819 26.4417 176.319 26.525C176.819 26.5917 177.252 26.7417 177.619 26.975C177.986 27.2083 178.169 27.6 178.169 28.15C178.169 28.5833 178.027 28.95 177.744 29.25C177.477 29.5333 177.152 29.7667 176.769 29.95C176.386 30.1333 175.969 30.2833 175.519 30.4C175.086 30.5 174.711 30.5833 174.394 30.65C174.427 31.4 174.461 32.15 174.494 32.9C174.544 33.6333 174.569 34.375 174.569 35.125C174.569 35.6083 174.561 36.1 174.544 36.6C174.544 37.0833 174.536 37.5667 174.519 38.05C174.502 38.6833 174.436 39.3083 174.319 39.925C174.202 40.525 174.144 41.1417 174.144 41.775C174.477 41.8583 174.877 41.9583 175.344 42.075C175.827 42.1917 176.286 42.35 176.719 42.55C177.169 42.7333 177.552 42.975 177.869 43.275C178.186 43.5583 178.344 43.925 178.344 44.375C178.344 44.775 178.244 45.1 178.044 45.35C177.844 45.5833 177.577 45.7667 177.244 45.9C176.927 46.0167 176.561 46.0917 176.144 46.125C175.744 46.175 175.336 46.2 174.919 46.2C174.519 46.2 174.127 46.1833 173.744 46.15C173.377 46.1333 173.061 46.125 172.794 46.125C172.477 46.125 172.094 46.1333 171.644 46.15C171.194 46.1667 170.711 46.1667 170.194 46.15C169.694 46.15 169.194 46.1167 168.694 46.05C168.194 45.9833 167.744 45.8667 167.344 45.7C166.961 45.5333 166.644 45.3 166.394 45C166.144 44.6833 166.019 44.2833 166.019 43.8C166.019 43.2333 166.169 42.8 166.469 42.5C166.786 42.2 167.161 41.975 167.594 41.825C168.044 41.675 168.519 41.5833 169.019 41.55C169.536 41.5167 169.994 41.4833 170.394 41.45C170.477 40.7 170.494 39.9667 170.444 39.25C170.411 38.5333 170.394 37.8 170.394 37.05C170.394 36.0333 170.419 35.025 170.469 34.025C170.519 33.0083 170.561 31.9917 170.594 30.975ZM190.011 38C190.161 36.8667 190.236 35.7833 190.236 34.75C190.236 33.7167 190.236 32.6417 190.236 31.525C190.236 31.0583 190.269 30.5833 190.336 30.1C190.402 29.6167 190.527 29.1833 190.711 28.8C190.911 28.4 191.177 28.075 191.511 27.825C191.861 27.575 192.319 27.45 192.886 27.45C193.386 27.45 193.802 27.575 194.136 27.825C194.469 28.075 194.736 28.4 194.936 28.8C195.136 29.1833 195.277 29.6083 195.361 30.075C195.444 30.5417 195.486 30.9833 195.486 31.4C195.486 31.7667 195.452 32.3333 195.386 33.1C195.336 33.8667 195.269 34.7333 195.186 35.7C195.102 36.65 195.002 37.6417 194.886 38.675C194.786 39.6917 194.677 40.6417 194.561 41.525C194.444 42.4083 194.336 43.1667 194.236 43.8C194.152 44.4167 194.077 44.8 194.011 44.95C193.844 45.3667 193.594 45.7167 193.261 46C192.927 46.2667 192.536 46.4 192.086 46.4C191.836 46.4 191.594 46.35 191.361 46.25C191.144 46.1667 190.936 46.0583 190.736 45.925C190.586 45.8083 190.344 45.5417 190.011 45.125C189.694 44.6917 189.336 44.1833 188.936 43.6C188.536 43 188.111 42.3667 187.661 41.7C187.211 41.0167 186.769 40.3583 186.336 39.725C185.919 39.075 185.536 38.4917 185.186 37.975C184.852 37.4417 184.586 37.0417 184.386 36.775C184.369 37.0583 184.352 37.4417 184.336 37.925C184.336 38.3917 184.327 38.9083 184.311 39.475C184.311 40.025 184.302 40.6 184.286 41.2C184.269 41.7833 184.244 42.35 184.211 42.9C184.177 43.4333 184.136 43.9083 184.086 44.325C184.036 44.7417 183.969 45.0583 183.886 45.275C183.752 45.6083 183.552 45.8667 183.286 46.05C183.036 46.25 182.736 46.35 182.386 46.35C181.619 46.35 181.086 45.9833 180.786 45.25C180.702 45.0667 180.627 44.65 180.561 44C180.511 43.35 180.452 42.575 180.386 41.675C180.336 40.7583 180.286 39.7833 180.236 38.75C180.202 37.7167 180.169 36.7333 180.136 35.8C180.102 34.85 180.077 34.0083 180.061 33.275C180.044 32.525 180.036 32 180.036 31.7C180.036 31.2833 180.061 30.85 180.111 30.4C180.177 29.9333 180.294 29.5167 180.461 29.15C180.644 28.7667 180.886 28.45 181.186 28.2C181.502 27.95 181.911 27.825 182.411 27.825C183.244 27.825 183.886 28.225 184.336 29.025C184.436 29.175 184.519 29.325 184.586 29.475C184.652 29.625 184.727 29.7667 184.811 29.9C185.511 31.3667 186.319 32.7583 187.236 34.075C188.152 35.375 189.077 36.6833 190.011 38ZM209.022 30.975C208.689 30.925 208.289 30.8833 207.822 30.85C207.372 30.8 206.939 30.7167 206.522 30.6C206.105 30.4667 205.755 30.275 205.472 30.025C205.189 29.7583 205.047 29.3917 205.047 28.925C205.047 28.4583 205.172 28.075 205.422 27.775C205.672 27.475 205.997 27.2417 206.397 27.075C206.797 26.8917 207.247 26.7583 207.747 26.675C208.247 26.5917 208.747 26.5417 209.247 26.525C209.764 26.4917 210.247 26.4833 210.697 26.5C211.147 26.5 211.53 26.5 211.847 26.5C212.197 26.5 212.639 26.4833 213.172 26.45C213.722 26.4167 214.247 26.4417 214.747 26.525C215.247 26.5917 215.68 26.7417 216.047 26.975C216.414 27.2083 216.597 27.6 216.597 28.15C216.597 28.5833 216.455 28.95 216.172 29.25C215.905 29.5333 215.58 29.7667 215.197 29.95C214.814 30.1333 214.397 30.2833 213.947 30.4C213.514 30.5 213.139 30.5833 212.822 30.65C212.855 31.4 212.889 32.15 212.922 32.9C212.972 33.6333 212.997 34.375 212.997 35.125C212.997 35.6083 212.989 36.1 212.972 36.6C212.972 37.0833 212.964 37.5667 212.947 38.05C212.93 38.6833 212.864 39.3083 212.747 39.925C212.63 40.525 212.572 41.1417 212.572 41.775C212.905 41.8583 213.305 41.9583 213.772 42.075C214.255 42.1917 214.714 42.35 215.147 42.55C215.597 42.7333 215.98 42.975 216.297 43.275C216.614 43.5583 216.772 43.925 216.772 44.375C216.772 44.775 216.672 45.1 216.472 45.35C216.272 45.5833 216.005 45.7667 215.672 45.9C215.355 46.0167 214.989 46.0917 214.572 46.125C214.172 46.175 213.764 46.2 213.347 46.2C212.947 46.2 212.555 46.1833 212.172 46.15C211.805 46.1333 211.489 46.125 211.222 46.125C210.905 46.125 210.522 46.1333 210.072 46.15C209.622 46.1667 209.139 46.1667 208.622 46.15C208.122 46.15 207.622 46.1167 207.122 46.05C206.622 45.9833 206.172 45.8667 205.772 45.7C205.389 45.5333 205.072 45.3 204.822 45C204.572 44.6833 204.447 44.2833 204.447 43.8C204.447 43.2333 204.597 42.8 204.897 42.5C205.214 42.2 205.589 41.975 206.022 41.825C206.472 41.675 206.947 41.5833 207.447 41.55C207.964 41.5167 208.422 41.4833 208.822 41.45C208.905 40.7 208.922 39.9667 208.872 39.25C208.839 38.5333 208.822 37.8 208.822 37.05C208.822 36.0333 208.847 35.025 208.897 34.025C208.947 33.0083 208.989 31.9917 209.022 30.975ZM226.813 45.85C225.947 46.05 225.047 46.1333 224.113 46.1C223.18 46.0833 222.263 46.0583 221.363 46.025C220.98 46.0083 220.613 45.9417 220.263 45.825C219.913 45.6917 219.597 45.5167 219.313 45.3C219.047 45.0833 218.83 44.825 218.663 44.525C218.513 44.2083 218.447 43.8583 218.463 43.475C218.48 43.1417 218.572 42.8333 218.738 42.55C218.905 42.2667 219.113 42.025 219.363 41.825C219.63 41.625 219.922 41.4667 220.238 41.35C220.572 41.2333 220.913 41.1833 221.263 41.2C221.697 41.2167 222.105 41.2917 222.488 41.425C222.872 41.5583 223.28 41.6417 223.713 41.675C223.88 41.675 224.072 41.6667 224.288 41.65C224.522 41.6167 224.73 41.5667 224.913 41.5C225.113 41.4167 225.28 41.3083 225.413 41.175C225.547 41.0417 225.613 40.8667 225.613 40.65C225.647 40.1 225.48 39.6417 225.113 39.275C224.747 38.9083 224.28 38.575 223.713 38.275C223.147 37.975 222.53 37.6667 221.863 37.35C221.213 37.0333 220.613 36.65 220.063 36.2C219.513 35.75 219.063 35.1917 218.713 34.525C218.363 33.8583 218.213 33.0167 218.263 32C218.313 31.0333 218.522 30.2 218.888 29.5C219.272 28.8 219.78 28.225 220.413 27.775C221.047 27.325 221.788 27 222.638 26.8C223.488 26.6 224.405 26.5167 225.388 26.55C225.972 26.5833 226.605 26.7 227.288 26.9C227.972 27.1 228.597 27.3833 229.163 27.75C229.747 28.1167 230.222 28.5583 230.588 29.075C230.972 29.575 231.147 30.1417 231.113 30.775C231.097 31.0083 231.038 31.2333 230.938 31.45C230.838 31.65 230.697 31.8333 230.513 32C230.347 32.1667 230.147 32.3 229.913 32.4C229.697 32.4833 229.455 32.5167 229.188 32.5C228.938 32.4833 228.697 32.425 228.463 32.325C228.23 32.225 227.98 32.125 227.713 32.025C227.463 31.9083 227.188 31.8 226.888 31.7C226.605 31.6 226.28 31.5417 225.913 31.525C225.23 31.4917 224.672 31.55 224.238 31.7C223.822 31.8333 223.53 32.025 223.363 32.275C223.197 32.5083 223.163 32.775 223.263 33.075C223.363 33.375 223.605 33.6583 223.988 33.925C224.272 34.125 224.572 34.3 224.888 34.45C225.205 34.5833 225.522 34.7083 225.838 34.825C226.155 34.9417 226.472 35.0583 226.788 35.175C227.122 35.275 227.447 35.4 227.763 35.55C228.58 35.9333 229.247 36.4333 229.763 37.05C230.297 37.65 230.68 38.3 230.913 39C231.163 39.7 231.255 40.4167 231.188 41.15C231.138 41.8833 230.938 42.5667 230.588 43.2C230.255 43.8333 229.772 44.3917 229.138 44.875C228.505 45.3417 227.73 45.6667 226.813 45.85ZM241.785 31.55C241.485 31.2833 241.218 31.025 240.985 30.775C240.752 30.525 240.635 30.1833 240.635 29.75C240.635 29.3167 240.802 28.9417 241.135 28.625C241.485 28.3083 241.927 28.0417 242.46 27.825C243.01 27.5917 243.61 27.4083 244.26 27.275C244.927 27.125 245.577 27.0167 246.21 26.95C246.86 26.8667 247.46 26.8083 248.01 26.775C248.56 26.7417 248.993 26.725 249.31 26.725C250.527 26.725 251.66 26.8667 252.71 27.15C253.777 27.4333 254.702 27.8833 255.485 28.5C256.268 29.1 256.885 29.8833 257.335 30.85C257.785 31.8 258.01 32.9417 258.01 34.275C258.01 34.925 257.91 35.5667 257.71 36.2C257.51 36.8167 257.227 37.3917 256.86 37.925C256.26 38.825 255.535 39.5 254.685 39.95C253.852 40.4 252.96 40.7167 252.01 40.9C251.06 41.0833 250.077 41.175 249.06 41.175C248.043 41.175 247.06 41.175 246.11 41.175C246.027 41.425 245.968 41.725 245.935 42.075C245.918 42.4083 245.893 42.7583 245.86 43.125C245.843 43.4917 245.81 43.8583 245.76 44.225C245.71 44.5917 245.618 44.925 245.485 45.225C245.352 45.5083 245.16 45.7417 244.91 45.925C244.66 46.0917 244.335 46.175 243.935 46.175C243.485 46.175 243.102 46.0167 242.785 45.7C242.485 45.3833 242.227 44.975 242.01 44.475C241.81 43.975 241.652 43.4167 241.535 42.8C241.418 42.1833 241.327 41.575 241.26 40.975C241.21 40.3583 241.177 39.7917 241.16 39.275C241.143 38.7417 241.135 38.3167 241.135 38C241.135 36.9 241.193 35.8167 241.31 34.75C241.427 33.6833 241.585 32.6167 241.785 31.55ZM246.01 35.875C246.46 35.975 246.91 36.0417 247.36 36.075C247.827 36.1083 248.293 36.125 248.76 36.125C249.11 36.125 249.518 36.125 249.985 36.125C250.452 36.125 250.893 36.075 251.31 35.975C251.727 35.8583 252.077 35.6667 252.36 35.4C252.66 35.1333 252.81 34.7417 252.81 34.225C252.81 33.6583 252.685 33.2 252.435 32.85C252.202 32.4833 251.885 32.2083 251.485 32.025C251.102 31.825 250.66 31.6917 250.16 31.625C249.677 31.5583 249.177 31.5333 248.66 31.55C248.143 31.5667 247.635 31.6083 247.135 31.675C246.652 31.725 246.218 31.7667 245.835 31.8C245.868 32.4833 245.893 33.1667 245.91 33.85C245.943 34.5167 245.977 35.1917 246.01 35.875ZM264.442 30.975C264.108 30.925 263.708 30.8833 263.242 30.85C262.792 30.8 262.358 30.7167 261.942 30.6C261.525 30.4667 261.175 30.275 260.892 30.025C260.608 29.7583 260.467 29.3917 260.467 28.925C260.467 28.4583 260.592 28.075 260.842 27.775C261.092 27.475 261.417 27.2417 261.817 27.075C262.217 26.8917 262.667 26.7583 263.167 26.675C263.667 26.5917 264.167 26.5417 264.667 26.525C265.183 26.4917 265.667 26.4833 266.117 26.5C266.567 26.5 266.95 26.5 267.267 26.5C267.617 26.5 268.058 26.4833 268.592 26.45C269.142 26.4167 269.667 26.4417 270.167 26.525C270.667 26.5917 271.1 26.7417 271.467 26.975C271.833 27.2083 272.017 27.6 272.017 28.15C272.017 28.5833 271.875 28.95 271.592 29.25C271.325 29.5333 271 29.7667 270.617 29.95C270.233 30.1333 269.817 30.2833 269.367 30.4C268.933 30.5 268.558 30.5833 268.242 30.65C268.275 31.4 268.308 32.15 268.342 32.9C268.392 33.6333 268.417 34.375 268.417 35.125C268.417 35.6083 268.408 36.1 268.392 36.6C268.392 37.0833 268.383 37.5667 268.367 38.05C268.35 38.6833 268.283 39.3083 268.167 39.925C268.05 40.525 267.992 41.1417 267.992 41.775C268.325 41.8583 268.725 41.9583 269.192 42.075C269.675 42.1917 270.133 42.35 270.567 42.55C271.017 42.7333 271.4 42.975 271.717 43.275C272.033 43.5583 272.192 43.925 272.192 44.375C272.192 44.775 272.092 45.1 271.892 45.35C271.692 45.5833 271.425 45.7667 271.092 45.9C270.775 46.0167 270.408 46.0917 269.992 46.125C269.592 46.175 269.183 46.2 268.767 46.2C268.367 46.2 267.975 46.1833 267.592 46.15C267.225 46.1333 266.908 46.125 266.642 46.125C266.325 46.125 265.942 46.1333 265.492 46.15C265.042 46.1667 264.558 46.1667 264.042 46.15C263.542 46.15 263.042 46.1167 262.542 46.05C262.042 45.9833 261.592 45.8667 261.192 45.7C260.808 45.5333 260.492 45.3 260.242 45C259.992 44.6833 259.867 44.2833 259.867 43.8C259.867 43.2333 260.017 42.8 260.317 42.5C260.633 42.2 261.008 41.975 261.442 41.825C261.892 41.675 262.367 41.5833 262.867 41.55C263.383 41.5167 263.842 41.4833 264.242 41.45C264.325 40.7 264.342 39.9667 264.292 39.25C264.258 38.5333 264.242 37.8 264.242 37.05C264.242 36.0333 264.267 35.025 264.317 34.025C264.367 33.0083 264.408 31.9917 264.442 30.975ZM274.208 31.225C274.208 30.875 274.125 30.5583 273.958 30.275C273.808 29.9917 273.733 29.6833 273.733 29.35C273.733 28.9 273.883 28.5167 274.183 28.2C274.483 27.8667 274.867 27.6 275.333 27.4C275.817 27.1833 276.35 27.0167 276.933 26.9C277.517 26.7667 278.092 26.6667 278.658 26.6C279.242 26.5333 279.783 26.4917 280.283 26.475C280.783 26.4583 281.192 26.45 281.508 26.45C282.908 26.45 284.158 26.7 285.258 27.2C286.375 27.7 287.317 28.3833 288.083 29.25C288.85 30.1167 289.433 31.1417 289.833 32.325C290.25 33.4917 290.458 34.7583 290.458 36.125C290.458 37.6083 290.158 38.9833 289.558 40.25C288.958 41.5 288.15 42.5833 287.133 43.5C286.133 44.4 284.958 45.1083 283.608 45.625C282.275 46.1417 280.867 46.4 279.383 46.4C278.95 46.4 278.508 46.35 278.058 46.25C277.625 46.15 277.208 46.0167 276.808 45.85C276.292 45.65 275.883 45.375 275.583 45.025C275.283 44.675 275.125 44.225 275.108 43.675C275.092 42.525 275.033 41.4167 274.933 40.35C274.833 39.2833 274.725 38.2417 274.608 37.225C274.508 36.2083 274.417 35.2083 274.333 34.225C274.25 33.225 274.208 32.225 274.208 31.225ZM278.683 30.9C278.867 32.6333 279.025 34.3667 279.158 36.1C279.292 37.8333 279.333 39.575 279.283 41.325L279.408 41.6C280.308 41.5167 281.125 41.4167 281.858 41.3C282.608 41.1833 283.25 40.9667 283.783 40.65C284.317 40.3333 284.725 39.875 285.008 39.275C285.308 38.6583 285.458 37.8167 285.458 36.75C285.458 35.6333 285.308 34.6583 285.008 33.825C284.725 32.975 284.292 32.2917 283.708 31.775C283.142 31.2583 282.433 30.925 281.583 30.775C280.75 30.6083 279.783 30.65 278.683 30.9ZM311.059 36.625C311.059 37.9417 310.859 39.1917 310.459 40.375C310.059 41.5583 309.476 42.6 308.709 43.5C307.959 44.4 307.026 45.1167 305.909 45.65C304.792 46.1667 303.509 46.425 302.059 46.425C300.526 46.425 299.167 46.1917 297.984 45.725C296.801 45.2583 295.801 44.6 294.984 43.75C294.184 42.9 293.576 41.8917 293.159 40.725C292.742 39.5417 292.534 38.25 292.534 36.85C292.534 35.0333 292.934 33.4083 293.734 31.975C294.534 30.5417 295.742 29.3417 297.359 28.375C297.742 28.1583 298.184 27.975 298.684 27.825C299.184 27.675 299.701 27.5667 300.234 27.5C300.767 27.4167 301.301 27.3583 301.834 27.325C302.367 27.2917 302.859 27.275 303.309 27.275C304.642 27.275 305.834 27.5667 306.884 28.15C307.951 28.7333 308.876 29.5167 309.659 30.5C309.976 30.8833 310.226 31.3333 310.409 31.85C310.592 32.35 310.734 32.875 310.834 33.425C310.934 33.975 310.992 34.5333 311.009 35.1C311.042 35.65 311.059 36.1583 311.059 36.625ZM303.559 32.25C302.926 32.25 302.326 32.2917 301.759 32.375C301.192 32.4583 300.676 32.6167 300.209 32.85C299.759 33.0667 299.359 33.375 299.009 33.775C298.659 34.175 298.384 34.6833 298.184 35.3C298.051 35.7 297.917 36.1083 297.784 36.525C297.667 36.925 297.609 37.3417 297.609 37.775C297.609 39.275 297.967 40.3833 298.684 41.1C299.417 41.8 300.576 42.15 302.159 42.15C303.026 42.15 303.742 42.075 304.309 41.925C304.876 41.775 305.334 41.5333 305.684 41.2C306.051 40.85 306.334 40.4167 306.534 39.9C306.734 39.3667 306.901 38.725 307.034 37.975C307.151 37.225 307.217 36.5083 307.234 35.825C307.267 35.125 307.176 34.5167 306.959 34C306.742 33.4667 306.367 33.0417 305.834 32.725C305.317 32.4083 304.559 32.25 303.559 32.25ZM338.989 36.625C338.989 37.9417 338.789 39.1917 338.389 40.375C337.989 41.5583 337.405 42.6 336.639 43.5C335.889 44.4 334.955 45.1167 333.839 45.65C332.722 46.1667 331.439 46.425 329.989 46.425C328.455 46.425 327.097 46.1917 325.914 45.725C324.73 45.2583 323.73 44.6 322.914 43.75C322.114 42.9 321.505 41.8917 321.089 40.725C320.672 39.5417 320.464 38.25 320.464 36.85C320.464 35.0333 320.864 33.4083 321.664 31.975C322.464 30.5417 323.672 29.3417 325.289 28.375C325.672 28.1583 326.114 27.975 326.614 27.825C327.114 27.675 327.63 27.5667 328.164 27.5C328.697 27.4167 329.23 27.3583 329.764 27.325C330.297 27.2917 330.789 27.275 331.239 27.275C332.572 27.275 333.764 27.5667 334.814 28.15C335.88 28.7333 336.805 29.5167 337.589 30.5C337.905 30.8833 338.155 31.3333 338.339 31.85C338.522 32.35 338.664 32.875 338.764 33.425C338.864 33.975 338.922 34.5333 338.939 35.1C338.972 35.65 338.989 36.1583 338.989 36.625ZM331.489 32.25C330.855 32.25 330.255 32.2917 329.689 32.375C329.122 32.4583 328.605 32.6167 328.139 32.85C327.689 33.0667 327.289 33.375 326.939 33.775C326.589 34.175 326.314 34.6833 326.114 35.3C325.98 35.7 325.847 36.1083 325.714 36.525C325.597 36.925 325.539 37.3417 325.539 37.775C325.539 39.275 325.897 40.3833 326.614 41.1C327.347 41.8 328.505 42.15 330.089 42.15C330.955 42.15 331.672 42.075 332.239 41.925C332.805 41.775 333.264 41.5333 333.614 41.2C333.98 40.85 334.264 40.4167 334.464 39.9C334.664 39.3667 334.83 38.725 334.964 37.975C335.08 37.225 335.147 36.5083 335.164 35.825C335.197 35.125 335.105 34.5167 334.889 34C334.672 33.4667 334.297 33.0417 333.764 32.725C333.247 32.4083 332.489 32.25 331.489 32.25ZM351.144 38C351.294 36.8667 351.369 35.7833 351.369 34.75C351.369 33.7167 351.369 32.6417 351.369 31.525C351.369 31.0583 351.402 30.5833 351.469 30.1C351.535 29.6167 351.66 29.1833 351.844 28.8C352.044 28.4 352.31 28.075 352.644 27.825C352.994 27.575 353.452 27.45 354.019 27.45C354.519 27.45 354.935 27.575 355.269 27.825C355.602 28.075 355.869 28.4 356.069 28.8C356.269 29.1833 356.41 29.6083 356.494 30.075C356.577 30.5417 356.619 30.9833 356.619 31.4C356.619 31.7667 356.585 32.3333 356.519 33.1C356.469 33.8667 356.402 34.7333 356.319 35.7C356.235 36.65 356.135 37.6417 356.019 38.675C355.919 39.6917 355.81 40.6417 355.694 41.525C355.577 42.4083 355.469 43.1667 355.369 43.8C355.285 44.4167 355.21 44.8 355.144 44.95C354.977 45.3667 354.727 45.7167 354.394 46C354.06 46.2667 353.669 46.4 353.219 46.4C352.969 46.4 352.727 46.35 352.494 46.25C352.277 46.1667 352.069 46.0583 351.869 45.925C351.719 45.8083 351.477 45.5417 351.144 45.125C350.827 44.6917 350.469 44.1833 350.069 43.6C349.669 43 349.244 42.3667 348.794 41.7C348.344 41.0167 347.902 40.3583 347.469 39.725C347.052 39.075 346.669 38.4917 346.319 37.975C345.985 37.4417 345.719 37.0417 345.519 36.775C345.502 37.0583 345.485 37.4417 345.469 37.925C345.469 38.3917 345.46 38.9083 345.444 39.475C345.444 40.025 345.435 40.6 345.419 41.2C345.402 41.7833 345.377 42.35 345.344 42.9C345.31 43.4333 345.269 43.9083 345.219 44.325C345.169 44.7417 345.102 45.0583 345.019 45.275C344.885 45.6083 344.685 45.8667 344.419 46.05C344.169 46.25 343.869 46.35 343.519 46.35C342.752 46.35 342.219 45.9833 341.919 45.25C341.835 45.0667 341.76 44.65 341.694 44C341.644 43.35 341.585 42.575 341.519 41.675C341.469 40.7583 341.419 39.7833 341.369 38.75C341.335 37.7167 341.302 36.7333 341.269 35.8C341.235 34.85 341.21 34.0083 341.194 33.275C341.177 32.525 341.169 32 341.169 31.7C341.169 31.2833 341.194 30.85 341.244 30.4C341.31 29.9333 341.427 29.5167 341.594 29.15C341.777 28.7667 342.019 28.45 342.319 28.2C342.635 27.95 343.044 27.825 343.544 27.825C344.377 27.825 345.019 28.225 345.469 29.025C345.569 29.175 345.652 29.325 345.719 29.475C345.785 29.625 345.86 29.7667 345.944 29.9C346.644 31.3667 347.452 32.7583 348.369 34.075C349.285 35.375 350.21 36.6833 351.144 38ZM371.855 31.15C371.855 31.8333 371.763 32.45 371.58 33C371.413 33.55 371.18 34.075 370.88 34.575C370.597 35.0583 370.263 35.5417 369.88 36.025C369.513 36.4917 369.13 36.9833 368.73 37.5C368.463 37.8333 368.255 38.225 368.105 38.675C367.955 39.1083 367.772 39.525 367.555 39.925C367.355 40.325 367.088 40.6667 366.755 40.95C366.422 41.2167 365.947 41.35 365.33 41.35C364.98 41.35 364.663 41.275 364.38 41.125C364.097 40.9583 363.855 40.7583 363.655 40.525C363.472 40.275 363.33 40 363.23 39.7C363.13 39.3833 363.08 39.075 363.08 38.775C363.08 38.225 363.188 37.7167 363.405 37.25C363.638 36.7667 363.922 36.3167 364.255 35.9C364.605 35.4667 364.972 35.05 365.355 34.65C365.755 34.2333 366.122 33.8167 366.455 33.4C366.805 32.9667 367.088 32.5167 367.305 32.05C367.538 31.5833 367.655 31.075 367.655 30.525C367.655 30.1917 367.597 29.925 367.48 29.725C367.363 29.525 367.197 29.375 366.98 29.275C366.78 29.175 366.538 29.1083 366.255 29.075C365.988 29.0417 365.697 29.025 365.38 29.025C364.947 29.025 364.572 29.1083 364.255 29.275C363.938 29.425 363.672 29.6333 363.455 29.9C363.238 30.1667 363.08 30.475 362.98 30.825C362.88 31.1583 362.83 31.5 362.83 31.85C362.83 32.1333 362.872 32.425 362.955 32.725C363.038 33.0083 363.08 33.2917 363.08 33.575C363.08 34.0583 362.905 34.475 362.555 34.825C362.205 35.1583 361.763 35.325 361.23 35.325C360.73 35.325 360.297 35.2083 359.93 34.975C359.563 34.725 359.255 34.4167 359.005 34.05C358.772 33.6667 358.588 33.2583 358.455 32.825C358.338 32.3917 358.28 31.9833 358.28 31.6C358.28 30.7167 358.48 29.8833 358.88 29.1C359.297 28.3167 359.838 27.6333 360.505 27.05C361.188 26.45 361.963 25.9833 362.83 25.65C363.697 25.3 364.597 25.125 365.53 25.125C366.38 25.125 367.188 25.2583 367.955 25.525C368.722 25.775 369.388 26.1417 369.955 26.625C370.538 27.0917 370.997 27.6583 371.33 28.325C371.68 28.975 371.855 29.7083 371.855 30.525V31.15ZM365.255 47.1C364.705 47.1 364.255 46.9333 363.905 46.6C363.555 46.2833 363.38 45.8667 363.38 45.35C363.38 44.8667 363.563 44.4583 363.93 44.125C364.313 43.775 364.763 43.6 365.28 43.6C365.813 43.6 366.263 43.775 366.63 44.125C366.997 44.4583 367.18 44.8667 367.18 45.35C367.18 45.8333 366.988 46.2417 366.605 46.575C366.222 46.925 365.772 47.1 365.255 47.1Z" fill="black"/>
<path d="M846 37H874" stroke="black" stroke-width="2" stroke-linecap="round"/>
<defs>
<filter id="filter0_d_24_50" x="0" y="0" width="920" height="155" filterUnits="userSpaceOnUse" color-interpolation-filters="sRGB">
<feFlood flood-opacity="0" result="BackgroundImageFix"/>
<feColorMatrix in="SourceAlpha" type="matrix" values="0 0 0 0 0 0 0 0 0 0 0 0 0 0 0 0 0 0 127 0" result="hardAlpha"/>
<feOffset dy="6"/>
<feComposite in2="hardAlpha" operator="out"/>
<feColorMatrix type="matrix" values="0 0 0 0 0 0 0 0 0 0 0 0 0 0 0 0 0 0 1 0"/>
<feBlend mode="normal" in2="BackgroundImageFix" result="effect1_dropShadow_24_50"/>
<feBlend mode="normal" in="SourceGraphic" in2="effect1_dropShadow_24_50" result="shape"/>
</filter>
</defs>
</svg>
