<svg width="345" height="98" viewBox="0 0 345 98" fill="none" xmlns="http://www.w3.org/2000/svg">
<g filter="url(#filter0_d_5_18)">
<rect width="345" height="92" rx="10" fill="#9C6419"/>
<rect x="1" y="1" width="343" height="90" rx="9" stroke="black" stroke-width="2"/>
</g>
<path d="M103.695 48.235C103.952 48.6317 104.348 49.18 104.885 49.88C105.445 50.5567 106.005 51.2683 106.565 52.015C107.125 52.7383 107.615 53.4267 108.035 54.08C108.455 54.7333 108.665 55.235 108.665 55.585C108.665 55.9117 108.595 56.2267 108.455 56.53C108.315 56.8333 108.117 57.1017 107.86 57.335C107.627 57.545 107.347 57.72 107.02 57.86C106.717 58 106.39 58.07 106.04 58.07C105.083 58.07 104.22 57.755 103.45 57.125C102.68 56.495 101.992 55.7367 101.385 54.85C100.778 53.9633 100.253 53.0417 99.81 52.085C99.3667 51.1283 99.005 50.3117 98.725 49.635C97.885 49.775 97.0917 49.88 96.345 49.95C96.2517 50.3233 96.1817 50.79 96.135 51.35C96.0883 51.8867 96.0183 52.47 95.925 53.1C95.855 53.7067 95.7617 54.325 95.645 54.955C95.5283 55.5617 95.3533 56.11 95.12 56.6C94.91 57.09 94.6183 57.4983 94.245 57.825C93.8717 58.1283 93.405 58.28 92.845 58.28C92.3783 58.28 91.9583 58.1517 91.585 57.895C91.2117 57.615 90.9317 57.2767 90.745 56.88C90.5117 56.4133 90.325 55.7133 90.185 54.78C90.045 53.8467 89.9283 52.7967 89.835 51.63C89.7417 50.44 89.6717 49.1917 89.625 47.885C89.6017 46.5783 89.5783 45.3183 89.555 44.105C89.555 42.8683 89.555 41.7367 89.555 40.71C89.555 39.66 89.555 38.8083 89.555 38.155C89.205 37.8517 88.89 37.525 88.61 37.175C88.3533 36.825 88.225 36.4167 88.225 35.95C88.225 35.2967 88.435 34.725 88.855 34.235C89.275 33.745 89.8117 33.325 90.465 32.975C91.1417 32.625 91.9 32.345 92.74 32.135C93.58 31.9017 94.42 31.715 95.26 31.575C96.1 31.435 96.8933 31.3417 97.64 31.295C98.3867 31.2483 99.005 31.225 99.495 31.225C100.872 31.225 102.237 31.4 103.59 31.75C104.943 32.1 106.157 32.6367 107.23 33.36C108.327 34.0833 109.202 34.9817 109.855 36.055C110.532 37.1283 110.87 38.3883 110.87 39.835C110.87 40.9317 110.672 41.9117 110.275 42.775C109.902 43.615 109.388 44.3733 108.735 45.05C108.082 45.7033 107.312 46.2983 106.425 46.835C105.562 47.3483 104.652 47.815 103.695 48.235ZM105.025 39.31C105.025 38.7733 104.792 38.33 104.325 37.98C103.858 37.63 103.298 37.3617 102.645 37.175C101.992 36.965 101.327 36.825 100.65 36.755C99.9967 36.685 99.46 36.65 99.04 36.65C98.5967 36.65 98.1533 36.6617 97.71 36.685C97.29 36.7083 96.8583 36.7433 96.415 36.79L96.345 43.51C96.7417 43.51 97.2317 43.475 97.815 43.405C98.4217 43.3117 99.04 43.195 99.67 43.055C100.323 42.915 100.965 42.7283 101.595 42.495C102.248 42.2617 102.82 41.9933 103.31 41.69C103.823 41.3867 104.232 41.0367 104.535 40.64C104.862 40.2433 105.025 39.8 105.025 39.31ZM119.329 52.05C119.259 52.5867 119.224 53.2167 119.224 53.94C119.224 54.64 119.154 55.3283 119.014 56.005C118.874 56.6583 118.617 57.2183 118.244 57.685C117.87 58.1283 117.287 58.35 116.494 58.35C115.677 58.35 115.059 58.1167 114.639 57.65C114.219 57.1833 113.915 56.6117 113.729 55.935C113.565 55.235 113.472 54.5117 113.449 53.765C113.425 53.0183 113.414 52.365 113.414 51.805C113.414 50.7783 113.507 49.5417 113.694 48.095C113.88 46.6483 114.172 45.1433 114.569 43.58C114.965 42.0167 115.467 40.465 116.074 38.925C116.704 37.3617 117.45 35.9617 118.314 34.725C119.177 33.4883 120.169 32.4967 121.289 31.75C122.409 30.98 123.669 30.595 125.069 30.595C126.329 30.595 127.402 30.8633 128.289 31.4C129.175 31.9367 129.899 32.6483 130.459 33.535C131.042 34.4217 131.497 35.4367 131.824 36.58C132.15 37.7 132.395 38.855 132.559 40.045C132.722 41.2117 132.815 42.3667 132.839 43.51C132.885 44.63 132.909 45.6333 132.909 46.52C132.909 46.9867 132.897 47.5933 132.874 48.34C132.85 49.0867 132.792 49.8917 132.699 50.755C132.629 51.6183 132.5 52.4933 132.314 53.38C132.15 54.2667 131.917 55.0717 131.614 55.795C131.31 56.495 130.925 57.0783 130.459 57.545C130.015 57.9883 129.467 58.21 128.814 58.21C127.904 58.21 127.227 57.9533 126.784 57.44C126.364 56.9033 126.072 56.2617 125.909 55.515C125.769 54.745 125.71 53.94 125.734 53.1C125.78 52.26 125.804 51.5367 125.804 50.93L119.329 52.05ZM126.364 46.17C126.434 45.5633 126.492 44.9683 126.539 44.385C126.585 43.7783 126.609 43.1717 126.609 42.565C126.609 42.2383 126.585 41.76 126.539 41.13C126.515 40.5 126.445 39.87 126.329 39.24C126.235 38.5867 126.084 37.9917 125.874 37.455C125.687 36.9183 125.43 36.58 125.104 36.44C124.474 36.8367 123.879 37.4317 123.319 38.225C122.759 39.0183 122.269 39.8933 121.849 40.85C121.429 41.7833 121.09 42.7283 120.834 43.685C120.577 44.6417 120.437 45.4817 120.414 46.205C120.53 46.2283 120.635 46.2517 120.729 46.275C120.822 46.2983 120.927 46.31 121.044 46.31C121.93 46.31 122.817 46.2983 123.704 46.275C124.59 46.2283 125.477 46.1933 126.364 46.17ZM144.309 48.13C143.516 47.2667 142.606 46.2867 141.579 45.19C140.576 44.07 139.619 42.8917 138.709 41.655C137.822 40.395 137.064 39.1117 136.434 37.805C135.827 36.4983 135.524 35.2267 135.524 33.99C135.524 33.1033 135.827 32.3683 136.434 31.785C137.041 31.1783 137.787 30.875 138.674 30.875C139.141 30.875 139.642 31.0733 140.179 31.47C140.716 31.8433 141.252 32.3333 141.789 32.94C142.349 33.5233 142.886 34.1883 143.399 34.935C143.936 35.6817 144.426 36.4283 144.869 37.175C145.336 37.8983 145.756 38.5867 146.129 39.24C146.502 39.87 146.806 40.3833 147.039 40.78C147.179 40.71 147.377 40.4417 147.634 39.975C147.914 39.485 148.229 38.9017 148.579 38.225C148.929 37.5483 149.326 36.8367 149.769 36.09C150.212 35.32 150.679 34.6083 151.169 33.955C151.659 33.3017 152.172 32.765 152.709 32.345C153.269 31.9017 153.841 31.68 154.424 31.68C155.124 31.68 155.742 31.9367 156.279 32.45C156.839 32.9633 157.119 33.57 157.119 34.27C157.119 34.7833 156.979 35.46 156.699 36.3C156.419 37.14 156.081 38.015 155.684 38.925C155.287 39.835 154.879 40.71 154.459 41.55C154.039 42.39 153.701 43.055 153.444 43.545C152.301 45.645 151.251 47.78 150.294 49.95C149.337 52.0967 148.451 54.29 147.634 56.53C147.471 56.9267 147.307 57.3233 147.144 57.72C146.981 58.1167 146.794 58.5133 146.584 58.91C146.327 59.3767 145.989 59.75 145.569 60.03C145.172 60.31 144.706 60.45 144.169 60.45C143.702 60.45 143.306 60.3567 142.979 60.17C142.676 60.0067 142.431 59.7733 142.244 59.47C142.057 59.19 141.917 58.8633 141.824 58.49C141.754 58.1167 141.719 57.7317 141.719 57.335C141.719 56.8217 141.812 56.1567 141.999 55.34C142.209 54.5 142.442 53.6367 142.699 52.75C142.979 51.84 143.259 50.9767 143.539 50.16C143.842 49.32 144.099 48.6433 144.309 48.13ZM159.95 37.315C159.95 36.825 159.833 36.3817 159.6 35.985C159.39 35.5883 159.285 35.1567 159.285 34.69C159.285 34.06 159.495 33.5233 159.915 33.08C160.335 32.6133 160.871 32.24 161.525 31.96C162.201 31.6567 162.948 31.4233 163.765 31.26C164.581 31.0733 165.386 30.9333 166.18 30.84C166.996 30.7467 167.755 30.6883 168.455 30.665C169.155 30.6417 169.726 30.63 170.17 30.63C172.13 30.63 173.88 30.98 175.42 31.68C176.983 32.38 178.301 33.3367 179.375 34.55C180.448 35.7633 181.265 37.1983 181.825 38.855C182.408 40.4883 182.7 42.2617 182.7 44.175C182.7 46.2517 182.28 48.1767 181.44 49.95C180.6 51.7 179.468 53.2167 178.045 54.5C176.645 55.76 175 56.7517 173.11 57.475C171.243 58.1983 169.271 58.56 167.195 58.56C166.588 58.56 165.97 58.49 165.34 58.35C164.733 58.21 164.15 58.0233 163.59 57.79C162.866 57.51 162.295 57.125 161.875 56.635C161.455 56.145 161.233 55.515 161.21 54.745C161.186 53.135 161.105 51.5833 160.965 50.09C160.825 48.5967 160.673 47.1383 160.51 45.715C160.37 44.2917 160.241 42.8917 160.125 41.515C160.008 40.115 159.95 38.715 159.95 37.315ZM166.215 36.86C166.471 39.2867 166.693 41.7133 166.88 44.14C167.066 46.5667 167.125 49.005 167.055 51.455L167.23 51.84C168.49 51.7233 169.633 51.5833 170.66 51.42C171.71 51.2567 172.608 50.9533 173.355 50.51C174.101 50.0667 174.673 49.425 175.07 48.585C175.49 47.7217 175.7 46.5433 175.7 45.05C175.7 43.4867 175.49 42.1217 175.07 40.955C174.673 39.765 174.066 38.8083 173.25 38.085C172.456 37.3617 171.465 36.895 170.275 36.685C169.108 36.4517 167.755 36.51 166.215 36.86ZM191.94 36.965C191.474 36.895 190.914 36.8367 190.26 36.79C189.63 36.72 189.024 36.6033 188.44 36.44C187.857 36.2533 187.367 35.985 186.97 35.635C186.574 35.2617 186.375 34.7483 186.375 34.095C186.375 33.4417 186.55 32.905 186.9 32.485C187.25 32.065 187.705 31.7383 188.265 31.505C188.825 31.2483 189.455 31.0617 190.155 30.945C190.855 30.8283 191.555 30.7583 192.255 30.735C192.979 30.6883 193.655 30.6767 194.285 30.7C194.915 30.7 195.452 30.7 195.895 30.7C196.385 30.7 197.004 30.6767 197.75 30.63C198.52 30.5833 199.255 30.6183 199.955 30.735C200.655 30.8283 201.262 31.0383 201.775 31.365C202.289 31.6917 202.545 32.24 202.545 33.01C202.545 33.6167 202.347 34.13 201.95 34.55C201.577 34.9467 201.122 35.2733 200.585 35.53C200.049 35.7867 199.465 35.9967 198.835 36.16C198.229 36.3 197.704 36.4167 197.26 36.51C197.307 37.56 197.354 38.61 197.4 39.66C197.47 40.6867 197.505 41.725 197.505 42.775C197.505 43.4517 197.494 44.14 197.47 44.84C197.47 45.5167 197.459 46.1933 197.435 46.87C197.412 47.7567 197.319 48.6317 197.155 49.495C196.992 50.335 196.91 51.1983 196.91 52.085C197.377 52.2017 197.937 52.3417 198.59 52.505C199.267 52.6683 199.909 52.89 200.515 53.17C201.145 53.4267 201.682 53.765 202.125 54.185C202.569 54.5817 202.79 55.095 202.79 55.725C202.79 56.285 202.65 56.74 202.37 57.09C202.09 57.4167 201.717 57.6733 201.25 57.86C200.807 58.0233 200.294 58.1283 199.71 58.175C199.15 58.245 198.579 58.28 197.995 58.28C197.435 58.28 196.887 58.2567 196.35 58.21C195.837 58.1867 195.394 58.175 195.02 58.175C194.577 58.175 194.04 58.1867 193.41 58.21C192.78 58.2333 192.104 58.2333 191.38 58.21C190.68 58.21 189.98 58.1633 189.28 58.07C188.58 57.9767 187.95 57.8133 187.39 57.58C186.854 57.3467 186.41 57.02 186.06 56.6C185.71 56.1567 185.535 55.5967 185.535 54.92C185.535 54.1267 185.745 53.52 186.165 53.1C186.609 52.68 187.134 52.365 187.74 52.155C188.37 51.945 189.035 51.8167 189.735 51.77C190.459 51.7233 191.1 51.6767 191.66 51.63C191.777 50.58 191.8 49.5533 191.73 48.55C191.684 47.5467 191.66 46.52 191.66 45.47C191.66 44.0467 191.695 42.635 191.765 41.235C191.835 39.8117 191.894 38.3883 191.94 36.965ZM227.244 45.96C227.244 48.1767 227.01 50.055 226.544 51.595C226.077 53.135 225.33 54.3833 224.304 55.34C223.3 56.2967 222.005 56.9967 220.419 57.44C218.855 57.86 216.965 58.07 214.749 58.07C213.419 58.07 212.205 57.7667 211.109 57.16C210.012 56.53 209.055 55.725 208.239 54.745C207.422 53.765 206.757 52.6683 206.244 51.455C205.754 50.2183 205.462 49.005 205.369 47.815C205.322 47.185 205.275 46.555 205.229 45.925C205.205 45.295 205.194 44.665 205.194 44.035C205.194 43.545 205.205 42.8917 205.229 42.075C205.252 41.235 205.31 40.3367 205.404 39.38C205.52 38.4233 205.672 37.455 205.859 36.475C206.069 35.4717 206.337 34.5733 206.664 33.78C206.99 32.9633 207.399 32.31 207.889 31.82C208.379 31.3067 208.962 31.05 209.639 31.05C210.502 31.05 211.295 31.2483 212.019 31.645C212.742 32.0417 213.197 32.7533 213.384 33.78C213.547 34.7367 213.605 35.8217 213.559 37.035C213.535 38.2483 213.489 39.485 213.419 40.745C213.349 42.005 213.302 43.2533 213.279 44.49C213.255 45.7033 213.325 46.7883 213.489 47.745C213.652 48.7017 213.955 49.4717 214.399 50.055C214.842 50.6383 215.507 50.93 216.394 50.93C217.257 50.93 217.98 50.93 218.564 50.93C219.17 50.9067 219.649 50.79 219.999 50.58C220.349 50.37 220.594 50.02 220.734 49.53C220.897 49.04 220.979 48.3167 220.979 47.36C220.979 46.4267 220.92 45.505 220.804 44.595C220.71 43.6617 220.594 42.74 220.454 41.83C220.337 40.8967 220.22 39.975 220.104 39.065C220.01 38.1317 219.964 37.21 219.964 36.3C219.964 35.81 219.975 35.2733 219.999 34.69C220.045 34.1067 220.174 33.57 220.384 33.08C220.617 32.5667 220.967 32.1467 221.434 31.82C221.9 31.47 222.565 31.295 223.429 31.295C224.292 31.295 224.98 31.5867 225.494 32.17C226.03 32.7533 226.439 33.5117 226.719 34.445C226.999 35.355 227.185 36.3817 227.279 37.525C227.372 38.645 227.407 39.7533 227.384 40.85C227.384 41.9233 227.36 42.9267 227.314 43.86C227.267 44.77 227.244 45.47 227.244 45.96ZM243.411 46.205C243.691 45.5983 244.006 44.8867 244.356 44.07C244.73 43.23 245.126 42.355 245.546 41.445C245.966 40.5117 246.398 39.5667 246.841 38.61C247.285 37.63 247.728 36.7083 248.171 35.845C248.638 34.9583 249.081 34.1533 249.501 33.43C249.945 32.6833 250.353 32.065 250.726 31.575C251.053 31.1783 251.438 30.875 251.881 30.665C252.325 30.455 252.791 30.35 253.281 30.35C254.098 30.35 254.798 30.5483 255.381 30.945C255.965 31.3417 256.361 31.9483 256.571 32.765C256.641 33.0683 256.711 33.675 256.781 34.585C256.851 35.495 256.91 36.5683 256.956 37.805C257.003 39.0183 257.05 40.3367 257.096 41.76C257.143 43.16 257.178 44.5017 257.201 45.785C257.225 47.045 257.236 48.1883 257.236 49.215C257.26 50.2417 257.271 50.9767 257.271 51.42C257.271 51.98 257.248 52.645 257.201 53.415C257.178 54.185 257.061 54.92 256.851 55.62C256.665 56.32 256.35 56.915 255.906 57.405C255.486 57.895 254.891 58.14 254.121 58.14C253.375 58.14 252.78 57.9183 252.336 57.475C251.893 57.0083 251.555 56.425 251.321 55.725C251.111 55.0017 250.971 54.1967 250.901 53.31C250.831 52.4233 250.808 51.5483 250.831 50.685C250.855 49.7983 250.89 48.97 250.936 48.2C251.006 47.43 251.041 46.8 251.041 46.31C251.041 46.0533 251.03 45.785 251.006 45.505C251.006 45.225 250.995 44.9567 250.971 44.7C250.551 45.33 250.061 46.17 249.501 47.22C248.941 48.27 248.323 49.2967 247.646 50.3C246.993 51.3033 246.281 52.1783 245.511 52.925C244.765 53.6483 243.971 54.01 243.131 54.01C242.455 54.01 241.825 53.765 241.241 53.275C240.658 52.785 240.121 52.2017 239.631 51.525C239.141 50.825 238.686 50.1017 238.266 49.355C237.87 48.6083 237.52 47.9783 237.216 47.465C237.123 47.885 237.065 48.4333 237.041 49.11C237.041 49.7867 237.018 50.5217 236.971 51.315C236.948 52.085 236.89 52.8667 236.796 53.66C236.726 54.4533 236.586 55.1767 236.376 55.83C236.19 56.46 235.91 56.9733 235.536 57.37C235.163 57.7667 234.673 57.965 234.066 57.965C232.783 57.965 231.943 57.3233 231.546 56.04C231.336 55.3633 231.15 54.5117 230.986 53.485C230.846 52.4583 230.718 51.3383 230.601 50.125C230.508 48.9117 230.426 47.6633 230.356 46.38C230.31 45.0733 230.263 43.8017 230.216 42.565C230.193 41.3283 230.17 40.1733 230.146 39.1C230.146 38.0033 230.146 37.07 230.146 36.3C230.146 35.67 230.205 35.0633 230.321 34.48C230.438 33.8733 230.636 33.3367 230.916 32.87C231.196 32.4033 231.57 32.03 232.036 31.75C232.526 31.47 233.145 31.33 233.891 31.33C234.638 31.33 235.268 31.5167 235.781 31.89C236.318 32.2633 236.75 32.7767 237.076 33.43C237.496 34.27 237.963 35.285 238.476 36.475C239.013 37.6417 239.561 38.8433 240.121 40.08C240.705 41.2933 241.276 42.4483 241.836 43.545C242.396 44.6417 242.921 45.5283 243.411 46.205Z" fill="white"/>
<defs>
<filter id="filter0_d_5_18" x="0" y="0" width="345" height="98" filterUnits="userSpaceOnUse" color-interpolation-filters="sRGB">
<feFlood flood-opacity="0" result="BackgroundImageFix"/>
<feColorMatrix in="SourceAlpha" type="matrix" values="0 0 0 0 0 0 0 0 0 0 0 0 0 0 0 0 0 0 127 0" result="hardAlpha"/>
<feOffset dy="6"/>
<feComposite in2="hardAlpha" operator="out"/>
<feColorMatrix type="matrix" values="0 0 0 0 0 0 0 0 0 0 0 0 0 0 0 0 0 0 1 0"/>
<feBlend mode="normal" in2="BackgroundImageFix" result="effect1_dropShadow_5_18"/>
<feBlend mode="normal" in="SourceGraphic" in2="effect1_dropShadow_5_18" result="shape"/>
</filter>
</defs>
</svg>
